#VRML V2.0 utf8
# 3D model generated by easyeda2kicad.py (https://github.com/uPesy/easyeda2kicad.py)

Shape{
    appearance Appearance {
        material  Material 	{
            diffuseColor 0.25098039215686274 0.25098039215686274 0.25098039215686274
            specularColor 0.12549019607843137 0.12549019607843137 0.12549019607843137
            ambientIntensity 0.251
            transparency 0.0
            shininess 0.5
        }
    }
    geometry IndexedFaceSet {
        ccw TRUE
        solid FALSE
        coord DEF co Coordinate {
            point [
                -0.1815 -3.4429 0.5022, -0.1815 -3.4429 0.4282, -0.0016 -3.4429 0.4282, -0.1815 -3.4429 0.7986, -0.1815 -3.4429 0.7439, -0.0016 -3.4429 0.7439, 0.0697 -3.4429 0.9869, 0.0839 -3.4429 0.9886, 0.0095 -3.4429 0.9886, 0.2026 -3.4429 0.9655, 0.2026 -3.4429 0.9058, 0.253 -3.4429 0.9058, 0.2141 -3.4429 0.5032, 0.2063 -3.4429 0.5022, 0.253 -3.4429 0.5022, 0.1733 -3.4429 0.5027, 0.1677 -3.4429 0.5047, 0.1677 -3.4429 0.5022, 0.4366 -3.4429 0.588, 0.4366 -3.4429 0.5251, 0.4715 -3.4429 0.5251, -0.3434 -3.4429 0.8413, -0.3074 -3.4429 0.8108, -0.1815 -3.4429 0.9886, -0.4917 -3.4429 0.9886, -0.4612 -3.4429 0.9681, -0.4136 -3.4429 0.9116, -0.3895 -3.4429 0.8632, -0.3829 -3.4429 0.8609, -0.5871 -3.4429 1.0314, -0.5205 -3.4429 1.0079, -0.1815 -3.4429 2.5984, -0.7605 -3.4429 1.0097, -0.6987 -3.4429 1.0311, -2.0291 -3.4429 2.5984, -0.6419 -3.4429 1.0372, -0.7958 -3.4429 0.9886, -2.0291 -3.4429 0.9886, -0.8013 -3.4429 0.9854, -2.0291 -3.4429 0.7986, -1.0866 -3.4429 0.7986, -1.0742 -3.4429 0.8261, -1.043 -3.4429 0.8658, -0.9409 -3.4429 0.9235, -0.8903 -3.4429 0.9296, -0.8325 -3.4429 0.9586, -0.875 -3.4429 0.9287, -0.8597 -3.4429 0.9269, -1.0327 -3.4429 0.8755, -0.9902 -3.4429 0.9049, -1.0102 -3.4429 0.5356, -1.0497 -3.4429 0.5696, -2.0291 -3.4429 0.5022, -0.9625 -3.4429 0.5117, -1.0808 -3.4429 0.6145, -1.0994 -3.4429 0.664, -2.0291 -3.4429 0.7439, -1.1055 -3.4429 0.7144, -1.105 -3.4429 0.7286, -1.1022 -3.4429 0.7439, -1.0957 -3.4429 0.7785, -0.9434 -3.4429 0.5058, -0.9417 -3.4429 0.5022, -0.9301 -3.4429 0.4774, -0.9103 -3.4429 0.453, -0.7622 -3.4429 0.4282, -0.7851 -3.4429 0.4195, -0.1815 -3.4429 0.0, -0.8172 -3.4429 0.4155, -2.0291 -3.4429 0.0, -0.8224 -3.4429 0.4156, -0.8537 -3.4429 0.4205, -2.0291 -3.4429 0.4282, -0.8721 -3.4429 0.4282, -0.8844 -3.4429 0.4334, -0.6927 -3.4429 0.5022, -0.6928 -3.4429 0.5018, -0.7085 -3.4429 0.4722, -0.729 -3.4429 0.4492, -0.7555 -3.4429 0.4308, -0.264 -3.4429 0.7324, -0.258 -3.4429 0.6891, -0.5231 -3.4429 0.5806, -0.514 -3.4429 0.5842, -0.4984 -3.4429 0.6599, -0.3071 -3.4429 0.563, -0.3433 -3.4429 0.5323, -0.7176 -3.4429 0.6373, -0.5396 -3.4429 0.7303, -0.7408 -3.4429 0.6585, -0.769 -3.4429 0.6736, -0.5313 -3.4429 0.5748, -0.2808 -3.4429 0.5996, -0.341 -3.4429 0.6994, -0.3472 -3.4429 0.7249, -0.3574 -3.4429 0.7439, -1.0185 -3.4429 0.7439, -0.2641 -3.4429 0.6417, -0.5037 -3.4429 0.5855, -0.5024 -3.4429 0.5854, -0.4984 -3.4429 0.5846, -1.0107 -3.4429 0.6641, -0.9948 -3.4429 0.6371, -0.9274 -3.4429 0.6234, -0.971 -3.4429 0.6126, -0.9421 -3.4429 0.5948, -0.8782 -3.4429 0.6674, -0.9054 -3.4429 0.6485, -1.0218 -3.4429 0.717, -1.0202 -3.4429 0.6967, -0.8489 -3.4429 0.6786, -0.8172 -3.4429 0.6825, -0.801 -3.4429 0.6815, -0.5449 -3.4429 0.5444, -0.5446 -3.4429 0.5496, -0.6844 -3.4429 0.5616, -0.5419 -3.4429 0.5597, -0.5368 -3.4429 0.5688, -0.3673 -3.4429 0.6176, -0.3527 -3.4429 0.6383, -0.3435 -3.4429 0.662, -0.3403 -3.4429 0.6878, -0.5139 -3.4429 0.5044, -0.5227 -3.4429 0.5078, -0.5313 -3.4429 0.514, -0.5344 -3.4429 0.5171, -0.5401 -3.4429 0.5255, -0.5436 -3.4429 0.5345, -0.6851 -3.4429 0.5346, -0.6844 -3.4429 0.5483, -0.3838 -3.4429 0.5125, -0.428 -3.4429 0.5032, -0.5064 -3.4429 0.5032, -0.4958 -3.4429 0.5842, -0.436 -3.4429 0.5842, -0.4122 -3.4429 0.5888, -0.3888 -3.4429 0.5996, -0.3691 -3.4429 0.6156, -0.4546 -3.4429 0.7914, -1.0064 -3.4429 0.7788, -1.0178 -3.4429 0.7492, -0.444 -3.4429 0.7914, -0.3595 -3.4429 0.7478, -0.3749 -3.4429 0.765, -0.3955 -3.4429 0.7794, -0.4187 -3.4429 0.7883, -0.4831 -3.4429 0.8711, -0.5131 -3.4429 0.9069, -0.8185 -3.4429 0.8299, -0.5166 -3.4429 0.9101, -0.5539 -3.4429 0.936, -0.7983 -3.4429 0.8719, -0.9926 -3.4429 0.7986, -0.8281 -3.4429 0.8352, -0.4562 -3.4429 0.7986, -0.4627 -3.4429 0.8283, -0.8579 -3.4429 0.846, -0.8889 -3.4429 0.8499, -0.9027 -3.4429 0.8492, -0.7685 -3.4429 0.9075, -0.5955 -3.4429 0.9519, -0.7328 -3.4429 0.9336, -0.6405 -3.4429 0.9575, -0.6894 -3.4429 0.9512, -0.9355 -3.4429 0.8414, -0.9651 -3.4429 0.8257, -0.988 -3.4429 0.8053, -0.2986 -3.4429 0.7986, -0.2803 -3.4429 0.773, -0.2686 -3.4429 0.7439, 0.5129 -3.4429 0.5251, 0.5129 -3.4429 0.5038, 0.5306 -3.4429 0.5022, 0.4715 -3.4429 0.5022, 0.5306 -3.4429 0.7439, 0.5087 -3.4429 0.6907, 0.5087 -3.4429 0.6692, 0.5034 -3.4429 0.6094, 0.5034 -3.4429 0.588, 0.4715 -3.4429 0.588, 0.4715 -3.4429 0.6692, 0.4715 -3.4429 0.6094, 0.4366 -3.4429 0.6692, 0.4366 -3.4429 0.6094, 0.4715 -3.4429 0.5038, 0.4124 -3.4429 0.5038, 0.3998 -3.4429 0.5022, 0.4124 -3.4429 0.6907, 0.0266 -3.4429 0.5666, 0.0309 -3.4429 0.6052, 0.0218 -3.4429 0.559, 0.019 -3.4429 0.5504, 0.0826 -3.4429 0.6205, 0.0747 -3.4429 0.6213, 0.0622 -3.4429 0.5831, 0.1568 -3.4429 0.5327, 0.1251 -3.4429 0.5897, 0.1568 -3.4429 0.5085, 0.1251 -3.4429 0.5038, 0.0887 -3.4429 0.5099, 0.0823 -3.4429 0.5057, 0.1017 -3.4429 0.5038, 0.0731 -3.4429 0.5022, 0.0335 -3.4429 0.5729, 0.0429 -3.4429 0.5781, 0.0471 -3.4429 0.6153, 0.0617 -3.4429 0.6201, 0.0095 -3.4429 0.4282, 0.0466 -3.4429 0.5022, 0.0095 -3.4429 0.5022, 0.0462 -3.4429 0.5023, 0.0372 -3.4429 0.5057, 0.0531 -3.4429 0.6374, 0.0095 -3.4429 0.7439, 0.0358 -3.4429 0.6307, 0.0309 -3.4429 0.6279, 0.0294 -3.4429 0.5112, 0.0268 -3.4429 0.5138, 0.0219 -3.4429 0.5209, 0.1669 -3.4429 0.5265, 0.1677 -3.4429 0.5263, 0.1677 -3.4429 0.576, 0.1017 -3.4429 0.5245, 0.1011 -3.4429 0.5245, 0.0963 -3.4429 0.5174, 0.0191 -3.4429 0.5288, 0.0179 -3.4429 0.5395, 0.158 -3.4429 0.5921, 0.1229 -3.4429 0.6093, 0.157 -3.4429 0.6013, 0.1017 -3.4429 0.5886, 0.1009 -3.4429 0.599, 0.0985 -3.4429 0.6073, 0.0957 -3.4429 0.6121, 0.0769 -3.4429 0.6403, 0.0929 -3.4429 0.6386, 0.1023 -3.4429 0.6354, 0.1579 -3.4429 0.6096, 0.1607 -3.4429 0.6171, 0.119 -3.4429 0.6193, 0.165 -3.4429 0.6235, 0.1141 -3.4429 0.6266, 0.1098 -3.4429 0.6307, 0.1674 -3.4429 0.5761, 0.1636 -3.4429 0.5801, 0.1606 -3.4429 0.585, 0.0922 -3.4429 0.6159, 0.0881 -3.4429 0.6186, 0.1779 -3.4429 0.5022, 0.1677 -3.4429 0.4282, 0.193 -3.4429 0.5007, 0.2406 -3.4429 0.6344, 0.2406 -3.4429 0.6117, 0.2335 -3.4429 0.5672, 0.2391 -3.4429 0.5622, 0.1677 -3.4429 0.6258, 0.1677 -3.4429 0.7439, 0.172 -3.4429 0.6297, 0.1778 -3.4429 0.6333, 0.2458 -3.4429 0.5307, 0.243 -3.4429 0.5233, 0.2386 -3.4429 0.5171, 0.1903 -3.4429 0.6381, 0.2089 -3.4429 0.6403, 0.253 -3.4429 0.7439, 0.2254 -3.4429 0.6389, 0.2435 -3.4429 0.5557, 0.246 -3.4429 0.5488, 0.247 -3.4429 0.5401, 0.1889 -3.4429 0.5889, 0.2089 -3.4429 0.5795, 0.2066 -3.4429 0.6213, 0.2319 -3.4429 0.5113, 0.2264 -3.4429 0.5079, 0.218 -3.4429 0.5758, 0.2342 -3.4429 0.6152, 0.2209 -3.4429 0.6198, 0.1997 -3.4429 0.6208, 0.1935 -3.4429 0.6191, 0.1811 -3.4429 0.6034, 0.1882 -3.4429 0.6163, 0.1813 -3.4429 0.6002, 0.1822 -3.4429 0.5966, 0.1839 -3.4429 0.5934, 0.1862 -3.4429 0.5909, 0.1847 -3.4429 0.6132, 0.1827 -3.4429 0.6102, 0.1815 -3.4429 0.6071, 0.1816 -3.4429 0.5213, 0.1924 -3.4429 0.5625, 0.1785 -3.4429 0.5689, 0.1953 -3.4429 0.5198, 0.1964 -3.4429 0.5198, 0.2078 -3.4429 0.556, 0.2084 -3.4429 0.5211, 0.2229 -3.4429 0.5378, 0.2227 -3.4429 0.5407, 0.2144 -3.4429 0.5233, 0.2165 -3.4429 0.5246, 0.2192 -3.4429 0.527, 0.2213 -3.4429 0.53, 0.2224 -3.4429 0.5334, 0.2216 -3.4429 0.5444, 0.2198 -3.4429 0.5475, 0.2169 -3.4429 0.5505, 0.5991 -3.4429 0.8513, 0.5306 -3.4429 0.8513, 0.6182 -3.4429 0.8002, 0.5306 -3.4429 0.7986, 0.6448 -3.4429 0.8002, 2.9528 -3.4429 0.7986, 2.9528 -3.4429 0.9886, 0.5737 -3.4429 0.987, 0.5306 -3.4429 0.9886, 0.5213 -3.4429 0.8513, 0.5034 -3.4429 0.8002, 0.4715 -3.4429 0.7986, 0.4767 -3.4429 0.8002, 0.4715 -3.4429 0.9886, 0.5306 -3.4429 0.9416, 0.5479 -3.4429 0.987, 0.3998 -3.4429 0.7986, 0.3974 -3.4429 0.8041, 0.3656 -3.4429 0.8002, 0.3675 -3.4429 0.987, 0.3998 -3.4429 0.9886, 0.2966 -3.4429 0.9886, 0.2966 -3.4429 0.7986, 0.3142 -3.4429 0.8002, 0.3142 -3.4429 0.987, 0.4613 -3.4429 0.8622, 0.4521 -3.4429 0.8429, 0.4447 -3.4429 0.9559, 0.4563 -3.4429 0.9396, 0.4382 -3.4429 0.8264, 0.4187 -3.4429 0.8124, 0.3998 -3.4429 0.805, 0.4382 -3.4429 0.9623, 0.3961 -3.4429 0.9839, 0.3998 -3.4429 0.9825, 0.4186 -3.4429 0.9757, 0.4632 -3.4429 0.9218, 0.4664 -3.4429 0.896, 0.4658 -3.4429 0.8841, 0.253 -3.4429 0.9886, 0.2747 -3.4429 0.987, 0.253 -3.4429 0.987, 0.2026 -3.4429 0.8215, 0.253 -3.4429 0.8215, 0.2026 -3.4429 0.8844, 0.253 -3.4429 0.8844, 0.2694 -3.4429 0.8844, 0.279 -3.4429 0.8215, 0.2694 -3.4429 0.9058, 0.2747 -3.4429 0.9655, 0.253 -3.4429 0.9655, 0.1785 -3.4429 0.8002, 0.1677 -3.4429 0.7986, 0.253 -3.4429 0.7986, 0.279 -3.4429 0.8002, 0.253 -3.4429 0.8002, 0.1785 -3.4429 0.987, 0.1677 -3.4429 0.9886, 0.1168 -3.4429 0.9886, 0.1213 -3.4429 0.9883, 0.1411 -3.4429 0.9826, 0.1411 -3.4429 0.9573, 0.1411 -3.4429 0.8311, 0.1411 -3.4429 0.8079, 0.1379 -3.4429 0.8064, 0.1178 -3.4429 0.7998, 0.1058 -3.4429 0.7986, 0.12 -3.4429 0.9657, 0.097 -3.4429 0.9684, 0.139 -3.4429 0.9585, 0.0874 -3.4429 0.9679, 0.0714 -3.4429 0.9643, 0.057 -3.4429 0.957, 0.0461 -3.4429 0.9477, 0.0449 -3.4429 0.9464, 0.0359 -3.4429 0.9334, 0.0296 -3.4429 0.9173, 0.0265 -3.4429 0.8915, 0.0269 -3.4429 0.882, 0.0303 -3.4429 0.8639, 0.1016 -3.4429 0.8189, 0.1227 -3.4429 0.8228, 0.0608 -3.4429 0.8259, 0.0741 -3.4429 0.8208, 0.0928 -3.4429 0.8185, 0.0367 -3.4429 0.8492, 0.0448 -3.4429 0.8382, 0.0486 -3.4429 0.8345, 0.0968 -3.4429 0.9902, 0.0095 -3.4429 2.5984, 0.1677 -3.4429 2.5984, 0.0968 -3.4429 0.9902, 0.0146 -3.4429 0.945, 0.0282 -3.4429 0.9627, 0.0327 -3.4429 0.967, 0.0502 -3.4429 0.9793, 0.0095 -3.4429 0.8477, 0.0049 -3.4429 0.8596, -0.0016 -3.4429 0.7986, 0.0012 -3.4429 0.8901, 0.0015 -3.4429 0.8998, -0.0016 -3.4429 0.9886, 0.0058 -3.4429 0.9242, 0.0095 -3.4429 0.9331, 0.0402 -3.4429 0.8101, 0.0252 -3.4429 0.8226, 0.0095 -3.4429 0.7986, 0.0237 -3.4429 0.8242, 0.0125 -3.4429 0.8401, 0.0894 -3.4429 0.7971, 0.0781 -3.4429 0.7976, 0.073 -3.4429 0.7986, 0.0578 -3.4429 0.8018, 0.0729 -3.4429 0.5022, 0.0602 -3.4429 0.5007, 0.363 -3.4429 0.6373, 0.3872 -3.4429 0.6373, 0.3998 -3.4429 0.7439, 0.4715 -3.4429 0.6907, 0.4715 -3.4429 0.7439, 0.334 -3.4429 0.5022, 0.3202 -3.4429 0.537, 0.323 -3.4429 0.526, 0.3237 -3.4429 0.526, 0.2966 -3.4429 0.7439, 0.2966 -3.4429 0.6048, 0.3265 -3.4429 0.5368, 0.3247 -3.4429 0.5306, 0.2966 -3.4429 0.5022, 0.2966 -3.4429 0.542, 0.2591 -3.4429 0.6373, 0.2853 -3.4429 0.6373, 0.3115 -3.4429 0.5041, 0.3107 -3.4429 0.5022, 0.3012 -3.4429 0.4799, 0.253 -3.4429 0.4282, 0.264 -3.4429 0.4429, 0.264 -3.4429 0.4637, 0.2921 -3.4429 0.4665, 0.2965 -3.4429 0.4713, 0.2966 -3.4429 0.4714, 0.2687 -3.4429 0.4621, 0.2772 -3.4429 0.461, 0.2966 -3.4429 0.4451, 0.2885 -3.4429 0.4421, 0.2966 -3.4429 0.4282, 0.279 -3.4429 0.441, 0.2739 -3.4429 0.4412, 0.2833 -3.4429 0.4618, 0.2884 -3.4429 0.4638, 0.3267 -3.4429 0.4837, 0.3161 -3.4429 0.463, 0.3998 -3.4429 0.4282, 0.3075 -3.4429 0.4528, 0.3059 -3.4429 0.4513, 0.2977 -3.4429 0.4456, -2.9528 -3.4429 0.0, -2.9528 -3.4429 0.4282, -2.9528 -3.4429 0.5022, -2.9528 -3.4429 0.7439, -2.9528 -3.4429 0.7986, -2.9528 -3.4429 0.9886, -2.9528 -3.4429 2.5984, -0.0064 -3.4429 0.8215, -0.0064 -3.4429 0.8002, -0.105 -3.4429 0.8002, -0.0809 -3.4429 0.987, -0.0809 -3.4429 0.8215, -0.105 -3.4429 0.987, -0.0016 -3.4429 0.5022, -0.0045 -3.4429 0.5038, -0.105 -3.4429 0.5038, -0.0045 -3.4429 0.5251, -0.0087 -3.4429 0.6692, -0.0809 -3.4429 0.588, -0.0809 -3.4429 0.5251, -0.014 -3.4429 0.588, -0.014 -3.4429 0.6094, -0.0809 -3.4429 0.6094, -0.0809 -3.4429 0.6692, -0.105 -3.4429 0.6907, -0.0087 -3.4429 0.6907, -0.0016 -3.4429 2.5984, 0.253 -3.4429 2.5984, 0.2966 -3.4429 2.5984, 0.3998 -3.4429 2.5984, 0.4715 -3.4429 2.5984, 0.5306 -3.4429 2.5984, 2.9528 -3.4429 2.5984, 0.5482 -3.4429 0.5038, 0.5482 -3.4429 0.6907, 0.5996 -3.4429 0.5038, 0.8521 -3.4429 0.5038, 0.8788 -3.4429 0.5038, 2.9528 -3.4429 0.5022, 0.8076 -3.4429 0.6907, 2.9528 -3.4429 0.7439, 0.8331 -3.4429 0.5549, 0.7553 -3.4429 0.5549, 0.7373 -3.4429 0.5038, 0.7107 -3.4429 0.5038, 0.7818 -3.4429 0.6907, 0.686 -3.4429 0.5465, 0.6721 -3.4429 0.53, 0.6527 -3.4429 0.516, 0.6314 -3.4429 0.5077, 0.6721 -3.4429 0.6659, 0.6787 -3.4429 0.6595, 0.6903 -3.4429 0.6432, 0.6972 -3.4429 0.6254, 0.6015 -3.4429 0.6907, 0.63 -3.4429 0.6875, 0.6526 -3.4429 0.6793, 0.7003 -3.4429 0.5996, 0.6998 -3.4429 0.5877, 0.6952 -3.4429 0.5659, 0.4715 -3.4429 0.4282, 0.5306 -3.4429 0.4282, 2.9528 -3.4429 0.4282, -0.0016 -3.4429 0.0, 0.0095 -3.4429 0.0, 0.1677 -3.4429 0.0, 0.253 -3.4429 0.0, 0.2966 -3.4429 0.0, 0.3998 -3.4429 0.0, 0.4715 -3.4429 0.0, 0.5306 -3.4429 0.0, 2.9528 -3.4429 0.0, -3.3465 2.4626 0.0394, -3.3465 2.1673 0.0394, -3.3465 2.1673 1.3504, -3.3465 -2.1634 1.3504, -3.3465 -3.0492 2.5984, -3.3465 3.0531 2.5984, -3.3465 3.0531 0.0, -3.3465 2.4626 0.0, -3.3465 -2.4587 0.0, -3.3465 -3.0492 0.0, -3.3465 -2.4587 0.0394, -3.3465 -2.1634 0.0394, -2.2441 -2.4587 0.0, -2.2441 2.4626 0.0, 2.2441 2.4626 0.0, 2.2441 -2.4587 0.0, 3.0547 -3.4295 0.0, 3.3465 -3.0492 0.0, 3.3465 -2.4587 0.0, 2.9528 3.4469 0.0, -2.9528 3.4469 0.0, -3.333 3.155 0.0, -3.2937 3.25 0.0, 3.0547 3.4334 0.0, -3.333 -3.1511 0.0, -3.2311 3.3315 0.0, -3.1496 3.3941 0.0, -3.0547 3.4334 0.0, 3.1496 3.3941 0.0, 3.2311 3.3315 0.0, 3.2937 3.25 0.0, 3.333 3.155 0.0, 3.3465 3.0531 0.0, 3.3465 2.4626 0.0, 3.333 -3.1511 0.0, 3.2937 -3.2461 0.0, 3.2311 -3.3276 0.0, 3.1496 -3.3902 0.0, -3.0547 -3.4295 0.0, -3.1496 -3.3902 0.0, -3.2311 -3.3276 0.0, -3.2937 -3.2461 0.0, 3.3465 3.0531 2.5984, 3.3366 3.1408 2.5984, 3.3317 3.1546 2.5984, 3.3075 3.224 2.5984, 3.2918 3.2488 2.5984, 3.2606 3.2986 2.5984, 3.2294 3.3298 2.5984, 3.1982 3.361 2.5984, 3.1484 3.3922 2.5984, 3.1236 3.4079 2.5984, 3.0542 3.4321 2.5984, 3.0404 3.437 2.5984, 2.9528 3.4469 2.5984, -2.9528 3.4469 2.5984, -3.0404 3.437 2.5984, -3.0542 3.4321 2.5984, -3.1236 3.4079 2.5984, -3.1484 3.3922 2.5984, -3.1982 3.361 2.5984, -3.2294 3.3298 2.5984, -3.2606 3.2986 2.5984, -3.2918 3.2488 2.5984, -3.3075 3.224 2.5984, -3.3317 3.1546 2.5984, -3.3366 3.1408 2.5984, -3.3366 -3.1368 2.5984, -3.3317 -3.1507 2.5984, -3.3075 -3.22 2.5984, -3.2918 -3.2449 2.5984, -3.2606 -3.2947 2.5984, -3.2294 -3.3259 2.5984, -3.1982 -3.357 2.5984, -3.1484 -3.3883 2.5984, -3.1236 -3.4039 2.5984, -3.0542 -3.4282 2.5984, -3.0404 -3.433 2.5984, 3.0404 -3.433 2.5984, 3.0542 -3.4282 2.5984, 3.1236 -3.4039 2.5984, 3.1484 -3.3883 2.5984, 3.1982 -3.357 2.5984, 3.2294 -3.3259 2.5984, 3.2606 -3.2947 2.5984, 3.2918 -3.2449 2.5984, 3.3075 -3.22 2.5984, 3.3317 -3.1507 2.5984, 3.3366 -3.1368 2.5984, 3.3465 -3.0492 2.5984, 3.3465 -2.4587 0.0394, 3.3465 2.4626 0.0394, 3.3465 2.1673 0.0394, 3.3465 -2.1634 0.0394, 3.3465 -2.1634 1.3504, 3.3465 2.1673 1.3504, 2.9528 3.3681 2.6772, 3.2677 -3.0492 2.6772, 3.2677 3.0531 2.6772, -3.2677 -3.0492 2.6772, -2.9528 3.3681 2.6772, -3.2677 3.0531 2.6772, -3.2598 -3.1193 2.6772, -3.2365 -3.1859 2.6772, -3.199 -3.2456 2.6772, -3.0894 -3.333 2.6772, -3.0228 -3.3563 2.6772, -2.9528 -3.3642 2.6772, 2.9528 -3.3642 2.6772, -3.1491 -3.2955 2.6772, 3.2598 3.1232 2.6772, 3.0894 3.3369 2.6772, 3.0228 3.3602 2.6772, 3.2365 3.1898 2.6772, 3.199 3.2495 2.6772, 3.1491 3.2994 2.6772, 3.199 -3.2456 2.6772, 3.2365 -3.1859 2.6772, 3.1491 -3.2955 2.6772, 3.0894 -3.333 2.6772, 3.0228 -3.3563 2.6772, 3.2598 -3.1193 2.6772, -3.0228 3.3602 2.6772, -3.2365 3.1898 2.6772, -3.2598 3.1232 2.6772, -3.0894 3.3369 2.6772, -3.1491 3.2994 2.6772, -3.199 3.2495 2.6772, -3.3438 -3.0492 2.6188, -3.3438 3.0531 2.6188, -3.3359 -3.0492 2.6378, -3.3359 3.0531 2.6378, -3.3234 -3.0492 2.6541, -3.3234 3.0531 2.6541, -3.3071 -3.0492 2.6666, -3.3071 3.0531 2.6666, -3.2881 -3.0492 2.6745, -3.2881 3.0531 2.6745, -3.2797 -3.1238 2.6745, -3.2982 -3.1281 2.6666, -3.3141 -3.1317 2.6541, -3.3263 -3.1345 2.6378, -3.334 -3.1362 2.6188, -3.3051 -3.2189 2.6188, -3.2585 -3.293 2.6188, -3.1966 -3.3549 2.6188, -3.1224 -3.4015 2.6188, -3.0398 -3.4304 2.6188, -2.9528 -3.4402 2.6188, -3.298 -3.2155 2.6378, -3.2523 -3.2881 2.6378, -3.1916 -3.3488 2.6378, -3.119 -3.3944 2.6378, -3.038 -3.4228 2.6378, -2.9528 -3.4324 2.6378, -3.2867 -3.21 2.6541, -3.2425 -3.2803 2.6541, -3.1838 -3.339 2.6541, -3.1136 -3.3831 2.6541, -3.0352 -3.4106 2.6541, -2.9528 -3.4199 2.6541, -3.272 -3.203 2.6666, -3.2298 -3.2701 2.6666, -3.1737 -3.3262 2.6666, -3.1065 -3.3685 2.6666, -3.0316 -3.3947 2.6666, -2.9528 -3.4035 2.6666, -3.2549 -3.1947 2.6745, -3.2149 -3.2583 2.6745, -3.1618 -3.3114 2.6745, -3.0983 -3.3513 2.6745, -3.0274 -3.3761 2.6745, -2.9528 -3.3846 2.6745, -2.9528 3.3885 2.6745, -3.0274 3.3801 2.6745, -2.9528 3.4075 2.6666, -3.0316 3.3986 2.6666, -2.9528 3.4238 2.6541, -3.0352 3.4145 2.6541, -2.9528 3.4363 2.6378, -3.038 3.4267 2.6378, -2.9528 3.4442 2.6188, -3.0398 3.4344 2.6188, -3.1224 3.4054 2.6188, -3.1966 3.3589 2.6188, -3.2585 3.2969 2.6188, -3.3051 3.2228 2.6188, -3.334 3.1402 2.6188, -3.119 3.3984 2.6378, -3.1916 3.3527 2.6378, -3.2523 3.292 2.6378, -3.298 3.2194 2.6378, -3.3263 3.1384 2.6378, -3.1136 3.3871 2.6541, -3.1838 3.3429 2.6541, -3.2425 3.2842 2.6541, -3.2867 3.214 2.6541, -3.3141 3.1356 2.6541, -3.1065 3.3724 2.6666, -3.1737 3.3302 2.6666, -3.2298 3.2741 2.6666, -3.272 3.2069 2.6666, -3.2982 3.132 2.6666, -3.0983 3.3553 2.6745, -3.1618 3.3153 2.6745, -3.2149 3.2622 2.6745, -3.2549 3.1986 2.6745, -3.2797 3.1278 2.6745, 2.9528 -3.4402 2.6188, 2.9528 -3.4324 2.6378, 2.9528 -3.4199 2.6541, 2.9528 -3.4035 2.6666, 2.9528 -3.3846 2.6745, 2.9528 3.4442 2.6188, 2.9528 3.4363 2.6378, 2.9528 3.4238 2.6541, 2.9528 3.4075 2.6666, 2.9528 3.3885 2.6745, 3.0274 -3.3761 2.6745, 3.0316 -3.3947 2.6666, 3.0352 -3.4106 2.6541, 3.038 -3.4228 2.6378, 3.0398 -3.4304 2.6188, 3.1224 -3.4015 2.6188, 3.1966 -3.3549 2.6188, 3.2585 -3.293 2.6188, 3.3051 -3.2189 2.6188, 3.334 -3.1362 2.6188, 3.3438 -3.0492 2.6188, 3.119 -3.3944 2.6378, 3.1916 -3.3488 2.6378, 3.2523 -3.2881 2.6378, 3.298 -3.2155 2.6378, 3.3263 -3.1345 2.6378, 3.3359 -3.0492 2.6378, 3.1136 -3.3831 2.6541, 3.1838 -3.339 2.6541, 3.2425 -3.2803 2.6541, 3.2867 -3.21 2.6541, 3.3141 -3.1317 2.6541, 3.3234 -3.0492 2.6541, 3.1065 -3.3685 2.6666, 3.1737 -3.3262 2.6666, 3.2298 -3.2701 2.6666, 3.272 -3.203 2.6666, 3.2982 -3.1281 2.6666, 3.3071 -3.0492 2.6666, 3.0983 -3.3513 2.6745, 3.1618 -3.3114 2.6745, 3.2149 -3.2583 2.6745, 3.2549 -3.1947 2.6745, 3.2797 -3.1238 2.6745, 3.2881 -3.0492 2.6745, 3.2881 3.0531 2.6745, 3.2797 3.1278 2.6745, 3.3071 3.0531 2.6666, 3.2982 3.132 2.6666, 3.3234 3.0531 2.6541, 3.3141 3.1356 2.6541, 3.3359 3.0531 2.6378, 3.3263 3.1384 2.6378, 3.3438 3.0531 2.6188, 3.334 3.1402 2.6188, 3.3051 3.2228 2.6188, 3.2585 3.2969 2.6188, 3.1966 3.3589 2.6188, 3.1224 3.4054 2.6188, 3.0398 3.4344 2.6188, 3.298 3.2194 2.6378, 3.2523 3.292 2.6378, 3.1916 3.3527 2.6378, 3.119 3.3984 2.6378, 3.038 3.4267 2.6378, 3.2867 3.214 2.6541, 3.2425 3.2842 2.6541, 3.1838 3.3429 2.6541, 3.1136 3.3871 2.6541, 3.0352 3.4145 2.6541, 3.272 3.2069 2.6666, 3.2298 3.2741 2.6666, 3.1737 3.3302 2.6666, 3.1065 3.3724 2.6666, 3.0316 3.3986 2.6666, 3.2549 3.1986 2.6745, 3.2149 3.2622 2.6745, 3.1618 3.3153 2.6745, 3.0983 3.3553 2.6745, 3.0274 3.3801 2.6745, 2.6575 -2.1634 0.0394, 2.2441 -2.4587 0.0394, 2.6575 2.1673 0.0394, 2.2441 2.4626 0.0394, -2.6575 2.1673 0.0394, -2.2441 2.4626 0.0394, -2.6575 -2.1634 0.0394, -2.2441 -2.4587 0.0394
            ]
        }
        coordIndex [
            0,1,2,-1,3,4,5,-1,6,7,8,-1,9,10,11,-1,12,13,14,-1,15,16,17,-1,18,19,20,-1,21,22,23,-1,23,22,3,-1,24,25,23,-1,23,25,26,-1,26,27,23,-1,23,27,28,-1,23,28,21,-1,29,30,31,-1,32,33,34,-1,34,33,31,-1,31,33,35,-1,31,35,29,-1,32,34,36,-1,36,34,37,-1,36,37,38,-1,39,40,37,-1,37,40,41,-1,37,41,42,-1,37,43,38,-1,38,43,44,-1,38,44,45,-1,45,44,46,-1,45,46,47,-1,42,48,37,-1,37,48,49,-1,37,49,43,-1,50,51,52,-1,50,52,53,-1,51,54,52,-1,52,54,55,-1,52,55,56,-1,56,55,57,-1,57,58,56,-1,56,58,59,-1,56,59,39,-1,39,59,60,-1,39,60,40,-1,61,53,62,-1,62,53,52,-1,62,52,63,-1,63,52,64,-1,65,66,67,-1,67,66,68,-1,67,68,69,-1,68,70,69,-1,69,70,71,-1,69,71,72,-1,72,71,73,-1,72,73,52,-1,52,73,74,-1,52,74,64,-1,0,75,1,-1,1,75,76,-1,1,76,77,-1,77,78,1,-1,1,78,79,-1,1,79,65,-1,80,81,4,-1,82,83,84,-1,85,86,0,-1,87,88,89,-1,89,88,90,-1,82,84,91,-1,85,0,92,-1,93,94,88,-1,88,94,95,-1,88,95,96,-1,4,81,0,-1,0,81,97,-1,0,97,92,-1,83,98,84,-1,84,98,99,-1,84,99,100,-1,101,102,103,-1,103,102,104,-1,103,104,105,-1,106,96,107,-1,107,96,108,-1,107,108,103,-1,103,108,109,-1,103,109,101,-1,106,110,96,-1,96,110,111,-1,96,111,88,-1,88,111,112,-1,88,112,90,-1,113,114,115,-1,115,114,116,-1,115,116,84,-1,84,116,117,-1,84,117,91,-1,118,119,84,-1,84,119,120,-1,84,120,88,-1,88,120,121,-1,88,121,93,-1,122,123,75,-1,75,123,124,-1,75,124,125,-1,125,126,75,-1,75,126,127,-1,75,127,128,-1,128,127,113,-1,128,113,129,-1,129,113,115,-1,86,130,0,-1,0,130,131,-1,0,131,75,-1,75,131,132,-1,75,132,122,-1,100,133,84,-1,84,133,134,-1,84,134,135,-1,135,136,84,-1,84,136,137,-1,84,137,118,-1,138,139,140,-1,140,96,138,-1,138,96,95,-1,138,95,141,-1,141,95,142,-1,142,143,141,-1,141,143,144,-1,141,144,145,-1,146,147,148,-1,147,149,148,-1,148,149,150,-1,148,150,151,-1,152,148,153,-1,139,138,152,-1,152,138,154,-1,152,154,148,-1,148,154,155,-1,148,155,146,-1,153,156,152,-1,152,156,157,-1,152,157,158,-1,151,150,159,-1,159,150,160,-1,159,160,161,-1,161,160,162,-1,161,162,163,-1,164,165,158,-1,158,165,166,-1,158,166,152,-1,22,167,3,-1,3,167,168,-1,3,168,4,-1,4,168,169,-1,4,169,80,-1,170,171,172,-1,172,171,173,-1,174,175,176,-1,177,178,170,-1,170,178,20,-1,20,178,179,-1,20,179,18,-1,176,180,181,-1,181,180,182,-1,181,182,183,-1,171,184,173,-1,173,184,185,-1,173,185,186,-1,186,185,187,-1,188,189,190,-1,190,189,191,-1,192,193,194,-1,195,196,197,-1,197,196,198,-1,197,198,16,-1,199,200,201,-1,201,200,202,-1,201,202,198,-1,188,203,189,-1,189,203,204,-1,189,204,205,-1,205,204,194,-1,205,194,206,-1,206,194,193,-1,207,208,209,-1,209,208,210,-1,209,210,211,-1,212,213,214,-1,214,213,215,-1,211,216,209,-1,209,216,217,-1,209,217,218,-1,219,220,221,-1,222,223,201,-1,201,223,224,-1,201,224,199,-1,218,225,209,-1,209,225,226,-1,209,226,213,-1,213,226,191,-1,213,191,215,-1,215,191,189,-1,196,227,228,-1,228,227,229,-1,230,231,194,-1,194,231,232,-1,194,232,233,-1,219,221,195,-1,212,234,213,-1,213,234,235,-1,213,235,236,-1,229,237,228,-1,228,237,238,-1,228,238,239,-1,239,238,240,-1,239,240,241,-1,241,240,242,-1,221,243,195,-1,195,243,244,-1,195,244,196,-1,196,244,245,-1,196,245,227,-1,233,246,194,-1,194,246,247,-1,194,247,192,-1,15,17,248,-1,248,17,249,-1,248,249,250,-1,251,252,14,-1,253,254,252,-1,240,255,256,-1,256,255,257,-1,256,257,258,-1,259,260,14,-1,14,260,261,-1,258,262,256,-1,256,262,263,-1,256,263,264,-1,264,263,265,-1,264,265,251,-1,254,266,252,-1,252,266,267,-1,252,267,14,-1,14,267,268,-1,14,268,259,-1,269,270,271,-1,261,272,14,-1,14,272,273,-1,14,273,12,-1,253,252,274,-1,274,252,275,-1,274,275,270,-1,270,275,276,-1,270,276,271,-1,277,278,279,-1,279,278,280,-1,277,279,271,-1,271,279,281,-1,271,281,282,-1,282,283,271,-1,271,283,284,-1,271,284,269,-1,285,286,280,-1,280,286,287,-1,280,287,279,-1,288,289,220,-1,220,289,290,-1,220,290,221,-1,288,291,289,-1,289,291,292,-1,289,292,293,-1,293,292,294,-1,293,295,296,-1,294,297,293,-1,293,297,298,-1,293,298,299,-1,299,300,293,-1,293,300,301,-1,293,301,295,-1,296,302,293,-1,293,302,303,-1,293,303,304,-1,305,306,307,-1,307,306,308,-1,307,308,309,-1,310,311,312,-1,312,311,313,-1,306,314,308,-1,308,314,315,-1,308,315,316,-1,316,315,317,-1,316,317,318,-1,318,317,319,-1,318,319,313,-1,313,319,320,-1,313,320,312,-1,321,322,323,-1,324,325,326,-1,321,323,327,-1,327,323,328,-1,327,328,326,-1,326,328,329,-1,326,329,324,-1,330,331,316,-1,332,333,318,-1,331,334,316,-1,316,334,335,-1,316,335,321,-1,321,335,336,-1,321,336,322,-1,332,318,337,-1,324,338,325,-1,325,338,339,-1,325,339,318,-1,318,339,340,-1,318,340,337,-1,333,341,318,-1,318,341,342,-1,318,342,316,-1,316,342,343,-1,316,343,330,-1,326,344,345,-1,345,344,346,-1,347,348,349,-1,349,348,350,-1,350,348,351,-1,351,348,352,-1,351,352,353,-1,353,352,354,-1,353,354,11,-1,11,354,355,-1,11,355,9,-1,356,357,358,-1,345,354,326,-1,326,354,352,-1,326,352,327,-1,327,352,359,-1,327,359,358,-1,358,359,360,-1,358,360,356,-1,346,344,361,-1,361,344,362,-1,361,362,356,-1,363,364,362,-1,362,364,365,-1,362,365,366,-1,367,368,357,-1,368,369,357,-1,357,369,370,-1,357,370,371,-1,372,373,367,-1,356,362,357,-1,357,362,366,-1,357,366,367,-1,367,366,374,-1,367,374,372,-1,373,375,367,-1,367,375,376,-1,367,376,377,-1,377,378,367,-1,367,378,379,-1,367,379,380,-1,380,381,367,-1,367,381,382,-1,367,382,383,-1,384,385,383,-1,383,385,386,-1,383,386,367,-1,387,388,389,-1,384,390,385,-1,385,390,391,-1,385,391,389,-1,389,391,392,-1,389,392,387,-1,7,393,394,-1,394,393,395,-1,395,393,396,-1,395,396,363,-1,8,397,398,-1,398,399,8,-1,8,399,400,-1,8,400,6,-1,401,402,403,-1,404,405,406,-1,406,405,407,-1,406,407,8,-1,8,407,408,-1,8,408,397,-1,409,410,411,-1,411,410,412,-1,411,412,413,-1,414,415,213,-1,213,415,416,-1,213,416,411,-1,411,416,417,-1,411,417,409,-1,371,414,256,-1,256,414,213,-1,256,213,240,-1,240,213,236,-1,240,236,242,-1,16,198,17,-1,17,198,202,-1,17,202,249,-1,249,202,418,-1,249,418,207,-1,207,418,419,-1,207,419,208,-1,420,421,422,-1,175,174,423,-1,423,174,424,-1,423,424,187,-1,187,424,422,-1,187,422,186,-1,186,422,421,-1,186,421,425,-1,426,427,428,-1,422,429,420,-1,420,429,430,-1,420,430,431,-1,431,430,426,-1,431,426,432,-1,432,426,428,-1,433,434,14,-1,14,434,435,-1,251,14,264,-1,264,14,435,-1,264,435,429,-1,429,435,436,-1,429,436,430,-1,437,434,438,-1,438,434,433,-1,438,433,439,-1,440,441,442,-1,443,444,433,-1,433,444,445,-1,433,445,439,-1,250,249,13,-1,13,249,440,-1,13,440,14,-1,14,440,442,-1,14,442,433,-1,433,442,446,-1,433,446,447,-1,448,449,450,-1,450,449,451,-1,450,451,440,-1,440,451,452,-1,440,452,441,-1,447,453,433,-1,433,453,454,-1,433,454,443,-1,455,456,457,-1,455,457,425,-1,456,458,457,-1,457,458,459,-1,457,459,450,-1,450,459,460,-1,450,460,448,-1,461,69,462,-1,462,69,72,-1,462,72,463,-1,463,72,52,-1,463,52,464,-1,464,52,56,-1,464,56,465,-1,465,56,39,-1,465,39,466,-1,466,39,37,-1,466,37,467,-1,467,37,34,-1,468,469,403,-1,403,469,470,-1,471,406,23,-1,402,404,403,-1,403,404,406,-1,403,406,468,-1,468,406,471,-1,468,471,472,-1,5,403,3,-1,3,403,470,-1,3,470,23,-1,23,470,473,-1,23,473,471,-1,474,475,476,-1,475,474,477,-1,477,474,5,-1,477,5,478,-1,479,480,481,-1,481,480,477,-1,481,477,482,-1,482,477,478,-1,482,478,483,-1,483,478,484,-1,2,474,0,-1,0,474,476,-1,0,476,4,-1,4,476,485,-1,4,485,5,-1,5,485,486,-1,5,486,478,-1,7,394,8,-1,8,394,487,-1,8,487,406,-1,406,487,31,-1,406,31,23,-1,23,31,30,-1,23,30,24,-1,2,207,474,-1,474,207,209,-1,474,209,5,-1,5,209,213,-1,5,213,403,-1,403,213,411,-1,403,411,401,-1,401,411,413,-1,371,256,357,-1,357,256,264,-1,357,264,358,-1,358,264,429,-1,358,429,327,-1,327,429,422,-1,327,422,321,-1,321,422,424,-1,321,424,316,-1,316,424,174,-1,316,174,308,-1,363,362,395,-1,395,362,344,-1,395,344,488,-1,488,344,326,-1,488,326,489,-1,489,326,325,-1,489,325,490,-1,490,325,318,-1,490,318,491,-1,491,318,313,-1,491,313,492,-1,492,313,311,-1,492,311,493,-1,494,495,174,-1,181,177,176,-1,176,177,170,-1,176,170,174,-1,174,170,172,-1,174,172,494,-1,494,172,496,-1,497,172,498,-1,498,172,499,-1,498,499,500,-1,500,499,501,-1,502,503,497,-1,497,503,504,-1,497,504,172,-1,172,504,505,-1,172,505,496,-1,312,309,310,-1,310,309,308,-1,310,308,501,-1,501,308,174,-1,501,174,500,-1,500,174,506,-1,505,507,508,-1,508,509,505,-1,505,509,510,-1,505,510,496,-1,511,512,506,-1,506,512,513,-1,506,513,514,-1,495,515,174,-1,174,515,516,-1,174,516,506,-1,506,516,517,-1,506,517,511,-1,514,518,506,-1,506,518,519,-1,506,519,505,-1,505,519,520,-1,505,520,507,-1,425,457,186,-1,186,457,521,-1,186,521,173,-1,173,521,522,-1,173,522,172,-1,172,522,523,-1,172,523,499,-1,65,67,1,-1,1,67,524,-1,1,524,2,-1,2,524,525,-1,2,525,207,-1,207,525,526,-1,207,526,249,-1,249,526,527,-1,249,527,440,-1,440,527,528,-1,440,528,450,-1,450,528,529,-1,450,529,457,-1,457,529,530,-1,457,530,521,-1,521,530,531,-1,521,531,522,-1,522,531,532,-1,522,532,523,-1,533,534,535,-1,536,537,535,-1,535,537,538,-1,535,538,533,-1,533,538,539,-1,533,539,540,-1,541,542,543,-1,543,542,537,-1,543,537,544,-1,544,537,536,-1,542,541,545,-1,546,547,545,-1,545,547,548,-1,549,532,550,-1,550,532,551,-1,552,539,553,-1,553,539,554,-1,553,554,555,-1,540,539,546,-1,546,539,552,-1,546,552,547,-1,547,552,556,-1,542,545,557,-1,555,558,553,-1,553,558,559,-1,553,559,560,-1,556,561,547,-1,547,561,562,-1,547,562,563,-1,563,564,547,-1,547,564,565,-1,547,565,566,-1,550,567,568,-1,568,569,550,-1,550,569,570,-1,550,570,549,-1,551,532,548,-1,548,532,461,-1,548,461,545,-1,545,461,571,-1,545,571,572,-1,572,573,545,-1,545,573,574,-1,545,574,557,-1,575,565,576,-1,576,565,564,-1,576,564,577,-1,577,564,578,-1,578,564,563,-1,578,563,579,-1,579,563,580,-1,580,563,562,-1,580,562,581,-1,581,562,582,-1,582,562,561,-1,582,561,583,-1,583,561,584,-1,584,561,556,-1,584,556,585,-1,585,556,586,-1,586,556,552,-1,586,552,587,-1,587,552,588,-1,588,552,553,-1,588,553,589,-1,589,553,560,-1,589,560,590,-1,590,560,591,-1,591,560,559,-1,591,559,592,-1,592,559,593,-1,593,559,558,-1,593,558,594,-1,594,558,595,-1,595,558,555,-1,595,555,596,-1,596,555,597,-1,597,555,554,-1,597,554,598,-1,598,554,599,-1,599,554,539,-1,599,539,538,-1,537,542,600,-1,600,542,557,-1,600,557,601,-1,601,557,602,-1,602,557,574,-1,602,574,603,-1,603,574,604,-1,604,574,573,-1,604,573,605,-1,605,573,606,-1,606,573,572,-1,606,572,607,-1,607,572,608,-1,608,572,571,-1,608,571,609,-1,609,571,610,-1,610,571,461,-1,610,461,467,-1,493,532,611,-1,611,532,549,-1,611,549,612,-1,612,549,613,-1,613,549,570,-1,613,570,614,-1,614,570,615,-1,615,570,569,-1,615,569,616,-1,616,569,617,-1,617,569,568,-1,617,568,618,-1,618,568,619,-1,619,568,567,-1,619,567,620,-1,620,567,621,-1,621,567,550,-1,621,550,622,-1,622,550,623,-1,623,550,551,-1,566,565,624,-1,624,565,575,-1,624,575,625,-1,623,626,622,-1,622,626,627,-1,622,627,575,-1,575,627,628,-1,575,628,625,-1,629,630,631,-1,630,629,632,-1,632,629,633,-1,632,633,634,-1,635,636,637,-1,638,639,632,-1,632,639,640,-1,632,640,630,-1,630,640,641,-1,635,637,632,-1,632,637,642,-1,632,642,638,-1,643,644,631,-1,631,644,645,-1,631,645,629,-1,643,646,644,-1,644,646,647,-1,644,647,648,-1,649,650,651,-1,651,650,652,-1,641,653,630,-1,630,653,652,-1,630,652,654,-1,654,652,650,-1,655,656,633,-1,633,656,657,-1,633,657,634,-1,655,658,656,-1,656,658,659,-1,656,659,660,-1,538,537,661,-1,538,661,662,-1,662,661,663,-1,662,663,664,-1,664,663,665,-1,664,665,666,-1,666,665,667,-1,666,667,668,-1,668,667,669,-1,668,669,670,-1,670,669,632,-1,670,632,634,-1,632,669,671,-1,669,667,672,-1,667,665,673,-1,665,663,674,-1,663,661,675,-1,661,537,600,-1,661,600,675,-1,675,600,601,-1,675,601,676,-1,601,602,676,-1,676,602,603,-1,676,603,677,-1,603,604,677,-1,677,604,605,-1,677,605,678,-1,678,605,606,-1,678,606,679,-1,606,607,679,-1,679,607,608,-1,679,608,680,-1,680,608,609,-1,609,610,680,-1,680,610,467,-1,680,467,681,-1,663,675,674,-1,674,675,676,-1,674,676,682,-1,682,676,677,-1,682,677,683,-1,683,677,678,-1,683,678,684,-1,684,678,679,-1,684,679,685,-1,685,679,680,-1,685,680,686,-1,686,680,681,-1,686,681,687,-1,665,674,673,-1,673,674,682,-1,673,682,688,-1,688,682,683,-1,688,683,689,-1,689,683,684,-1,689,684,690,-1,690,684,685,-1,690,685,691,-1,691,685,686,-1,691,686,692,-1,692,686,687,-1,692,687,693,-1,667,673,672,-1,672,673,688,-1,672,688,694,-1,694,688,689,-1,694,689,695,-1,695,689,690,-1,695,690,696,-1,696,690,691,-1,696,691,697,-1,697,691,692,-1,697,692,698,-1,698,692,693,-1,698,693,699,-1,669,672,671,-1,671,672,694,-1,671,694,700,-1,700,694,695,-1,700,695,701,-1,701,695,696,-1,701,696,702,-1,702,696,697,-1,702,697,703,-1,703,697,698,-1,703,698,704,-1,704,698,699,-1,704,699,705,-1,632,671,635,-1,635,671,700,-1,635,700,636,-1,636,700,701,-1,636,701,637,-1,637,701,702,-1,637,702,642,-1,642,702,703,-1,642,703,638,-1,638,703,704,-1,638,704,639,-1,639,704,705,-1,639,705,640,-1,633,706,707,-1,706,708,709,-1,708,710,711,-1,710,712,713,-1,712,714,715,-1,714,588,589,-1,714,589,715,-1,715,589,590,-1,715,590,716,-1,590,591,716,-1,716,591,592,-1,716,592,717,-1,592,593,717,-1,717,593,594,-1,717,594,718,-1,718,594,595,-1,718,595,719,-1,595,596,719,-1,719,596,597,-1,719,597,720,-1,720,597,598,-1,598,599,720,-1,720,599,538,-1,720,538,662,-1,712,715,713,-1,713,715,716,-1,713,716,721,-1,721,716,717,-1,721,717,722,-1,722,717,718,-1,722,718,723,-1,723,718,719,-1,723,719,724,-1,724,719,720,-1,724,720,725,-1,725,720,662,-1,725,662,664,-1,710,713,711,-1,711,713,721,-1,711,721,726,-1,726,721,722,-1,726,722,727,-1,727,722,723,-1,727,723,728,-1,728,723,724,-1,728,724,729,-1,729,724,725,-1,729,725,730,-1,730,725,664,-1,730,664,666,-1,708,711,709,-1,709,711,726,-1,709,726,731,-1,731,726,727,-1,731,727,732,-1,732,727,728,-1,732,728,733,-1,733,728,729,-1,733,729,734,-1,734,729,730,-1,734,730,735,-1,735,730,666,-1,735,666,668,-1,706,709,707,-1,707,709,731,-1,707,731,736,-1,736,731,732,-1,736,732,737,-1,737,732,733,-1,737,733,738,-1,738,733,734,-1,738,734,739,-1,739,734,735,-1,739,735,740,-1,740,735,668,-1,740,668,670,-1,633,707,655,-1,655,707,736,-1,655,736,658,-1,658,736,737,-1,658,737,659,-1,659,737,738,-1,659,738,660,-1,660,738,739,-1,660,739,656,-1,656,739,740,-1,656,740,657,-1,657,740,670,-1,657,670,634,-1,467,493,741,-1,467,741,681,-1,681,741,742,-1,681,742,687,-1,687,742,743,-1,687,743,693,-1,693,743,744,-1,693,744,699,-1,699,744,745,-1,699,745,705,-1,705,745,641,-1,705,641,640,-1,587,588,714,-1,587,714,746,-1,746,714,712,-1,746,712,747,-1,747,712,710,-1,747,710,748,-1,748,710,708,-1,748,708,749,-1,749,708,706,-1,749,706,750,-1,750,706,633,-1,750,633,629,-1,641,745,751,-1,745,744,752,-1,744,743,753,-1,743,742,754,-1,742,741,755,-1,741,493,611,-1,741,611,755,-1,755,611,612,-1,755,612,756,-1,612,613,756,-1,756,613,614,-1,756,614,757,-1,614,615,757,-1,757,615,616,-1,757,616,758,-1,758,616,617,-1,758,617,759,-1,617,618,759,-1,759,618,619,-1,759,619,760,-1,760,619,620,-1,620,621,760,-1,760,621,622,-1,760,622,761,-1,742,755,754,-1,754,755,756,-1,754,756,762,-1,762,756,757,-1,762,757,763,-1,763,757,758,-1,763,758,764,-1,764,758,759,-1,764,759,765,-1,765,759,760,-1,765,760,766,-1,766,760,761,-1,766,761,767,-1,743,754,753,-1,753,754,762,-1,753,762,768,-1,768,762,763,-1,768,763,769,-1,769,763,764,-1,769,764,770,-1,770,764,765,-1,770,765,771,-1,771,765,766,-1,771,766,772,-1,772,766,767,-1,772,767,773,-1,744,753,752,-1,752,753,768,-1,752,768,774,-1,774,768,769,-1,774,769,775,-1,775,769,770,-1,775,770,776,-1,776,770,771,-1,776,771,777,-1,777,771,772,-1,777,772,778,-1,778,772,773,-1,778,773,779,-1,745,752,751,-1,751,752,774,-1,751,774,780,-1,780,774,775,-1,780,775,781,-1,781,775,776,-1,781,776,782,-1,782,776,777,-1,782,777,783,-1,783,777,778,-1,783,778,784,-1,784,778,779,-1,784,779,785,-1,641,751,653,-1,653,751,780,-1,653,780,652,-1,652,780,781,-1,652,781,651,-1,651,781,782,-1,651,782,649,-1,649,782,783,-1,649,783,650,-1,650,783,784,-1,650,784,654,-1,654,784,785,-1,654,785,630,-1,631,786,787,-1,786,788,789,-1,788,790,791,-1,790,792,793,-1,792,794,795,-1,794,575,576,-1,794,576,795,-1,795,576,577,-1,795,577,796,-1,577,578,796,-1,796,578,579,-1,796,579,797,-1,579,580,797,-1,797,580,581,-1,797,581,798,-1,798,581,582,-1,798,582,799,-1,582,583,799,-1,799,583,584,-1,799,584,800,-1,800,584,585,-1,585,586,800,-1,800,586,587,-1,800,587,746,-1,792,795,793,-1,793,795,796,-1,793,796,801,-1,801,796,797,-1,801,797,802,-1,802,797,798,-1,802,798,803,-1,803,798,799,-1,803,799,804,-1,804,799,800,-1,804,800,805,-1,805,800,746,-1,805,746,747,-1,790,793,791,-1,791,793,801,-1,791,801,806,-1,806,801,802,-1,806,802,807,-1,807,802,803,-1,807,803,808,-1,808,803,804,-1,808,804,809,-1,809,804,805,-1,809,805,810,-1,810,805,747,-1,810,747,748,-1,788,791,789,-1,789,791,806,-1,789,806,811,-1,811,806,807,-1,811,807,812,-1,812,807,808,-1,812,808,813,-1,813,808,809,-1,813,809,814,-1,814,809,810,-1,814,810,815,-1,815,810,748,-1,815,748,749,-1,786,789,787,-1,787,789,811,-1,787,811,816,-1,816,811,812,-1,816,812,817,-1,817,812,813,-1,817,813,818,-1,818,813,814,-1,818,814,819,-1,819,814,815,-1,819,815,820,-1,820,815,749,-1,820,749,750,-1,631,787,643,-1,643,787,816,-1,643,816,646,-1,646,816,817,-1,646,817,647,-1,647,817,818,-1,647,818,648,-1,648,818,819,-1,648,819,644,-1,644,819,820,-1,644,820,645,-1,645,820,750,-1,645,750,629,-1,622,575,794,-1,622,794,761,-1,761,794,792,-1,761,792,767,-1,767,792,790,-1,767,790,773,-1,773,790,788,-1,773,788,779,-1,779,788,786,-1,779,786,785,-1,785,786,631,-1,785,631,630,-1,626,623,821,-1,821,623,822,-1,821,822,823,-1,823,822,824,-1,823,824,625,-1,625,824,624,-1,822,623,548,-1,548,623,551,-1,547,566,824,-1,824,566,624,-1,824,822,547,-1,547,822,548,-1,534,533,825,-1,825,533,826,-1,825,826,827,-1,827,826,828,-1,827,828,544,-1,544,828,543,-1,546,826,540,-1,540,826,533,-1,828,545,543,-1,543,545,541,-1,828,826,545,-1,545,826,546,-1,
        ]
    }
}
Shape{
    appearance Appearance {
        material  Material 	{
            diffuseColor 0.7529411764705882 0.7529411764705882 0.7529411764705882
            specularColor 0.3764705882352941 0.3764705882352941 0.3764705882352941
            ambientIntensity 0.7529
            transparency 0.0
            shininess 0.5
        }
    }
    geometry IndexedFaceSet {
        ccw TRUE
        solid FALSE
        coord DEF co Coordinate {
            point [
                3.4449 -2.1634 1.3504, 3.4449 2.1673 1.3504, 3.3465 -2.1634 1.3504, 3.3465 2.1673 1.3504, 3.3465 2.1673 0.0394, 2.6575 2.1673 0.0, 2.6575 2.1673 0.0394, 3.3268 2.1673 0.0, 3.3573 2.1673 0.004, 3.4449 2.1673 0.1181, 3.4409 2.1673 0.0875, 3.4291 2.1673 0.0591, 3.4103 2.1673 0.0346, 3.3858 2.1673 0.0158, 2.6575 -2.1634 0.0394, 2.6575 -2.1634 0.0, 3.3465 -2.1634 0.0394, 3.3268 -2.1634 0.0, 3.3573 -2.1634 0.004, 3.3858 -2.1634 0.0158, 3.4103 -2.1634 0.0346, 3.4291 -2.1634 0.0591, 3.4449 -2.1634 0.1181, 3.4409 -2.1634 0.0875, -3.3465 2.1673 1.3504, -3.4449 2.1673 1.3504, -3.3465 -2.1634 1.3504, -3.4449 -2.1634 1.3504, -2.6575 2.1673 0.0394, -2.6575 2.1673 0.0, -3.3465 2.1673 0.0394, -3.3268 2.1673 0.0, -3.3573 2.1673 0.004, -3.3858 2.1673 0.0158, -3.4103 2.1673 0.0346, -3.4291 2.1673 0.0591, -3.4449 2.1673 0.1181, -3.4409 2.1673 0.0875, -3.3465 -2.1634 0.0394, -2.6575 -2.1634 0.0, -2.6575 -2.1634 0.0394, -3.3268 -2.1634 0.0, -3.3573 -2.1634 0.004, -3.4449 -2.1634 0.1181, -3.4409 -2.1634 0.0875, -3.4291 -2.1634 0.0591, -3.4103 -2.1634 0.0346, -3.3858 -2.1634 0.0158
            ]
        }
        coordIndex [
            0,1,2,-1,2,1,3,-1,4,3,1,-1,5,6,7,-1,7,6,4,-1,7,4,8,-1,1,9,4,-1,4,9,10,-1,4,10,11,-1,11,12,4,-1,4,12,13,-1,4,13,8,-1,14,15,16,-1,16,15,17,-1,16,17,18,-1,18,19,16,-1,16,19,20,-1,16,20,21,-1,0,2,22,-1,22,2,16,-1,22,16,23,-1,23,16,21,-1,5,7,15,-1,15,7,17,-1,6,5,14,-1,14,5,15,-1,9,1,22,-1,22,1,0,-1,9,22,23,-1,9,23,10,-1,10,23,21,-1,10,21,11,-1,11,21,20,-1,11,20,12,-1,12,20,19,-1,12,19,13,-1,13,19,18,-1,13,18,8,-1,8,18,17,-1,8,17,7,-1,24,25,26,-1,26,25,27,-1,28,29,30,-1,30,29,31,-1,30,31,32,-1,32,33,30,-1,30,33,34,-1,30,34,35,-1,25,24,36,-1,36,24,30,-1,36,30,37,-1,37,30,35,-1,38,26,27,-1,39,40,41,-1,41,40,38,-1,41,38,42,-1,27,43,38,-1,38,43,44,-1,38,44,45,-1,45,46,38,-1,38,46,47,-1,38,47,42,-1,31,29,41,-1,41,29,39,-1,31,41,42,-1,31,42,32,-1,32,42,47,-1,32,47,33,-1,33,47,46,-1,33,46,34,-1,34,46,45,-1,34,45,35,-1,35,45,44,-1,35,44,37,-1,37,44,43,-1,37,43,36,-1,25,36,27,-1,27,36,43,-1,39,29,40,-1,40,29,28,-1,
        ]
    }
}
Shape{
    appearance Appearance {
        material  Material 	{
            diffuseColor 1.0 1.0 1.0
            specularColor 0.5019607843137255 0.5019607843137255 0.5019607843137255
            ambientIntensity 1.0
            transparency 0.0
            shininess 0.5
        }
    }
    geometry IndexedFaceSet {
        ccw TRUE
        solid FALSE
        coord DEF co Coordinate {
            point [
                -0.0064 -3.4469 0.8215, -0.0064 -3.4469 0.8002, -0.0064 -3.4429 0.8215, -0.0064 -3.4429 0.8002, -0.0809 -3.4469 0.8215, -0.0809 -3.4429 0.8215, -0.0809 -3.4469 0.987, -0.0809 -3.4429 0.987, -0.105 -3.4469 0.987, -0.105 -3.4429 0.987, -0.105 -3.4469 0.8002, -0.105 -3.4429 0.8002, 0.0894 -3.4469 0.7971, 0.0894 -3.4429 0.7971, 0.1178 -3.4469 0.7998, 0.1058 -3.4429 0.7986, 0.1178 -3.4429 0.7998, 0.1379 -3.4429 0.8064, 0.1379 -3.4469 0.8064, 0.1411 -3.4429 0.8079, 0.1411 -3.4469 0.8079, 0.1411 -3.4469 0.8311, 0.1411 -3.4429 0.8311, 0.1227 -3.4429 0.8228, 0.1227 -3.4469 0.8228, 0.1016 -3.4429 0.8189, 0.1016 -3.4469 0.8189, 0.0928 -3.4429 0.8185, 0.0928 -3.4469 0.8185, 0.0741 -3.4429 0.8208, 0.0741 -3.4469 0.8208, 0.0608 -3.4429 0.8259, 0.0608 -3.4469 0.8259, 0.0486 -3.4429 0.8345, 0.0486 -3.4469 0.8345, 0.0448 -3.4429 0.8382, 0.0448 -3.4469 0.8382, 0.0367 -3.4429 0.8492, 0.0367 -3.4469 0.8492, 0.0303 -3.4429 0.8639, 0.0303 -3.4469 0.8639, 0.0269 -3.4429 0.882, 0.0269 -3.4469 0.882, 0.0265 -3.4429 0.8915, 0.0265 -3.4469 0.8915, 0.0296 -3.4429 0.9173, 0.0296 -3.4469 0.9173, 0.0359 -3.4429 0.9334, 0.0359 -3.4469 0.9334, 0.0449 -3.4429 0.9464, 0.0449 -3.4469 0.9464, 0.0461 -3.4429 0.9477, 0.0461 -3.4469 0.9477, 0.057 -3.4429 0.957, 0.057 -3.4469 0.957, 0.0714 -3.4429 0.9643, 0.0714 -3.4469 0.9643, 0.0874 -3.4429 0.9679, 0.0874 -3.4469 0.9679, 0.097 -3.4429 0.9684, 0.097 -3.4469 0.9684, 0.12 -3.4429 0.9657, 0.12 -3.4469 0.9657, 0.139 -3.4429 0.9585, 0.139 -3.4469 0.9585, 0.1411 -3.4429 0.9573, 0.1411 -3.4469 0.9573, 0.1411 -3.4469 0.9826, 0.1411 -3.4429 0.9826, 0.0968 -3.4429 0.9902, 0.0968 -3.4469 0.9902, 0.0968 -3.4469 0.9902, 0.1213 -3.4429 0.9883, 0.1213 -3.4469 0.9883, 0.1168 -3.4429 0.9886, 0.0968 -3.4429 0.9902, 0.0839 -3.4429 0.9886, 0.0697 -3.4469 0.9869, 0.0697 -3.4429 0.9869, 0.0502 -3.4429 0.9793, 0.0502 -3.4469 0.9793, 0.0327 -3.4429 0.967, 0.0327 -3.4469 0.967, 0.0282 -3.4429 0.9627, 0.0282 -3.4469 0.9627, 0.0146 -3.4429 0.945, 0.0095 -3.4429 0.9331, 0.0058 -3.4469 0.9242, 0.0146 -3.4469 0.945, 0.0058 -3.4429 0.9242, 0.0015 -3.4429 0.8998, 0.0015 -3.4469 0.8998, 0.0012 -3.4429 0.8901, 0.0012 -3.4469 0.8901, 0.0049 -3.4429 0.8596, 0.0095 -3.4429 0.8477, 0.0125 -3.4469 0.8401, 0.0049 -3.4469 0.8596, 0.0125 -3.4429 0.8401, 0.0237 -3.4429 0.8242, 0.0237 -3.4469 0.8242, 0.0252 -3.4429 0.8226, 0.0252 -3.4469 0.8226, 0.0578 -3.4429 0.8018, 0.0402 -3.4469 0.8101, 0.0402 -3.4429 0.8101, 0.073 -3.4429 0.7986, 0.0781 -3.4469 0.7976, 0.0578 -3.4469 0.8018, 0.0781 -3.4429 0.7976, 0.279 -3.4469 0.8215, 0.279 -3.4469 0.8002, 0.279 -3.4429 0.8215, 0.279 -3.4429 0.8002, 0.2026 -3.4429 0.8215, 0.2026 -3.4469 0.8215, 0.253 -3.4429 0.8215, 0.2026 -3.4469 0.8844, 0.2026 -3.4429 0.8844, 0.2694 -3.4429 0.8844, 0.2694 -3.4469 0.8844, 0.253 -3.4429 0.8844, 0.2694 -3.4469 0.9058, 0.2694 -3.4429 0.9058, 0.2026 -3.4429 0.9058, 0.2026 -3.4469 0.9058, 0.253 -3.4429 0.9058, 0.2026 -3.4469 0.9655, 0.2026 -3.4429 0.9655, 0.2747 -3.4429 0.9655, 0.2747 -3.4469 0.9655, 0.253 -3.4429 0.9655, 0.2747 -3.4469 0.987, 0.2747 -3.4429 0.987, 0.1785 -3.4429 0.987, 0.1785 -3.4469 0.987, 0.253 -3.4429 0.987, 0.1785 -3.4469 0.8002, 0.1785 -3.4429 0.8002, 0.253 -3.4429 0.8002, 0.4382 -3.4469 0.8264, 0.4189 -3.4469 0.839, 0.4187 -3.4469 0.8124, 0.4069 -3.4469 0.8306, 0.3974 -3.4469 0.8041, 0.3915 -3.4469 0.8246, 0.3656 -3.4469 0.8002, 0.3655 -3.4469 0.8215, 0.3142 -3.4469 0.8002, 0.3384 -3.4469 0.8215, 0.3142 -3.4469 0.987, 0.3384 -3.4469 0.9655, 0.3675 -3.4469 0.987, 0.3666 -3.4469 0.9655, 0.3736 -3.4469 0.9653, 0.3961 -3.4469 0.9839, 0.3932 -3.4469 0.9622, 0.4186 -3.4469 0.9757, 0.409 -3.4469 0.9559, 0.4382 -3.4469 0.9623, 0.4205 -3.4469 0.948, 0.4447 -3.4469 0.9559, 0.4257 -3.4469 0.9429, 0.4563 -3.4469 0.9396, 0.4329 -3.4469 0.9324, 0.4632 -3.4469 0.9218, 0.4382 -3.4469 0.9188, 0.4664 -3.4469 0.896, 0.441 -3.4469 0.8953, 0.4658 -3.4469 0.8841, 0.4401 -3.4469 0.8816, 0.4613 -3.4469 0.8622, 0.4362 -3.4469 0.8649, 0.4521 -3.4469 0.8429, 0.4295 -3.4469 0.8513, 0.421 -3.4469 0.841, 0.3656 -3.4429 0.8002, 0.3142 -3.4429 0.8002, 0.4382 -3.4429 0.8264, 0.3974 -3.4429 0.8041, 0.3998 -3.4429 0.805, 0.4187 -3.4429 0.8124, 0.4521 -3.4429 0.8429, 0.4613 -3.4429 0.8622, 0.4658 -3.4429 0.8841, 0.4664 -3.4429 0.896, 0.4632 -3.4429 0.9218, 0.4563 -3.4429 0.9396, 0.4447 -3.4429 0.9559, 0.4382 -3.4429 0.9623, 0.4186 -3.4429 0.9757, 0.3998 -3.4429 0.9825, 0.3961 -3.4429 0.9839, 0.3675 -3.4429 0.987, 0.3142 -3.4429 0.987, 0.3666 -3.4429 0.9655, 0.3384 -3.4429 0.9655, 0.3384 -3.4429 0.8215, 0.3655 -3.4429 0.8215, 0.421 -3.4429 0.841, 0.4189 -3.4429 0.839, 0.4069 -3.4429 0.8306, 0.3915 -3.4429 0.8246, 0.441 -3.4429 0.8953, 0.4401 -3.4429 0.8816, 0.4362 -3.4429 0.8649, 0.4295 -3.4429 0.8513, 0.4205 -3.4429 0.948, 0.4257 -3.4429 0.9429, 0.4329 -3.4429 0.9324, 0.4382 -3.4429 0.9188, 0.3736 -3.4429 0.9653, 0.3932 -3.4429 0.9622, 0.409 -3.4429 0.9559
            ]
        }
        coordIndex [
            0,1,2,-1,2,1,3,-1,4,0,5,-1,5,0,2,-1,6,4,7,-1,7,4,5,-1,8,6,9,-1,9,6,7,-1,10,8,11,-1,11,8,9,-1,1,10,3,-1,3,10,11,-1,6,8,4,-1,4,8,10,-1,4,10,0,-1,0,10,1,-1,12,13,14,-1,14,13,15,-1,15,16,14,-1,14,16,17,-1,14,17,18,-1,18,17,19,-1,18,19,20,-1,21,20,22,-1,22,20,19,-1,21,22,23,-1,21,23,24,-1,24,23,25,-1,24,25,26,-1,26,25,27,-1,26,27,28,-1,28,27,29,-1,28,29,30,-1,30,29,31,-1,30,31,32,-1,32,31,33,-1,32,33,34,-1,34,33,35,-1,34,35,36,-1,36,35,37,-1,36,37,38,-1,38,37,39,-1,38,39,40,-1,40,39,41,-1,40,41,42,-1,42,41,43,-1,42,43,44,-1,44,43,45,-1,44,45,46,-1,46,45,47,-1,46,47,48,-1,48,47,49,-1,48,49,50,-1,50,49,51,-1,50,51,52,-1,52,51,53,-1,52,53,54,-1,54,53,55,-1,54,55,56,-1,56,55,57,-1,56,57,58,-1,58,57,59,-1,58,59,60,-1,60,59,61,-1,60,61,62,-1,62,61,63,-1,62,63,64,-1,64,63,65,-1,64,65,66,-1,67,66,68,-1,68,66,65,-1,69,70,71,-1,67,68,72,-1,67,72,73,-1,73,72,74,-1,73,74,71,-1,71,74,75,-1,71,75,69,-1,70,69,76,-1,70,76,77,-1,76,78,77,-1,77,78,79,-1,77,79,80,-1,80,79,81,-1,80,81,82,-1,82,81,83,-1,82,83,84,-1,84,83,85,-1,86,87,85,-1,85,87,88,-1,85,88,84,-1,86,89,87,-1,87,89,90,-1,87,90,91,-1,91,90,92,-1,91,92,93,-1,93,92,94,-1,95,96,94,-1,94,96,97,-1,94,97,93,-1,95,98,96,-1,96,98,99,-1,96,99,100,-1,100,99,101,-1,100,101,102,-1,103,104,105,-1,105,104,102,-1,105,102,101,-1,106,107,103,-1,103,107,108,-1,103,108,104,-1,106,109,107,-1,107,109,13,-1,107,13,12,-1,64,66,67,-1,46,48,88,-1,88,48,84,-1,64,67,62,-1,62,67,73,-1,62,73,60,-1,60,73,71,-1,60,71,58,-1,58,71,70,-1,58,70,56,-1,56,70,77,-1,56,77,54,-1,20,21,18,-1,18,21,24,-1,18,24,14,-1,14,24,26,-1,14,26,12,-1,12,26,28,-1,12,28,107,-1,107,28,30,-1,107,30,108,-1,108,30,32,-1,108,32,104,-1,104,32,34,-1,104,34,102,-1,102,34,36,-1,102,36,100,-1,100,36,38,-1,100,38,96,-1,93,44,91,-1,91,44,46,-1,91,46,87,-1,87,46,88,-1,48,50,84,-1,84,50,52,-1,84,52,82,-1,82,52,54,-1,82,54,80,-1,80,54,77,-1,96,38,97,-1,97,38,40,-1,97,40,93,-1,93,40,42,-1,93,42,44,-1,110,111,112,-1,112,111,113,-1,114,115,116,-1,116,115,110,-1,116,110,112,-1,117,115,118,-1,118,115,114,-1,119,120,121,-1,121,120,117,-1,121,117,118,-1,122,120,123,-1,123,120,119,-1,124,125,126,-1,126,125,122,-1,126,122,123,-1,127,125,128,-1,128,125,124,-1,129,130,131,-1,131,130,127,-1,131,127,128,-1,132,130,133,-1,133,130,129,-1,134,135,136,-1,136,135,132,-1,136,132,133,-1,137,135,138,-1,138,135,134,-1,113,111,139,-1,139,111,137,-1,139,137,138,-1,137,111,110,-1,110,115,137,-1,137,115,117,-1,137,117,135,-1,130,132,127,-1,127,132,135,-1,127,135,125,-1,125,135,117,-1,125,117,122,-1,122,117,120,-1,140,141,142,-1,142,141,143,-1,142,143,144,-1,144,143,145,-1,144,145,146,-1,146,145,147,-1,146,147,148,-1,148,147,149,-1,148,149,150,-1,150,149,151,-1,150,151,152,-1,151,153,152,-1,152,153,154,-1,152,154,155,-1,155,154,156,-1,155,156,157,-1,157,156,158,-1,157,158,159,-1,159,158,160,-1,159,160,161,-1,161,160,162,-1,161,162,163,-1,163,162,164,-1,163,164,165,-1,165,164,166,-1,165,166,167,-1,167,166,168,-1,167,168,169,-1,169,168,170,-1,169,170,171,-1,171,170,172,-1,171,172,173,-1,173,172,174,-1,173,174,140,-1,140,174,175,-1,140,175,141,-1,146,148,176,-1,176,148,177,-1,178,140,142,-1,146,176,179,-1,146,179,144,-1,144,179,180,-1,144,180,142,-1,142,180,181,-1,142,181,178,-1,140,178,182,-1,140,182,173,-1,173,182,183,-1,173,183,171,-1,171,183,184,-1,171,184,169,-1,169,184,185,-1,169,185,167,-1,167,185,186,-1,167,186,165,-1,165,186,187,-1,165,187,163,-1,163,187,188,-1,163,188,161,-1,161,188,189,-1,161,189,159,-1,159,189,190,-1,191,155,190,-1,190,155,157,-1,190,157,159,-1,191,192,155,-1,155,192,193,-1,155,193,152,-1,150,152,194,-1,194,152,193,-1,148,150,177,-1,177,150,194,-1,153,151,195,-1,195,151,196,-1,151,149,196,-1,196,149,197,-1,149,147,197,-1,197,147,198,-1,175,199,200,-1,175,200,141,-1,141,200,201,-1,141,201,143,-1,143,201,202,-1,143,202,145,-1,145,202,198,-1,145,198,147,-1,168,203,204,-1,168,204,170,-1,170,204,205,-1,170,205,172,-1,172,205,206,-1,172,206,174,-1,174,206,199,-1,174,199,175,-1,160,207,208,-1,160,208,162,-1,162,208,209,-1,162,209,164,-1,164,209,210,-1,164,210,166,-1,166,210,203,-1,166,203,168,-1,153,195,211,-1,153,211,154,-1,154,211,212,-1,154,212,156,-1,156,212,213,-1,156,213,158,-1,158,213,207,-1,158,207,160,-1,
        ]
    }
}
Shape{
    appearance Appearance {
        material  Material 	{
            diffuseColor 0.25098039215686274 0.25098039215686274 0.25098039215686274
            specularColor 0.12549019607843137 0.12549019607843137 0.12549019607843137
            ambientIntensity 0.251
            transparency 0.0
            shininess 0.5
        }
    }
    geometry IndexedFaceSet {
        ccw TRUE
        solid FALSE
        coord DEF co Coordinate {
            point [
                0.4189 -3.4429 0.839, 0.421 -3.4429 0.841, 0.3736 -3.4429 0.9653, 0.4069 -3.4429 0.8306, 0.3384 -3.4429 0.9655, 0.3384 -3.4429 0.8215, 0.3666 -3.4429 0.9655, 0.3655 -3.4429 0.8215, 0.3915 -3.4429 0.8246, 0.4295 -3.4429 0.8513, 0.4362 -3.4429 0.8649, 0.4401 -3.4429 0.8816, 0.4205 -3.4429 0.948, 0.441 -3.4429 0.8953, 0.409 -3.4429 0.9559, 0.3932 -3.4429 0.9622, 0.4382 -3.4429 0.9188, 0.4329 -3.4429 0.9324, 0.4257 -3.4429 0.9429
            ]
        }
        coordIndex [
            0,1,2,-1,0,2,3,-1,4,5,6,-1,6,5,7,-1,6,7,2,-1,2,7,8,-1,2,8,3,-1,1,9,2,-1,2,9,10,-1,2,10,11,-1,12,11,13,-1,12,14,11,-1,11,14,15,-1,11,15,2,-1,16,17,13,-1,13,17,18,-1,13,18,12,-1,
        ]
    }
}
Shape{
    appearance Appearance {
        material  Material 	{
            diffuseColor 1.0 1.0 1.0
            specularColor 0.5019607843137255 0.5019607843137255 0.5019607843137255
            ambientIntensity 1.0
            transparency 0.0
            shininess 0.5
        }
    }
    geometry IndexedFaceSet {
        ccw TRUE
        solid FALSE
        coord DEF co Coordinate {
            point [
                0.529 -3.4469 0.8724, 0.5213 -3.4469 0.8513, 0.5917 -3.4469 0.8724, 0.5991 -3.4469 0.8513, 0.5569 -3.4469 0.9501, 0.5479 -3.4469 0.987, 0.4767 -3.4469 0.8002, 0.5034 -3.4469 0.8002, 0.5585 -3.4469 0.9557, 0.56 -3.4469 0.9632, 0.5737 -3.4469 0.987, 0.5605 -3.4469 0.9632, 0.562 -3.4469 0.9553, 0.5634 -3.4469 0.9501, 0.6448 -3.4469 0.8002, 0.6182 -3.4469 0.8002, 0.5737 -3.4429 0.987, 0.6448 -3.4429 0.8002, 0.5479 -3.4429 0.987, 0.4767 -3.4429 0.8002, 0.5306 -3.4429 0.9416, 0.5034 -3.4429 0.8002, 0.5213 -3.4429 0.8513, 0.5991 -3.4429 0.8513, 0.5306 -3.4429 0.8513, 0.6182 -3.4429 0.8002, 0.529 -3.4429 0.8724, 0.5917 -3.4429 0.8724, 0.5634 -3.4429 0.9501, 0.5605 -3.4429 0.9632, 0.562 -3.4429 0.9553, 0.56 -3.4429 0.9632, 0.5569 -3.4429 0.9501, 0.5585 -3.4429 0.9557
            ]
        }
        coordIndex [
            0,1,2,-1,2,1,3,-1,4,5,0,-1,0,5,6,-1,0,6,1,-1,1,6,7,-1,4,8,5,-1,5,8,9,-1,5,9,10,-1,10,9,11,-1,10,11,12,-1,12,13,10,-1,10,13,2,-1,10,2,14,-1,14,2,3,-1,14,3,15,-1,10,14,16,-1,16,14,17,-1,5,10,18,-1,18,10,16,-1,19,6,20,-1,20,6,5,-1,20,5,18,-1,7,6,21,-1,21,6,19,-1,1,7,22,-1,22,7,21,-1,23,3,24,-1,24,3,1,-1,24,1,22,-1,15,3,25,-1,25,3,23,-1,14,15,17,-1,17,15,25,-1,0,2,26,-1,26,2,27,-1,2,13,27,-1,27,13,28,-1,11,29,30,-1,11,30,12,-1,12,30,28,-1,12,28,13,-1,11,9,29,-1,29,9,31,-1,4,32,33,-1,4,33,8,-1,8,33,31,-1,8,31,9,-1,4,0,32,-1,32,0,26,-1,
        ]
    }
}
Shape{
    appearance Appearance {
        material  Material 	{
            diffuseColor 0.25098039215686274 0.25098039215686274 0.25098039215686274
            specularColor 0.12549019607843137 0.12549019607843137 0.12549019607843137
            ambientIntensity 0.251
            transparency 0.0
            shininess 0.5
        }
    }
    geometry IndexedFaceSet {
        ccw TRUE
        solid FALSE
        coord DEF co Coordinate {
            point [
                0.5605 -3.4429 0.9632, 0.56 -3.4429 0.9632, 0.562 -3.4429 0.9553, 0.5585 -3.4429 0.9557, 0.5634 -3.4429 0.9501, 0.5569 -3.4429 0.9501, 0.5917 -3.4429 0.8724, 0.529 -3.4429 0.8724
            ]
        }
        coordIndex [
            0,1,2,-1,2,1,3,-1,2,3,4,-1,4,3,5,-1,4,5,6,-1,6,5,7,-1,
        ]
    }
}
Shape{
    appearance Appearance {
        material  Material 	{
            diffuseColor 1.0 1.0 1.0
            specularColor 0.5019607843137255 0.5019607843137255 0.5019607843137255
            ambientIntensity 1.0
            transparency 0.0
            shininess 0.5
        }
    }
    geometry IndexedFaceSet {
        ccw TRUE
        solid FALSE
        coord DEF co Coordinate {
            point [
                -0.0045 -3.4469 0.5251, -0.0045 -3.4469 0.5038, -0.0045 -3.4429 0.5251, -0.0045 -3.4429 0.5038, -0.0809 -3.4469 0.5251, -0.0809 -3.4429 0.5251, -0.0809 -3.4469 0.588, -0.0809 -3.4429 0.588, -0.014 -3.4469 0.588, -0.014 -3.4429 0.588, -0.014 -3.4469 0.6094, -0.014 -3.4429 0.6094, -0.0809 -3.4469 0.6094, -0.0809 -3.4429 0.6094, -0.0809 -3.4469 0.6692, -0.0809 -3.4429 0.6692, -0.0087 -3.4469 0.6692, -0.0087 -3.4429 0.6692, -0.0087 -3.4469 0.6907, -0.0087 -3.4429 0.6907, -0.105 -3.4469 0.6907, -0.105 -3.4429 0.6907, -0.105 -3.4469 0.5038, -0.105 -3.4429 0.5038, 0.0502 -3.4469 0.5603, 0.0553 -3.4469 0.5629, 0.0429 -3.4469 0.5781, 0.1011 -3.4469 0.5245, 0.1017 -3.4469 0.5245, 0.1002 -3.4469 0.546, 0.1017 -3.4469 0.5564, 0.1251 -3.4469 0.5897, 0.1017 -3.4469 0.558, 0.1017 -3.4469 0.5708, 0.1017 -3.4469 0.5038, 0.1251 -3.4469 0.5038, 0.0929 -3.4469 0.6386, 0.0881 -3.4469 0.6186, 0.1023 -3.4469 0.6354, 0.0922 -3.4469 0.6159, 0.0622 -3.4469 0.5831, 0.0705 -3.4469 0.5666, 0.1017 -3.4469 0.5886, 0.0968 -3.4469 0.5376, 0.0917 -3.4469 0.5308, 0.0963 -3.4469 0.5174, 0.0888 -3.4469 0.5279, 0.0887 -3.4469 0.5099, 0.0821 -3.4469 0.5234, 0.0823 -3.4469 0.5057, 0.075 -3.4469 0.5209, 0.0729 -3.4469 0.5022, 0.0663 -3.4469 0.5199, 0.0602 -3.4469 0.5007, 0.0584 -3.4469 0.5208, 0.0462 -3.4469 0.5023, 0.0531 -3.4469 0.5227, 0.0372 -3.4469 0.5057, 0.0484 -3.4469 0.5259, 0.0294 -3.4469 0.5112, 0.0464 -3.4469 0.5279, 0.1009 -3.4469 0.599, 0.1229 -3.4469 0.6093, 0.0985 -3.4469 0.6073, 0.119 -3.4469 0.6193, 0.0957 -3.4469 0.6121, 0.1141 -3.4469 0.6266, 0.1098 -3.4469 0.6307, 0.0309 -3.4469 0.6279, 0.0309 -3.4469 0.6052, 0.0358 -3.4469 0.6307, 0.0471 -3.4469 0.6153, 0.0531 -3.4469 0.6374, 0.0617 -3.4469 0.6201, 0.0769 -3.4469 0.6403, 0.0747 -3.4469 0.6213, 0.0826 -3.4469 0.6205, 0.0479 -3.4469 0.5584, 0.0335 -3.4469 0.5729, 0.0451 -3.4469 0.5549, 0.0266 -3.4469 0.5666, 0.043 -3.4469 0.5505, 0.0218 -3.4469 0.559, 0.0418 -3.4469 0.5452, 0.019 -3.4469 0.5504, 0.0416 -3.4469 0.5415, 0.0179 -3.4469 0.5395, 0.0422 -3.4469 0.5361, 0.0191 -3.4469 0.5288, 0.0438 -3.4469 0.5318, 0.0219 -3.4469 0.5209, 0.0268 -3.4469 0.5138, 0.0769 -3.4429 0.6403, 0.0531 -3.4429 0.6374, 0.0358 -3.4429 0.6307, 0.0309 -3.4429 0.6279, 0.0309 -3.4429 0.6052, 0.0471 -3.4429 0.6153, 0.0617 -3.4429 0.6201, 0.0747 -3.4429 0.6213, 0.0826 -3.4429 0.6205, 0.0881 -3.4429 0.6186, 0.0922 -3.4429 0.6159, 0.0957 -3.4429 0.6121, 0.0985 -3.4429 0.6073, 0.1009 -3.4429 0.599, 0.1017 -3.4429 0.5886, 0.0622 -3.4429 0.5831, 0.0429 -3.4429 0.5781, 0.0335 -3.4429 0.5729, 0.0266 -3.4429 0.5666, 0.0218 -3.4429 0.559, 0.019 -3.4429 0.5504, 0.0179 -3.4429 0.5395, 0.0191 -3.4429 0.5288, 0.0219 -3.4429 0.5209, 0.0268 -3.4429 0.5138, 0.0294 -3.4429 0.5112, 0.0602 -3.4429 0.5007, 0.0466 -3.4429 0.5022, 0.0462 -3.4429 0.5023, 0.0372 -3.4429 0.5057, 0.0729 -3.4429 0.5022, 0.0731 -3.4429 0.5022, 0.0823 -3.4429 0.5057, 0.0887 -3.4429 0.5099, 0.0963 -3.4429 0.5174, 0.1011 -3.4429 0.5245, 0.1017 -3.4429 0.5245, 0.1017 -3.4429 0.5038, 0.1251 -3.4429 0.5038, 0.1251 -3.4429 0.5897, 0.1229 -3.4429 0.6093, 0.119 -3.4429 0.6193, 0.1141 -3.4429 0.6266, 0.1098 -3.4429 0.6307, 0.1023 -3.4429 0.6354, 0.0929 -3.4429 0.6386, 0.0479 -3.4429 0.5584, 0.0502 -3.4429 0.5603, 0.0553 -3.4429 0.5629, 0.0705 -3.4429 0.5666, 0.0416 -3.4429 0.5415, 0.0418 -3.4429 0.5452, 0.043 -3.4429 0.5505, 0.0451 -3.4429 0.5549, 0.0484 -3.4429 0.5259, 0.0464 -3.4429 0.5279, 0.0438 -3.4429 0.5318, 0.0422 -3.4429 0.5361, 0.0663 -3.4429 0.5199, 0.0584 -3.4429 0.5208, 0.0531 -3.4429 0.5227, 0.0917 -3.4429 0.5308, 0.0888 -3.4429 0.5279, 0.0821 -3.4429 0.5234, 0.075 -3.4429 0.5209, 0.1017 -3.4429 0.558, 0.1017 -3.4429 0.5564, 0.1002 -3.4429 0.546, 0.0968 -3.4429 0.5376, 0.1017 -3.4429 0.5708
            ]
        }
        coordIndex [
            0,1,2,-1,2,1,3,-1,4,0,5,-1,5,0,2,-1,6,4,7,-1,7,4,5,-1,8,6,9,-1,9,6,7,-1,10,8,11,-1,11,8,9,-1,12,10,13,-1,13,10,11,-1,14,12,15,-1,15,12,13,-1,16,14,17,-1,17,14,15,-1,18,16,19,-1,19,16,17,-1,20,18,21,-1,21,18,19,-1,22,20,23,-1,23,20,21,-1,1,22,3,-1,3,22,23,-1,22,1,0,-1,0,4,22,-1,22,4,6,-1,22,6,20,-1,16,18,14,-1,14,18,20,-1,14,20,12,-1,12,20,6,-1,12,6,10,-1,10,6,8,-1,24,25,26,-1,27,28,29,-1,30,31,32,-1,32,31,33,-1,34,35,28,-1,28,35,31,-1,28,31,29,-1,29,31,30,-1,36,37,38,-1,38,37,39,-1,26,25,40,-1,40,25,41,-1,40,41,42,-1,29,43,27,-1,27,43,44,-1,27,44,45,-1,45,44,46,-1,45,46,47,-1,47,46,48,-1,47,48,49,-1,49,48,50,-1,49,50,51,-1,51,50,52,-1,51,52,53,-1,53,52,54,-1,53,54,55,-1,55,54,56,-1,55,56,57,-1,57,56,58,-1,57,58,59,-1,59,58,60,-1,41,33,42,-1,42,33,31,-1,42,31,61,-1,61,31,62,-1,61,62,63,-1,63,62,64,-1,63,64,65,-1,65,64,66,-1,65,66,39,-1,39,66,67,-1,39,67,38,-1,68,69,70,-1,70,69,71,-1,70,71,72,-1,72,71,73,-1,72,73,74,-1,74,73,75,-1,74,75,36,-1,36,75,76,-1,36,76,37,-1,24,26,77,-1,77,26,78,-1,77,78,79,-1,79,78,80,-1,79,80,81,-1,81,80,82,-1,81,82,83,-1,83,82,84,-1,83,84,85,-1,85,84,86,-1,85,86,87,-1,87,86,88,-1,87,88,89,-1,89,88,90,-1,89,90,60,-1,60,90,91,-1,60,91,59,-1,74,92,93,-1,74,93,72,-1,72,93,94,-1,72,94,70,-1,70,94,95,-1,70,95,68,-1,69,68,96,-1,96,68,95,-1,69,96,97,-1,69,97,71,-1,71,97,98,-1,71,98,73,-1,73,98,99,-1,73,99,75,-1,75,99,100,-1,75,100,76,-1,76,100,101,-1,76,101,37,-1,37,101,102,-1,37,102,39,-1,39,102,103,-1,39,103,65,-1,65,103,104,-1,65,104,63,-1,63,104,105,-1,63,105,61,-1,61,105,106,-1,61,106,42,-1,40,42,107,-1,107,42,106,-1,40,107,108,-1,40,108,26,-1,26,108,109,-1,26,109,78,-1,78,109,110,-1,78,110,80,-1,80,110,111,-1,80,111,82,-1,82,111,112,-1,82,112,84,-1,84,112,113,-1,84,113,86,-1,86,113,114,-1,86,114,88,-1,88,114,115,-1,88,115,90,-1,90,115,116,-1,90,116,91,-1,91,116,117,-1,91,117,59,-1,118,53,119,-1,119,53,55,-1,119,55,120,-1,120,55,57,-1,120,57,121,-1,121,57,59,-1,121,59,117,-1,53,118,122,-1,53,122,51,-1,51,122,123,-1,51,123,49,-1,123,124,49,-1,49,124,125,-1,49,125,47,-1,47,125,126,-1,47,126,45,-1,45,126,127,-1,45,127,27,-1,28,27,128,-1,128,27,127,-1,34,28,129,-1,129,28,128,-1,35,34,130,-1,130,34,129,-1,31,35,131,-1,131,35,130,-1,31,131,132,-1,31,132,62,-1,62,132,133,-1,62,133,64,-1,64,133,134,-1,64,134,66,-1,66,134,135,-1,66,135,67,-1,67,135,136,-1,67,136,38,-1,38,136,137,-1,38,137,36,-1,36,137,92,-1,36,92,74,-1,77,138,139,-1,77,139,24,-1,24,139,140,-1,24,140,25,-1,25,140,141,-1,25,141,41,-1,85,142,143,-1,85,143,83,-1,83,143,144,-1,83,144,81,-1,81,144,145,-1,81,145,79,-1,79,145,138,-1,79,138,77,-1,58,146,147,-1,58,147,60,-1,60,147,148,-1,60,148,89,-1,89,148,149,-1,89,149,87,-1,87,149,142,-1,87,142,85,-1,52,150,151,-1,52,151,54,-1,54,151,152,-1,54,152,56,-1,56,152,146,-1,56,146,58,-1,44,153,154,-1,44,154,46,-1,46,154,155,-1,46,155,48,-1,48,155,156,-1,48,156,50,-1,50,156,150,-1,50,150,52,-1,32,157,158,-1,32,158,30,-1,30,158,159,-1,30,159,29,-1,29,159,160,-1,29,160,43,-1,43,160,153,-1,43,153,44,-1,32,33,157,-1,157,33,161,-1,33,41,161,-1,161,41,141,-1,
        ]
    }
}
Shape{
    appearance Appearance {
        material  Material 	{
            diffuseColor 0.25098039215686274 0.25098039215686274 0.25098039215686274
            specularColor 0.12549019607843137 0.12549019607843137 0.12549019607843137
            ambientIntensity 0.251
            transparency 0.0
            shininess 0.5
        }
    }
    geometry IndexedFaceSet {
        ccw TRUE
        solid FALSE
        coord DEF co Coordinate {
            point [
                0.1017 -3.4429 0.5564, 0.1017 -3.4429 0.558, 0.0479 -3.4429 0.5584, 0.1017 -3.4429 0.5708, 0.0705 -3.4429 0.5666, 0.0553 -3.4429 0.5629, 0.0502 -3.4429 0.5603, 0.1002 -3.4429 0.546, 0.0451 -3.4429 0.5549, 0.0968 -3.4429 0.5376, 0.0464 -3.4429 0.5279, 0.0484 -3.4429 0.5259, 0.0888 -3.4429 0.5279, 0.0438 -3.4429 0.5318, 0.0821 -3.4429 0.5234, 0.075 -3.4429 0.5209, 0.0663 -3.4429 0.5199, 0.043 -3.4429 0.5505, 0.0418 -3.4429 0.5452, 0.0917 -3.4429 0.5308, 0.0416 -3.4429 0.5415, 0.0422 -3.4429 0.5361, 0.0531 -3.4429 0.5227, 0.0584 -3.4429 0.5208
            ]
        }
        coordIndex [
            0,1,2,-1,1,3,4,-1,4,5,1,-1,1,5,6,-1,1,6,2,-1,0,2,7,-1,7,2,8,-1,7,8,9,-1,10,11,12,-1,10,12,13,-1,14,12,15,-1,15,12,16,-1,8,17,9,-1,9,17,18,-1,9,18,19,-1,19,18,20,-1,19,20,12,-1,12,20,21,-1,12,21,13,-1,11,22,12,-1,12,22,23,-1,12,23,16,-1,
        ]
    }
}
Shape{
    appearance Appearance {
        material  Material 	{
            diffuseColor 1.0 1.0 1.0
            specularColor 0.5019607843137255 0.5019607843137255 0.5019607843137255
            ambientIntensity 1.0
            transparency 0.0
            shininess 0.5
        }
    }
    geometry IndexedFaceSet {
        ccw TRUE
        solid FALSE
        coord DEF co Coordinate {
            point [
                0.1568 -3.4429 0.5327, 0.1568 -3.4469 0.5327, 0.1669 -3.4469 0.5265, 0.1953 -3.4469 0.5198, 0.1953 -3.4429 0.5198, 0.1816 -3.4429 0.5213, 0.1816 -3.4469 0.5213, 0.1677 -3.4429 0.5263, 0.1669 -3.4429 0.5265, 0.1568 -3.4469 0.5085, 0.1568 -3.4429 0.5085, 0.1733 -3.4469 0.5027, 0.1677 -3.4429 0.5047, 0.193 -3.4429 0.5007, 0.193 -3.4469 0.5007, 0.1779 -3.4429 0.5022, 0.1733 -3.4429 0.5027, 0.2141 -3.4469 0.5032, 0.2063 -3.4429 0.5022, 0.2141 -3.4429 0.5032, 0.2264 -3.4429 0.5079, 0.2264 -3.4469 0.5079, 0.2319 -3.4429 0.5113, 0.2319 -3.4469 0.5113, 0.2386 -3.4429 0.5171, 0.2386 -3.4469 0.5171, 0.243 -3.4429 0.5233, 0.243 -3.4469 0.5233, 0.2458 -3.4429 0.5307, 0.2458 -3.4469 0.5307, 0.247 -3.4429 0.5401, 0.247 -3.4469 0.5401, 0.246 -3.4429 0.5488, 0.246 -3.4469 0.5488, 0.2435 -3.4429 0.5557, 0.2435 -3.4469 0.5557, 0.2391 -3.4429 0.5622, 0.2391 -3.4469 0.5622, 0.2335 -3.4429 0.5672, 0.2335 -3.4469 0.5672, 0.218 -3.4429 0.5758, 0.218 -3.4469 0.5758, 0.2089 -3.4429 0.5795, 0.2089 -3.4469 0.5795, 0.1889 -3.4429 0.5889, 0.1889 -3.4469 0.5889, 0.1862 -3.4429 0.5909, 0.1862 -3.4469 0.5909, 0.1839 -3.4429 0.5934, 0.1839 -3.4469 0.5934, 0.1822 -3.4429 0.5966, 0.1822 -3.4469 0.5966, 0.1813 -3.4429 0.6002, 0.1813 -3.4469 0.6002, 0.1811 -3.4429 0.6034, 0.1811 -3.4469 0.6034, 0.1815 -3.4429 0.6071, 0.1815 -3.4469 0.6071, 0.1827 -3.4429 0.6102, 0.1827 -3.4469 0.6102, 0.1847 -3.4429 0.6132, 0.1847 -3.4469 0.6132, 0.1882 -3.4429 0.6163, 0.1882 -3.4469 0.6163, 0.1935 -3.4429 0.6191, 0.1935 -3.4469 0.6191, 0.1997 -3.4429 0.6208, 0.1997 -3.4469 0.6208, 0.2066 -3.4429 0.6213, 0.2066 -3.4469 0.6213, 0.2209 -3.4429 0.6198, 0.2209 -3.4469 0.6198, 0.2342 -3.4429 0.6152, 0.2342 -3.4469 0.6152, 0.2406 -3.4429 0.6117, 0.2406 -3.4469 0.6117, 0.2406 -3.4469 0.6344, 0.2406 -3.4429 0.6344, 0.2254 -3.4429 0.6389, 0.2254 -3.4469 0.6389, 0.2089 -3.4429 0.6403, 0.2089 -3.4469 0.6403, 0.1903 -3.4429 0.6381, 0.1903 -3.4469 0.6381, 0.1778 -3.4429 0.6333, 0.1778 -3.4469 0.6333, 0.172 -3.4429 0.6297, 0.172 -3.4469 0.6297, 0.165 -3.4469 0.6235, 0.1677 -3.4429 0.6258, 0.165 -3.4429 0.6235, 0.1607 -3.4429 0.6171, 0.1607 -3.4469 0.6171, 0.1579 -3.4429 0.6096, 0.1579 -3.4469 0.6096, 0.157 -3.4429 0.6013, 0.157 -3.4469 0.6013, 0.158 -3.4429 0.5921, 0.158 -3.4469 0.5921, 0.1606 -3.4429 0.585, 0.1606 -3.4469 0.585, 0.1636 -3.4429 0.5801, 0.1636 -3.4469 0.5801, 0.1924 -3.4429 0.5625, 0.1924 -3.4469 0.5625, 0.1785 -3.4469 0.5689, 0.1674 -3.4429 0.5761, 0.1674 -3.4469 0.5761, 0.1677 -3.4429 0.576, 0.1785 -3.4429 0.5689, 0.2078 -3.4429 0.556, 0.2078 -3.4469 0.556, 0.2169 -3.4429 0.5505, 0.2169 -3.4469 0.5505, 0.2198 -3.4429 0.5475, 0.2198 -3.4469 0.5475, 0.2216 -3.4429 0.5444, 0.2216 -3.4469 0.5444, 0.2227 -3.4429 0.5407, 0.2227 -3.4469 0.5407, 0.2229 -3.4429 0.5378, 0.2229 -3.4469 0.5378, 0.2224 -3.4429 0.5334, 0.2224 -3.4469 0.5334, 0.2213 -3.4429 0.53, 0.2213 -3.4469 0.53, 0.2192 -3.4429 0.527, 0.2192 -3.4469 0.527, 0.2165 -3.4429 0.5246, 0.2165 -3.4469 0.5246, 0.2144 -3.4429 0.5233, 0.2144 -3.4469 0.5233, 0.2084 -3.4429 0.5211, 0.2084 -3.4469 0.5211, 0.1964 -3.4429 0.5198, 0.1964 -3.4469 0.5198, 0.363 -3.4469 0.6373, 0.3872 -3.4469 0.6373, 0.363 -3.4429 0.6373, 0.3872 -3.4429 0.6373, 0.3265 -3.4469 0.5368, 0.3265 -3.4429 0.5368, 0.3247 -3.4429 0.5306, 0.3247 -3.4469 0.5306, 0.3237 -3.4429 0.526, 0.3237 -3.4469 0.526, 0.323 -3.4469 0.526, 0.323 -3.4429 0.526, 0.3202 -3.4469 0.537, 0.3202 -3.4429 0.537, 0.2853 -3.4429 0.6373, 0.2853 -3.4469 0.6373, 0.2966 -3.4429 0.6048, 0.2591 -3.4469 0.6373, 0.2591 -3.4429 0.6373, 0.3115 -3.4429 0.5041, 0.3115 -3.4469 0.5041, 0.2966 -3.4429 0.542, 0.3012 -3.4429 0.4799, 0.3012 -3.4469 0.4799, 0.3107 -3.4429 0.5022, 0.2966 -3.4429 0.4714, 0.2965 -3.4469 0.4713, 0.2965 -3.4429 0.4713, 0.2921 -3.4429 0.4665, 0.2921 -3.4469 0.4665, 0.2884 -3.4429 0.4638, 0.2884 -3.4469 0.4638, 0.2833 -3.4429 0.4618, 0.2833 -3.4469 0.4618, 0.2772 -3.4429 0.461, 0.2772 -3.4469 0.461, 0.2687 -3.4429 0.4621, 0.2687 -3.4469 0.4621, 0.264 -3.4429 0.4637, 0.264 -3.4469 0.4637, 0.264 -3.4469 0.4429, 0.264 -3.4429 0.4429, 0.2739 -3.4429 0.4412, 0.2739 -3.4469 0.4412, 0.279 -3.4429 0.441, 0.279 -3.4469 0.441, 0.2885 -3.4429 0.4421, 0.2885 -3.4469 0.4421, 0.2966 -3.4429 0.4451, 0.2977 -3.4469 0.4456, 0.2977 -3.4429 0.4456, 0.3059 -3.4429 0.4513, 0.3059 -3.4469 0.4513, 0.3075 -3.4429 0.4528, 0.3075 -3.4469 0.4528, 0.3161 -3.4429 0.463, 0.3161 -3.4469 0.463, 0.3267 -3.4429 0.4837, 0.3267 -3.4469 0.4837, 0.334 -3.4429 0.5022, 0.5129 -3.4469 0.5251, 0.5129 -3.4469 0.5038, 0.5129 -3.4429 0.5251, 0.5129 -3.4429 0.5038, 0.4366 -3.4429 0.5251, 0.4366 -3.4469 0.5251, 0.4715 -3.4429 0.5251, 0.4366 -3.4469 0.588, 0.4366 -3.4429 0.588, 0.5034 -3.4429 0.588, 0.5034 -3.4469 0.588, 0.4715 -3.4429 0.588, 0.5034 -3.4469 0.6094, 0.5034 -3.4429 0.6094, 0.4366 -3.4429 0.6094, 0.4366 -3.4469 0.6094, 0.4715 -3.4429 0.6094, 0.4366 -3.4469 0.6692, 0.4366 -3.4429 0.6692, 0.5087 -3.4429 0.6692, 0.5087 -3.4469 0.6692, 0.4715 -3.4429 0.6692, 0.5087 -3.4469 0.6907, 0.5087 -3.4429 0.6907, 0.4124 -3.4429 0.6907, 0.4124 -3.4469 0.6907, 0.4715 -3.4429 0.6907, 0.4124 -3.4469 0.5038, 0.4124 -3.4429 0.5038, 0.4715 -3.4429 0.5038, 0.6721 -3.4469 0.53, 0.6529 -3.4469 0.5426, 0.6527 -3.4469 0.516, 0.6408 -3.4469 0.5342, 0.6314 -3.4469 0.5077, 0.6254 -3.4469 0.5282, 0.5996 -3.4469 0.5038, 0.5995 -3.4469 0.5251, 0.5482 -3.4469 0.5038, 0.5723 -3.4469 0.5251, 0.5482 -3.4469 0.6907, 0.5723 -3.4469 0.6692, 0.6015 -3.4469 0.6907, 0.6006 -3.4469 0.6692, 0.6076 -3.4469 0.669, 0.63 -3.4469 0.6875, 0.6272 -3.4469 0.6658, 0.6526 -3.4469 0.6793, 0.6429 -3.4469 0.6596, 0.6721 -3.4469 0.6659, 0.6545 -3.4469 0.6516, 0.6787 -3.4469 0.6595, 0.6596 -3.4469 0.6465, 0.6903 -3.4469 0.6432, 0.6669 -3.4469 0.6361, 0.6972 -3.4469 0.6254, 0.6722 -3.4469 0.6224, 0.7003 -3.4469 0.5996, 0.675 -3.4469 0.599, 0.6998 -3.4469 0.5877, 0.6741 -3.4469 0.5852, 0.6952 -3.4469 0.5659, 0.6702 -3.4469 0.5685, 0.686 -3.4469 0.5465, 0.6635 -3.4469 0.5549, 0.655 -3.4469 0.5446, 0.5996 -3.4429 0.5038, 0.5482 -3.4429 0.5038, 0.6314 -3.4429 0.5077, 0.6527 -3.4429 0.516, 0.6721 -3.4429 0.53, 0.686 -3.4429 0.5465, 0.6952 -3.4429 0.5659, 0.6998 -3.4429 0.5877, 0.7003 -3.4429 0.5996, 0.6972 -3.4429 0.6254, 0.6903 -3.4429 0.6432, 0.6787 -3.4429 0.6595, 0.6721 -3.4429 0.6659, 0.6526 -3.4429 0.6793, 0.63 -3.4429 0.6875, 0.6015 -3.4429 0.6907, 0.5482 -3.4429 0.6907, 0.6006 -3.4429 0.6692, 0.5723 -3.4429 0.6692, 0.5723 -3.4429 0.5251, 0.5995 -3.4429 0.5251, 0.655 -3.4429 0.5446, 0.6529 -3.4429 0.5426, 0.6408 -3.4429 0.5342, 0.6254 -3.4429 0.5282, 0.675 -3.4429 0.599, 0.6741 -3.4429 0.5852, 0.6702 -3.4429 0.5685, 0.6635 -3.4429 0.5549, 0.6545 -3.4429 0.6516, 0.6596 -3.4429 0.6465, 0.6669 -3.4429 0.6361, 0.6722 -3.4429 0.6224, 0.6076 -3.4429 0.669, 0.6272 -3.4429 0.6658, 0.6429 -3.4429 0.6596
            ]
        }
        coordIndex [
            0,1,2,-1,3,4,5,-1,3,5,6,-1,6,5,7,-1,6,7,2,-1,2,7,8,-1,2,8,0,-1,9,1,10,-1,10,1,0,-1,9,10,11,-1,11,10,12,-1,13,14,15,-1,15,14,11,-1,15,11,16,-1,16,11,12,-1,14,13,17,-1,17,13,18,-1,18,19,17,-1,17,19,20,-1,17,20,21,-1,21,20,22,-1,21,22,23,-1,23,22,24,-1,23,24,25,-1,25,24,26,-1,25,26,27,-1,27,26,28,-1,27,28,29,-1,29,28,30,-1,29,30,31,-1,31,30,32,-1,31,32,33,-1,33,32,34,-1,33,34,35,-1,35,34,36,-1,35,36,37,-1,37,36,38,-1,37,38,39,-1,39,38,40,-1,39,40,41,-1,41,40,42,-1,41,42,43,-1,43,42,44,-1,43,44,45,-1,45,44,46,-1,45,46,47,-1,47,46,48,-1,47,48,49,-1,49,48,50,-1,49,50,51,-1,51,50,52,-1,51,52,53,-1,53,52,54,-1,53,54,55,-1,55,54,56,-1,55,56,57,-1,57,56,58,-1,57,58,59,-1,59,58,60,-1,59,60,61,-1,61,60,62,-1,61,62,63,-1,63,62,64,-1,63,64,65,-1,65,64,66,-1,65,66,67,-1,67,66,68,-1,67,68,69,-1,69,68,70,-1,69,70,71,-1,71,70,72,-1,71,72,73,-1,73,72,74,-1,73,74,75,-1,76,75,77,-1,77,75,74,-1,76,77,78,-1,76,78,79,-1,79,78,80,-1,79,80,81,-1,81,80,82,-1,81,82,83,-1,83,82,84,-1,83,84,85,-1,85,84,86,-1,85,86,87,-1,87,86,88,-1,88,86,89,-1,89,90,88,-1,88,90,91,-1,88,91,92,-1,92,91,93,-1,92,93,94,-1,94,93,95,-1,94,95,96,-1,96,95,97,-1,96,97,98,-1,98,97,99,-1,98,99,100,-1,100,99,101,-1,100,101,102,-1,103,104,105,-1,102,101,106,-1,102,106,107,-1,107,106,108,-1,107,108,105,-1,105,108,109,-1,105,109,103,-1,104,103,110,-1,104,110,111,-1,111,110,112,-1,111,112,113,-1,113,112,114,-1,113,114,115,-1,115,114,116,-1,115,116,117,-1,117,116,118,-1,117,118,119,-1,119,118,120,-1,119,120,121,-1,121,120,122,-1,121,122,123,-1,123,122,124,-1,123,124,125,-1,125,124,126,-1,125,126,127,-1,127,126,128,-1,127,128,129,-1,129,128,130,-1,129,130,131,-1,131,130,132,-1,131,132,133,-1,133,132,134,-1,133,134,135,-1,135,134,4,-1,135,4,3,-1,61,63,85,-1,85,63,83,-1,14,3,11,-1,11,3,6,-1,11,6,9,-1,9,6,2,-1,9,2,1,-1,63,65,83,-1,83,65,67,-1,83,67,81,-1,81,67,69,-1,81,69,79,-1,79,69,71,-1,79,71,76,-1,76,71,73,-1,76,73,75,-1,127,129,21,-1,21,129,131,-1,21,131,17,-1,17,131,133,-1,17,133,14,-1,14,133,135,-1,14,135,3,-1,85,87,61,-1,61,87,88,-1,61,88,59,-1,59,88,92,-1,59,92,57,-1,57,92,94,-1,57,94,55,-1,55,94,96,-1,55,96,53,-1,53,96,98,-1,53,98,51,-1,51,98,100,-1,51,100,49,-1,49,100,102,-1,49,102,47,-1,47,102,107,-1,47,107,45,-1,45,107,105,-1,45,105,43,-1,43,105,104,-1,43,104,41,-1,41,104,111,-1,41,111,39,-1,39,111,113,-1,39,113,37,-1,37,113,115,-1,37,115,35,-1,35,115,117,-1,35,117,33,-1,33,117,119,-1,33,119,31,-1,31,119,121,-1,31,121,29,-1,29,121,123,-1,29,123,27,-1,27,123,125,-1,27,125,25,-1,25,125,127,-1,25,127,23,-1,23,127,21,-1,136,137,138,-1,138,137,139,-1,140,136,141,-1,141,136,138,-1,140,141,142,-1,140,142,143,-1,143,142,144,-1,143,144,145,-1,146,145,147,-1,147,145,144,-1,148,146,149,-1,149,146,147,-1,150,151,152,-1,152,151,148,-1,152,148,149,-1,153,151,154,-1,154,151,150,-1,155,156,157,-1,157,156,153,-1,157,153,154,-1,158,159,160,-1,160,159,156,-1,160,156,155,-1,158,161,159,-1,159,161,162,-1,161,163,162,-1,162,163,164,-1,162,164,165,-1,165,164,166,-1,165,166,167,-1,167,166,168,-1,167,168,169,-1,169,168,170,-1,169,170,171,-1,171,170,172,-1,171,172,173,-1,173,172,174,-1,173,174,175,-1,176,175,177,-1,177,175,174,-1,176,177,178,-1,176,178,179,-1,179,178,180,-1,179,180,181,-1,181,180,182,-1,181,182,183,-1,183,182,184,-1,183,184,185,-1,184,186,185,-1,185,186,187,-1,185,187,188,-1,188,187,189,-1,188,189,190,-1,190,189,191,-1,190,191,192,-1,192,191,193,-1,192,193,194,-1,139,137,195,-1,195,137,194,-1,195,194,193,-1,143,145,194,-1,137,136,194,-1,194,136,140,-1,194,140,143,-1,151,153,148,-1,148,153,156,-1,148,156,146,-1,175,176,173,-1,173,176,179,-1,173,179,171,-1,171,179,181,-1,171,181,169,-1,169,181,183,-1,169,183,167,-1,167,183,185,-1,167,185,165,-1,145,146,194,-1,194,146,156,-1,194,156,192,-1,156,159,192,-1,192,159,162,-1,192,162,190,-1,190,162,165,-1,190,165,188,-1,188,165,185,-1,196,197,198,-1,198,197,199,-1,200,201,202,-1,202,201,196,-1,202,196,198,-1,203,201,204,-1,204,201,200,-1,205,206,207,-1,207,206,203,-1,207,203,204,-1,208,206,209,-1,209,206,205,-1,210,211,212,-1,212,211,208,-1,212,208,209,-1,213,211,214,-1,214,211,210,-1,215,216,217,-1,217,216,213,-1,217,213,214,-1,218,216,219,-1,219,216,215,-1,220,221,222,-1,222,221,218,-1,222,218,219,-1,223,221,224,-1,224,221,220,-1,199,197,225,-1,225,197,223,-1,225,223,224,-1,223,197,196,-1,196,201,223,-1,223,201,203,-1,223,203,221,-1,216,218,213,-1,213,218,221,-1,213,221,211,-1,211,221,203,-1,211,203,208,-1,208,203,206,-1,226,227,228,-1,228,227,229,-1,228,229,230,-1,230,229,231,-1,230,231,232,-1,232,231,233,-1,232,233,234,-1,234,233,235,-1,234,235,236,-1,236,235,237,-1,236,237,238,-1,237,239,238,-1,238,239,240,-1,238,240,241,-1,241,240,242,-1,241,242,243,-1,243,242,244,-1,243,244,245,-1,245,244,246,-1,245,246,247,-1,247,246,248,-1,247,248,249,-1,249,248,250,-1,249,250,251,-1,251,250,252,-1,251,252,253,-1,253,252,254,-1,253,254,255,-1,255,254,256,-1,255,256,257,-1,257,256,258,-1,257,258,259,-1,259,258,260,-1,259,260,226,-1,226,260,261,-1,226,261,227,-1,232,234,262,-1,262,234,263,-1,232,262,264,-1,232,264,230,-1,230,264,265,-1,230,265,228,-1,228,265,266,-1,228,266,226,-1,226,266,267,-1,226,267,259,-1,259,267,268,-1,259,268,257,-1,257,268,269,-1,257,269,255,-1,255,269,270,-1,255,270,253,-1,253,270,271,-1,253,271,251,-1,251,271,272,-1,251,272,249,-1,249,272,273,-1,249,273,247,-1,247,273,274,-1,247,274,245,-1,245,274,275,-1,245,275,243,-1,243,275,276,-1,243,276,241,-1,241,276,277,-1,241,277,238,-1,236,238,278,-1,278,238,277,-1,234,236,263,-1,263,236,278,-1,239,237,279,-1,279,237,280,-1,237,235,280,-1,280,235,281,-1,235,233,281,-1,281,233,282,-1,261,283,284,-1,261,284,227,-1,227,284,285,-1,227,285,229,-1,229,285,286,-1,229,286,231,-1,231,286,282,-1,231,282,233,-1,254,287,288,-1,254,288,256,-1,256,288,289,-1,256,289,258,-1,258,289,290,-1,258,290,260,-1,260,290,283,-1,260,283,261,-1,246,291,292,-1,246,292,248,-1,248,292,293,-1,248,293,250,-1,250,293,294,-1,250,294,252,-1,252,294,287,-1,252,287,254,-1,239,279,295,-1,239,295,240,-1,240,295,296,-1,240,296,242,-1,242,296,297,-1,242,297,244,-1,244,297,291,-1,244,291,246,-1,
        ]
    }
}
Shape{
    appearance Appearance {
        material  Material 	{
            diffuseColor 0.25098039215686274 0.25098039215686274 0.25098039215686274
            specularColor 0.12549019607843137 0.12549019607843137 0.12549019607843137
            ambientIntensity 0.251
            transparency 0.0
            shininess 0.5
        }
    }
    geometry IndexedFaceSet {
        ccw TRUE
        solid FALSE
        coord DEF co Coordinate {
            point [
                0.6529 -3.4429 0.5426, 0.655 -3.4429 0.5446, 0.6076 -3.4429 0.669, 0.6408 -3.4429 0.5342, 0.5723 -3.4429 0.6692, 0.5723 -3.4429 0.5251, 0.6006 -3.4429 0.6692, 0.5995 -3.4429 0.5251, 0.6254 -3.4429 0.5282, 0.6635 -3.4429 0.5549, 0.6702 -3.4429 0.5685, 0.6741 -3.4429 0.5852, 0.6545 -3.4429 0.6516, 0.675 -3.4429 0.599, 0.6429 -3.4429 0.6596, 0.6272 -3.4429 0.6658, 0.6722 -3.4429 0.6224, 0.6669 -3.4429 0.6361, 0.6596 -3.4429 0.6465
            ]
        }
        coordIndex [
            0,1,2,-1,0,2,3,-1,4,5,6,-1,6,5,7,-1,6,7,2,-1,2,7,8,-1,2,8,3,-1,1,9,2,-1,2,9,10,-1,2,10,11,-1,12,11,13,-1,12,14,11,-1,11,14,15,-1,11,15,2,-1,16,17,13,-1,13,17,18,-1,13,18,12,-1,
        ]
    }
}
Shape{
    appearance Appearance {
        material  Material 	{
            diffuseColor 1.0 1.0 1.0
            specularColor 0.5019607843137255 0.5019607843137255 0.5019607843137255
            ambientIntensity 1.0
            transparency 0.0
            shininess 0.5
        }
    }
    geometry IndexedFaceSet {
        ccw TRUE
        solid FALSE
        coord DEF co Coordinate {
            point [
                0.7629 -3.4469 0.576, 0.7553 -3.4469 0.5549, 0.8256 -3.4469 0.576, 0.8331 -3.4469 0.5549, 0.7909 -3.4469 0.6537, 0.7818 -3.4469 0.6907, 0.7107 -3.4469 0.5038, 0.7373 -3.4469 0.5038, 0.7925 -3.4469 0.6593, 0.7939 -3.4469 0.6668, 0.8076 -3.4469 0.6907, 0.7945 -3.4469 0.6668, 0.796 -3.4469 0.6589, 0.7974 -3.4469 0.6537, 0.8788 -3.4469 0.5038, 0.8521 -3.4469 0.5038, 0.8076 -3.4429 0.6907, 0.8788 -3.4429 0.5038, 0.7818 -3.4429 0.6907, 0.7107 -3.4429 0.5038, 0.7373 -3.4429 0.5038, 0.7553 -3.4429 0.5549, 0.8331 -3.4429 0.5549, 0.8521 -3.4429 0.5038, 0.7629 -3.4429 0.576, 0.8256 -3.4429 0.576, 0.7974 -3.4429 0.6537, 0.7945 -3.4429 0.6668, 0.796 -3.4429 0.6589, 0.7939 -3.4429 0.6668, 0.7909 -3.4429 0.6537, 0.7925 -3.4429 0.6593
            ]
        }
        coordIndex [
            0,1,2,-1,2,1,3,-1,4,5,0,-1,0,5,6,-1,0,6,1,-1,1,6,7,-1,4,8,5,-1,5,8,9,-1,5,9,10,-1,10,9,11,-1,10,11,12,-1,12,13,10,-1,10,13,2,-1,10,2,14,-1,14,2,3,-1,14,3,15,-1,10,14,16,-1,16,14,17,-1,5,10,18,-1,18,10,16,-1,6,5,19,-1,19,5,18,-1,7,6,20,-1,20,6,19,-1,1,7,21,-1,21,7,20,-1,3,1,22,-1,22,1,21,-1,15,3,23,-1,23,3,22,-1,14,15,17,-1,17,15,23,-1,0,2,24,-1,24,2,25,-1,2,13,25,-1,25,13,26,-1,11,27,28,-1,11,28,12,-1,12,28,26,-1,12,26,13,-1,11,9,27,-1,27,9,29,-1,4,30,31,-1,4,31,8,-1,8,31,29,-1,8,29,9,-1,4,0,30,-1,30,0,24,-1,
        ]
    }
}
Shape{
    appearance Appearance {
        material  Material 	{
            diffuseColor 0.25098039215686274 0.25098039215686274 0.25098039215686274
            specularColor 0.12549019607843137 0.12549019607843137 0.12549019607843137
            ambientIntensity 0.251
            transparency 0.0
            shininess 0.5
        }
    }
    geometry IndexedFaceSet {
        ccw TRUE
        solid FALSE
        coord DEF co Coordinate {
            point [
                0.7945 -3.4429 0.6668, 0.7939 -3.4429 0.6668, 0.796 -3.4429 0.6589, 0.7925 -3.4429 0.6593, 0.7974 -3.4429 0.6537, 0.7909 -3.4429 0.6537, 0.8256 -3.4429 0.576, 0.7629 -3.4429 0.576
            ]
        }
        coordIndex [
            0,1,2,-1,2,1,3,-1,2,3,4,-1,4,3,5,-1,4,5,6,-1,6,5,7,-1,
        ]
    }
}
Shape{
    appearance Appearance {
        material  Material 	{
            diffuseColor 1.0 1.0 1.0
            specularColor 0.5019607843137255 0.5019607843137255 0.5019607843137255
            ambientIntensity 1.0
            transparency 0.0
            shininess 0.5
        }
    }
    geometry IndexedFaceSet {
        ccw TRUE
        solid FALSE
        coord DEF co Coordinate {
            point [
                -0.9301 -3.4469 0.4774, -0.9103 -3.4469 0.453, -0.9421 -3.4469 0.5948, -0.9651 -3.4469 0.8257, -0.9355 -3.4469 0.8414, -0.9409 -3.4469 0.9235, -0.7085 -3.4469 0.4722, -0.6928 -3.4469 0.5018, -0.6851 -3.4469 0.5346, -0.8597 -3.4469 0.9269, -0.8185 -3.4469 0.8299, -0.7983 -3.4469 0.8719, -0.853 -3.4469 0.5084, -0.8424 -3.4469 0.5011, -0.8844 -3.4469 0.4334, -0.8301 -3.4469 0.4965, -0.8903 -3.4469 0.9296, -0.4984 -3.4469 0.6599, -0.5396 -3.4469 0.7303, -0.6844 -3.4469 0.5616, -0.7176 -3.4469 0.6373, -0.6844 -3.4469 0.5483, -0.7555 -3.4469 0.4308, -0.729 -3.4469 0.4492, -0.7707 -3.4469 0.5669, -0.7673 -3.4469 0.5547, -0.767 -3.4469 0.5418, -0.77 -3.4469 0.529, -0.776 -3.4469 0.5175, -0.971 -3.4469 0.6126, -0.9625 -3.4469 0.5117, -0.9434 -3.4469 0.5058, -0.4546 -3.4469 0.7914, -0.444 -3.4469 0.7914, -0.3895 -3.4469 0.8632, -0.4187 -3.4469 0.7883, -0.3829 -3.4469 0.8609, -0.3955 -3.4469 0.7794, -0.3434 -3.4469 0.8413, -0.3074 -3.4469 0.8108, -0.8325 -3.4469 0.9586, -0.7685 -3.4469 0.9075, -0.8013 -3.4469 0.9854, -0.7328 -3.4469 0.9336, -0.7605 -3.4469 1.0097, -0.9027 -3.4469 0.8492, -0.8889 -3.4469 0.8499, -0.875 -3.4469 0.9287, -0.8579 -3.4469 0.846, -0.8281 -3.4469 0.8352, -0.8537 -3.4469 0.4205, -0.8224 -3.4469 0.4156, -0.8185 -3.4469 0.4952, -0.8172 -3.4469 0.4155, -0.8064 -3.4469 0.4966, -0.7851 -3.4469 0.4195, -0.7948 -3.4469 0.5009, -0.7846 -3.4469 0.5079, -0.3071 -3.4469 0.563, -0.3691 -3.4469 0.6156, -0.3433 -3.4469 0.5323, -0.3888 -3.4469 0.5996, -0.3838 -3.4469 0.5125, -0.4122 -3.4469 0.5888, -0.428 -3.4469 0.5032, -0.436 -3.4469 0.5842, -0.5064 -3.4469 0.5032, -0.4958 -3.4469 0.5842, -0.5139 -3.4469 0.5044, -1.0178 -3.4469 0.7492, -1.105 -3.4469 0.7286, -1.0218 -3.4469 0.717, -1.1055 -3.4469 0.7144, -1.0202 -3.4469 0.6967, -1.0994 -3.4469 0.664, -1.0107 -3.4469 0.6641, -1.0808 -3.4469 0.6145, -0.9948 -3.4469 0.6371, -1.0497 -3.4469 0.5696, -1.0102 -3.4469 0.5356, -0.8615 -3.4469 0.518, -0.8671 -3.4469 0.529, -0.87 -3.4469 0.5412, -0.3749 -3.4469 0.765, -0.3595 -3.4469 0.7478, -0.2803 -3.4469 0.773, -0.3472 -3.4469 0.7249, -0.264 -3.4469 0.7324, -0.341 -3.4469 0.6994, -0.258 -3.4469 0.6891, -0.3403 -3.4469 0.6878, -0.2641 -3.4469 0.6417, -0.3435 -3.4469 0.662, -0.2808 -3.4469 0.5996, -0.3527 -3.4469 0.6383, -0.3673 -3.4469 0.6176, -0.4612 -3.4469 0.9681, -0.5131 -3.4469 0.9069, -0.4136 -3.4469 0.9116, -0.4831 -3.4469 0.8711, -0.4627 -3.4469 0.8283, -0.9902 -3.4469 0.9049, -1.0327 -3.4469 0.8755, -0.988 -3.4469 0.8053, -1.043 -3.4469 0.8658, -1.0064 -3.4469 0.7788, -1.0742 -3.4469 0.8261, -1.0957 -3.4469 0.7785, -0.6987 -3.4469 1.0311, -0.6894 -3.4469 0.9512, -0.6419 -3.4469 1.0372, -0.6405 -3.4469 0.9575, -0.5871 -3.4469 1.0314, -0.5955 -3.4469 0.9519, -0.5205 -3.4469 1.0079, -0.5539 -3.4469 0.936, -0.5166 -3.4469 0.9101, -0.87 -3.4469 0.5528, -0.8669 -3.4469 0.5655, -0.9274 -3.4469 0.6234, -0.8607 -3.4469 0.577, -0.9054 -3.4469 0.6485, -0.8527 -3.4469 0.5859, -0.8782 -3.4469 0.6674, -0.8422 -3.4469 0.5931, -0.8489 -3.4469 0.6786, -0.8305 -3.4469 0.5974, -0.8172 -3.4469 0.6825, -0.8185 -3.4469 0.5988, -0.801 -3.4469 0.6815, -0.8089 -3.4469 0.5979, -0.769 -3.4469 0.6736, -0.7965 -3.4469 0.5938, -0.7408 -3.4469 0.6585, -0.7856 -3.4469 0.5869, -0.7767 -3.4469 0.5776, -0.5024 -3.4469 0.5854, -0.5344 -3.4469 0.5171, -0.5313 -3.4469 0.514, -0.4984 -3.4469 0.5846, -0.5227 -3.4469 0.5078, -0.5449 -3.4469 0.5444, -0.5436 -3.4469 0.5345, -0.5401 -3.4469 0.5255, -0.514 -3.4469 0.5842, -0.5231 -3.4469 0.5806, -0.5446 -3.4469 0.5496, -0.5313 -3.4469 0.5748, -0.5368 -3.4469 0.5688, -0.5419 -3.4469 0.5597, -0.5037 -3.4469 0.5855, -0.258 -3.4429 0.6891, -0.264 -3.4429 0.7324, -0.2986 -3.4429 0.7986, -0.2686 -3.4429 0.7439, -0.2803 -3.4429 0.773, -0.3074 -3.4429 0.8108, -0.3434 -3.4429 0.8413, -0.3829 -3.4429 0.8609, -0.3895 -3.4429 0.8632, -0.4136 -3.4429 0.9116, -0.4612 -3.4429 0.9681, -0.4917 -3.4429 0.9886, -0.5205 -3.4429 1.0079, -0.5871 -3.4429 1.0314, -0.6419 -3.4429 1.0372, -0.6987 -3.4429 1.0311, -0.7605 -3.4429 1.0097, -0.7958 -3.4429 0.9886, -0.8013 -3.4429 0.9854, -0.8325 -3.4429 0.9586, -0.8597 -3.4429 0.9269, -0.875 -3.4429 0.9287, -0.8903 -3.4429 0.9296, -0.9409 -3.4429 0.9235, -0.9902 -3.4429 0.9049, -1.0327 -3.4429 0.8755, -1.043 -3.4429 0.8658, -1.1055 -3.4429 0.7144, -1.0742 -3.4429 0.8261, -1.0866 -3.4429 0.7986, -1.0957 -3.4429 0.7785, -1.1022 -3.4429 0.7439, -1.105 -3.4429 0.7286, -1.0994 -3.4429 0.664, -1.0808 -3.4429 0.6145, -1.0497 -3.4429 0.5696, -1.0102 -3.4429 0.5356, -0.9625 -3.4429 0.5117, -0.9434 -3.4429 0.5058, -0.9417 -3.4429 0.5022, -0.9301 -3.4429 0.4774, -0.9103 -3.4429 0.453, -0.8844 -3.4429 0.4334, -0.8721 -3.4429 0.4282, -0.8537 -3.4429 0.4205, -0.8224 -3.4429 0.4156, -0.8172 -3.4429 0.4155, -0.6844 -3.4429 0.5483, -0.7851 -3.4429 0.4195, -0.7622 -3.4429 0.4282, -0.7555 -3.4429 0.4308, -0.729 -3.4429 0.4492, -0.7085 -3.4429 0.4722, -0.6928 -3.4429 0.5018, -0.6927 -3.4429 0.5022, -0.6851 -3.4429 0.5346, -0.6844 -3.4429 0.5616, -0.4984 -3.4429 0.6599, -0.5396 -3.4429 0.7303, -0.7176 -3.4429 0.6373, -0.7408 -3.4429 0.6585, -0.769 -3.4429 0.6736, -0.801 -3.4429 0.6815, -0.8172 -3.4429 0.6825, -0.8489 -3.4429 0.6786, -0.8782 -3.4429 0.6674, -0.9054 -3.4429 0.6485, -0.9274 -3.4429 0.6234, -0.9421 -3.4429 0.5948, -0.971 -3.4429 0.6126, -0.9948 -3.4429 0.6371, -1.0107 -3.4429 0.6641, -1.0202 -3.4429 0.6967, -1.0218 -3.4429 0.717, -1.0185 -3.4429 0.7439, -1.0178 -3.4429 0.7492, -1.0064 -3.4429 0.7788, -0.9926 -3.4429 0.7986, -0.988 -3.4429 0.8053, -0.9651 -3.4429 0.8257, -0.9355 -3.4429 0.8414, -0.9027 -3.4429 0.8492, -0.8889 -3.4429 0.8499, -0.8579 -3.4429 0.846, -0.8281 -3.4429 0.8352, -0.8185 -3.4429 0.8299, -0.7983 -3.4429 0.8719, -0.7685 -3.4429 0.9075, -0.7328 -3.4429 0.9336, -0.6894 -3.4429 0.9512, -0.6405 -3.4429 0.9575, -0.5955 -3.4429 0.9519, -0.5539 -3.4429 0.936, -0.5166 -3.4429 0.9101, -0.5131 -3.4429 0.9069, -0.4831 -3.4429 0.8711, -0.4627 -3.4429 0.8283, -0.4562 -3.4429 0.7986, -0.4546 -3.4429 0.7914, -0.444 -3.4429 0.7914, -0.4187 -3.4429 0.7883, -0.3955 -3.4429 0.7794, -0.3749 -3.4429 0.765, -0.3595 -3.4429 0.7478, -0.3574 -3.4429 0.7439, -0.3472 -3.4429 0.7249, -0.341 -3.4429 0.6994, -0.3403 -3.4429 0.6878, -0.3435 -3.4429 0.662, -0.3527 -3.4429 0.6383, -0.3673 -3.4429 0.6176, -0.3691 -3.4429 0.6156, -0.3888 -3.4429 0.5996, -0.4122 -3.4429 0.5888, -0.436 -3.4429 0.5842, -0.4958 -3.4429 0.5842, -0.4984 -3.4429 0.5846, -0.5024 -3.4429 0.5854, -0.5037 -3.4429 0.5855, -0.514 -3.4429 0.5842, -0.5231 -3.4429 0.5806, -0.5313 -3.4429 0.5748, -0.5368 -3.4429 0.5688, -0.5419 -3.4429 0.5597, -0.5446 -3.4429 0.5496, -0.5449 -3.4429 0.5444, -0.5436 -3.4429 0.5345, -0.5401 -3.4429 0.5255, -0.5344 -3.4429 0.5171, -0.5313 -3.4429 0.514, -0.5227 -3.4429 0.5078, -0.5139 -3.4429 0.5044, -0.5064 -3.4429 0.5032, -0.428 -3.4429 0.5032, -0.3838 -3.4429 0.5125, -0.3433 -3.4429 0.5323, -0.3071 -3.4429 0.563, -0.2808 -3.4429 0.5996, -0.2641 -3.4429 0.6417, -0.8185 -3.4429 0.5988, -0.8089 -3.4429 0.5979, -0.7965 -3.4429 0.5938, -0.7856 -3.4429 0.5869, -0.7767 -3.4429 0.5776, -0.7707 -3.4429 0.5669, -0.7673 -3.4429 0.5547, -0.767 -3.4429 0.5418, -0.77 -3.4429 0.529, -0.776 -3.4429 0.5175, -0.7846 -3.4429 0.5079, -0.7948 -3.4429 0.5009, -0.8064 -3.4429 0.4966, -0.8185 -3.4429 0.4952, -0.8301 -3.4429 0.4965, -0.8424 -3.4429 0.5011, -0.853 -3.4429 0.5084, -0.8615 -3.4429 0.518, -0.8671 -3.4429 0.529, -0.87 -3.4429 0.5412, -0.87 -3.4429 0.5528, -0.8669 -3.4429 0.5655, -0.8607 -3.4429 0.577, -0.8527 -3.4429 0.5859, -0.8422 -3.4429 0.5931, -0.8305 -3.4429 0.5974
            ]
        }
        coordIndex [
            0,1,2,-1,3,4,5,-1,6,7,8,-1,9,10,11,-1,12,1,13,-1,13,1,14,-1,13,14,15,-1,5,4,16,-1,17,18,19,-1,19,18,20,-1,19,20,21,-1,21,20,22,-1,21,22,8,-1,8,22,23,-1,8,23,6,-1,24,25,20,-1,20,25,26,-1,20,26,22,-1,22,26,27,-1,22,27,28,-1,29,30,2,-1,2,30,31,-1,2,31,0,-1,32,33,34,-1,34,33,35,-1,34,35,36,-1,36,35,37,-1,36,37,38,-1,38,37,39,-1,9,11,40,-1,40,11,41,-1,40,41,42,-1,42,41,43,-1,42,43,44,-1,4,45,16,-1,16,45,46,-1,16,46,47,-1,47,46,48,-1,47,48,9,-1,9,48,49,-1,9,49,10,-1,14,50,15,-1,15,50,51,-1,15,51,52,-1,52,51,53,-1,52,53,54,-1,54,53,55,-1,54,55,56,-1,56,55,22,-1,56,22,57,-1,57,22,28,-1,58,59,60,-1,60,59,61,-1,60,61,62,-1,62,61,63,-1,62,63,64,-1,64,63,65,-1,64,65,66,-1,66,65,67,-1,66,67,68,-1,69,70,71,-1,71,70,72,-1,71,72,73,-1,73,72,74,-1,73,74,75,-1,75,74,76,-1,75,76,77,-1,77,76,78,-1,77,78,29,-1,29,78,79,-1,29,79,30,-1,12,80,1,-1,1,80,81,-1,1,81,2,-1,2,81,82,-1,37,83,39,-1,39,83,84,-1,39,84,85,-1,85,84,86,-1,85,86,87,-1,87,86,88,-1,87,88,89,-1,89,88,90,-1,89,90,91,-1,91,90,92,-1,91,92,93,-1,93,92,94,-1,93,94,58,-1,58,94,95,-1,58,95,59,-1,96,97,98,-1,98,97,99,-1,98,99,34,-1,34,99,100,-1,34,100,32,-1,5,101,3,-1,3,101,102,-1,3,102,103,-1,103,102,104,-1,103,104,105,-1,105,104,106,-1,105,106,69,-1,69,106,107,-1,69,107,70,-1,44,43,108,-1,108,43,109,-1,108,109,110,-1,110,109,111,-1,110,111,112,-1,112,111,113,-1,112,113,114,-1,114,113,115,-1,114,115,96,-1,96,115,116,-1,96,116,97,-1,82,117,2,-1,2,117,118,-1,2,118,119,-1,119,118,120,-1,119,120,121,-1,121,120,122,-1,121,122,123,-1,123,122,124,-1,123,124,125,-1,125,124,126,-1,125,126,127,-1,127,126,128,-1,127,128,129,-1,129,128,130,-1,129,130,131,-1,131,130,132,-1,131,132,133,-1,133,132,134,-1,133,134,20,-1,20,134,135,-1,20,135,24,-1,136,137,138,-1,67,139,68,-1,68,139,136,-1,68,136,140,-1,140,136,138,-1,141,142,136,-1,136,142,143,-1,136,143,137,-1,144,145,146,-1,145,147,146,-1,146,147,148,-1,146,148,149,-1,141,136,146,-1,146,136,150,-1,146,150,144,-1,89,151,152,-1,153,39,85,-1,89,152,87,-1,87,152,154,-1,87,154,85,-1,85,154,155,-1,85,155,153,-1,153,156,39,-1,39,156,157,-1,39,157,38,-1,38,157,158,-1,38,158,36,-1,36,158,159,-1,36,159,34,-1,34,159,160,-1,34,160,98,-1,98,160,161,-1,98,161,96,-1,114,96,162,-1,162,96,161,-1,162,163,114,-1,114,163,164,-1,114,164,112,-1,112,164,165,-1,112,165,110,-1,110,165,166,-1,110,166,108,-1,108,166,167,-1,108,167,44,-1,44,167,42,-1,42,167,168,-1,42,168,169,-1,42,169,170,-1,42,170,40,-1,40,170,171,-1,40,171,9,-1,9,171,172,-1,9,172,47,-1,47,172,173,-1,47,173,16,-1,16,173,174,-1,16,174,5,-1,5,174,175,-1,5,175,101,-1,101,175,176,-1,101,176,102,-1,102,176,177,-1,102,177,104,-1,178,72,70,-1,104,177,179,-1,104,179,106,-1,106,179,180,-1,106,180,107,-1,180,181,107,-1,107,181,182,-1,107,182,70,-1,70,182,183,-1,70,183,178,-1,72,178,184,-1,72,184,74,-1,74,184,185,-1,74,185,76,-1,76,185,186,-1,76,186,78,-1,78,186,187,-1,78,187,79,-1,79,187,188,-1,79,188,30,-1,30,188,189,-1,30,189,31,-1,31,189,190,-1,31,190,0,-1,190,191,0,-1,0,191,192,-1,0,192,1,-1,1,192,193,-1,1,193,14,-1,14,193,194,-1,14,194,50,-1,194,195,50,-1,50,195,196,-1,50,196,51,-1,51,196,197,-1,51,197,53,-1,198,21,8,-1,53,197,199,-1,200,22,199,-1,199,22,55,-1,199,55,53,-1,200,201,22,-1,22,201,202,-1,22,202,23,-1,23,202,203,-1,23,203,6,-1,6,203,204,-1,6,204,7,-1,7,204,205,-1,7,205,8,-1,8,205,206,-1,8,206,198,-1,19,21,207,-1,207,21,198,-1,17,19,208,-1,208,19,207,-1,18,17,209,-1,209,17,208,-1,20,18,210,-1,210,18,209,-1,20,210,211,-1,20,211,133,-1,133,211,212,-1,133,212,131,-1,131,212,213,-1,131,213,129,-1,129,213,214,-1,129,214,127,-1,127,214,215,-1,127,215,125,-1,125,215,216,-1,125,216,123,-1,123,216,217,-1,123,217,121,-1,121,217,218,-1,121,218,119,-1,119,218,219,-1,119,219,2,-1,2,219,220,-1,2,220,29,-1,29,220,221,-1,29,221,77,-1,77,221,222,-1,77,222,75,-1,75,222,223,-1,75,223,73,-1,73,223,224,-1,73,224,71,-1,69,71,224,-1,224,225,69,-1,69,225,226,-1,69,226,227,-1,228,103,227,-1,227,103,105,-1,227,105,69,-1,228,229,103,-1,103,229,230,-1,103,230,3,-1,3,230,231,-1,3,231,4,-1,4,231,232,-1,4,232,45,-1,45,232,233,-1,45,233,46,-1,46,233,234,-1,46,234,48,-1,48,234,235,-1,48,235,49,-1,49,235,236,-1,49,236,10,-1,10,236,237,-1,10,237,11,-1,11,237,238,-1,11,238,41,-1,41,238,239,-1,41,239,43,-1,43,239,240,-1,43,240,109,-1,109,240,241,-1,109,241,111,-1,111,241,242,-1,111,242,113,-1,113,242,243,-1,113,243,115,-1,115,243,244,-1,115,244,116,-1,116,244,245,-1,116,245,97,-1,97,245,246,-1,97,246,99,-1,99,246,247,-1,99,247,100,-1,100,247,32,-1,32,247,248,-1,32,248,249,-1,33,32,250,-1,250,32,249,-1,33,250,251,-1,33,251,35,-1,35,251,252,-1,35,252,37,-1,37,252,253,-1,37,253,83,-1,83,253,254,-1,83,254,84,-1,84,254,255,-1,84,255,86,-1,255,256,86,-1,86,256,257,-1,86,257,88,-1,88,257,258,-1,88,258,90,-1,90,258,259,-1,90,259,92,-1,92,259,260,-1,92,260,94,-1,94,260,261,-1,94,261,95,-1,95,261,262,-1,95,262,59,-1,59,262,263,-1,59,263,61,-1,61,263,264,-1,61,264,63,-1,63,264,265,-1,63,265,65,-1,67,65,266,-1,266,65,265,-1,67,266,267,-1,67,267,139,-1,139,267,268,-1,139,268,136,-1,136,268,269,-1,136,269,150,-1,150,269,270,-1,150,270,144,-1,144,270,271,-1,144,271,145,-1,145,271,272,-1,145,272,147,-1,147,272,273,-1,147,273,148,-1,148,273,274,-1,148,274,149,-1,149,274,275,-1,149,275,146,-1,146,275,276,-1,146,276,141,-1,141,276,277,-1,141,277,142,-1,142,277,278,-1,142,278,143,-1,143,278,279,-1,143,279,137,-1,137,279,280,-1,137,280,138,-1,138,280,281,-1,138,281,140,-1,140,281,282,-1,140,282,68,-1,68,282,283,-1,68,283,66,-1,64,66,284,-1,284,66,283,-1,64,284,285,-1,64,285,62,-1,62,285,286,-1,62,286,60,-1,60,286,287,-1,60,287,58,-1,58,287,288,-1,58,288,93,-1,93,288,289,-1,93,289,91,-1,91,289,151,-1,91,151,89,-1,128,290,291,-1,128,291,130,-1,130,291,292,-1,130,292,132,-1,132,292,293,-1,132,293,134,-1,134,293,294,-1,134,294,135,-1,135,294,295,-1,135,295,24,-1,24,295,296,-1,24,296,25,-1,25,296,297,-1,25,297,26,-1,26,297,298,-1,26,298,27,-1,27,298,299,-1,27,299,28,-1,28,299,300,-1,28,300,57,-1,57,300,301,-1,57,301,56,-1,56,301,302,-1,56,302,54,-1,54,302,303,-1,54,303,52,-1,52,303,304,-1,52,304,15,-1,15,304,305,-1,15,305,13,-1,13,305,306,-1,13,306,12,-1,12,306,307,-1,12,307,80,-1,80,307,308,-1,80,308,81,-1,81,308,309,-1,81,309,82,-1,82,309,310,-1,82,310,117,-1,117,310,311,-1,117,311,118,-1,118,311,312,-1,118,312,120,-1,120,312,313,-1,120,313,122,-1,122,313,314,-1,122,314,124,-1,124,314,315,-1,124,315,126,-1,126,315,290,-1,126,290,128,-1,
        ]
    }
}
Shape{
    appearance Appearance {
        material  Material 	{
            diffuseColor 0.25098039215686274 0.25098039215686274 0.25098039215686274
            specularColor 0.12549019607843137 0.12549019607843137 0.12549019607843137
            ambientIntensity 0.251
            transparency 0.0
            shininess 0.5
        }
    }
    geometry IndexedFaceSet {
        ccw TRUE
        solid FALSE
        coord DEF co Coordinate {
            point [
                -0.8185 -3.4429 0.5988, -0.8185 -3.4429 0.4952, -0.8089 -3.4429 0.5979, -0.8064 -3.4429 0.4966, -0.87 -3.4429 0.5412, -0.8305 -3.4429 0.5974, -0.8422 -3.4429 0.5931, -0.8527 -3.4429 0.5859, -0.87 -3.4429 0.5528, -0.8607 -3.4429 0.577, -0.8669 -3.4429 0.5655, -0.8671 -3.4429 0.529, -0.8615 -3.4429 0.518, -0.853 -3.4429 0.5084, -0.7846 -3.4429 0.5079, -0.7767 -3.4429 0.5776, -0.7856 -3.4429 0.5869, -0.8424 -3.4429 0.5011, -0.8301 -3.4429 0.4965, -0.7948 -3.4429 0.5009, -0.7965 -3.4429 0.5938, -0.77 -3.4429 0.529, -0.767 -3.4429 0.5418, -0.776 -3.4429 0.5175, -0.7673 -3.4429 0.5547, -0.7707 -3.4429 0.5669
            ]
        }
        coordIndex [
            0,1,2,-1,2,1,3,-1,4,0,5,-1,5,6,4,-1,4,6,7,-1,4,7,8,-1,8,7,9,-1,8,9,10,-1,4,11,0,-1,0,11,12,-1,0,12,13,-1,14,15,16,-1,13,17,0,-1,0,17,18,-1,0,18,1,-1,3,19,2,-1,2,19,14,-1,2,14,20,-1,20,14,16,-1,21,22,23,-1,23,22,24,-1,23,24,14,-1,14,24,25,-1,14,25,15,-1,
        ]
    }
}