#VRML V2.0 utf8
# 3D model generated by easyeda2kicad.py (https://github.com/uPesy/easyeda2kicad.py)

Shape{
    appearance Appearance {
        material  Material 	{
            diffuseColor 1.0 1.0 0.7529411764705882
            specularColor 0.8784313725490196 0.8784313725490196 0.6627450980392157
            ambientIntensity 0.9718
            transparency 0.0
            shininess 0.5
        }
    }
    geometry IndexedFaceSet {
        ccw TRUE
        solid FALSE
        coord DEF co Coordinate {
            point [
                0.3905 -0.7677 0.0748, 0.5709 -0.7677 0.0748, 0.5709 -0.7677 0.0951, 0.1758 -0.7677 0.0748, 0.3905 -0.7677 0.0951, 0.0783 -0.7677 0.1099, 0.0768 -0.7677 0.1098, 0.086 -0.7677 0.1098, 0.1176 -0.7677 0.1471, 0.1294 -0.7677 0.1471, 0.1294 -0.7677 0.1577, -0.0323 -0.7677 0.177, -0.0252 -0.7677 0.171, -0.0002 -0.7677 0.2063, -0.0002 -0.7677 0.1686, -0.0674 -0.7677 0.2101, -0.0618 -0.7677 0.2063, -0.0557 -0.7677 0.2022, -0.0462 -0.7677 0.191, -0.0415 -0.7677 0.1814, -0.0402 -0.7677 0.1809, -0.0807 -0.7677 0.2147, -0.0002 -0.7677 0.3268, -0.0915 -0.7677 0.2159, -0.1028 -0.7677 0.2147, -0.1151 -0.7677 0.2104, -0.5709 -0.7677 0.3268, -0.1221 -0.7677 0.2063, -0.5709 -0.7677 0.2063, -0.1232 -0.7677 0.2056, -0.5709 -0.7677 0.1686, -0.1798 -0.7677 0.1686, -0.1773 -0.7677 0.174, -0.1711 -0.7677 0.1819, -0.1509 -0.7677 0.1933, -0.1408 -0.7677 0.1945, -0.1294 -0.7677 0.2003, -0.1378 -0.7677 0.1944, -0.1348 -0.7677 0.194, -0.1691 -0.7677 0.1838, -0.1607 -0.7677 0.1896, -0.1646 -0.7677 0.1164, -0.1724 -0.7677 0.1231, -0.5709 -0.7677 0.1098, -0.1552 -0.7677 0.1116, -0.1786 -0.7677 0.132, -0.1823 -0.7677 0.1418, -0.5709 -0.7677 0.1577, -0.1835 -0.7677 0.1518, -0.1834 -0.7677 0.1547, -0.1829 -0.7677 0.1577, -0.1816 -0.7677 0.1646, -0.1514 -0.7677 0.1105, -0.151 -0.7677 0.1098, -0.1487 -0.7677 0.1048, -0.1448 -0.7677 0.1, -0.0002 -0.7677 0.0951, -0.1154 -0.7677 0.0951, -0.0002 -0.7677 0.0748, -0.12 -0.7677 0.0933, -0.1263 -0.7677 0.0925, -0.1273 -0.7677 0.0926, -0.5709 -0.7677 0.0748, -0.1336 -0.7677 0.0935, -0.5709 -0.7677 0.0951, -0.1372 -0.7677 0.0951, -0.1397 -0.7677 0.0961, -0.0002 -0.7677 0.1098, -0.1016 -0.7677 0.1098, -0.1016 -0.7677 0.1097, -0.1048 -0.7677 0.1038, -0.1088 -0.7677 0.0992, -0.1141 -0.7677 0.0956, -0.0166 -0.7677 0.1554, -0.0154 -0.7677 0.1468, -0.0002 -0.7677 0.1577, -0.068 -0.7677 0.1253, -0.0662 -0.7677 0.126, -0.0631 -0.7677 0.141, -0.0251 -0.7677 0.1218, -0.0323 -0.7677 0.1157, -0.1066 -0.7677 0.1366, -0.0712 -0.7677 0.155, -0.1112 -0.7677 0.1408, -0.1168 -0.7677 0.1437, -0.0696 -0.7677 0.1242, -0.0199 -0.7677 0.1291, -0.0318 -0.7677 0.1489, -0.0331 -0.7677 0.1539, -0.0351 -0.7677 0.1577, -0.1663 -0.7677 0.1577, -0.0166 -0.7677 0.1374, -0.0641 -0.7677 0.1263, -0.0639 -0.7677 0.1263, -0.0631 -0.7677 0.1261, -0.1647 -0.7677 0.1419, -0.1616 -0.7677 0.1365, -0.1482 -0.7677 0.1338, -0.1568 -0.7677 0.1317, -0.1511 -0.7677 0.1281, -0.1384 -0.7677 0.1425, -0.1438 -0.7677 0.1388, -0.1669 -0.7677 0.1524, -0.1666 -0.7677 0.1483, -0.1326 -0.7677 0.1447, -0.1263 -0.7677 0.1455, -0.1231 -0.7677 0.1453, -0.0723 -0.7677 0.1181, -0.0722 -0.7677 0.1192, -0.1 -0.7677 0.1215, -0.0717 -0.7677 0.1212, -0.0707 -0.7677 0.123, -0.0371 -0.7677 0.1326, -0.0342 -0.7677 0.1367, -0.0323 -0.7677 0.1414, -0.0317 -0.7677 0.1466, -0.0661 -0.7677 0.1102, -0.0679 -0.7677 0.1109, -0.0696 -0.7677 0.1121, -0.0702 -0.7677 0.1127, -0.0714 -0.7677 0.1144, -0.072 -0.7677 0.1161, -0.1001 -0.7677 0.1162, -0.1 -0.7677 0.1189, -0.0403 -0.7677 0.1118, -0.0491 -0.7677 0.1099, -0.0647 -0.7677 0.1099, -0.0625 -0.7677 0.126, -0.0507 -0.7677 0.126, -0.046 -0.7677 0.1269, -0.0413 -0.7677 0.1291, -0.0374 -0.7677 0.1323, -0.0544 -0.7677 0.1671, -0.1639 -0.7677 0.1646, -0.1661 -0.7677 0.1587, -0.0523 -0.7677 0.1671, -0.0355 -0.7677 0.1585, -0.0386 -0.7677 0.1619, -0.0427 -0.7677 0.1647, -0.0473 -0.7677 0.1665, -0.06 -0.7677 0.1829, -0.066 -0.7677 0.1901, -0.1266 -0.7677 0.1748, -0.0667 -0.7677 0.1907, -0.0741 -0.7677 0.1958, -0.1226 -0.7677 0.1831, -0.1611 -0.7677 0.1686, -0.1285 -0.7677 0.1758, -0.0547 -0.7677 0.1686, -0.056 -0.7677 0.1745, -0.1344 -0.7677 0.178, -0.1406 -0.7677 0.1787, -0.1433 -0.7677 0.1786, -0.1167 -0.7677 0.1902, -0.0823 -0.7677 0.199, -0.1096 -0.7677 0.1953, -0.0913 -0.7677 0.2001, -0.101 -0.7677 0.1988, -0.1498 -0.7677 0.1771, -0.1557 -0.7677 0.1739, -0.1602 -0.7677 0.1699, -0.0234 -0.7677 0.1686, -0.0198 -0.7677 0.1635, -0.0175 -0.7677 0.1577, 0.1376 -0.7677 0.1143, 0.1376 -0.7677 0.1101, 0.1411 -0.7677 0.1098, 0.1411 -0.7677 0.1577, 0.1367 -0.7677 0.1471, 0.1367 -0.7677 0.1429, 0.1224 -0.7677 0.1268, 0.1224 -0.7677 0.1143, 0.1294 -0.7677 0.1268, 0.1294 -0.7677 0.1143, 0.1357 -0.7677 0.1268, 0.1357 -0.7677 0.131, 0.1224 -0.7677 0.1429, 0.1224 -0.7677 0.131, 0.1294 -0.7677 0.1429, 0.1294 -0.7677 0.131, 0.1294 -0.7677 0.1098, 0.1294 -0.7677 0.1101, 0.1176 -0.7677 0.1101, 0.0993 -0.7677 0.1166, 0.0999 -0.7677 0.1145, 0.1 -0.7677 0.1145, 0.1126 -0.7677 0.1365, 0.0947 -0.7677 0.1577, 0.1078 -0.7677 0.1365, 0.0947 -0.7677 0.1301, 0.1006 -0.7677 0.1166, 0.1002 -0.7677 0.1154, 0.067 -0.7677 0.1294, 0.0671 -0.7677 0.1311, 0.0622 -0.7677 0.1577, 0.0677 -0.7677 0.1262, 0.0672 -0.7677 0.1276, 0.0669 -0.7677 0.1158, 0.0689 -0.7677 0.1146, 0.0691 -0.7677 0.1145, 0.0691 -0.7677 0.1244, 0.0683 -0.7677 0.1252, 0.069 -0.7677 0.1244, 0.0711 -0.7677 0.1098, 0.0702 -0.7677 0.1098, 0.0691 -0.7677 0.1098, 0.0691 -0.7677 0.1102, 0.0622 -0.7677 0.1098, 0.0669 -0.7677 0.111, 0.0835 -0.7677 0.136, 0.0835 -0.7677 0.1315, 0.0699 -0.7677 0.135, 0.0711 -0.7677 0.1358, 0.0691 -0.7677 0.1577, 0.0822 -0.7677 0.1226, 0.0833 -0.7677 0.1216, 0.0677 -0.7677 0.1325, 0.0686 -0.7677 0.1338, 0.0691 -0.7677 0.1343, 0.0846 -0.7677 0.1154, 0.084 -0.7677 0.1139, 0.0832 -0.7677 0.1127, 0.0736 -0.7677 0.1367, 0.0773 -0.7677 0.1372, 0.086 -0.7677 0.1577, 0.0805 -0.7677 0.1369, 0.0841 -0.7677 0.1204, 0.0846 -0.7677 0.119, 0.0848 -0.7677 0.1173, 0.0733 -0.7677 0.127, 0.0773 -0.7677 0.1251, 0.0768 -0.7677 0.1334, 0.0818 -0.7677 0.1115, 0.0807 -0.7677 0.1109, 0.0791 -0.7677 0.1244, 0.0823 -0.7677 0.1322, 0.0796 -0.7677 0.1331, 0.0754 -0.7677 0.1333, 0.0742 -0.7677 0.1329, 0.0717 -0.7677 0.1298, 0.0732 -0.7677 0.1324, 0.0718 -0.7677 0.1292, 0.072 -0.7677 0.1285, 0.0723 -0.7677 0.1279, 0.0728 -0.7677 0.1274, 0.0725 -0.7677 0.1318, 0.0721 -0.7677 0.1312, 0.0718 -0.7677 0.1306, 0.0719 -0.7677 0.1135, 0.074 -0.7677 0.1217, 0.0712 -0.7677 0.123, 0.0746 -0.7677 0.1132, 0.0748 -0.7677 0.1132, 0.077 -0.7677 0.1204, 0.0772 -0.7677 0.1135, 0.08 -0.7677 0.1168, 0.08 -0.7677 0.1174, 0.0784 -0.7677 0.1139, 0.0788 -0.7677 0.1142, 0.0793 -0.7677 0.1147, 0.0797 -0.7677 0.1153, 0.08 -0.7677 0.1159, 0.0798 -0.7677 0.1181, 0.0794 -0.7677 0.1187, 0.0789 -0.7677 0.1193, 0.1758 -0.7677 0.1686, 0.1638 -0.7677 0.1689, 0.1585 -0.7677 0.1689, 0.1547 -0.7677 0.179, 0.1411 -0.7677 0.179, 0.1411 -0.7677 0.1686, 0.1496 -0.7677 0.2059, 0.1758 -0.7677 0.2063, 0.1411 -0.7677 0.2063, 0.1393 -0.7677 0.179, 0.1357 -0.7677 0.1689, 0.1294 -0.7677 0.1686, 0.1304 -0.7677 0.1689, 0.1294 -0.7677 0.2063, 0.1411 -0.7677 0.1969, 0.1445 -0.7677 0.2059, 0.0947 -0.7677 0.2063, 0.086 -0.7677 0.2063, 0.0903 -0.7677 0.2059, 0.086 -0.7677 0.2059, 0.076 -0.7677 0.1856, 0.076 -0.7677 0.1731, 0.086 -0.7677 0.1856, 0.086 -0.7677 0.1731, 0.0893 -0.7677 0.1856, 0.0912 -0.7677 0.1731, 0.0893 -0.7677 0.1898, 0.0903 -0.7677 0.2017, 0.086 -0.7677 0.1898, 0.086 -0.7677 0.2017, 0.076 -0.7677 0.1898, 0.076 -0.7677 0.2017, 0.0712 -0.7677 0.1689, 0.0691 -0.7677 0.1686, 0.086 -0.7677 0.1686, 0.0947 -0.7677 0.1686, 0.0912 -0.7677 0.1689, 0.086 -0.7677 0.1689, 0.0712 -0.7677 0.2059, 0.0691 -0.7677 0.2063, 0.0596 -0.7677 0.2017, 0.0551 -0.7677 0.2022, 0.0622 -0.7677 0.1743, 0.0638 -0.7677 0.2001, 0.0638 -0.7677 0.175, 0.0634 -0.7677 0.2003, 0.0622 -0.7677 0.2007, 0.0532 -0.7677 0.2021, 0.05 -0.7677 0.2014, 0.0471 -0.7677 0.2, 0.045 -0.7677 0.1981, 0.0447 -0.7677 0.1979, 0.0429 -0.7677 0.1953, 0.0417 -0.7677 0.1921, 0.0411 -0.7677 0.187, 0.0412 -0.7677 0.1851, 0.0418 -0.7677 0.1815, 0.056 -0.7677 0.1726, 0.0602 -0.7677 0.1734, 0.0479 -0.7677 0.174, 0.0505 -0.7677 0.173, 0.0542 -0.7677 0.1725, 0.0431 -0.7677 0.1786, 0.0447 -0.7677 0.1764, 0.0455 -0.7677 0.1757, 0.059 -0.7677 0.2063, 0.0599 -0.7677 0.2062, 0.0622 -0.7677 0.2063, 0.0622 -0.7677 0.2055, 0.0638 -0.7677 0.2051, 0.055 -0.7677 0.2066, 0.0622 -0.7677 0.3268, 0.0525 -0.7677 0.2063, 0.0377 -0.7677 0.3268, 0.0377 -0.7677 0.2063, 0.0387 -0.7677 0.1976, 0.0414 -0.7677 0.2011, 0.0423 -0.7677 0.202, 0.0458 -0.7677 0.2044, 0.0497 -0.7677 0.2059, 0.0355 -0.7677 0.2063, 0.037 -0.7677 0.1935, 0.0377 -0.7677 0.1952, 0.0377 -0.7677 0.1783, 0.0368 -0.7677 0.1807, 0.0355 -0.7677 0.1686, 0.0361 -0.7677 0.1867, 0.0361 -0.7677 0.1886, 0.0473 -0.7677 0.1692, 0.0438 -0.7677 0.1708, 0.0377 -0.7677 0.1686, 0.0408 -0.7677 0.1733, 0.0405 -0.7677 0.1736, 0.0383 -0.7677 0.1768, 0.0503 -0.7677 0.1686, 0.0377 -0.7677 0.1577, 0.0513 -0.7677 0.1684, 0.0535 -0.7677 0.1682, 0.0568 -0.7677 0.1686, 0.0638 -0.7677 0.1704, 0.0632 -0.7677 0.1701, 0.0622 -0.7677 0.1686, 0.0622 -0.7677 0.1698, 0.0592 -0.7677 0.1688, 0.0411 -0.7677 0.1225, 0.042 -0.7677 0.1302, 0.0401 -0.7677 0.121, 0.0396 -0.7677 0.1193, 0.0606 -0.7677 0.1101, 0.056 -0.7677 0.1101, 0.0522 -0.7677 0.1332, 0.0506 -0.7677 0.1334, 0.0482 -0.7677 0.1258, 0.0602 -0.7677 0.131, 0.0606 -0.7677 0.1271, 0.0425 -0.7677 0.1238, 0.0443 -0.7677 0.1248, 0.0452 -0.7677 0.1322, 0.0481 -0.7677 0.1331, 0.0432 -0.7677 0.1104, 0.0416 -0.7677 0.1115, 0.0377 -0.7677 0.1098, 0.0411 -0.7677 0.112, 0.0402 -0.7677 0.1135, 0.056 -0.7677 0.1142, 0.0559 -0.7677 0.1142, 0.0549 -0.7677 0.1128, 0.0534 -0.7677 0.1113, 0.0396 -0.7677 0.115, 0.0394 -0.7677 0.1172, 0.042 -0.7677 0.1347, 0.0542 -0.7677 0.1368, 0.0561 -0.7677 0.1362, 0.0576 -0.7677 0.1352, 0.056 -0.7677 0.1269, 0.0558 -0.7677 0.1289, 0.0554 -0.7677 0.1306, 0.0548 -0.7677 0.1316, 0.0585 -0.7677 0.1344, 0.0594 -0.7677 0.133, 0.0429 -0.7677 0.1352, 0.0464 -0.7677 0.1366, 0.0511 -0.7677 0.1372, 0.0541 -0.7677 0.1323, 0.0533 -0.7677 0.1328, 0.0503 -0.7677 0.1098, 0.0503 -0.7677 0.1097, 0.0622 -0.7677 0.0951, 0.0377 -0.7677 0.0951, 0.0478 -0.7677 0.1094, 0.0451 -0.7677 0.1098, 0.045 -0.7677 0.1098, 0.0947 -0.7677 0.1098, 0.0947 -0.7677 0.1176, 0.0872 -0.7677 0.1365, 0.0924 -0.7677 0.1365, 0.0976 -0.7677 0.1101, 0.0975 -0.7677 0.1098, 0.0956 -0.7677 0.1053, 0.086 -0.7677 0.0951, 0.0882 -0.7677 0.098, 0.0882 -0.7677 0.1021, 0.0938 -0.7677 0.1027, 0.0946 -0.7677 0.1036, 0.0947 -0.7677 0.1036, 0.0741 -0.7677 0.1094, 0.0691 -0.7677 0.0951, 0.0891 -0.7677 0.1018, 0.0908 -0.7677 0.1016, 0.0947 -0.7677 0.0984, 0.0931 -0.7677 0.0978, 0.0947 -0.7677 0.0951, 0.0912 -0.7677 0.0976, 0.0902 -0.7677 0.0976, 0.092 -0.7677 0.1017, 0.093 -0.7677 0.1021, 0.1006 -0.7677 0.1061, 0.0985 -0.7677 0.102, 0.1294 -0.7677 0.0951, 0.1021 -0.7677 0.1098, 0.0968 -0.7677 0.0999, 0.0965 -0.7677 0.0996, 0.0949 -0.7677 0.0985, 0.1411 -0.7677 0.0748, 0.1411 -0.7677 0.0951, 0.1294 -0.7677 0.0748, 0.0947 -0.7677 0.0748, 0.086 -0.7677 0.0748, 0.0691 -0.7677 0.0748, 0.0622 -0.7677 0.0748, 0.0377 -0.7677 0.0748, 0.0521 -0.7677 0.1104, 0.1758 -0.7677 0.0951, 0.3905 -0.7677 0.1098, 0.1758 -0.7677 0.1098, 0.015 -0.7677 0.1471, 0.015 -0.7677 0.1101, 0.0355 -0.7677 0.1098, 0.0355 -0.7677 0.0951, 0.0355 -0.7677 0.0748, 0.0341 -0.7677 0.1471, 0.0355 -0.7677 0.1577, 0.0341 -0.7677 0.1429, 0.0349 -0.7677 0.1143, 0.0349 -0.7677 0.1101, 0.0198 -0.7677 0.1268, 0.0198 -0.7677 0.1143, 0.033 -0.7677 0.1268, 0.033 -0.7677 0.131, 0.0198 -0.7677 0.131, 0.0198 -0.7677 0.1429, 0.1548 -0.7677 0.1101, 0.1446 -0.7677 0.1101, 0.1738 -0.7677 0.1224, 0.1719 -0.7677 0.1185, 0.1692 -0.7677 0.1153, 0.1653 -0.7677 0.1125, 0.1611 -0.7677 0.1108, 0.1446 -0.7677 0.1471, 0.1552 -0.7677 0.1471, 0.1758 -0.7677 0.1577, 0.1608 -0.7677 0.1465, 0.1653 -0.7677 0.1449, 0.1692 -0.7677 0.1422, 0.1705 -0.7677 0.141, 0.1728 -0.7677 0.1377, 0.1741 -0.7677 0.1342, 0.1748 -0.7677 0.1291, 0.1747 -0.7677 0.1267, 0.1821 -0.7677 0.1101, 0.1768 -0.7677 0.1101, 0.2049 -0.7677 0.1101, 0.2011 -0.7677 0.1202, 0.1857 -0.7677 0.1202, 0.1909 -0.7677 0.1471, 0.1961 -0.7677 0.1471, 0.0198 -0.7677 0.2059, 0.0198 -0.7677 0.1731, 0.0345 -0.7677 0.1731, 0.015 -0.7677 0.1689, 0.015 -0.7677 0.2059, 0.0345 -0.7677 0.1689, 0.1273 -0.7677 0.1812, 0.1255 -0.7677 0.1773, 0.1228 -0.7677 0.1741, 0.1189 -0.7677 0.1713, 0.1087 -0.7677 0.2059, 0.1144 -0.7677 0.2053, 0.1189 -0.7677 0.2037, 0.1147 -0.7677 0.1696, 0.1084 -0.7677 0.1689, 0.0982 -0.7677 0.1689, 0.0982 -0.7677 0.2059, 0.1228 -0.7677 0.201, 0.1241 -0.7677 0.1998, 0.1264 -0.7677 0.1965, 0.1277 -0.7677 0.193, 0.1283 -0.7677 0.1879, 0.1282 -0.7677 0.1855, 0.2102 -0.7677 0.1101, 0.3905 -0.7677 0.1577, 0.3905 -0.7677 0.1686, 0.3905 -0.7677 0.2063, 0.5709 -0.7677 0.1098, 0.5709 -0.7677 0.1577, 0.5709 -0.7677 0.1686, 0.5709 -0.7677 0.2063, 0.0355 -0.7677 0.3268, 0.5709 -0.7677 0.3268, 0.3905 -0.7677 0.3268, 0.1758 -0.7677 0.3268, 0.1411 -0.7677 0.3268, 0.1294 -0.7677 0.3268, 0.0947 -0.7677 0.3268, 0.086 -0.7677 0.3268, 0.0691 -0.7677 0.3268, 0.2362 0.0787 0.0039, 0.2362 0.0787 0.0, 0.2362 0.4528 0.0039, 0.2362 0.4528 0.0, 0.0787 0.0787 0.0039, 0.0787 0.0787 0.0, 0.0787 0.4528 0.0039, 0.0787 0.4528 0.0, -0.2362 -0.0787 0.0039, -0.2362 -0.0787 0.0, -0.2362 -0.4528 0.0039, -0.2362 -0.4528 0.0, -0.0787 -0.0787 0.0039, -0.0787 -0.0787 0.0, -0.0787 -0.4528 0.0039, -0.0787 -0.4528 0.0, -0.2362 0.4528 0.0039, -0.2362 0.4528 0.0, -0.2362 0.0787 0.0039, -0.2362 0.0787 0.0, -0.0787 0.4528 0.0039, -0.0787 0.4528 0.0, -0.0787 0.0787 0.0039, -0.0787 0.0787 0.0, 0.4528 -0.4528 0.0, 0.5709 -0.4528 0.0, 0.4528 -0.4528 0.0039, 0.5709 -0.4528 0.0039, 0.4134 -0.4134 0.0, 0.4134 -0.4134 0.0039, 0.4134 0.4134 0.0039, 0.4134 0.4134 0.0, 0.4134 0.0 0.0039, 0.4528 0.4528 0.0, 0.4528 0.4528 0.0039, 0.5709 0.4528 0.0, 0.5709 0.4528 0.0039, 0.5709 0.0 0.0039, 0.2362 -0.4134 0.0, 0.2362 -0.0787 0.0, 0.2362 -0.4134 0.0039, 0.2362 -0.0787 0.0039, 0.1969 -0.4528 0.0, 0.1969 -0.4528 0.0039, 0.0787 -0.4528 0.0, 0.0787 -0.4528 0.0039, 0.0787 -0.0787 0.0039, 0.0787 -0.0787 0.0, -0.4134 -0.4134 0.0039, -0.4134 -0.4134 0.0, -0.4134 0.0 0.0039, -0.4134 0.4134 0.0, -0.4134 0.4134 0.0039, -0.4528 -0.4528 0.0, -0.4528 -0.4528 0.0039, -0.5709 -0.4528 0.0, -0.5709 -0.4528 0.0039, -0.5709 0.4528 0.0039, -0.5709 0.4528 0.0, -0.5709 0.0 0.0039, -0.4528 0.4528 0.0, -0.4528 0.4528 0.0039, 0.2559 0.6496 0.0, 0.2559 0.7677 0.0, 0.2559 0.6496 0.0039, 0.2559 0.7677 0.0039, 0.2165 0.6102 0.0039, 0.2165 0.6102 0.0, 0.2461 0.6398 0.0039, -0.2165 0.6102 0.0039, -0.2165 0.6102 0.0, 0.0 0.6102 0.0039, -0.2559 0.6496 0.0039, -0.2559 0.6496 0.0, -0.2461 0.6398 0.0039, -0.2559 0.7677 0.0, -0.2559 0.7677 0.0039, -0.2461 0.7677 0.0039, 0.0 0.7677 0.0039, 0.2461 0.7677 0.0039, 0.2165 -0.6102 0.0039, 0.2165 -0.6102 0.0, 0.0 -0.6102 0.0039, -0.2165 -0.6102 0.0, -0.2165 -0.6102 0.0039, 0.2559 -0.6496 0.0039, 0.2559 -0.6496 0.0, 0.2461 -0.6398 0.0039, 0.2559 -0.7677 0.0, 0.2559 -0.7677 0.0039, 0.2461 -0.7677 0.0039, 0.0 -0.7677 0.0039, -0.2559 -0.7677 0.0, -0.2461 -0.7677 0.0039, -0.2559 -0.7677 0.0039, -0.2559 -0.6496 0.0, -0.2559 -0.6496 0.0039, -0.2461 -0.6398 0.0039
            ]
        }
        coordIndex [
            0,1,2,-1,3,0,4,-1,5,6,7,-1,8,9,10,-1,11,12,13,-1,13,12,14,-1,15,16,13,-1,13,16,17,-1,13,17,18,-1,18,19,13,-1,13,19,20,-1,13,20,11,-1,21,22,23,-1,23,22,24,-1,24,22,25,-1,25,22,26,-1,25,26,27,-1,27,26,28,-1,27,28,29,-1,30,31,28,-1,28,31,32,-1,28,32,33,-1,28,34,29,-1,29,34,35,-1,29,35,36,-1,36,35,37,-1,36,37,38,-1,33,39,28,-1,28,39,40,-1,28,40,34,-1,41,42,43,-1,41,43,44,-1,42,45,43,-1,43,45,46,-1,43,46,47,-1,47,46,48,-1,48,49,47,-1,47,49,50,-1,47,50,30,-1,30,50,51,-1,30,51,31,-1,52,44,53,-1,53,44,43,-1,53,43,54,-1,54,43,55,-1,56,57,58,-1,58,57,59,-1,59,60,58,-1,58,60,61,-1,58,61,62,-1,62,61,63,-1,62,63,64,-1,64,63,65,-1,64,65,43,-1,43,65,66,-1,43,66,55,-1,67,68,56,-1,56,68,69,-1,56,69,70,-1,70,71,56,-1,56,71,72,-1,56,72,57,-1,73,74,75,-1,76,77,78,-1,79,80,67,-1,81,82,83,-1,83,82,84,-1,76,78,85,-1,79,67,86,-1,87,88,82,-1,82,88,89,-1,82,89,90,-1,75,74,67,-1,67,74,91,-1,67,91,86,-1,77,92,78,-1,78,92,93,-1,78,93,94,-1,95,96,97,-1,97,96,98,-1,97,98,99,-1,100,90,101,-1,101,90,102,-1,101,102,97,-1,97,102,103,-1,97,103,95,-1,100,104,90,-1,90,104,105,-1,90,105,82,-1,82,105,106,-1,82,106,84,-1,107,108,109,-1,109,108,110,-1,109,110,78,-1,78,110,111,-1,78,111,85,-1,112,113,78,-1,78,113,114,-1,78,114,82,-1,82,114,115,-1,82,115,87,-1,116,117,68,-1,68,117,118,-1,68,118,119,-1,119,120,68,-1,68,120,121,-1,68,121,122,-1,122,121,107,-1,122,107,123,-1,123,107,109,-1,80,124,67,-1,67,124,125,-1,67,125,68,-1,68,125,126,-1,68,126,116,-1,94,127,78,-1,78,127,128,-1,78,128,129,-1,129,130,78,-1,78,130,131,-1,78,131,112,-1,132,133,134,-1,134,90,132,-1,132,90,89,-1,132,89,135,-1,135,89,136,-1,136,137,135,-1,135,137,138,-1,135,138,139,-1,140,141,142,-1,141,143,142,-1,142,143,144,-1,142,144,145,-1,146,142,147,-1,133,132,146,-1,146,132,148,-1,146,148,142,-1,142,148,149,-1,142,149,140,-1,147,150,146,-1,146,150,151,-1,146,151,152,-1,145,144,153,-1,153,144,154,-1,153,154,155,-1,155,154,156,-1,155,156,157,-1,158,159,152,-1,152,159,160,-1,152,160,146,-1,12,161,14,-1,14,161,162,-1,14,162,75,-1,75,162,163,-1,75,163,73,-1,164,165,166,-1,10,9,167,-1,167,9,168,-1,167,168,169,-1,170,171,172,-1,172,171,173,-1,172,173,174,-1,174,173,164,-1,174,164,175,-1,176,177,178,-1,178,177,179,-1,178,179,169,-1,166,165,180,-1,180,165,181,-1,180,181,182,-1,183,184,185,-1,186,187,188,-1,188,187,189,-1,188,189,190,-1,190,189,183,-1,190,183,191,-1,191,183,185,-1,192,193,194,-1,195,196,197,-1,198,199,200,-1,195,197,201,-1,198,200,197,-1,197,200,202,-1,197,202,201,-1,203,204,205,-1,205,204,206,-1,205,206,207,-1,207,206,208,-1,207,208,197,-1,209,210,7,-1,211,212,213,-1,214,215,210,-1,193,216,194,-1,194,216,217,-1,194,217,213,-1,213,217,218,-1,213,218,211,-1,219,220,7,-1,7,220,221,-1,212,222,213,-1,213,222,223,-1,213,223,224,-1,224,223,225,-1,224,225,209,-1,215,226,210,-1,210,226,227,-1,210,227,7,-1,7,227,228,-1,7,228,219,-1,229,230,231,-1,221,232,7,-1,7,232,233,-1,7,233,5,-1,214,210,234,-1,234,210,235,-1,234,235,230,-1,230,235,236,-1,230,236,231,-1,237,238,239,-1,239,238,240,-1,237,239,231,-1,231,239,241,-1,231,241,242,-1,242,243,231,-1,231,243,244,-1,231,244,229,-1,245,246,240,-1,240,246,247,-1,240,247,239,-1,248,249,199,-1,199,249,250,-1,199,250,200,-1,248,251,249,-1,249,251,252,-1,249,252,253,-1,253,252,254,-1,253,255,256,-1,254,257,253,-1,253,257,258,-1,253,258,259,-1,259,260,253,-1,253,260,261,-1,253,261,255,-1,256,262,253,-1,253,262,263,-1,253,263,264,-1,265,266,267,-1,268,269,267,-1,267,269,270,-1,267,270,265,-1,266,265,271,-1,271,265,272,-1,271,272,273,-1,269,274,270,-1,270,274,275,-1,270,275,276,-1,276,275,277,-1,276,277,278,-1,278,277,279,-1,278,279,273,-1,273,279,280,-1,273,280,271,-1,281,282,283,-1,283,282,284,-1,285,286,287,-1,287,286,288,-1,287,288,289,-1,289,288,290,-1,289,290,291,-1,291,290,292,-1,291,292,293,-1,293,292,294,-1,293,294,295,-1,295,294,296,-1,297,298,299,-1,283,292,281,-1,281,292,290,-1,281,290,300,-1,300,290,301,-1,300,301,299,-1,299,301,302,-1,299,302,297,-1,284,282,303,-1,303,282,304,-1,303,304,297,-1,305,306,307,-1,297,304,298,-1,298,304,308,-1,298,308,309,-1,309,308,310,-1,309,310,307,-1,307,310,311,-1,307,311,305,-1,306,312,307,-1,307,312,313,-1,307,313,314,-1,314,315,307,-1,307,315,316,-1,307,316,317,-1,317,318,307,-1,307,318,319,-1,307,319,320,-1,321,322,320,-1,320,322,323,-1,320,323,307,-1,324,325,326,-1,321,327,322,-1,322,327,328,-1,322,328,326,-1,326,328,329,-1,326,329,324,-1,330,331,332,-1,332,331,333,-1,332,333,304,-1,304,333,334,-1,304,334,308,-1,335,336,337,-1,337,336,338,-1,339,340,341,-1,341,342,339,-1,339,342,343,-1,339,343,344,-1,345,346,339,-1,339,346,347,-1,339,347,340,-1,348,349,350,-1,350,349,351,-1,350,351,345,-1,345,351,352,-1,345,352,346,-1,353,354,355,-1,355,354,356,-1,356,357,355,-1,355,357,358,-1,355,358,348,-1,353,355,359,-1,359,355,360,-1,359,360,361,-1,361,360,362,-1,362,360,194,-1,362,194,363,-1,309,364,298,-1,298,364,365,-1,298,365,366,-1,366,365,367,-1,366,367,368,-1,369,370,371,-1,371,370,372,-1,207,373,374,-1,375,376,377,-1,194,378,379,-1,369,380,370,-1,370,380,381,-1,370,381,382,-1,382,381,377,-1,382,377,383,-1,383,377,376,-1,196,192,197,-1,197,192,194,-1,197,194,207,-1,207,194,379,-1,207,379,373,-1,384,385,386,-1,386,385,387,-1,386,387,388,-1,389,390,374,-1,374,390,391,-1,374,391,392,-1,388,393,386,-1,386,393,394,-1,386,394,360,-1,360,394,372,-1,360,372,395,-1,395,372,370,-1,396,397,194,-1,194,397,398,-1,399,400,377,-1,377,400,401,-1,377,401,402,-1,398,403,194,-1,194,403,404,-1,194,404,378,-1,395,405,360,-1,360,405,406,-1,360,406,194,-1,194,406,407,-1,194,407,396,-1,402,408,377,-1,377,408,409,-1,377,409,375,-1,410,411,412,-1,412,411,413,-1,411,414,413,-1,413,414,415,-1,413,415,386,-1,386,415,416,-1,386,416,384,-1,417,418,7,-1,7,418,419,-1,209,7,224,-1,224,7,419,-1,224,419,187,-1,187,419,420,-1,187,420,189,-1,421,418,422,-1,422,418,417,-1,422,417,423,-1,424,425,426,-1,427,428,417,-1,417,428,429,-1,417,429,423,-1,430,431,6,-1,6,431,424,-1,6,424,7,-1,7,424,426,-1,7,426,417,-1,417,426,432,-1,417,432,433,-1,434,435,436,-1,436,435,437,-1,436,437,424,-1,424,437,438,-1,424,438,425,-1,433,439,417,-1,417,439,440,-1,417,440,427,-1,441,442,443,-1,441,443,444,-1,442,445,443,-1,443,445,446,-1,443,446,436,-1,436,446,447,-1,436,447,434,-1,448,449,450,-1,450,449,443,-1,450,443,451,-1,451,443,436,-1,451,436,452,-1,452,436,424,-1,452,424,453,-1,453,424,431,-1,453,431,454,-1,454,431,412,-1,454,412,455,-1,455,412,413,-1,430,203,431,-1,431,203,205,-1,431,205,412,-1,412,205,207,-1,412,207,410,-1,410,207,374,-1,410,374,456,-1,456,374,392,-1,449,166,443,-1,443,166,180,-1,443,180,444,-1,444,180,182,-1,444,182,186,-1,186,182,8,-1,186,8,187,-1,187,8,10,-1,3,4,457,-1,457,4,458,-1,457,458,459,-1,460,75,461,-1,461,75,67,-1,461,67,462,-1,462,67,56,-1,462,56,463,-1,463,56,58,-1,463,58,464,-1,460,465,466,-1,465,467,466,-1,466,467,468,-1,466,468,462,-1,462,468,469,-1,462,469,461,-1,470,471,472,-1,472,471,468,-1,472,468,473,-1,473,468,467,-1,473,467,474,-1,474,467,475,-1,476,166,459,-1,459,166,449,-1,459,449,457,-1,457,449,448,-1,457,448,3,-1,476,477,166,-1,166,477,167,-1,166,167,164,-1,164,167,169,-1,164,169,175,-1,175,169,179,-1,478,479,459,-1,459,479,480,-1,480,481,459,-1,459,481,482,-1,459,482,476,-1,477,483,167,-1,167,483,484,-1,167,484,485,-1,485,484,486,-1,485,486,487,-1,487,488,485,-1,485,488,489,-1,485,489,490,-1,490,491,485,-1,485,491,492,-1,485,492,459,-1,459,492,493,-1,459,493,478,-1,494,495,459,-1,496,497,498,-1,459,495,485,-1,485,495,499,-1,485,499,500,-1,348,350,355,-1,355,350,466,-1,355,466,360,-1,360,466,462,-1,360,462,386,-1,386,462,463,-1,386,463,413,-1,413,463,464,-1,413,464,455,-1,485,265,167,-1,167,265,270,-1,167,270,10,-1,10,270,276,-1,10,276,187,-1,187,276,300,-1,187,300,224,-1,224,300,299,-1,224,299,213,-1,213,299,298,-1,213,298,194,-1,194,298,366,-1,194,366,363,-1,363,366,368,-1,501,502,503,-1,460,466,75,-1,75,466,350,-1,75,350,14,-1,14,350,504,-1,14,504,13,-1,504,505,13,-1,13,505,501,-1,13,501,345,-1,345,501,503,-1,345,503,350,-1,350,503,506,-1,350,506,504,-1,507,508,276,-1,276,508,509,-1,276,509,510,-1,281,511,278,-1,278,511,512,-1,278,512,513,-1,510,514,276,-1,276,514,515,-1,276,515,300,-1,300,515,516,-1,300,516,281,-1,281,516,517,-1,281,517,511,-1,513,518,278,-1,278,518,519,-1,278,519,520,-1,520,521,278,-1,278,521,522,-1,278,522,276,-1,276,522,523,-1,276,523,507,-1,498,494,496,-1,496,494,459,-1,496,459,524,-1,524,459,458,-1,524,458,500,-1,500,458,525,-1,500,525,485,-1,485,525,526,-1,485,526,265,-1,265,526,527,-1,265,527,272,-1,0,2,4,-1,4,2,528,-1,4,528,458,-1,458,528,529,-1,458,529,525,-1,525,529,530,-1,525,530,526,-1,526,530,531,-1,526,531,527,-1,344,337,339,-1,339,337,338,-1,339,338,345,-1,345,338,532,-1,345,532,13,-1,13,532,22,-1,13,22,15,-1,15,22,21,-1,531,533,527,-1,527,533,534,-1,527,534,272,-1,272,534,535,-1,272,535,273,-1,273,535,536,-1,273,536,278,-1,278,536,537,-1,278,537,281,-1,281,537,538,-1,281,538,282,-1,282,538,539,-1,282,539,304,-1,304,539,540,-1,304,540,332,-1,332,540,336,-1,332,336,330,-1,330,336,335,-1,541,542,543,-1,543,542,544,-1,545,546,541,-1,541,546,542,-1,547,548,545,-1,545,548,546,-1,543,544,547,-1,547,544,548,-1,549,550,551,-1,551,550,552,-1,553,554,549,-1,549,554,550,-1,555,556,553,-1,553,556,554,-1,551,552,555,-1,555,552,556,-1,557,558,559,-1,559,558,560,-1,561,562,557,-1,557,562,558,-1,563,564,561,-1,561,564,562,-1,559,560,563,-1,563,560,564,-1,565,566,567,-1,567,566,568,-1,565,567,569,-1,569,567,570,-1,571,572,573,-1,573,572,569,-1,573,569,570,-1,572,571,574,-1,574,571,575,-1,574,575,576,-1,576,575,577,-1,568,566,578,-1,578,566,576,-1,578,576,577,-1,579,580,581,-1,581,580,582,-1,579,581,583,-1,583,581,584,-1,583,584,585,-1,585,584,586,-1,587,588,586,-1,586,588,585,-1,582,580,587,-1,587,580,588,-1,589,590,591,-1,591,590,592,-1,591,592,593,-1,590,589,594,-1,594,589,595,-1,594,595,596,-1,596,595,597,-1,598,599,600,-1,600,599,596,-1,600,596,597,-1,601,599,602,-1,602,599,598,-1,601,602,592,-1,592,602,593,-1,603,604,605,-1,605,604,606,-1,607,608,609,-1,609,608,603,-1,609,603,605,-1,610,611,612,-1,612,611,608,-1,612,608,607,-1,613,614,615,-1,615,614,611,-1,615,611,610,-1,614,613,616,-1,616,613,617,-1,617,618,616,-1,616,618,619,-1,616,619,604,-1,604,619,620,-1,604,620,606,-1,621,622,623,-1,623,622,624,-1,623,624,625,-1,626,627,628,-1,628,627,622,-1,628,622,621,-1,627,626,629,-1,629,626,630,-1,630,631,629,-1,629,631,632,-1,629,632,633,-1,633,632,634,-1,633,634,635,-1,636,633,637,-1,637,633,635,-1,625,624,638,-1,638,624,636,-1,638,636,637,-1,
        ]
    }
}
Shape{
    appearance Appearance {
        material  Material 	{
            diffuseColor 0.5019607843137255 1.0 0.5019607843137255
            specularColor 0.44313725490196076 0.8784313725490196 0.44313725490196076
            ambientIntensity 0.7943
            transparency 0.0
            shininess 0.5
        }
    }
    geometry IndexedFaceSet {
        ccw TRUE
        solid FALSE
        coord DEF co Coordinate {
            point [
                -0.5906 0.7776 0.0039, -0.5906 0.7874 0.0039, -0.3346 0.7874 0.0039, -0.5906 0.5315 0.0039, -0.3346 0.7776 0.0039, 0.4528 -0.4528 0.0039, 0.5709 -0.4528 0.0039, 0.5906 -0.5315 0.0039, 0.5906 0.0 0.0039, 0.5709 0.4528 0.0039, 0.4528 0.4528 0.0039, 0.3346 0.5315 0.0039, 0.4134 0.4134 0.0039, 0.3346 0.0 0.0039, 0.4134 0.0 0.0039, 0.3346 -0.5315 0.0039, 0.4134 -0.4134 0.0039, -0.5906 0.0 0.0039, -0.5709 0.4528 0.0039, -0.5709 -0.4528 0.0039, -0.4528 -0.4528 0.0039, -0.3346 -0.5315 0.0039, -0.4134 -0.4134 0.0039, -0.3346 0.0 0.0039, -0.4134 0.0 0.0039, -0.3346 0.5315 0.0039, -0.4134 0.4134 0.0039, -0.4528 0.4528 0.0039, 0.2461 0.7776 0.0039, 0.3346 0.7776 0.0039, 0.2559 0.7677 0.0039, 0.2559 0.6496 0.0039, 0.2461 0.6398 0.0039, 0.2165 0.6102 0.0039, 0.2461 0.5315 0.0039, 0.0 0.6102 0.0039, 0.0 0.5315 0.0039, -0.2165 0.6102 0.0039, -0.2461 0.5315 0.0039, -0.2461 0.6398 0.0039, -0.2559 0.6496 0.0039, -0.2461 -0.7874 0.0039, -0.3346 -0.7874 0.0039, -0.2559 -0.7677 0.0039, -0.2559 -0.6496 0.0039, -0.2461 -0.6398 0.0039, -0.2165 -0.6102 0.0039, -0.2461 -0.5315 0.0039, 0.0 -0.6102 0.0039, 0.0 -0.5315 0.0039, 0.2165 -0.6102 0.0039, 0.2461 -0.5315 0.0039, 0.2461 -0.6398 0.0039, 0.2559 -0.6496 0.0039, 0.3346 -0.7874 0.0039, 0.2559 -0.7677 0.0039, 0.2461 -0.7874 0.0039, 0.2461 -0.7677 0.0039, 0.0 -0.7874 0.0039, 0.0 -0.7677 0.0039, -0.2461 -0.7677 0.0039, -0.5709 0.0 0.0039, -0.5906 -0.5315 0.0039, -0.5906 -0.7874 0.0039, 0.2461 0.7677 0.0039, 0.0 0.7677 0.0039, 0.0 0.7776 0.0039, -0.2461 0.7677 0.0039, -0.2461 0.7776 0.0039, -0.2559 0.7677 0.0039, -0.2461 0.0 0.0039, -0.2362 -0.4528 0.0039, -0.2362 -0.0787 0.0039, -0.0787 -0.0787 0.0039, 0.0 0.0 0.0039, -0.0787 -0.4528 0.0039, -0.2362 0.0787 0.0039, -0.2362 0.4528 0.0039, -0.0787 0.4528 0.0039, -0.0787 0.0787 0.0039, 0.2362 -0.4134 0.0039, 0.2461 0.0 0.0039, 0.2362 -0.0787 0.0039, 0.0787 -0.0787 0.0039, 0.0787 -0.4528 0.0039, 0.1969 -0.4528 0.0039, 0.2362 0.4528 0.0039, 0.2362 0.0787 0.0039, 0.0787 0.0787 0.0039, 0.0787 0.4528 0.0039, 0.5906 -0.7874 0.0039, 0.5906 0.7776 0.0039, 0.5906 0.5315 0.0039, 0.5709 0.0 0.0039, -0.2461 0.7874 0.0039, 0.0 0.7874 0.0039, 0.2461 0.7874 0.0039, 0.3346 0.7874 0.0039, 0.5906 0.7874 0.0039
            ]
        }
        coordIndex [
            0,1,2,-1,3,0,4,-1,5,6,7,-1,7,6,8,-1,9,10,11,-1,11,10,12,-1,11,12,13,-1,13,12,14,-1,13,14,15,-1,15,14,16,-1,17,3,18,-1,19,20,21,-1,21,20,22,-1,21,22,23,-1,23,22,24,-1,23,24,25,-1,25,24,26,-1,25,26,27,-1,28,29,30,-1,30,29,31,-1,31,29,11,-1,31,11,32,-1,33,34,35,-1,35,34,36,-1,35,36,37,-1,37,36,38,-1,37,38,39,-1,39,38,40,-1,41,42,43,-1,43,42,44,-1,44,42,21,-1,44,21,45,-1,46,47,48,-1,48,47,49,-1,48,49,50,-1,50,49,51,-1,50,51,52,-1,52,51,53,-1,15,54,55,-1,55,54,56,-1,55,56,57,-1,57,56,58,-1,57,58,59,-1,59,58,41,-1,59,41,60,-1,60,41,43,-1,18,61,17,-1,17,61,19,-1,17,19,62,-1,62,19,21,-1,62,21,63,-1,63,21,42,-1,30,64,28,-1,28,64,65,-1,28,65,66,-1,66,65,67,-1,66,67,68,-1,68,67,69,-1,68,69,4,-1,4,69,25,-1,4,25,3,-1,3,25,27,-1,3,27,18,-1,69,40,25,-1,25,40,38,-1,25,38,23,-1,23,38,70,-1,23,70,21,-1,21,70,47,-1,21,47,45,-1,45,47,46,-1,71,47,72,-1,72,47,70,-1,72,70,73,-1,73,70,74,-1,73,74,75,-1,75,74,49,-1,75,49,71,-1,71,49,47,-1,76,70,77,-1,77,70,38,-1,77,38,78,-1,78,38,36,-1,78,36,79,-1,79,36,74,-1,79,74,76,-1,76,74,70,-1,51,80,81,-1,81,80,82,-1,81,82,74,-1,74,82,83,-1,74,83,49,-1,49,83,84,-1,49,84,51,-1,51,84,85,-1,51,85,80,-1,86,34,87,-1,87,34,81,-1,87,81,88,-1,88,81,74,-1,88,74,89,-1,89,74,36,-1,89,36,86,-1,86,36,34,-1,33,32,34,-1,34,32,11,-1,34,11,81,-1,81,11,13,-1,81,13,51,-1,51,13,15,-1,51,15,53,-1,53,15,55,-1,16,5,15,-1,15,5,7,-1,15,7,54,-1,54,7,90,-1,29,91,11,-1,11,91,92,-1,11,92,9,-1,9,92,8,-1,9,8,93,-1,93,8,6,-1,0,2,4,-1,4,2,94,-1,4,94,68,-1,68,94,95,-1,68,95,66,-1,66,95,96,-1,66,96,28,-1,28,96,97,-1,28,97,29,-1,29,97,98,-1,29,98,91,-1,
        ]
    }
}
Shape{
    appearance Appearance {
        material  Material 	{
            diffuseColor 0.48627450980392156 0.23529411764705882 0.01568627450980392
            specularColor 0.42745098039215684 0.20784313725490197 0.01568627450980392
            ambientIntensity 0.2853
            transparency 0.0
            shininess 0.5
        }
    }
    geometry IndexedFaceSet {
        ccw TRUE
        solid FALSE
        coord DEF co Coordinate {
            point [
                0.3346 -0.7874 0.0039, 0.5906 -0.7874 0.0039, 0.5906 -0.7874 0.063, -0.5906 -0.7874 0.063, -0.5906 -0.7874 0.0039, -0.3346 -0.7874 0.0039, -0.2461 -0.7874 0.0039, 0.0 -0.7874 0.0039, 0.2461 -0.7874 0.0039, -0.5906 0.7874 0.063, -0.5906 0.7874 0.0039, -0.5906 0.7776 0.0039, -0.5906 0.5315 0.0039, -0.5906 0.0 0.0039, -0.5906 -0.5315 0.0039, -0.3346 0.7874 0.0039, 0.5906 0.7874 0.063, 0.5906 0.7874 0.0039, 0.3346 0.7874 0.0039, 0.2461 0.7874 0.0039, 0.0 0.7874 0.0039, -0.2461 0.7874 0.0039, 0.5906 0.7776 0.0039, 0.5906 -0.5315 0.0039, 0.5906 0.0 0.0039, 0.5906 0.5315 0.0039, -0.5827 0.7795 0.063, -0.5827 -0.7795 0.063, 0.5827 -0.7795 0.063, 0.5827 0.7795 0.063
            ]
        }
        coordIndex [
            0,1,2,-1,3,4,5,-1,5,6,3,-1,3,6,7,-1,3,7,2,-1,2,7,8,-1,2,8,0,-1,9,10,11,-1,11,12,9,-1,9,12,13,-1,9,13,3,-1,3,13,14,-1,3,14,4,-1,15,10,9,-1,16,17,18,-1,18,19,16,-1,16,19,20,-1,16,20,9,-1,9,20,21,-1,9,21,15,-1,22,17,16,-1,1,23,2,-1,2,23,24,-1,2,24,16,-1,16,24,25,-1,16,25,22,-1,26,9,27,-1,27,9,3,-1,27,3,28,-1,28,3,2,-1,28,2,29,-1,29,2,16,-1,29,16,26,-1,26,16,9,-1,
        ]
    }
}
Shape{
    appearance Appearance {
        material  Material 	{
            diffuseColor 1.0 1.0 0.7529411764705882
            specularColor 0.8784313725490196 0.8784313725490196 0.6627450980392157
            ambientIntensity 0.9718
            transparency 0.0
            shininess 0.5
        }
    }
    geometry IndexedFaceSet {
        ccw TRUE
        solid FALSE
        coord DEF co Coordinate {
            point [
                -0.571 -0.7678 0.0733, -0.5713 -0.7681 0.0717, 0.5713 -0.7681 0.0717, -0.5827 -0.7795 0.063, 0.5827 -0.7795 0.063, 0.5796 -0.7765 0.0634, -0.5796 -0.7765 0.0634, 0.5768 -0.7736 0.0646, -0.5768 -0.7736 0.0646, 0.5743 -0.7712 0.0665, -0.5743 -0.7712 0.0665, 0.5733 -0.7702 0.0676, 0.5724 -0.7693 0.0689, -0.5724 -0.7693 0.0689, -0.5733 -0.7702 0.0676, 0.5718 -0.7686 0.0703, -0.5718 -0.7686 0.0703, -0.5709 -0.7677 0.0748, 0.571 -0.7678 0.0733, 0.5709 -0.7677 0.0748, -0.5709 0.7677 0.0748, -0.571 0.7678 0.0733, -0.5713 0.7681 0.0717, -0.5724 0.7693 0.0689, -0.5733 0.7702 0.0676, -0.5718 0.7686 0.0703, -0.5743 0.7712 0.0665, -0.5768 0.7736 0.0646, -0.5796 0.7765 0.0634, -0.5827 0.7795 0.063, 0.5718 0.7686 0.0703, 0.5724 0.7693 0.0689, 0.5709 0.7677 0.0748, 0.571 0.7678 0.0733, 0.5713 0.7681 0.0717, 0.5733 0.7702 0.0676, 0.5743 0.7712 0.0665, 0.5768 0.7736 0.0646, 0.5796 0.7765 0.0634, 0.5827 0.7795 0.063, -0.5709 0.7677 0.3268, -0.5709 0.7679 0.3287, -0.5709 -0.7677 0.3268, -0.5709 -0.7679 0.3287, 0.5709 0.7677 0.3268, 0.5709 -0.7677 0.3268, 0.5827 -0.7795 0.3386, -0.5807 -0.7795 0.3386, 0.5796 -0.7765 0.3382, -0.5804 -0.7792 0.3386, -0.5758 -0.7741 0.3373, -0.5758 -0.7741 0.3373, 0.5768 -0.7736 0.337, -0.5782 -0.7768 0.3381, -0.5779 -0.7765 0.3381, -0.5772 -0.7757 0.3379, -0.5754 -0.7737 0.337, -0.5738 -0.7718 0.3357, 0.5743 -0.7712 0.3351, -0.5736 -0.7717 0.3356, -0.5732 -0.7712 0.3351, 0.5733 -0.7702 0.334, 0.5724 -0.7693 0.3327, -0.573 -0.771 0.3349, -0.5722 -0.77 0.3336, -0.5712 -0.7687 0.3313, -0.571 -0.7683 0.3305, 0.5713 -0.7681 0.3298, -0.5709 -0.7681 0.3298, 0.571 -0.7678 0.3283, -0.5719 -0.7695 0.333, -0.5717 -0.7693 0.3327, 0.5718 -0.7686 0.3313, -0.5715 -0.7691 0.3323, -0.5709 -0.7681 0.3297, -0.5807 0.7795 0.3386, -0.5782 0.7768 0.3381, -0.5779 0.7765 0.3381, -0.5804 0.7792 0.3386, -0.5754 0.7737 0.337, -0.5738 0.7718 0.3357, -0.5772 0.7757 0.3379, -0.5758 0.7741 0.3373, -0.5758 0.7741 0.3373, -0.573 0.771 0.3349, -0.5722 0.77 0.3336, -0.5732 0.7712 0.3351, -0.5736 0.7717 0.3356, -0.5715 0.7691 0.3323, -0.5712 0.7687 0.3313, -0.5717 0.7693 0.3327, -0.5719 0.7695 0.333, -0.5709 0.7681 0.3297, -0.5709 0.7681 0.3298, -0.571 0.7683 0.3305, 0.5768 0.7736 0.337, 0.5827 0.7795 0.3386, 0.5796 0.7765 0.3382, 0.5733 0.7702 0.334, 0.5724 0.7693 0.3327, 0.5743 0.7712 0.3351, 0.571 0.7678 0.3283, 0.5718 0.7686 0.3313, 0.5713 0.7681 0.3298
            ]
        }
        coordIndex [
            0,1,2,-1,3,4,5,-1,3,5,6,-1,6,5,7,-1,6,7,8,-1,8,7,9,-1,8,9,10,-1,11,12,13,-1,11,13,9,-1,9,13,14,-1,9,14,10,-1,2,1,15,-1,15,1,12,-1,12,1,16,-1,12,16,13,-1,0,2,17,-1,17,2,18,-1,17,18,19,-1,0,17,20,-1,0,20,1,-1,20,21,1,-1,1,21,22,-1,1,22,16,-1,16,22,13,-1,23,24,10,-1,22,25,13,-1,13,25,23,-1,13,23,14,-1,14,23,10,-1,24,26,10,-1,10,26,27,-1,10,27,8,-1,8,27,28,-1,8,28,6,-1,6,28,29,-1,6,29,3,-1,30,31,23,-1,21,20,32,-1,21,32,22,-1,22,32,33,-1,22,33,34,-1,30,23,34,-1,34,23,25,-1,34,25,22,-1,35,26,31,-1,31,26,24,-1,31,24,23,-1,35,36,26,-1,26,36,37,-1,26,37,27,-1,27,37,38,-1,27,38,28,-1,28,38,39,-1,28,39,29,-1,18,2,34,-1,11,9,36,-1,36,9,7,-1,36,7,37,-1,37,7,5,-1,37,5,38,-1,38,5,4,-1,38,4,39,-1,11,36,12,-1,12,36,35,-1,12,35,31,-1,34,2,30,-1,30,2,31,-1,31,2,15,-1,31,15,12,-1,18,34,19,-1,19,34,33,-1,19,33,32,-1,40,20,17,-1,40,17,41,-1,41,17,42,-1,41,42,43,-1,44,32,40,-1,40,32,20,-1,45,19,44,-1,44,19,32,-1,46,47,48,-1,48,47,49,-1,50,51,52,-1,49,53,48,-1,48,53,54,-1,48,54,52,-1,52,54,55,-1,52,55,50,-1,51,56,52,-1,52,56,57,-1,52,57,58,-1,57,59,58,-1,58,59,60,-1,58,60,61,-1,61,60,62,-1,62,60,63,-1,62,63,64,-1,65,66,67,-1,67,66,68,-1,67,68,69,-1,64,70,62,-1,62,70,71,-1,62,71,72,-1,72,71,67,-1,67,71,73,-1,67,73,65,-1,43,42,45,-1,69,68,45,-1,45,68,74,-1,45,74,43,-1,49,47,75,-1,49,75,53,-1,55,76,77,-1,55,77,50,-1,75,78,53,-1,53,78,76,-1,53,76,54,-1,54,76,55,-1,79,80,57,-1,77,81,50,-1,50,81,82,-1,50,82,51,-1,51,82,56,-1,56,82,57,-1,57,82,83,-1,57,83,79,-1,63,60,80,-1,80,60,59,-1,80,59,57,-1,84,85,64,-1,84,64,86,-1,63,80,64,-1,64,80,87,-1,64,87,86,-1,73,71,85,-1,85,71,70,-1,85,70,64,-1,88,89,65,-1,88,65,90,-1,73,85,65,-1,65,85,91,-1,65,91,90,-1,74,68,89,-1,89,68,66,-1,89,66,65,-1,92,41,43,-1,92,43,93,-1,74,89,43,-1,43,89,94,-1,43,94,93,-1,80,79,95,-1,78,75,96,-1,82,81,97,-1,97,81,77,-1,97,77,96,-1,96,77,76,-1,96,76,78,-1,95,79,97,-1,97,79,83,-1,97,83,82,-1,98,99,90,-1,85,84,100,-1,100,84,86,-1,100,86,95,-1,95,86,87,-1,95,87,80,-1,98,90,100,-1,100,90,91,-1,100,91,85,-1,93,94,99,-1,94,89,99,-1,99,89,88,-1,99,88,90,-1,101,44,40,-1,99,102,93,-1,93,102,103,-1,93,103,92,-1,101,40,103,-1,103,40,41,-1,103,41,92,-1,101,103,67,-1,96,46,48,-1,96,48,97,-1,97,48,52,-1,97,52,95,-1,95,52,58,-1,95,58,100,-1,61,62,99,-1,61,99,58,-1,58,99,98,-1,58,98,100,-1,67,103,72,-1,72,103,62,-1,62,103,102,-1,62,102,99,-1,101,67,44,-1,44,67,69,-1,44,69,45,-1,
        ]
    }
}
Shape{
    appearance Appearance {
        material  Material 	{
            diffuseColor 0.48627450980392156 0.23529411764705882 0.01568627450980392
            specularColor 0.42745098039215684 0.20784313725490197 0.01568627450980392
            ambientIntensity 0.2853
            transparency 0.0
            shininess 0.5
        }
    }
    geometry IndexedFaceSet {
        ccw TRUE
        solid FALSE
        coord DEF co Coordinate {
            point [
                0.5827 0.7795 0.3386, 0.5906 0.7874 0.3386, 0.5827 -0.7795 0.3386, 0.5906 -0.7874 0.3386, -0.5807 -0.7795 0.3386, -0.5906 -0.7874 0.3386, -0.5807 0.7795 0.3386, -0.5906 0.7874 0.3386
            ]
        }
        coordIndex [
            0,1,2,-1,2,1,3,-1,2,3,4,-1,4,3,5,-1,4,5,6,-1,6,5,7,-1,6,7,0,-1,0,7,1,-1,
        ]
    }
}
Shape{
    appearance Appearance {
        material  Material 	{
            diffuseColor 1.0 1.0 0.7529411764705882
            specularColor 0.8784313725490196 0.8784313725490196 0.6627450980392157
            ambientIntensity 0.9718
            transparency 0.0
            shininess 0.5
        }
    }
    geometry IndexedFaceSet {
        ccw TRUE
        solid FALSE
        coord DEF co Coordinate {
            point [
                -0.0246 0.2645 0.2402, -0.0127 0.2596 0.2402, 0.0 0.3071 0.2402, 0.0 0.2579 0.2402, 0.0127 0.2596 0.2402, -0.0475 0.2943 0.2402, -0.0426 0.2825 0.2402, -0.0348 0.2723 0.2402, -0.0426 0.3317 0.2402, -0.0475 0.3198 0.2402, -0.0492 0.3071 0.2402, -0.0127 0.3546 0.2402, -0.0246 0.3497 0.2402, -0.0348 0.3419 0.2402, 0.0246 0.3497 0.2402, 0.0127 0.3546 0.2402, 0.0 0.3563 0.2402, 0.0475 0.3198 0.2402, 0.0426 0.3317 0.2402, 0.0348 0.3419 0.2402, 0.0426 0.2825 0.2402, 0.0475 0.2943 0.2402, 0.0492 0.3071 0.2402, 0.0246 0.2645 0.2402, 0.0348 0.2723 0.2402
            ]
        }
        coordIndex [
            0,1,2,-1,2,1,3,-1,2,3,4,-1,5,6,2,-1,2,6,7,-1,2,7,0,-1,8,9,2,-1,2,9,10,-1,2,10,5,-1,11,12,2,-1,2,12,13,-1,2,13,8,-1,14,15,2,-1,2,15,16,-1,2,16,11,-1,17,18,2,-1,2,18,19,-1,2,19,14,-1,20,21,2,-1,2,21,22,-1,2,22,17,-1,4,23,2,-1,2,23,24,-1,2,24,20,-1,
        ]
    }
}
Shape{
    appearance Appearance {
        material  Material 	{
            diffuseColor 0.48627450980392156 0.23529411764705882 0.01568627450980392
            specularColor 0.42745098039215684 0.20784313725490197 0.01568627450980392
            ambientIntensity 0.2853
            transparency 0.0
            shininess 0.5
        }
    }
    geometry IndexedFaceSet {
        ccw TRUE
        solid FALSE
        coord DEF co Coordinate {
            point [
                0.5906 -0.7874 0.3386, 0.5906 -0.7874 0.3976, -0.5906 -0.7874 0.3386, -0.5906 -0.7874 0.3976, 0.5906 0.7874 0.3386, 0.5906 0.7874 0.3976, -0.5906 0.7874 0.3386, -0.5906 0.7874 0.3976
            ]
        }
        coordIndex [
            0,1,2,-1,2,1,3,-1,4,5,0,-1,0,5,1,-1,6,7,4,-1,4,7,5,-1,2,3,6,-1,6,3,7,-1,
        ]
    }
}
Shape{
    appearance Appearance {
        material  Material 	{
            diffuseColor 0.5019607843137255 1.0 0.5019607843137255
            specularColor 0.44313725490196076 0.8784313725490196 0.44313725490196076
            ambientIntensity 0.7943
            transparency 0.0
            shininess 0.5
        }
    }
    geometry IndexedFaceSet {
        ccw TRUE
        solid FALSE
        coord DEF co Coordinate {
            point [
                0.0 0.2579 0.2402, 0.0 0.2579 0.3976, 0.0127 0.2596 0.2402, 0.0127 0.2596 0.3976, 0.0246 0.2645 0.2402, 0.0246 0.2645 0.3976, 0.0348 0.2723 0.2402, 0.0348 0.2723 0.3976, 0.0426 0.2825 0.2402, 0.0426 0.2825 0.3976, 0.0475 0.2943 0.2402, 0.0475 0.2943 0.3976, 0.0492 0.3071 0.2402, 0.0492 0.3071 0.3976, 0.0475 0.3198 0.2402, 0.0475 0.3198 0.3976, 0.0426 0.3317 0.2402, 0.0426 0.3317 0.3976, 0.0348 0.3419 0.2402, 0.0348 0.3419 0.3976, 0.0246 0.3497 0.2402, 0.0246 0.3497 0.3976, 0.0127 0.3546 0.2402, 0.0127 0.3546 0.3976, 0.0 0.3563 0.2402, 0.0 0.3563 0.3976, -0.0127 0.3546 0.2402, -0.0127 0.3546 0.3976, -0.0246 0.3497 0.2402, -0.0246 0.3497 0.3976, -0.0348 0.3419 0.2402, -0.0348 0.3419 0.3976, -0.0426 0.3317 0.2402, -0.0426 0.3317 0.3976, -0.0475 0.3198 0.2402, -0.0475 0.3198 0.3976, -0.0492 0.3071 0.2402, -0.0492 0.3071 0.3976, -0.0475 0.2943 0.2402, -0.0475 0.2943 0.3976, -0.0426 0.2825 0.2402, -0.0426 0.2825 0.3976, -0.0348 0.2723 0.2402, -0.0348 0.2723 0.3976, -0.0246 0.2645 0.2402, -0.0246 0.2645 0.3976, -0.0127 0.2596 0.2402, -0.0127 0.2596 0.3976, -0.5906 -0.7874 0.3976, 0.5906 -0.7874 0.3976, 0.5906 0.7874 0.3976, -0.5906 0.7874 0.3976
            ]
        }
        coordIndex [
            0,1,2,-1,2,1,3,-1,2,3,4,-1,4,3,5,-1,4,5,6,-1,6,5,7,-1,6,7,8,-1,8,7,9,-1,8,9,10,-1,10,9,11,-1,10,11,12,-1,12,11,13,-1,12,13,14,-1,14,13,15,-1,14,15,16,-1,16,15,17,-1,16,17,18,-1,18,17,19,-1,18,19,20,-1,20,19,21,-1,20,21,22,-1,22,21,23,-1,22,23,24,-1,24,23,25,-1,24,25,26,-1,26,25,27,-1,26,27,28,-1,28,27,29,-1,28,29,30,-1,30,29,31,-1,30,31,32,-1,32,31,33,-1,32,33,34,-1,34,33,35,-1,34,35,36,-1,36,35,37,-1,36,37,38,-1,38,37,39,-1,38,39,40,-1,40,39,41,-1,40,41,42,-1,42,41,43,-1,42,43,44,-1,44,43,45,-1,44,45,46,-1,46,45,47,-1,46,47,0,-1,0,47,1,-1,43,48,45,-1,45,48,47,-1,9,7,49,-1,7,5,49,-1,49,5,3,-1,49,3,48,-1,48,3,1,-1,48,1,47,-1,21,19,50,-1,50,19,17,-1,43,41,48,-1,48,41,39,-1,48,39,51,-1,51,39,37,-1,51,37,35,-1,35,33,51,-1,51,33,31,-1,51,31,29,-1,29,27,51,-1,51,27,25,-1,51,25,50,-1,50,25,23,-1,50,23,21,-1,17,15,50,-1,50,15,13,-1,50,13,49,-1,49,13,11,-1,49,11,9,-1,
        ]
    }
}
Shape{
    appearance Appearance {
        material  Material 	{
            diffuseColor 1.0 1.0 0.0
            specularColor 0.5019607843137255 0.5019607843137255 0.0
            ambientIntensity 0.886
            transparency 0.0
            shininess 0.5
        }
    }
    geometry IndexedFaceSet {
        ccw TRUE
        solid FALSE
        coord DEF co Coordinate {
            point [
                -0.2559 0.6496 0.0, -0.2559 0.7677 0.0, -0.2165 0.6102 0.0, 0.2559 0.7677 0.0, 0.2165 0.6102 0.0, 0.2559 0.6496 0.0, 0.2165 -0.6102 0.0, 0.2559 -0.6496 0.0, 0.2559 -0.7677 0.0, -0.2165 -0.6102 0.0, -0.2559 -0.7677 0.0, -0.2559 -0.6496 0.0, 0.4134 -0.4134 0.0, 0.4134 0.4134 0.0, 0.4528 -0.4528 0.0, 0.4528 0.4528 0.0, 0.5709 -0.4528 0.0, 0.5709 0.4528 0.0, 0.2362 -0.0787 0.0, 0.2362 -0.4134 0.0, 0.0787 -0.0787 0.0, 0.1969 -0.4528 0.0, 0.0787 -0.4528 0.0, 0.2362 0.4528 0.0, 0.2362 0.0787 0.0, 0.0787 0.4528 0.0, 0.0787 0.0787 0.0, -0.2362 0.0787 0.0, -0.2362 0.4528 0.0, -0.0787 0.0787 0.0, -0.0787 0.4528 0.0, -0.2362 -0.4528 0.0, -0.2362 -0.0787 0.0, -0.0787 -0.4528 0.0, -0.0787 -0.0787 0.0, -0.4134 0.4134 0.0, -0.4134 -0.4134 0.0, -0.4528 0.4528 0.0, -0.4528 -0.4528 0.0, -0.5709 0.4528 0.0, -0.5709 -0.4528 0.0
            ]
        }
        coordIndex [
            0,1,2,-1,2,1,3,-1,2,3,4,-1,4,3,5,-1,6,7,8,-1,6,8,9,-1,9,8,10,-1,9,10,11,-1,12,13,14,-1,14,13,15,-1,14,15,16,-1,16,15,17,-1,18,19,20,-1,20,19,21,-1,20,21,22,-1,23,24,25,-1,25,24,26,-1,27,28,29,-1,29,28,30,-1,31,32,33,-1,33,32,34,-1,35,36,37,-1,37,36,38,-1,37,38,39,-1,39,38,40,-1,
        ]
    }
}
Shape{
    appearance Appearance {
        material  Material 	{
            diffuseColor 0.0 0.0 0.0
            specularColor 0.0 0.0 0.0
            ambientIntensity 0.0
            transparency 0.0
            shininess 0.5
        }
    }
    geometry IndexedFaceSet {
        ccw TRUE
        solid FALSE
        coord DEF co Coordinate {
            point [
                0.0345 -0.7717 0.1731, 0.0345 -0.7717 0.1689, 0.0345 -0.7677 0.1731, 0.0345 -0.7677 0.1689, 0.0198 -0.7717 0.1731, 0.0198 -0.7677 0.1731, 0.0198 -0.7717 0.2059, 0.0198 -0.7677 0.2059, 0.015 -0.7717 0.2059, 0.015 -0.7677 0.2059, 0.015 -0.7717 0.1689, 0.015 -0.7677 0.1689, 0.0638 -0.7677 0.1704, 0.0638 -0.7717 0.1704, 0.0632 -0.7717 0.1701, 0.0535 -0.7717 0.1682, 0.0535 -0.7677 0.1682, 0.0592 -0.7717 0.1688, 0.0568 -0.7677 0.1686, 0.0592 -0.7677 0.1688, 0.0622 -0.7677 0.1698, 0.0632 -0.7677 0.1701, 0.0638 -0.7717 0.175, 0.0638 -0.7677 0.175, 0.0622 -0.7677 0.1743, 0.0602 -0.7717 0.1734, 0.0602 -0.7677 0.1734, 0.056 -0.7677 0.1726, 0.056 -0.7717 0.1726, 0.0542 -0.7677 0.1725, 0.0542 -0.7717 0.1725, 0.0505 -0.7677 0.173, 0.0505 -0.7717 0.173, 0.0479 -0.7677 0.174, 0.0479 -0.7717 0.174, 0.0455 -0.7677 0.1757, 0.0455 -0.7717 0.1757, 0.0447 -0.7677 0.1764, 0.0447 -0.7717 0.1764, 0.0431 -0.7677 0.1786, 0.0431 -0.7717 0.1786, 0.0418 -0.7677 0.1815, 0.0418 -0.7717 0.1815, 0.0412 -0.7677 0.1851, 0.0412 -0.7717 0.1851, 0.0411 -0.7677 0.187, 0.0411 -0.7717 0.187, 0.0417 -0.7677 0.1921, 0.0417 -0.7717 0.1921, 0.0429 -0.7677 0.1953, 0.0429 -0.7717 0.1953, 0.0447 -0.7677 0.1979, 0.0447 -0.7717 0.1979, 0.045 -0.7677 0.1981, 0.045 -0.7717 0.1981, 0.0471 -0.7677 0.2, 0.0471 -0.7717 0.2, 0.05 -0.7677 0.2014, 0.05 -0.7717 0.2014, 0.0532 -0.7677 0.2021, 0.0532 -0.7717 0.2021, 0.0551 -0.7677 0.2022, 0.0551 -0.7717 0.2022, 0.0638 -0.7677 0.2001, 0.0638 -0.7717 0.2001, 0.0634 -0.7717 0.2003, 0.0596 -0.7677 0.2017, 0.0596 -0.7717 0.2017, 0.0622 -0.7677 0.2007, 0.0634 -0.7677 0.2003, 0.0638 -0.7717 0.2051, 0.0638 -0.7677 0.2051, 0.0622 -0.7677 0.2055, 0.0599 -0.7717 0.2062, 0.055 -0.7677 0.2066, 0.055 -0.7717 0.2066, 0.059 -0.7677 0.2063, 0.0599 -0.7677 0.2062, 0.0525 -0.7677 0.2063, 0.0497 -0.7717 0.2059, 0.0497 -0.7677 0.2059, 0.0458 -0.7677 0.2044, 0.0458 -0.7717 0.2044, 0.0423 -0.7677 0.202, 0.0423 -0.7717 0.202, 0.0414 -0.7677 0.2011, 0.0414 -0.7717 0.2011, 0.0387 -0.7677 0.1976, 0.0387 -0.7717 0.1976, 0.0377 -0.7677 0.1952, 0.037 -0.7717 0.1935, 0.037 -0.7677 0.1935, 0.0361 -0.7677 0.1886, 0.0361 -0.7717 0.1886, 0.0361 -0.7677 0.1867, 0.0361 -0.7717 0.1867, 0.0368 -0.7677 0.1807, 0.0368 -0.7717 0.1807, 0.0377 -0.7677 0.1783, 0.0383 -0.7717 0.1768, 0.0383 -0.7677 0.1768, 0.0405 -0.7677 0.1736, 0.0405 -0.7717 0.1736, 0.0408 -0.7677 0.1733, 0.0408 -0.7717 0.1733, 0.0513 -0.7717 0.1684, 0.0438 -0.7677 0.1708, 0.0438 -0.7717 0.1708, 0.0473 -0.7677 0.1692, 0.0473 -0.7717 0.1692, 0.0503 -0.7677 0.1686, 0.0513 -0.7677 0.1684, 0.0912 -0.7717 0.1731, 0.0912 -0.7717 0.1689, 0.0912 -0.7677 0.1731, 0.0912 -0.7677 0.1689, 0.076 -0.7677 0.1731, 0.076 -0.7717 0.1731, 0.086 -0.7677 0.1731, 0.076 -0.7717 0.1856, 0.076 -0.7677 0.1856, 0.0893 -0.7717 0.1856, 0.086 -0.7677 0.1856, 0.0893 -0.7677 0.1856, 0.0893 -0.7717 0.1898, 0.0893 -0.7677 0.1898, 0.076 -0.7677 0.1898, 0.076 -0.7717 0.1898, 0.086 -0.7677 0.1898, 0.076 -0.7717 0.2017, 0.076 -0.7677 0.2017, 0.0903 -0.7717 0.2017, 0.086 -0.7677 0.2017, 0.0903 -0.7677 0.2017, 0.0903 -0.7717 0.2059, 0.0903 -0.7677 0.2059, 0.0712 -0.7677 0.2059, 0.0712 -0.7717 0.2059, 0.086 -0.7677 0.2059, 0.0712 -0.7717 0.1689, 0.0712 -0.7677 0.1689, 0.086 -0.7677 0.1689, 0.1228 -0.7717 0.1741, 0.1189 -0.7717 0.1766, 0.1189 -0.7717 0.1713, 0.1165 -0.7717 0.1749, 0.1147 -0.7717 0.1696, 0.1135 -0.7717 0.1737, 0.1084 -0.7717 0.1689, 0.1083 -0.7717 0.1731, 0.0982 -0.7717 0.1689, 0.103 -0.7717 0.1731, 0.0982 -0.7717 0.2059, 0.103 -0.7717 0.2017, 0.1087 -0.7717 0.2059, 0.1086 -0.7717 0.2017, 0.1099 -0.7717 0.2016, 0.1144 -0.7717 0.2053, 0.1138 -0.7717 0.201, 0.1189 -0.7717 0.2037, 0.117 -0.7717 0.1998, 0.1228 -0.7717 0.201, 0.1193 -0.7717 0.1982, 0.1241 -0.7717 0.1998, 0.1203 -0.7717 0.1972, 0.1264 -0.7717 0.1965, 0.1217 -0.7717 0.1951, 0.1277 -0.7717 0.193, 0.1228 -0.7717 0.1924, 0.1283 -0.7717 0.1879, 0.1233 -0.7717 0.1878, 0.1282 -0.7717 0.1855, 0.1231 -0.7717 0.185, 0.1273 -0.7717 0.1812, 0.1224 -0.7717 0.1817, 0.1255 -0.7717 0.1773, 0.121 -0.7717 0.179, 0.1194 -0.7717 0.177, 0.1084 -0.7677 0.1689, 0.0982 -0.7677 0.1689, 0.1147 -0.7677 0.1696, 0.1189 -0.7677 0.1713, 0.1228 -0.7677 0.1741, 0.1255 -0.7677 0.1773, 0.1273 -0.7677 0.1812, 0.1282 -0.7677 0.1855, 0.1283 -0.7677 0.1879, 0.1277 -0.7677 0.193, 0.1264 -0.7677 0.1965, 0.1241 -0.7677 0.1998, 0.1228 -0.7677 0.201, 0.1189 -0.7677 0.2037, 0.1144 -0.7677 0.2053, 0.1087 -0.7677 0.2059, 0.0982 -0.7677 0.2059, 0.1086 -0.7677 0.2017, 0.103 -0.7677 0.2017, 0.103 -0.7677 0.1731, 0.1083 -0.7677 0.1731, 0.1194 -0.7677 0.177, 0.1189 -0.7677 0.1766, 0.1165 -0.7677 0.1749, 0.1135 -0.7677 0.1737, 0.1233 -0.7677 0.1878, 0.1231 -0.7677 0.185, 0.1224 -0.7677 0.1817, 0.121 -0.7677 0.179, 0.1193 -0.7677 0.1982, 0.1203 -0.7677 0.1972, 0.1217 -0.7677 0.1951, 0.1228 -0.7677 0.1924, 0.1099 -0.7677 0.2016, 0.1138 -0.7677 0.201, 0.117 -0.7677 0.1998
            ]
        }
        coordIndex [
            0,1,2,-1,2,1,3,-1,4,0,5,-1,5,0,2,-1,6,4,7,-1,7,4,5,-1,8,6,9,-1,9,6,7,-1,10,8,11,-1,11,8,9,-1,1,10,3,-1,3,10,11,-1,6,8,4,-1,4,8,10,-1,4,10,0,-1,0,10,1,-1,12,13,14,-1,15,16,17,-1,17,16,18,-1,18,19,17,-1,17,19,20,-1,17,20,14,-1,14,20,21,-1,14,21,12,-1,22,13,23,-1,23,13,12,-1,22,23,24,-1,22,24,25,-1,24,26,25,-1,25,26,27,-1,25,27,28,-1,28,27,29,-1,28,29,30,-1,30,29,31,-1,30,31,32,-1,32,31,33,-1,32,33,34,-1,34,33,35,-1,34,35,36,-1,36,35,37,-1,36,37,38,-1,38,37,39,-1,38,39,40,-1,40,39,41,-1,40,41,42,-1,42,41,43,-1,42,43,44,-1,44,43,45,-1,44,45,46,-1,46,45,47,-1,46,47,48,-1,48,47,49,-1,48,49,50,-1,50,49,51,-1,50,51,52,-1,52,51,53,-1,52,53,54,-1,54,53,55,-1,54,55,56,-1,56,55,57,-1,56,57,58,-1,58,57,59,-1,58,59,60,-1,60,59,61,-1,60,61,62,-1,63,64,65,-1,62,61,66,-1,62,66,67,-1,67,66,68,-1,67,68,65,-1,65,68,69,-1,65,69,63,-1,70,64,71,-1,71,64,63,-1,70,71,72,-1,70,72,73,-1,74,75,76,-1,76,75,73,-1,76,73,77,-1,77,73,72,-1,75,74,78,-1,75,78,79,-1,78,80,79,-1,79,80,81,-1,79,81,82,-1,82,81,83,-1,82,83,84,-1,84,83,85,-1,84,85,86,-1,86,85,87,-1,86,87,88,-1,88,87,89,-1,88,89,90,-1,89,91,90,-1,90,91,92,-1,90,92,93,-1,93,92,94,-1,93,94,95,-1,95,94,96,-1,95,96,97,-1,97,96,98,-1,97,98,99,-1,98,100,99,-1,99,100,101,-1,99,101,102,-1,102,101,103,-1,102,103,104,-1,16,15,105,-1,104,103,106,-1,104,106,107,-1,107,106,108,-1,107,108,109,-1,109,108,110,-1,109,110,105,-1,105,110,111,-1,105,111,16,-1,56,58,79,-1,48,50,88,-1,88,50,86,-1,79,58,75,-1,58,60,75,-1,75,60,62,-1,75,62,73,-1,73,62,67,-1,73,67,70,-1,70,67,65,-1,70,65,64,-1,13,22,14,-1,14,22,25,-1,14,25,17,-1,17,25,28,-1,17,28,15,-1,15,28,30,-1,15,30,105,-1,105,30,32,-1,105,32,109,-1,109,32,34,-1,109,34,107,-1,107,34,36,-1,107,36,104,-1,104,36,38,-1,104,38,102,-1,102,38,40,-1,102,40,99,-1,95,46,93,-1,93,46,48,-1,93,48,90,-1,90,48,88,-1,50,52,86,-1,86,52,54,-1,86,54,84,-1,84,54,56,-1,84,56,82,-1,82,56,79,-1,99,40,97,-1,97,40,42,-1,97,42,95,-1,95,42,44,-1,95,44,46,-1,112,113,114,-1,114,113,115,-1,116,117,118,-1,118,117,112,-1,118,112,114,-1,119,117,120,-1,120,117,116,-1,119,120,121,-1,121,120,122,-1,121,122,123,-1,124,121,125,-1,125,121,123,-1,126,127,128,-1,128,127,124,-1,128,124,125,-1,129,127,130,-1,130,127,126,-1,129,130,131,-1,131,130,132,-1,131,132,133,-1,134,131,135,-1,135,131,133,-1,136,137,138,-1,138,137,134,-1,138,134,135,-1,139,137,140,-1,140,137,136,-1,139,140,113,-1,113,140,141,-1,113,141,115,-1,139,113,112,-1,112,117,139,-1,139,117,119,-1,139,119,137,-1,131,134,129,-1,129,134,137,-1,129,137,127,-1,127,137,119,-1,127,119,124,-1,124,119,121,-1,142,143,144,-1,144,143,145,-1,144,145,146,-1,146,145,147,-1,146,147,148,-1,148,147,149,-1,148,149,150,-1,150,149,151,-1,150,151,152,-1,152,151,153,-1,152,153,154,-1,153,155,154,-1,154,155,156,-1,154,156,157,-1,157,156,158,-1,157,158,159,-1,159,158,160,-1,159,160,161,-1,161,160,162,-1,161,162,163,-1,163,162,164,-1,163,164,165,-1,165,164,166,-1,165,166,167,-1,167,166,168,-1,167,168,169,-1,169,168,170,-1,169,170,171,-1,171,170,172,-1,171,172,173,-1,173,172,174,-1,173,174,175,-1,175,174,176,-1,175,176,142,-1,142,176,177,-1,142,177,143,-1,148,150,178,-1,178,150,179,-1,148,178,180,-1,148,180,146,-1,146,180,181,-1,146,181,144,-1,144,181,182,-1,144,182,142,-1,142,182,183,-1,142,183,175,-1,175,183,184,-1,175,184,173,-1,173,184,185,-1,173,185,171,-1,171,185,186,-1,171,186,169,-1,169,186,187,-1,169,187,167,-1,167,187,188,-1,167,188,165,-1,165,188,189,-1,165,189,163,-1,163,189,190,-1,163,190,161,-1,161,190,191,-1,161,191,159,-1,159,191,192,-1,159,192,157,-1,157,192,193,-1,157,193,154,-1,152,154,194,-1,194,154,193,-1,150,152,179,-1,179,152,194,-1,155,153,195,-1,195,153,196,-1,153,151,196,-1,196,151,197,-1,151,149,197,-1,197,149,198,-1,177,199,200,-1,177,200,143,-1,143,200,201,-1,143,201,145,-1,145,201,202,-1,145,202,147,-1,147,202,198,-1,147,198,149,-1,170,203,204,-1,170,204,172,-1,172,204,205,-1,172,205,174,-1,174,205,206,-1,174,206,176,-1,176,206,199,-1,176,199,177,-1,162,207,208,-1,162,208,164,-1,164,208,209,-1,164,209,166,-1,166,209,210,-1,166,210,168,-1,168,210,203,-1,168,203,170,-1,155,195,211,-1,155,211,156,-1,156,211,212,-1,156,212,158,-1,158,212,213,-1,158,213,160,-1,160,213,207,-1,160,207,162,-1,
        ]
    }
}
Shape{
    appearance Appearance {
        material  Material 	{
            diffuseColor 1.0 1.0 0.7529411764705882
            specularColor 0.8784313725490196 0.8784313725490196 0.6627450980392157
            ambientIntensity 0.9718
            transparency 0.0
            shininess 0.5
        }
    }
    geometry IndexedFaceSet {
        ccw TRUE
        solid FALSE
        coord DEF co Coordinate {
            point [
                0.1189 -0.7677 0.1766, 0.1194 -0.7677 0.177, 0.1099 -0.7677 0.2016, 0.1165 -0.7677 0.1749, 0.103 -0.7677 0.2017, 0.103 -0.7677 0.1731, 0.1086 -0.7677 0.2017, 0.1083 -0.7677 0.1731, 0.1135 -0.7677 0.1737, 0.121 -0.7677 0.179, 0.1224 -0.7677 0.1817, 0.1231 -0.7677 0.185, 0.1193 -0.7677 0.1982, 0.1233 -0.7677 0.1878, 0.117 -0.7677 0.1998, 0.1138 -0.7677 0.201, 0.1228 -0.7677 0.1924, 0.1217 -0.7677 0.1951, 0.1203 -0.7677 0.1972
            ]
        }
        coordIndex [
            0,1,2,-1,0,2,3,-1,4,5,6,-1,6,5,7,-1,6,7,2,-1,2,7,8,-1,2,8,3,-1,1,9,2,-1,2,9,10,-1,2,10,11,-1,12,11,13,-1,12,14,11,-1,11,14,15,-1,11,15,2,-1,16,17,13,-1,13,17,18,-1,13,18,12,-1,
        ]
    }
}
Shape{
    appearance Appearance {
        material  Material 	{
            diffuseColor 0.0 0.0 0.0
            specularColor 0.0 0.0 0.0
            ambientIntensity 0.0
            transparency 0.0
            shininess 0.5
        }
    }
    geometry IndexedFaceSet {
        ccw TRUE
        solid FALSE
        coord DEF co Coordinate {
            point [
                0.1408 -0.7717 0.1832, 0.1393 -0.7717 0.179, 0.1532 -0.7717 0.1832, 0.1547 -0.7717 0.179, 0.1463 -0.7717 0.1986, 0.1445 -0.7717 0.2059, 0.1304 -0.7717 0.1689, 0.1357 -0.7717 0.1689, 0.1466 -0.7717 0.1997, 0.1469 -0.7717 0.2012, 0.1496 -0.7717 0.2059, 0.147 -0.7717 0.2012, 0.1473 -0.7717 0.1996, 0.1476 -0.7717 0.1986, 0.1638 -0.7717 0.1689, 0.1585 -0.7717 0.1689, 0.1496 -0.7677 0.2059, 0.1638 -0.7677 0.1689, 0.1445 -0.7677 0.2059, 0.1304 -0.7677 0.1689, 0.1411 -0.7677 0.1969, 0.1357 -0.7677 0.1689, 0.1393 -0.7677 0.179, 0.1547 -0.7677 0.179, 0.1411 -0.7677 0.179, 0.1585 -0.7677 0.1689, 0.1408 -0.7677 0.1832, 0.1532 -0.7677 0.1832, 0.1476 -0.7677 0.1986, 0.147 -0.7677 0.2012, 0.1473 -0.7677 0.1996, 0.1469 -0.7677 0.2012, 0.1463 -0.7677 0.1986, 0.1466 -0.7677 0.1997
            ]
        }
        coordIndex [
            0,1,2,-1,2,1,3,-1,4,5,0,-1,0,5,6,-1,0,6,1,-1,1,6,7,-1,4,8,5,-1,5,8,9,-1,5,9,10,-1,10,9,11,-1,10,11,12,-1,12,13,10,-1,10,13,2,-1,10,2,14,-1,14,2,3,-1,14,3,15,-1,10,14,16,-1,16,14,17,-1,5,10,18,-1,18,10,16,-1,19,6,20,-1,20,6,5,-1,20,5,18,-1,7,6,21,-1,21,6,19,-1,1,7,22,-1,22,7,21,-1,23,3,24,-1,24,3,1,-1,24,1,22,-1,15,3,25,-1,25,3,23,-1,14,15,17,-1,17,15,25,-1,0,2,26,-1,26,2,27,-1,2,13,27,-1,27,13,28,-1,11,29,30,-1,11,30,12,-1,12,30,28,-1,12,28,13,-1,11,9,29,-1,29,9,31,-1,4,32,33,-1,4,33,8,-1,8,33,31,-1,8,31,9,-1,4,0,32,-1,32,0,26,-1,
        ]
    }
}
Shape{
    appearance Appearance {
        material  Material 	{
            diffuseColor 1.0 1.0 0.7529411764705882
            specularColor 0.8784313725490196 0.8784313725490196 0.6627450980392157
            ambientIntensity 0.9718
            transparency 0.0
            shininess 0.5
        }
    }
    geometry IndexedFaceSet {
        ccw TRUE
        solid FALSE
        coord DEF co Coordinate {
            point [
                0.147 -0.7677 0.2012, 0.1469 -0.7677 0.2012, 0.1473 -0.7677 0.1996, 0.1466 -0.7677 0.1997, 0.1476 -0.7677 0.1986, 0.1463 -0.7677 0.1986, 0.1532 -0.7677 0.1832, 0.1408 -0.7677 0.1832
            ]
        }
        coordIndex [
            0,1,2,-1,2,1,3,-1,2,3,4,-1,4,3,5,-1,4,5,6,-1,6,5,7,-1,
        ]
    }
}
Shape{
    appearance Appearance {
        material  Material 	{
            diffuseColor 0.0 0.0 0.0
            specularColor 0.0 0.0 0.0
            ambientIntensity 0.0
            transparency 0.0
            shininess 0.5
        }
    }
    geometry IndexedFaceSet {
        ccw TRUE
        solid FALSE
        coord DEF co Coordinate {
            point [
                0.0349 -0.7717 0.1143, 0.0349 -0.7717 0.1101, 0.0349 -0.7677 0.1143, 0.0349 -0.7677 0.1101, 0.0198 -0.7717 0.1143, 0.0198 -0.7677 0.1143, 0.0198 -0.7717 0.1268, 0.0198 -0.7677 0.1268, 0.033 -0.7717 0.1268, 0.033 -0.7677 0.1268, 0.033 -0.7717 0.131, 0.033 -0.7677 0.131, 0.0198 -0.7717 0.131, 0.0198 -0.7677 0.131, 0.0198 -0.7717 0.1429, 0.0198 -0.7677 0.1429, 0.0341 -0.7717 0.1429, 0.0341 -0.7677 0.1429, 0.0341 -0.7717 0.1471, 0.0341 -0.7677 0.1471, 0.015 -0.7717 0.1471, 0.015 -0.7677 0.1471, 0.015 -0.7717 0.1101, 0.015 -0.7677 0.1101, 0.0458 -0.7717 0.1213, 0.0468 -0.7717 0.1218, 0.0443 -0.7717 0.1248, 0.0559 -0.7717 0.1142, 0.056 -0.7717 0.1142, 0.0557 -0.7717 0.1184, 0.056 -0.7717 0.1205, 0.0606 -0.7717 0.1271, 0.056 -0.7717 0.1208, 0.056 -0.7717 0.1234, 0.056 -0.7717 0.1101, 0.0606 -0.7717 0.1101, 0.0542 -0.7717 0.1368, 0.0533 -0.7717 0.1328, 0.0561 -0.7717 0.1362, 0.0541 -0.7717 0.1323, 0.0482 -0.7717 0.1258, 0.0498 -0.7717 0.1225, 0.056 -0.7717 0.1269, 0.055 -0.7717 0.1168, 0.054 -0.7717 0.1154, 0.0549 -0.7717 0.1128, 0.0534 -0.7717 0.1148, 0.0534 -0.7717 0.1113, 0.0521 -0.7717 0.114, 0.0521 -0.7717 0.1104, 0.0507 -0.7717 0.1134, 0.0503 -0.7717 0.1097, 0.049 -0.7717 0.1133, 0.0478 -0.7717 0.1094, 0.0474 -0.7717 0.1134, 0.045 -0.7717 0.1098, 0.0464 -0.7717 0.1138, 0.0432 -0.7717 0.1104, 0.0454 -0.7717 0.1144, 0.0416 -0.7717 0.1115, 0.045 -0.7717 0.1148, 0.0558 -0.7717 0.1289, 0.0602 -0.7717 0.131, 0.0554 -0.7717 0.1306, 0.0594 -0.7717 0.133, 0.0548 -0.7717 0.1316, 0.0585 -0.7717 0.1344, 0.0576 -0.7717 0.1352, 0.042 -0.7717 0.1347, 0.042 -0.7717 0.1302, 0.0429 -0.7717 0.1352, 0.0452 -0.7717 0.1322, 0.0464 -0.7717 0.1366, 0.0481 -0.7717 0.1331, 0.0511 -0.7717 0.1372, 0.0506 -0.7717 0.1334, 0.0522 -0.7717 0.1332, 0.0453 -0.7717 0.1209, 0.0425 -0.7717 0.1238, 0.0448 -0.7717 0.1202, 0.0411 -0.7717 0.1225, 0.0443 -0.7717 0.1193, 0.0401 -0.7717 0.121, 0.0441 -0.7717 0.1183, 0.0396 -0.7717 0.1193, 0.0441 -0.7717 0.1175, 0.0394 -0.7717 0.1172, 0.0442 -0.7717 0.1165, 0.0396 -0.7717 0.115, 0.0445 -0.7717 0.1156, 0.0402 -0.7717 0.1135, 0.0411 -0.7717 0.112, 0.0511 -0.7677 0.1372, 0.0464 -0.7677 0.1366, 0.0429 -0.7677 0.1352, 0.042 -0.7677 0.1347, 0.042 -0.7677 0.1302, 0.0452 -0.7677 0.1322, 0.0481 -0.7677 0.1331, 0.0506 -0.7677 0.1334, 0.0522 -0.7677 0.1332, 0.0533 -0.7677 0.1328, 0.0541 -0.7677 0.1323, 0.0548 -0.7677 0.1316, 0.0554 -0.7677 0.1306, 0.0558 -0.7677 0.1289, 0.056 -0.7677 0.1269, 0.0482 -0.7677 0.1258, 0.0443 -0.7677 0.1248, 0.0425 -0.7677 0.1238, 0.0411 -0.7677 0.1225, 0.0401 -0.7677 0.121, 0.0396 -0.7677 0.1193, 0.0394 -0.7677 0.1172, 0.0396 -0.7677 0.115, 0.0402 -0.7677 0.1135, 0.0411 -0.7677 0.112, 0.0416 -0.7677 0.1115, 0.0478 -0.7677 0.1094, 0.0451 -0.7677 0.1098, 0.045 -0.7677 0.1098, 0.0432 -0.7677 0.1104, 0.0503 -0.7677 0.1097, 0.0503 -0.7677 0.1098, 0.0521 -0.7677 0.1104, 0.0534 -0.7677 0.1113, 0.0549 -0.7677 0.1128, 0.0559 -0.7677 0.1142, 0.056 -0.7677 0.1142, 0.056 -0.7677 0.1101, 0.0606 -0.7677 0.1101, 0.0606 -0.7677 0.1271, 0.0602 -0.7677 0.131, 0.0594 -0.7677 0.133, 0.0585 -0.7677 0.1344, 0.0576 -0.7677 0.1352, 0.0561 -0.7677 0.1362, 0.0542 -0.7677 0.1368, 0.0453 -0.7677 0.1209, 0.0458 -0.7677 0.1213, 0.0468 -0.7677 0.1218, 0.0498 -0.7677 0.1225, 0.0441 -0.7677 0.1175, 0.0441 -0.7677 0.1183, 0.0443 -0.7677 0.1193, 0.0448 -0.7677 0.1202, 0.0454 -0.7677 0.1144, 0.045 -0.7677 0.1148, 0.0445 -0.7677 0.1156, 0.0442 -0.7677 0.1165, 0.049 -0.7677 0.1133, 0.0474 -0.7677 0.1134, 0.0464 -0.7677 0.1138, 0.054 -0.7677 0.1154, 0.0534 -0.7677 0.1148, 0.0521 -0.7677 0.114, 0.0507 -0.7677 0.1134, 0.056 -0.7677 0.1208, 0.056 -0.7677 0.1205, 0.0557 -0.7677 0.1184, 0.055 -0.7677 0.1168, 0.056 -0.7677 0.1234
            ]
        }
        coordIndex [
            0,1,2,-1,2,1,3,-1,4,0,5,-1,5,0,2,-1,6,4,7,-1,7,4,5,-1,8,6,9,-1,9,6,7,-1,10,8,11,-1,11,8,9,-1,12,10,13,-1,13,10,11,-1,14,12,15,-1,15,12,13,-1,16,14,17,-1,17,14,15,-1,18,16,19,-1,19,16,17,-1,20,18,21,-1,21,18,19,-1,22,20,23,-1,23,20,21,-1,1,22,3,-1,3,22,23,-1,22,1,0,-1,0,4,22,-1,22,4,6,-1,22,6,20,-1,16,18,14,-1,14,18,20,-1,14,20,12,-1,12,20,6,-1,12,6,10,-1,10,6,8,-1,24,25,26,-1,27,28,29,-1,30,31,32,-1,32,31,33,-1,34,35,28,-1,28,35,31,-1,28,31,29,-1,29,31,30,-1,36,37,38,-1,38,37,39,-1,26,25,40,-1,40,25,41,-1,40,41,42,-1,29,43,27,-1,27,43,44,-1,27,44,45,-1,45,44,46,-1,45,46,47,-1,47,46,48,-1,47,48,49,-1,49,48,50,-1,49,50,51,-1,51,50,52,-1,51,52,53,-1,53,52,54,-1,53,54,55,-1,55,54,56,-1,55,56,57,-1,57,56,58,-1,57,58,59,-1,59,58,60,-1,41,33,42,-1,42,33,31,-1,42,31,61,-1,61,31,62,-1,61,62,63,-1,63,62,64,-1,63,64,65,-1,65,64,66,-1,65,66,39,-1,39,66,67,-1,39,67,38,-1,68,69,70,-1,70,69,71,-1,70,71,72,-1,72,71,73,-1,72,73,74,-1,74,73,75,-1,74,75,36,-1,36,75,76,-1,36,76,37,-1,24,26,77,-1,77,26,78,-1,77,78,79,-1,79,78,80,-1,79,80,81,-1,81,80,82,-1,81,82,83,-1,83,82,84,-1,83,84,85,-1,85,84,86,-1,85,86,87,-1,87,86,88,-1,87,88,89,-1,89,88,90,-1,89,90,60,-1,60,90,91,-1,60,91,59,-1,74,92,93,-1,74,93,72,-1,72,93,94,-1,72,94,70,-1,70,94,95,-1,70,95,68,-1,69,68,96,-1,96,68,95,-1,69,96,97,-1,69,97,71,-1,71,97,98,-1,71,98,73,-1,73,98,99,-1,73,99,75,-1,75,99,100,-1,75,100,76,-1,76,100,101,-1,76,101,37,-1,37,101,102,-1,37,102,39,-1,39,102,103,-1,39,103,65,-1,65,103,104,-1,65,104,63,-1,63,104,105,-1,63,105,61,-1,61,105,106,-1,61,106,42,-1,40,42,107,-1,107,42,106,-1,40,107,108,-1,40,108,26,-1,26,108,109,-1,26,109,78,-1,78,109,110,-1,78,110,80,-1,80,110,111,-1,80,111,82,-1,82,111,112,-1,82,112,84,-1,84,112,113,-1,84,113,86,-1,86,113,114,-1,86,114,88,-1,88,114,115,-1,88,115,90,-1,90,115,116,-1,90,116,91,-1,91,116,117,-1,91,117,59,-1,118,53,119,-1,119,53,55,-1,119,55,120,-1,120,55,57,-1,120,57,121,-1,121,57,59,-1,121,59,117,-1,53,118,122,-1,53,122,51,-1,51,122,123,-1,51,123,49,-1,123,124,49,-1,49,124,125,-1,49,125,47,-1,47,125,126,-1,47,126,45,-1,45,126,127,-1,45,127,27,-1,28,27,128,-1,128,27,127,-1,34,28,129,-1,129,28,128,-1,35,34,130,-1,130,34,129,-1,31,35,131,-1,131,35,130,-1,31,131,132,-1,31,132,62,-1,62,132,133,-1,62,133,64,-1,64,133,134,-1,64,134,66,-1,66,134,135,-1,66,135,67,-1,67,135,136,-1,67,136,38,-1,38,136,137,-1,38,137,36,-1,36,137,92,-1,36,92,74,-1,77,138,139,-1,77,139,24,-1,24,139,140,-1,24,140,25,-1,25,140,141,-1,25,141,41,-1,85,142,143,-1,85,143,83,-1,83,143,144,-1,83,144,81,-1,81,144,145,-1,81,145,79,-1,79,145,138,-1,79,138,77,-1,58,146,147,-1,58,147,60,-1,60,147,148,-1,60,148,89,-1,89,148,149,-1,89,149,87,-1,87,149,142,-1,87,142,85,-1,52,150,151,-1,52,151,54,-1,54,151,152,-1,54,152,56,-1,56,152,146,-1,56,146,58,-1,44,153,154,-1,44,154,46,-1,46,154,155,-1,46,155,48,-1,48,155,156,-1,48,156,50,-1,50,156,150,-1,50,150,52,-1,32,157,158,-1,32,158,30,-1,30,158,159,-1,30,159,29,-1,29,159,160,-1,29,160,43,-1,43,160,153,-1,43,153,44,-1,32,33,157,-1,157,33,161,-1,33,41,161,-1,161,41,141,-1,
        ]
    }
}
Shape{
    appearance Appearance {
        material  Material 	{
            diffuseColor 1.0 1.0 0.7529411764705882
            specularColor 0.8784313725490196 0.8784313725490196 0.6627450980392157
            ambientIntensity 0.9718
            transparency 0.0
            shininess 0.5
        }
    }
    geometry IndexedFaceSet {
        ccw TRUE
        solid FALSE
        coord DEF co Coordinate {
            point [
                0.056 -0.7677 0.1205, 0.056 -0.7677 0.1208, 0.0453 -0.7677 0.1209, 0.056 -0.7677 0.1234, 0.0498 -0.7677 0.1225, 0.0468 -0.7677 0.1218, 0.0458 -0.7677 0.1213, 0.0557 -0.7677 0.1184, 0.0448 -0.7677 0.1202, 0.055 -0.7677 0.1168, 0.045 -0.7677 0.1148, 0.0454 -0.7677 0.1144, 0.0534 -0.7677 0.1148, 0.0445 -0.7677 0.1156, 0.0521 -0.7677 0.114, 0.0507 -0.7677 0.1134, 0.049 -0.7677 0.1133, 0.0443 -0.7677 0.1193, 0.0441 -0.7677 0.1183, 0.054 -0.7677 0.1154, 0.0441 -0.7677 0.1175, 0.0442 -0.7677 0.1165, 0.0464 -0.7677 0.1138, 0.0474 -0.7677 0.1134
            ]
        }
        coordIndex [
            0,1,2,-1,1,3,4,-1,4,5,1,-1,1,5,6,-1,1,6,2,-1,0,2,7,-1,7,2,8,-1,7,8,9,-1,10,11,12,-1,10,12,13,-1,14,12,15,-1,15,12,16,-1,8,17,9,-1,9,17,18,-1,9,18,19,-1,19,18,20,-1,19,20,12,-1,12,20,21,-1,12,21,13,-1,11,22,12,-1,12,22,23,-1,12,23,16,-1,
        ]
    }
}
Shape{
    appearance Appearance {
        material  Material 	{
            diffuseColor 0.0 0.0 0.0
            specularColor 0.0 0.0 0.0
            ambientIntensity 0.0
            transparency 0.0
            shininess 0.5
        }
    }
    geometry IndexedFaceSet {
        ccw TRUE
        solid FALSE
        coord DEF co Coordinate {
            point [
                0.0669 -0.7677 0.1158, 0.0669 -0.7717 0.1158, 0.0689 -0.7717 0.1146, 0.0746 -0.7717 0.1132, 0.0746 -0.7677 0.1132, 0.0719 -0.7677 0.1135, 0.0719 -0.7717 0.1135, 0.0691 -0.7677 0.1145, 0.0689 -0.7677 0.1146, 0.0669 -0.7717 0.111, 0.0669 -0.7677 0.111, 0.0691 -0.7677 0.1102, 0.0702 -0.7717 0.1098, 0.0741 -0.7677 0.1094, 0.0741 -0.7717 0.1094, 0.0711 -0.7677 0.1098, 0.0702 -0.7677 0.1098, 0.0768 -0.7677 0.1098, 0.0783 -0.7717 0.1099, 0.0783 -0.7677 0.1099, 0.0807 -0.7677 0.1109, 0.0807 -0.7717 0.1109, 0.0818 -0.7677 0.1115, 0.0818 -0.7717 0.1115, 0.0832 -0.7677 0.1127, 0.0832 -0.7717 0.1127, 0.084 -0.7677 0.1139, 0.084 -0.7717 0.1139, 0.0846 -0.7677 0.1154, 0.0846 -0.7717 0.1154, 0.0848 -0.7677 0.1173, 0.0848 -0.7717 0.1173, 0.0846 -0.7677 0.119, 0.0846 -0.7717 0.119, 0.0841 -0.7677 0.1204, 0.0841 -0.7717 0.1204, 0.0833 -0.7677 0.1216, 0.0833 -0.7717 0.1216, 0.0822 -0.7677 0.1226, 0.0822 -0.7717 0.1226, 0.0791 -0.7677 0.1244, 0.0791 -0.7717 0.1244, 0.0773 -0.7677 0.1251, 0.0773 -0.7717 0.1251, 0.0733 -0.7677 0.127, 0.0733 -0.7717 0.127, 0.0728 -0.7677 0.1274, 0.0728 -0.7717 0.1274, 0.0723 -0.7677 0.1279, 0.0723 -0.7717 0.1279, 0.072 -0.7677 0.1285, 0.072 -0.7717 0.1285, 0.0718 -0.7677 0.1292, 0.0718 -0.7717 0.1292, 0.0717 -0.7677 0.1298, 0.0717 -0.7717 0.1298, 0.0718 -0.7677 0.1306, 0.0718 -0.7717 0.1306, 0.0721 -0.7677 0.1312, 0.0721 -0.7717 0.1312, 0.0725 -0.7677 0.1318, 0.0725 -0.7717 0.1318, 0.0732 -0.7677 0.1324, 0.0732 -0.7717 0.1324, 0.0742 -0.7677 0.1329, 0.0742 -0.7717 0.1329, 0.0754 -0.7677 0.1333, 0.0754 -0.7717 0.1333, 0.0768 -0.7677 0.1334, 0.0768 -0.7717 0.1334, 0.0796 -0.7677 0.1331, 0.0796 -0.7717 0.1331, 0.0823 -0.7677 0.1322, 0.0823 -0.7717 0.1322, 0.0835 -0.7677 0.1315, 0.0835 -0.7717 0.1315, 0.0835 -0.7717 0.136, 0.0835 -0.7677 0.136, 0.0805 -0.7677 0.1369, 0.0805 -0.7717 0.1369, 0.0773 -0.7677 0.1372, 0.0773 -0.7717 0.1372, 0.0736 -0.7677 0.1367, 0.0736 -0.7717 0.1367, 0.0711 -0.7677 0.1358, 0.0711 -0.7717 0.1358, 0.0699 -0.7677 0.135, 0.0699 -0.7717 0.135, 0.0691 -0.7677 0.1343, 0.0686 -0.7717 0.1338, 0.0686 -0.7677 0.1338, 0.0677 -0.7677 0.1325, 0.0677 -0.7717 0.1325, 0.0671 -0.7677 0.1311, 0.0671 -0.7717 0.1311, 0.067 -0.7677 0.1294, 0.067 -0.7717 0.1294, 0.0672 -0.7677 0.1276, 0.0672 -0.7717 0.1276, 0.0677 -0.7677 0.1262, 0.0677 -0.7717 0.1262, 0.0683 -0.7677 0.1252, 0.0683 -0.7717 0.1252, 0.074 -0.7677 0.1217, 0.074 -0.7717 0.1217, 0.0712 -0.7717 0.123, 0.069 -0.7677 0.1244, 0.069 -0.7717 0.1244, 0.0691 -0.7677 0.1244, 0.0712 -0.7677 0.123, 0.077 -0.7677 0.1204, 0.077 -0.7717 0.1204, 0.0789 -0.7677 0.1193, 0.0789 -0.7717 0.1193, 0.0794 -0.7677 0.1187, 0.0794 -0.7717 0.1187, 0.0798 -0.7677 0.1181, 0.0798 -0.7717 0.1181, 0.08 -0.7677 0.1174, 0.08 -0.7717 0.1174, 0.08 -0.7677 0.1168, 0.08 -0.7717 0.1168, 0.08 -0.7677 0.1159, 0.08 -0.7717 0.1159, 0.0797 -0.7677 0.1153, 0.0797 -0.7717 0.1153, 0.0793 -0.7677 0.1147, 0.0793 -0.7717 0.1147, 0.0788 -0.7677 0.1142, 0.0788 -0.7717 0.1142, 0.0784 -0.7677 0.1139, 0.0784 -0.7717 0.1139, 0.0772 -0.7677 0.1135, 0.0772 -0.7717 0.1135, 0.0748 -0.7677 0.1132, 0.0748 -0.7717 0.1132, 0.1078 -0.7717 0.1365, 0.1126 -0.7717 0.1365, 0.1078 -0.7677 0.1365, 0.1126 -0.7677 0.1365, 0.1006 -0.7717 0.1166, 0.1006 -0.7677 0.1166, 0.1002 -0.7677 0.1154, 0.1002 -0.7717 0.1154, 0.1 -0.7677 0.1145, 0.1 -0.7717 0.1145, 0.0999 -0.7717 0.1145, 0.0999 -0.7677 0.1145, 0.0993 -0.7717 0.1166, 0.0993 -0.7677 0.1166, 0.0924 -0.7717 0.1365, 0.0947 -0.7677 0.1301, 0.0924 -0.7677 0.1365, 0.0872 -0.7717 0.1365, 0.0872 -0.7677 0.1365, 0.0976 -0.7717 0.1101, 0.0947 -0.7677 0.1176, 0.0976 -0.7677 0.1101, 0.0956 -0.7677 0.1053, 0.0956 -0.7717 0.1053, 0.0975 -0.7677 0.1098, 0.0947 -0.7677 0.1036, 0.0946 -0.7717 0.1036, 0.0946 -0.7677 0.1036, 0.0938 -0.7677 0.1027, 0.0938 -0.7717 0.1027, 0.093 -0.7677 0.1021, 0.093 -0.7717 0.1021, 0.092 -0.7677 0.1017, 0.092 -0.7717 0.1017, 0.0908 -0.7677 0.1016, 0.0908 -0.7717 0.1016, 0.0891 -0.7677 0.1018, 0.0891 -0.7717 0.1018, 0.0882 -0.7677 0.1021, 0.0882 -0.7717 0.1021, 0.0882 -0.7717 0.098, 0.0882 -0.7677 0.098, 0.0902 -0.7677 0.0976, 0.0902 -0.7717 0.0976, 0.0912 -0.7677 0.0976, 0.0912 -0.7717 0.0976, 0.0931 -0.7677 0.0978, 0.0931 -0.7717 0.0978, 0.0947 -0.7677 0.0984, 0.0949 -0.7717 0.0985, 0.0949 -0.7677 0.0985, 0.0965 -0.7677 0.0996, 0.0965 -0.7717 0.0996, 0.0968 -0.7677 0.0999, 0.0968 -0.7717 0.0999, 0.0985 -0.7677 0.102, 0.0985 -0.7717 0.102, 0.1006 -0.7677 0.1061, 0.1006 -0.7717 0.1061, 0.1021 -0.7677 0.1098, 0.1376 -0.7717 0.1143, 0.1376 -0.7717 0.1101, 0.1376 -0.7677 0.1143, 0.1376 -0.7677 0.1101, 0.1224 -0.7717 0.1143, 0.1294 -0.7677 0.1143, 0.1224 -0.7677 0.1143, 0.1224 -0.7717 0.1268, 0.1224 -0.7677 0.1268, 0.1357 -0.7717 0.1268, 0.1294 -0.7677 0.1268, 0.1357 -0.7677 0.1268, 0.1357 -0.7717 0.131, 0.1357 -0.7677 0.131, 0.1224 -0.7677 0.131, 0.1224 -0.7717 0.131, 0.1294 -0.7677 0.131, 0.1224 -0.7717 0.1429, 0.1224 -0.7677 0.1429, 0.1367 -0.7677 0.1429, 0.1367 -0.7717 0.1429, 0.1294 -0.7677 0.1429, 0.1367 -0.7717 0.1471, 0.1367 -0.7677 0.1471, 0.1176 -0.7677 0.1471, 0.1176 -0.7717 0.1471, 0.1294 -0.7677 0.1471, 0.1176 -0.7717 0.1101, 0.1176 -0.7677 0.1101, 0.1294 -0.7677 0.1101, 0.1692 -0.7717 0.1153, 0.1654 -0.7717 0.1178, 0.1653 -0.7717 0.1125, 0.163 -0.7717 0.1161, 0.1611 -0.7717 0.1108, 0.1599 -0.7717 0.1149, 0.1548 -0.7717 0.1101, 0.1548 -0.7717 0.1143, 0.1446 -0.7717 0.1101, 0.1494 -0.7717 0.1143, 0.1446 -0.7717 0.1471, 0.1494 -0.7717 0.1429, 0.1552 -0.7717 0.1471, 0.155 -0.7717 0.1429, 0.1564 -0.7717 0.1428, 0.1608 -0.7717 0.1465, 0.1603 -0.7717 0.1422, 0.1653 -0.7717 0.1449, 0.1634 -0.7717 0.141, 0.1692 -0.7717 0.1422, 0.1657 -0.7717 0.1394, 0.1705 -0.7717 0.141, 0.1667 -0.7717 0.1384, 0.1728 -0.7717 0.1377, 0.1681 -0.7717 0.1363, 0.1741 -0.7717 0.1342, 0.1692 -0.7717 0.1336, 0.1748 -0.7717 0.1291, 0.1697 -0.7717 0.1289, 0.1747 -0.7717 0.1267, 0.1696 -0.7717 0.1262, 0.1738 -0.7717 0.1224, 0.1688 -0.7717 0.1229, 0.1719 -0.7717 0.1185, 0.1675 -0.7717 0.1202, 0.1658 -0.7717 0.1182, 0.1548 -0.7677 0.1101, 0.1446 -0.7677 0.1101, 0.1611 -0.7677 0.1108, 0.1653 -0.7677 0.1125, 0.1692 -0.7677 0.1153, 0.1719 -0.7677 0.1185, 0.1738 -0.7677 0.1224, 0.1747 -0.7677 0.1267, 0.1748 -0.7677 0.1291, 0.1741 -0.7677 0.1342, 0.1728 -0.7677 0.1377, 0.1705 -0.7677 0.141, 0.1692 -0.7677 0.1422, 0.1653 -0.7677 0.1449, 0.1608 -0.7677 0.1465, 0.1552 -0.7677 0.1471, 0.1446 -0.7677 0.1471, 0.155 -0.7677 0.1429, 0.1494 -0.7677 0.1429, 0.1494 -0.7677 0.1143, 0.1548 -0.7677 0.1143, 0.1658 -0.7677 0.1182, 0.1654 -0.7677 0.1178, 0.163 -0.7677 0.1161, 0.1599 -0.7677 0.1149, 0.1697 -0.7677 0.1289, 0.1696 -0.7677 0.1262, 0.1688 -0.7677 0.1229, 0.1675 -0.7677 0.1202, 0.1657 -0.7677 0.1394, 0.1667 -0.7677 0.1384, 0.1681 -0.7677 0.1363, 0.1692 -0.7677 0.1336, 0.1564 -0.7677 0.1428, 0.1603 -0.7677 0.1422, 0.1634 -0.7677 0.141
            ]
        }
        coordIndex [
            0,1,2,-1,3,4,5,-1,3,5,6,-1,6,5,7,-1,6,7,2,-1,2,7,8,-1,2,8,0,-1,9,1,10,-1,10,1,0,-1,10,11,9,-1,9,11,12,-1,13,14,15,-1,15,14,12,-1,15,12,16,-1,16,12,11,-1,13,17,14,-1,14,17,18,-1,17,19,18,-1,18,19,20,-1,18,20,21,-1,21,20,22,-1,21,22,23,-1,23,22,24,-1,23,24,25,-1,25,24,26,-1,25,26,27,-1,27,26,28,-1,27,28,29,-1,29,28,30,-1,29,30,31,-1,31,30,32,-1,31,32,33,-1,33,32,34,-1,33,34,35,-1,35,34,36,-1,35,36,37,-1,37,36,38,-1,37,38,39,-1,39,38,40,-1,39,40,41,-1,41,40,42,-1,41,42,43,-1,43,42,44,-1,43,44,45,-1,45,44,46,-1,45,46,47,-1,47,46,48,-1,47,48,49,-1,49,48,50,-1,49,50,51,-1,51,50,52,-1,51,52,53,-1,53,52,54,-1,53,54,55,-1,55,54,56,-1,55,56,57,-1,57,56,58,-1,57,58,59,-1,59,58,60,-1,59,60,61,-1,61,60,62,-1,61,62,63,-1,63,62,64,-1,63,64,65,-1,65,64,66,-1,65,66,67,-1,67,66,68,-1,67,68,69,-1,69,68,70,-1,69,70,71,-1,71,70,72,-1,71,72,73,-1,73,72,74,-1,73,74,75,-1,76,75,77,-1,77,75,74,-1,76,77,78,-1,76,78,79,-1,79,78,80,-1,79,80,81,-1,81,80,82,-1,81,82,83,-1,83,82,84,-1,83,84,85,-1,85,84,86,-1,85,86,87,-1,86,88,87,-1,87,88,89,-1,88,90,89,-1,89,90,91,-1,89,91,92,-1,92,91,93,-1,92,93,94,-1,94,93,95,-1,94,95,96,-1,96,95,97,-1,96,97,98,-1,98,97,99,-1,98,99,100,-1,100,99,101,-1,100,101,102,-1,103,104,105,-1,102,101,106,-1,102,106,107,-1,107,106,108,-1,107,108,105,-1,105,108,109,-1,105,109,103,-1,104,103,110,-1,104,110,111,-1,111,110,112,-1,111,112,113,-1,113,112,114,-1,113,114,115,-1,115,114,116,-1,115,116,117,-1,117,116,118,-1,117,118,119,-1,119,118,120,-1,119,120,121,-1,121,120,122,-1,121,122,123,-1,123,122,124,-1,123,124,125,-1,125,124,126,-1,125,126,127,-1,127,126,128,-1,127,128,129,-1,129,128,130,-1,129,130,131,-1,131,130,132,-1,131,132,133,-1,133,132,134,-1,133,134,135,-1,135,134,4,-1,135,4,3,-1,61,63,85,-1,85,63,83,-1,14,3,12,-1,12,3,6,-1,12,6,9,-1,9,6,2,-1,9,2,1,-1,63,65,83,-1,83,65,67,-1,83,67,81,-1,81,67,69,-1,81,69,79,-1,79,69,71,-1,79,71,76,-1,76,71,73,-1,76,73,75,-1,127,129,21,-1,21,129,131,-1,21,131,18,-1,18,131,133,-1,18,133,14,-1,14,133,135,-1,14,135,3,-1,85,87,61,-1,61,87,89,-1,61,89,59,-1,59,89,92,-1,59,92,57,-1,57,92,94,-1,57,94,55,-1,55,94,96,-1,55,96,53,-1,53,96,98,-1,53,98,51,-1,51,98,100,-1,51,100,49,-1,49,100,102,-1,49,102,47,-1,47,102,107,-1,47,107,45,-1,45,107,105,-1,45,105,43,-1,43,105,104,-1,43,104,41,-1,41,104,111,-1,41,111,39,-1,39,111,113,-1,39,113,37,-1,37,113,115,-1,37,115,35,-1,35,115,117,-1,35,117,33,-1,33,117,119,-1,33,119,31,-1,31,119,121,-1,31,121,29,-1,29,121,123,-1,29,123,27,-1,27,123,125,-1,27,125,25,-1,25,125,127,-1,25,127,23,-1,23,127,21,-1,136,137,138,-1,138,137,139,-1,140,136,141,-1,141,136,138,-1,140,141,142,-1,140,142,143,-1,143,142,144,-1,143,144,145,-1,146,145,147,-1,147,145,144,-1,148,146,149,-1,149,146,147,-1,148,149,150,-1,150,149,151,-1,150,151,152,-1,153,150,154,-1,154,150,152,-1,153,154,155,-1,155,154,156,-1,155,156,157,-1,158,159,160,-1,160,159,155,-1,160,155,157,-1,158,161,159,-1,159,161,162,-1,161,163,162,-1,162,163,164,-1,162,164,165,-1,165,164,166,-1,165,166,167,-1,167,166,168,-1,167,168,169,-1,169,168,170,-1,169,170,171,-1,171,170,172,-1,171,172,173,-1,173,172,174,-1,173,174,175,-1,176,175,177,-1,177,175,174,-1,176,177,178,-1,176,178,179,-1,179,178,180,-1,179,180,181,-1,181,180,182,-1,181,182,183,-1,183,182,184,-1,183,184,185,-1,184,186,185,-1,185,186,187,-1,185,187,188,-1,188,187,189,-1,188,189,190,-1,190,189,191,-1,190,191,192,-1,192,191,193,-1,192,193,194,-1,139,137,195,-1,195,137,194,-1,195,194,193,-1,143,145,194,-1,137,136,194,-1,194,136,140,-1,194,140,143,-1,150,153,148,-1,148,153,155,-1,148,155,146,-1,175,176,173,-1,173,176,179,-1,173,179,171,-1,171,179,181,-1,171,181,169,-1,169,181,183,-1,169,183,167,-1,167,183,185,-1,167,185,165,-1,145,146,194,-1,194,146,155,-1,194,155,192,-1,155,159,192,-1,192,159,162,-1,192,162,190,-1,190,162,165,-1,190,165,188,-1,188,165,185,-1,196,197,198,-1,198,197,199,-1,196,198,200,-1,200,198,201,-1,200,201,202,-1,203,200,204,-1,204,200,202,-1,203,204,205,-1,205,204,206,-1,205,206,207,-1,208,205,209,-1,209,205,207,-1,210,211,212,-1,212,211,208,-1,212,208,209,-1,213,211,214,-1,214,211,210,-1,215,216,217,-1,217,216,213,-1,217,213,214,-1,218,216,219,-1,219,216,215,-1,220,221,222,-1,222,221,218,-1,222,218,219,-1,223,221,224,-1,224,221,220,-1,223,224,197,-1,197,224,225,-1,197,225,199,-1,223,197,196,-1,196,200,223,-1,223,200,203,-1,223,203,221,-1,216,218,213,-1,213,218,221,-1,213,221,211,-1,211,221,203,-1,211,203,208,-1,208,203,205,-1,226,227,228,-1,228,227,229,-1,228,229,230,-1,230,229,231,-1,230,231,232,-1,232,231,233,-1,232,233,234,-1,234,233,235,-1,234,235,236,-1,236,235,237,-1,236,237,238,-1,237,239,238,-1,238,239,240,-1,238,240,241,-1,241,240,242,-1,241,242,243,-1,243,242,244,-1,243,244,245,-1,245,244,246,-1,245,246,247,-1,247,246,248,-1,247,248,249,-1,249,248,250,-1,249,250,251,-1,251,250,252,-1,251,252,253,-1,253,252,254,-1,253,254,255,-1,255,254,256,-1,255,256,257,-1,257,256,258,-1,257,258,259,-1,259,258,260,-1,259,260,226,-1,226,260,261,-1,226,261,227,-1,232,234,262,-1,262,234,263,-1,232,262,264,-1,232,264,230,-1,230,264,265,-1,230,265,228,-1,228,265,266,-1,228,266,226,-1,226,266,267,-1,226,267,259,-1,259,267,268,-1,259,268,257,-1,257,268,269,-1,257,269,255,-1,255,269,270,-1,255,270,253,-1,253,270,271,-1,253,271,251,-1,251,271,272,-1,251,272,249,-1,249,272,273,-1,249,273,247,-1,247,273,274,-1,247,274,245,-1,245,274,275,-1,245,275,243,-1,243,275,276,-1,243,276,241,-1,241,276,277,-1,241,277,238,-1,236,238,278,-1,278,238,277,-1,234,236,263,-1,263,236,278,-1,239,237,279,-1,279,237,280,-1,237,235,280,-1,280,235,281,-1,235,233,281,-1,281,233,282,-1,261,283,284,-1,261,284,227,-1,227,284,285,-1,227,285,229,-1,229,285,286,-1,229,286,231,-1,231,286,282,-1,231,282,233,-1,254,287,288,-1,254,288,256,-1,256,288,289,-1,256,289,258,-1,258,289,290,-1,258,290,260,-1,260,290,283,-1,260,283,261,-1,246,291,292,-1,246,292,248,-1,248,292,293,-1,248,293,250,-1,250,293,294,-1,250,294,252,-1,252,294,287,-1,252,287,254,-1,239,279,295,-1,239,295,240,-1,240,295,296,-1,240,296,242,-1,242,296,297,-1,242,297,244,-1,244,297,291,-1,244,291,246,-1,
        ]
    }
}
Shape{
    appearance Appearance {
        material  Material 	{
            diffuseColor 1.0 1.0 0.7529411764705882
            specularColor 0.8784313725490196 0.8784313725490196 0.6627450980392157
            ambientIntensity 0.9718
            transparency 0.0
            shininess 0.5
        }
    }
    geometry IndexedFaceSet {
        ccw TRUE
        solid FALSE
        coord DEF co Coordinate {
            point [
                0.1654 -0.7677 0.1178, 0.1658 -0.7677 0.1182, 0.1564 -0.7677 0.1428, 0.163 -0.7677 0.1161, 0.1494 -0.7677 0.1429, 0.1494 -0.7677 0.1143, 0.155 -0.7677 0.1429, 0.1548 -0.7677 0.1143, 0.1599 -0.7677 0.1149, 0.1675 -0.7677 0.1202, 0.1688 -0.7677 0.1229, 0.1696 -0.7677 0.1262, 0.1657 -0.7677 0.1394, 0.1697 -0.7677 0.1289, 0.1634 -0.7677 0.141, 0.1603 -0.7677 0.1422, 0.1692 -0.7677 0.1336, 0.1681 -0.7677 0.1363, 0.1667 -0.7677 0.1384
            ]
        }
        coordIndex [
            0,1,2,-1,0,2,3,-1,4,5,6,-1,6,5,7,-1,6,7,2,-1,2,7,8,-1,2,8,3,-1,1,9,2,-1,2,9,10,-1,2,10,11,-1,12,11,13,-1,12,14,11,-1,11,14,15,-1,11,15,2,-1,16,17,13,-1,13,17,18,-1,13,18,12,-1,
        ]
    }
}
Shape{
    appearance Appearance {
        material  Material 	{
            diffuseColor 0.0 0.0 0.0
            specularColor 0.0 0.0 0.0
            ambientIntensity 0.0
            transparency 0.0
            shininess 0.5
        }
    }
    geometry IndexedFaceSet {
        ccw TRUE
        solid FALSE
        coord DEF co Coordinate {
            point [
                0.1872 -0.7717 0.1244, 0.1857 -0.7717 0.1202, 0.1996 -0.7717 0.1244, 0.2011 -0.7717 0.1202, 0.1927 -0.7717 0.1398, 0.1909 -0.7717 0.1471, 0.1768 -0.7717 0.1101, 0.1821 -0.7717 0.1101, 0.1931 -0.7717 0.1409, 0.1933 -0.7717 0.1424, 0.1961 -0.7717 0.1471, 0.1935 -0.7717 0.1424, 0.1938 -0.7717 0.1408, 0.194 -0.7717 0.1398, 0.2102 -0.7717 0.1101, 0.2049 -0.7717 0.1101, 0.1961 -0.7677 0.1471, 0.2102 -0.7677 0.1101, 0.1909 -0.7677 0.1471, 0.1768 -0.7677 0.1101, 0.1821 -0.7677 0.1101, 0.1857 -0.7677 0.1202, 0.2011 -0.7677 0.1202, 0.2049 -0.7677 0.1101, 0.1872 -0.7677 0.1244, 0.1996 -0.7677 0.1244, 0.194 -0.7677 0.1398, 0.1935 -0.7677 0.1424, 0.1938 -0.7677 0.1408, 0.1933 -0.7677 0.1424, 0.1927 -0.7677 0.1398, 0.1931 -0.7677 0.1409
            ]
        }
        coordIndex [
            0,1,2,-1,2,1,3,-1,4,5,0,-1,0,5,6,-1,0,6,1,-1,1,6,7,-1,4,8,5,-1,5,8,9,-1,5,9,10,-1,10,9,11,-1,10,11,12,-1,12,13,10,-1,10,13,2,-1,10,2,14,-1,14,2,3,-1,14,3,15,-1,10,14,16,-1,16,14,17,-1,5,10,18,-1,18,10,16,-1,6,5,19,-1,19,5,18,-1,7,6,20,-1,20,6,19,-1,1,7,21,-1,21,7,20,-1,3,1,22,-1,22,1,21,-1,15,3,23,-1,23,3,22,-1,14,15,17,-1,17,15,23,-1,0,2,24,-1,24,2,25,-1,2,13,25,-1,25,13,26,-1,11,27,28,-1,11,28,12,-1,12,28,26,-1,12,26,13,-1,11,9,27,-1,27,9,29,-1,4,30,31,-1,4,31,8,-1,8,31,29,-1,8,29,9,-1,4,0,30,-1,30,0,24,-1,
        ]
    }
}
Shape{
    appearance Appearance {
        material  Material 	{
            diffuseColor 1.0 1.0 0.7529411764705882
            specularColor 0.8784313725490196 0.8784313725490196 0.6627450980392157
            ambientIntensity 0.9718
            transparency 0.0
            shininess 0.5
        }
    }
    geometry IndexedFaceSet {
        ccw TRUE
        solid FALSE
        coord DEF co Coordinate {
            point [
                0.1935 -0.7677 0.1424, 0.1933 -0.7677 0.1424, 0.1938 -0.7677 0.1408, 0.1931 -0.7677 0.1409, 0.194 -0.7677 0.1398, 0.1927 -0.7677 0.1398, 0.1996 -0.7677 0.1244, 0.1872 -0.7677 0.1244
            ]
        }
        coordIndex [
            0,1,2,-1,2,1,3,-1,2,3,4,-1,4,3,5,-1,4,5,6,-1,6,5,7,-1,
        ]
    }
}
Shape{
    appearance Appearance {
        material  Material 	{
            diffuseColor 0.0 0.0 0.0
            specularColor 0.0 0.0 0.0
            ambientIntensity 0.0
            transparency 0.0
            shininess 0.5
        }
    }
    geometry IndexedFaceSet {
        ccw TRUE
        solid FALSE
        coord DEF co Coordinate {
            point [
                -0.1487 -0.7717 0.1048, -0.1448 -0.7717 0.1, -0.1511 -0.7717 0.1281, -0.1557 -0.7717 0.1739, -0.1498 -0.7717 0.1771, -0.1509 -0.7717 0.1933, -0.1348 -0.7717 0.194, -0.1266 -0.7717 0.1748, -0.1226 -0.7717 0.1831, -0.1 -0.7717 0.1189, -0.1 -0.7717 0.1215, -0.1222 -0.7717 0.1279, -0.1247 -0.7717 0.1287, -0.1408 -0.7717 0.1945, -0.1183 -0.7717 0.1247, -0.1171 -0.7717 0.1226, -0.1001 -0.7717 0.1162, -0.0631 -0.7717 0.141, -0.0712 -0.7717 0.155, -0.1066 -0.7717 0.1366, -0.1266 -0.7717 0.1289, -0.1334 -0.7717 0.111, -0.1313 -0.7717 0.1095, -0.1397 -0.7717 0.0961, -0.1289 -0.7717 0.1086, -0.129 -0.7717 0.1286, -0.1326 -0.7717 0.1447, -0.1313 -0.7717 0.1278, -0.1384 -0.7717 0.1425, -0.1334 -0.7717 0.1264, -0.1438 -0.7717 0.1388, -0.135 -0.7717 0.1246, -0.1482 -0.7717 0.1338, -0.1362 -0.7717 0.1223, -0.1368 -0.7717 0.1198, -0.1568 -0.7717 0.1317, -0.1552 -0.7717 0.1116, -0.1514 -0.7717 0.1105, -0.12 -0.7717 0.1266, -0.1168 -0.7717 0.1437, -0.1231 -0.7717 0.1453, -0.1263 -0.7717 0.1455, -0.0544 -0.7717 0.1671, -0.0523 -0.7717 0.1671, -0.0415 -0.7717 0.1814, -0.0473 -0.7717 0.1665, -0.0402 -0.7717 0.1809, -0.0427 -0.7717 0.1647, -0.0323 -0.7717 0.177, -0.0252 -0.7717 0.171, -0.1294 -0.7717 0.2003, -0.1167 -0.7717 0.1902, -0.1232 -0.7717 0.2056, -0.1096 -0.7717 0.1953, -0.1151 -0.7717 0.2104, -0.1433 -0.7717 0.1786, -0.1406 -0.7717 0.1787, -0.1378 -0.7717 0.1944, -0.1344 -0.7717 0.178, -0.1285 -0.7717 0.1758, -0.0251 -0.7717 0.1218, -0.0374 -0.7717 0.1323, -0.0323 -0.7717 0.1157, -0.0413 -0.7717 0.1291, -0.0403 -0.7717 0.1118, -0.046 -0.7717 0.1269, -0.0491 -0.7717 0.1099, -0.0507 -0.7717 0.126, -0.0647 -0.7717 0.1099, -0.0625 -0.7717 0.126, -0.0661 -0.7717 0.1102, -0.1661 -0.7717 0.1587, -0.1834 -0.7717 0.1547, -0.1669 -0.7717 0.1524, -0.1835 -0.7717 0.1518, -0.1666 -0.7717 0.1483, -0.1823 -0.7717 0.1418, -0.1647 -0.7717 0.1419, -0.1786 -0.7717 0.132, -0.1616 -0.7717 0.1365, -0.1724 -0.7717 0.1231, -0.1646 -0.7717 0.1164, -0.1112 -0.7717 0.1408, -0.0386 -0.7717 0.1619, -0.0355 -0.7717 0.1585, -0.0198 -0.7717 0.1635, -0.0331 -0.7717 0.1539, -0.0166 -0.7717 0.1554, -0.0318 -0.7717 0.1489, -0.0154 -0.7717 0.1468, -0.0317 -0.7717 0.1466, -0.0166 -0.7717 0.1374, -0.0323 -0.7717 0.1414, -0.0199 -0.7717 0.1291, -0.0342 -0.7717 0.1367, -0.0371 -0.7717 0.1326, -0.0557 -0.7717 0.2022, -0.066 -0.7717 0.1901, -0.0462 -0.7717 0.191, -0.06 -0.7717 0.1829, -0.056 -0.7717 0.1745, -0.1607 -0.7717 0.1896, -0.1691 -0.7717 0.1838, -0.1602 -0.7717 0.1699, -0.1711 -0.7717 0.1819, -0.1639 -0.7717 0.1646, -0.1773 -0.7717 0.174, -0.1816 -0.7717 0.1646, -0.1351 -0.7717 0.1129, -0.1362 -0.7717 0.1151, -0.1368 -0.7717 0.1175, -0.1028 -0.7717 0.2147, -0.101 -0.7717 0.1988, -0.0915 -0.7717 0.2159, -0.0913 -0.7717 0.2001, -0.0807 -0.7717 0.2147, -0.0823 -0.7717 0.199, -0.0674 -0.7717 0.2101, -0.0741 -0.7717 0.1958, -0.0667 -0.7717 0.1907, -0.1164 -0.7717 0.1202, -0.1164 -0.7717 0.1176, -0.1016 -0.7717 0.1097, -0.117 -0.7717 0.1151, -0.1048 -0.7717 0.1038, -0.1182 -0.7717 0.1128, -0.1088 -0.7717 0.0992, -0.1199 -0.7717 0.1109, -0.1141 -0.7717 0.0956, -0.1219 -0.7717 0.1095, -0.12 -0.7717 0.0933, -0.1242 -0.7717 0.1086, -0.1263 -0.7717 0.0925, -0.1266 -0.7717 0.1084, -0.1273 -0.7717 0.0926, -0.1336 -0.7717 0.0935, -0.0639 -0.7717 0.1263, -0.0702 -0.7717 0.1127, -0.0696 -0.7717 0.1121, -0.0631 -0.7717 0.1261, -0.0679 -0.7717 0.1109, -0.0723 -0.7717 0.1181, -0.072 -0.7717 0.1161, -0.0714 -0.7717 0.1144, -0.0662 -0.7717 0.126, -0.068 -0.7717 0.1253, -0.0722 -0.7717 0.1192, -0.0696 -0.7717 0.1242, -0.0707 -0.7717 0.123, -0.0717 -0.7717 0.1212, -0.0641 -0.7717 0.1263, -0.0234 -0.7677 0.1686, -0.0198 -0.7677 0.1635, -0.0175 -0.7677 0.1577, -0.0166 -0.7677 0.1554, -0.0154 -0.7677 0.1468, -0.0252 -0.7677 0.171, -0.0323 -0.7677 0.177, -0.0402 -0.7677 0.1809, -0.0415 -0.7677 0.1814, -0.0462 -0.7677 0.191, -0.0557 -0.7677 0.2022, -0.0618 -0.7677 0.2063, -0.0674 -0.7677 0.2101, -0.0807 -0.7677 0.2147, -0.0915 -0.7677 0.2159, -0.1232 -0.7677 0.2056, -0.1221 -0.7677 0.2063, -0.1151 -0.7677 0.2104, -0.1028 -0.7677 0.2147, -0.1294 -0.7677 0.2003, -0.1348 -0.7677 0.194, -0.1378 -0.7677 0.1944, -0.1408 -0.7677 0.1945, -0.1509 -0.7677 0.1933, -0.1607 -0.7677 0.1896, -0.1691 -0.7677 0.1838, -0.1711 -0.7677 0.1819, -0.1773 -0.7677 0.174, -0.1798 -0.7677 0.1686, -0.1816 -0.7677 0.1646, -0.1829 -0.7677 0.1577, -0.1834 -0.7677 0.1547, -0.1835 -0.7677 0.1518, -0.1823 -0.7677 0.1418, -0.1786 -0.7677 0.132, -0.1724 -0.7677 0.1231, -0.1646 -0.7677 0.1164, -0.1552 -0.7677 0.1116, -0.1514 -0.7677 0.1105, -0.151 -0.7677 0.1098, -0.1487 -0.7677 0.1048, -0.1448 -0.7677 0.1, -0.1397 -0.7677 0.0961, -0.1372 -0.7677 0.0951, -0.1336 -0.7677 0.0935, -0.1273 -0.7677 0.0926, -0.1263 -0.7677 0.0925, -0.1 -0.7677 0.1189, -0.12 -0.7677 0.0933, -0.1154 -0.7677 0.0951, -0.1141 -0.7677 0.0956, -0.1088 -0.7677 0.0992, -0.1048 -0.7677 0.1038, -0.1016 -0.7677 0.1097, -0.1016 -0.7677 0.1098, -0.1001 -0.7677 0.1162, -0.1 -0.7677 0.1215, -0.0631 -0.7677 0.141, -0.0712 -0.7677 0.155, -0.1066 -0.7677 0.1366, -0.1112 -0.7677 0.1408, -0.1168 -0.7677 0.1437, -0.1231 -0.7677 0.1453, -0.1263 -0.7677 0.1455, -0.1326 -0.7677 0.1447, -0.1384 -0.7677 0.1425, -0.1438 -0.7677 0.1388, -0.1482 -0.7677 0.1338, -0.1511 -0.7677 0.1281, -0.1568 -0.7677 0.1317, -0.1616 -0.7677 0.1365, -0.1647 -0.7677 0.1419, -0.1666 -0.7677 0.1483, -0.1669 -0.7677 0.1524, -0.1663 -0.7677 0.1577, -0.1661 -0.7677 0.1587, -0.1639 -0.7677 0.1646, -0.1611 -0.7677 0.1686, -0.1602 -0.7677 0.1699, -0.1557 -0.7677 0.1739, -0.1498 -0.7677 0.1771, -0.1433 -0.7677 0.1786, -0.1406 -0.7677 0.1787, -0.1344 -0.7677 0.178, -0.1285 -0.7677 0.1758, -0.1266 -0.7677 0.1748, -0.1226 -0.7677 0.1831, -0.1167 -0.7677 0.1902, -0.1096 -0.7677 0.1953, -0.101 -0.7677 0.1988, -0.0913 -0.7677 0.2001, -0.0544 -0.7677 0.1671, -0.0547 -0.7677 0.1686, -0.056 -0.7677 0.1745, -0.06 -0.7677 0.1829, -0.066 -0.7677 0.1901, -0.0667 -0.7677 0.1907, -0.0741 -0.7677 0.1958, -0.0823 -0.7677 0.199, -0.0523 -0.7677 0.1671, -0.0473 -0.7677 0.1665, -0.0427 -0.7677 0.1647, -0.0386 -0.7677 0.1619, -0.0355 -0.7677 0.1585, -0.0351 -0.7677 0.1577, -0.0331 -0.7677 0.1539, -0.0318 -0.7677 0.1489, -0.0317 -0.7677 0.1466, -0.0323 -0.7677 0.1414, -0.0342 -0.7677 0.1367, -0.0371 -0.7677 0.1326, -0.0374 -0.7677 0.1323, -0.0413 -0.7677 0.1291, -0.046 -0.7677 0.1269, -0.0507 -0.7677 0.126, -0.0625 -0.7677 0.126, -0.0631 -0.7677 0.1261, -0.0639 -0.7677 0.1263, -0.0641 -0.7677 0.1263, -0.0662 -0.7677 0.126, -0.068 -0.7677 0.1253, -0.0696 -0.7677 0.1242, -0.0707 -0.7677 0.123, -0.0717 -0.7677 0.1212, -0.0722 -0.7677 0.1192, -0.0723 -0.7677 0.1181, -0.072 -0.7677 0.1161, -0.0714 -0.7677 0.1144, -0.0702 -0.7677 0.1127, -0.0696 -0.7677 0.1121, -0.0679 -0.7677 0.1109, -0.0661 -0.7677 0.1102, -0.0647 -0.7677 0.1099, -0.0491 -0.7677 0.1099, -0.0403 -0.7677 0.1118, -0.0323 -0.7677 0.1157, -0.0251 -0.7677 0.1218, -0.0199 -0.7677 0.1291, -0.0166 -0.7677 0.1374, -0.1266 -0.7677 0.1289, -0.1247 -0.7677 0.1287, -0.1222 -0.7677 0.1279, -0.12 -0.7677 0.1266, -0.1183 -0.7677 0.1247, -0.1171 -0.7677 0.1226, -0.1164 -0.7677 0.1202, -0.1164 -0.7677 0.1176, -0.117 -0.7677 0.1151, -0.1182 -0.7677 0.1128, -0.1199 -0.7677 0.1109, -0.1219 -0.7677 0.1095, -0.1242 -0.7677 0.1086, -0.1266 -0.7677 0.1084, -0.1289 -0.7677 0.1086, -0.1313 -0.7677 0.1095, -0.1334 -0.7677 0.111, -0.1351 -0.7677 0.1129, -0.1362 -0.7677 0.1151, -0.1368 -0.7677 0.1175, -0.1368 -0.7677 0.1198, -0.1362 -0.7677 0.1223, -0.135 -0.7677 0.1246, -0.1334 -0.7677 0.1264, -0.1313 -0.7677 0.1278, -0.129 -0.7677 0.1286
            ]
        }
        coordIndex [
            0,1,2,-1,3,4,5,-1,6,7,8,-1,9,10,11,-1,11,10,12,-1,5,4,13,-1,14,15,16,-1,17,18,10,-1,10,18,19,-1,10,19,12,-1,12,19,20,-1,21,1,22,-1,22,1,23,-1,22,23,24,-1,25,26,27,-1,27,26,28,-1,27,28,29,-1,29,28,30,-1,29,30,31,-1,31,30,32,-1,31,32,33,-1,33,32,2,-1,33,2,34,-1,35,36,2,-1,2,36,37,-1,2,37,0,-1,9,11,16,-1,16,11,38,-1,16,38,14,-1,39,40,25,-1,25,40,41,-1,25,41,26,-1,42,43,44,-1,44,43,45,-1,44,45,46,-1,46,45,47,-1,46,47,48,-1,48,47,49,-1,6,8,50,-1,50,8,51,-1,50,51,52,-1,52,51,53,-1,52,53,54,-1,4,55,13,-1,13,55,56,-1,13,56,57,-1,57,56,58,-1,57,58,6,-1,6,58,59,-1,6,59,7,-1,60,61,62,-1,62,61,63,-1,62,63,64,-1,64,63,65,-1,64,65,66,-1,66,65,67,-1,66,67,68,-1,68,67,69,-1,68,69,70,-1,71,72,73,-1,73,72,74,-1,73,74,75,-1,75,74,76,-1,75,76,77,-1,77,76,78,-1,77,78,79,-1,79,78,80,-1,79,80,35,-1,35,80,81,-1,35,81,36,-1,20,19,25,-1,25,19,82,-1,25,82,39,-1,47,83,49,-1,49,83,84,-1,49,84,85,-1,85,84,86,-1,85,86,87,-1,87,86,88,-1,87,88,89,-1,89,88,90,-1,89,90,91,-1,91,90,92,-1,91,92,93,-1,93,92,94,-1,93,94,60,-1,60,94,95,-1,60,95,61,-1,96,97,98,-1,98,97,99,-1,98,99,44,-1,44,99,100,-1,44,100,42,-1,5,101,3,-1,3,101,102,-1,3,102,103,-1,103,102,104,-1,103,104,105,-1,105,104,106,-1,105,106,71,-1,71,106,107,-1,71,107,72,-1,21,108,1,-1,1,108,109,-1,1,109,2,-1,2,109,110,-1,2,110,34,-1,54,53,111,-1,111,53,112,-1,111,112,113,-1,113,112,114,-1,113,114,115,-1,115,114,116,-1,115,116,117,-1,117,116,118,-1,117,118,96,-1,96,118,119,-1,96,119,97,-1,15,120,16,-1,16,120,121,-1,16,121,122,-1,122,121,123,-1,122,123,124,-1,124,123,125,-1,124,125,126,-1,126,125,127,-1,126,127,128,-1,128,127,129,-1,128,129,130,-1,130,129,131,-1,130,131,132,-1,132,131,133,-1,132,133,134,-1,134,133,24,-1,134,24,135,-1,135,24,23,-1,136,137,138,-1,69,139,70,-1,70,139,136,-1,70,136,140,-1,140,136,138,-1,141,142,136,-1,136,142,143,-1,136,143,137,-1,144,145,146,-1,145,147,146,-1,146,147,148,-1,146,148,149,-1,141,136,146,-1,146,136,150,-1,146,150,144,-1,151,49,152,-1,152,49,85,-1,152,85,153,-1,153,85,87,-1,153,87,154,-1,154,87,89,-1,154,89,155,-1,151,156,49,-1,49,156,157,-1,49,157,48,-1,48,157,158,-1,48,158,46,-1,46,158,159,-1,46,159,44,-1,44,159,160,-1,44,160,98,-1,98,160,161,-1,98,161,96,-1,96,161,117,-1,117,161,162,-1,162,163,117,-1,117,163,164,-1,117,164,115,-1,115,164,165,-1,115,165,113,-1,166,52,167,-1,167,52,54,-1,167,54,168,-1,168,54,111,-1,168,111,169,-1,169,111,113,-1,169,113,165,-1,52,166,170,-1,52,170,50,-1,50,170,171,-1,50,171,6,-1,6,171,172,-1,6,172,57,-1,57,172,173,-1,57,173,13,-1,13,173,174,-1,13,174,5,-1,5,174,175,-1,5,175,101,-1,101,175,176,-1,101,176,102,-1,102,176,177,-1,102,177,104,-1,107,106,178,-1,178,106,104,-1,178,104,177,-1,178,179,107,-1,107,179,180,-1,107,180,72,-1,72,180,181,-1,181,182,72,-1,72,182,183,-1,72,183,74,-1,74,183,184,-1,74,184,76,-1,76,184,185,-1,76,185,78,-1,78,185,186,-1,78,186,80,-1,80,186,187,-1,80,187,81,-1,81,187,188,-1,81,188,36,-1,36,188,189,-1,36,189,37,-1,37,189,190,-1,37,190,0,-1,190,191,0,-1,0,191,192,-1,0,192,1,-1,1,192,193,-1,1,193,23,-1,23,193,194,-1,23,194,135,-1,194,195,135,-1,135,195,196,-1,135,196,134,-1,134,196,197,-1,134,197,132,-1,198,9,16,-1,132,197,199,-1,132,199,130,-1,130,199,200,-1,130,200,128,-1,200,201,128,-1,128,201,202,-1,128,202,126,-1,126,202,203,-1,126,203,124,-1,124,203,204,-1,124,204,122,-1,122,204,205,-1,122,205,16,-1,16,205,206,-1,16,206,198,-1,10,9,207,-1,207,9,198,-1,17,10,208,-1,208,10,207,-1,18,17,209,-1,209,17,208,-1,19,18,210,-1,210,18,209,-1,19,210,211,-1,19,211,82,-1,82,211,212,-1,82,212,39,-1,39,212,213,-1,39,213,40,-1,40,213,214,-1,40,214,41,-1,41,214,215,-1,41,215,26,-1,26,215,216,-1,26,216,28,-1,28,216,217,-1,28,217,30,-1,30,217,218,-1,30,218,32,-1,32,218,219,-1,32,219,2,-1,2,219,220,-1,2,220,35,-1,35,220,221,-1,35,221,79,-1,79,221,222,-1,79,222,77,-1,77,222,223,-1,77,223,75,-1,75,223,224,-1,75,224,73,-1,224,225,73,-1,73,225,71,-1,225,226,71,-1,71,226,227,-1,71,227,105,-1,105,227,228,-1,105,228,103,-1,228,229,103,-1,103,229,230,-1,103,230,3,-1,3,230,231,-1,3,231,4,-1,4,231,232,-1,4,232,55,-1,55,232,233,-1,55,233,56,-1,56,233,234,-1,56,234,58,-1,58,234,235,-1,58,235,59,-1,59,235,236,-1,59,236,7,-1,7,236,237,-1,7,237,8,-1,8,237,238,-1,8,238,51,-1,51,238,239,-1,51,239,53,-1,53,239,240,-1,53,240,112,-1,112,240,241,-1,112,241,114,-1,242,42,243,-1,243,42,100,-1,243,100,244,-1,244,100,99,-1,244,99,245,-1,245,99,97,-1,245,97,246,-1,246,97,119,-1,246,119,247,-1,247,119,118,-1,247,118,248,-1,248,118,116,-1,248,116,249,-1,249,116,114,-1,249,114,241,-1,43,42,250,-1,250,42,242,-1,43,250,251,-1,43,251,45,-1,45,251,252,-1,45,252,47,-1,47,252,253,-1,47,253,83,-1,83,253,254,-1,83,254,84,-1,84,254,255,-1,84,255,86,-1,255,256,86,-1,86,256,257,-1,86,257,88,-1,88,257,258,-1,88,258,90,-1,90,258,259,-1,90,259,92,-1,92,259,260,-1,92,260,94,-1,94,260,261,-1,94,261,95,-1,95,261,262,-1,95,262,61,-1,61,262,263,-1,61,263,63,-1,63,263,264,-1,63,264,65,-1,65,264,265,-1,65,265,67,-1,69,67,266,-1,266,67,265,-1,69,266,267,-1,69,267,139,-1,139,267,268,-1,139,268,136,-1,136,268,269,-1,136,269,150,-1,150,269,270,-1,150,270,144,-1,144,270,271,-1,144,271,145,-1,145,271,272,-1,145,272,147,-1,147,272,273,-1,147,273,148,-1,148,273,274,-1,148,274,149,-1,149,274,275,-1,149,275,146,-1,146,275,276,-1,146,276,141,-1,141,276,277,-1,141,277,142,-1,142,277,278,-1,142,278,143,-1,143,278,279,-1,143,279,137,-1,137,279,280,-1,137,280,138,-1,138,280,281,-1,138,281,140,-1,140,281,282,-1,140,282,70,-1,70,282,283,-1,70,283,68,-1,66,68,284,-1,284,68,283,-1,66,284,285,-1,66,285,64,-1,64,285,286,-1,64,286,62,-1,62,286,287,-1,62,287,60,-1,60,287,288,-1,60,288,93,-1,93,288,289,-1,93,289,91,-1,91,289,155,-1,91,155,89,-1,20,290,291,-1,20,291,12,-1,12,291,292,-1,12,292,11,-1,11,292,293,-1,11,293,38,-1,38,293,294,-1,38,294,14,-1,14,294,295,-1,14,295,15,-1,15,295,296,-1,15,296,120,-1,120,296,297,-1,120,297,121,-1,121,297,298,-1,121,298,123,-1,123,298,299,-1,123,299,125,-1,125,299,300,-1,125,300,127,-1,127,300,301,-1,127,301,129,-1,129,301,302,-1,129,302,131,-1,131,302,303,-1,131,303,133,-1,133,303,304,-1,133,304,24,-1,24,304,305,-1,24,305,22,-1,22,305,306,-1,22,306,21,-1,21,306,307,-1,21,307,108,-1,108,307,308,-1,108,308,109,-1,109,308,309,-1,109,309,110,-1,110,309,310,-1,110,310,34,-1,34,310,311,-1,34,311,33,-1,33,311,312,-1,33,312,31,-1,31,312,313,-1,31,313,29,-1,29,313,314,-1,29,314,27,-1,27,314,315,-1,27,315,25,-1,25,315,290,-1,25,290,20,-1,
        ]
    }
}
Shape{
    appearance Appearance {
        material  Material 	{
            diffuseColor 1.0 1.0 0.7529411764705882
            specularColor 0.8784313725490196 0.8784313725490196 0.6627450980392157
            ambientIntensity 0.9718
            transparency 0.0
            shininess 0.5
        }
    }
    geometry IndexedFaceSet {
        ccw TRUE
        solid FALSE
        coord DEF co Coordinate {
            point [
                -0.1266 -0.7677 0.1289, -0.1266 -0.7677 0.1084, -0.1247 -0.7677 0.1287, -0.1242 -0.7677 0.1086, -0.1368 -0.7677 0.1175, -0.129 -0.7677 0.1286, -0.1313 -0.7677 0.1278, -0.1334 -0.7677 0.1264, -0.1368 -0.7677 0.1198, -0.135 -0.7677 0.1246, -0.1362 -0.7677 0.1223, -0.1362 -0.7677 0.1151, -0.1351 -0.7677 0.1129, -0.1334 -0.7677 0.111, -0.1199 -0.7677 0.1109, -0.1183 -0.7677 0.1247, -0.12 -0.7677 0.1266, -0.1313 -0.7677 0.1095, -0.1289 -0.7677 0.1086, -0.1219 -0.7677 0.1095, -0.1222 -0.7677 0.1279, -0.117 -0.7677 0.1151, -0.1164 -0.7677 0.1176, -0.1182 -0.7677 0.1128, -0.1164 -0.7677 0.1202, -0.1171 -0.7677 0.1226
            ]
        }
        coordIndex [
            0,1,2,-1,2,1,3,-1,4,0,5,-1,5,6,4,-1,4,6,7,-1,4,7,8,-1,8,7,9,-1,8,9,10,-1,4,11,0,-1,0,11,12,-1,0,12,13,-1,14,15,16,-1,13,17,0,-1,0,17,18,-1,0,18,1,-1,3,19,2,-1,2,19,14,-1,2,14,20,-1,20,14,16,-1,21,22,23,-1,23,22,24,-1,23,24,14,-1,14,24,25,-1,14,25,15,-1,
        ]
    }
}