#VRML V2.0 utf8
# 3D model generated by easyeda2kicad.py (https://github.com/uPesy/easyeda2kicad.py)

Shape{
    appearance Appearance {
        material  Material 	{
            diffuseColor 1.0 1.0 0.0
            specularColor 0.5019607843137255 0.5019607843137255 0.0
            ambientIntensity 0.886
            transparency 0.0
            shininess 0.5
        }
    }
    geometry IndexedFaceSet {
        ccw TRUE
        solid FALSE
        coord DEF co Coordinate {
            point [
                0.3642 0.3445 0.0, 0.3642 0.2461 0.0, 0.3642 0.3445 0.0394, 0.3642 0.2461 0.0394, 0.5512 0.3445 0.0, 0.5512 0.3445 0.0394, 0.5512 0.2461 0.0, 0.5512 0.2461 0.0394, 0.1476 0.4528 0.0, 0.1476 0.2657 0.0, 0.1476 0.4528 0.0394, 0.1476 0.2657 0.0394, 0.246 0.4528 0.0, 0.246 0.4528 0.0394, 0.246 0.2657 0.0, 0.246 0.2657 0.0394, -0.2461 0.4528 0.0, -0.2461 0.2657 0.0, -0.2461 0.4528 0.0394, -0.2461 0.2657 0.0394, -0.1477 0.4528 0.0, -0.1477 0.4528 0.0394, -0.1477 0.2657 0.0, -0.1477 0.2657 0.0394, -0.0492 0.4528 0.0, -0.0492 0.2657 0.0, -0.0492 0.4528 0.0394, -0.0492 0.2657 0.0394, 0.0492 0.4528 0.0, 0.0492 0.4528 0.0394, 0.0492 0.2657 0.0, 0.0492 0.2657 0.0394, -0.3642 -0.2461 0.0, -0.5512 -0.2461 0.0, -0.3642 -0.2461 0.0394, -0.5512 -0.2461 0.0394, -0.3642 -0.3445 0.0, -0.3642 -0.3445 0.0394, -0.5512 -0.3445 0.0, -0.5512 -0.3445 0.0394, 0.3642 0.1476 0.0, 0.3642 0.0492 0.0, 0.3642 0.1476 0.0394, 0.3642 0.0492 0.0394, 0.5512 0.1476 0.0, 0.5512 0.1476 0.0394, 0.5512 0.0492 0.0, 0.5512 0.0492 0.0394, 0.3642 -0.0492 0.0, 0.3642 -0.1476 0.0, 0.3642 -0.0492 0.0394, 0.3642 -0.1476 0.0394, 0.5512 -0.0492 0.0, 0.5512 -0.0492 0.0394, 0.5512 -0.1476 0.0, 0.5512 -0.1476 0.0394, 0.3642 -0.2461 0.0, 0.3642 -0.3445 0.0, 0.3642 -0.2461 0.0394, 0.3642 -0.3445 0.0394, 0.5512 -0.2461 0.0, 0.5512 -0.2461 0.0394, 0.5512 -0.3445 0.0, 0.5512 -0.3445 0.0394, -0.3642 -0.0492 0.0, -0.5512 -0.0492 0.0, -0.3642 -0.0492 0.0394, -0.5512 -0.0492 0.0394, -0.3642 -0.1476 0.0, -0.3642 -0.1476 0.0394, -0.5512 -0.1476 0.0, -0.5512 -0.1476 0.0394, -0.3642 0.1476 0.0, -0.5512 0.1476 0.0, -0.3642 0.1476 0.0394, -0.5512 0.1476 0.0394, -0.3642 0.0492 0.0, -0.3642 0.0492 0.0394, -0.5512 0.0492 0.0, -0.5512 0.0492 0.0394, -0.3642 0.3445 0.0, -0.5512 0.3445 0.0, -0.3642 0.3445 0.0394, -0.5512 0.3445 0.0394, -0.3642 0.2461 0.0, -0.3642 0.2461 0.0394, -0.5512 0.2461 0.0, -0.5512 0.2461 0.0394, -0.2461 -0.4528 0.0, -0.1477 -0.4528 0.0, -0.2461 -0.4528 0.0394, -0.1477 -0.4528 0.0394, -0.2461 -0.2657 0.0, -0.2461 -0.2657 0.0394, -0.1477 -0.2657 0.0, -0.1477 -0.2657 0.0394, -0.0492 -0.4528 0.0, 0.0492 -0.4528 0.0, -0.0492 -0.4528 0.0394, 0.0492 -0.4528 0.0394, -0.0492 -0.2657 0.0, -0.0492 -0.2657 0.0394, 0.0492 -0.2657 0.0, 0.0492 -0.2657 0.0394, 0.1476 -0.4528 0.0, 0.246 -0.4528 0.0, 0.1476 -0.4528 0.0394, 0.246 -0.4528 0.0394, 0.1476 -0.2657 0.0, 0.1476 -0.2657 0.0394, 0.246 -0.2657 0.0, 0.246 -0.2657 0.0394
            ]
        }
        coordIndex [
            0,1,2,-1,2,1,3,-1,4,0,5,-1,5,0,2,-1,6,4,7,-1,7,4,5,-1,1,6,3,-1,3,6,7,-1,4,6,0,-1,0,6,1,-1,7,5,3,-1,3,5,2,-1,8,9,10,-1,10,9,11,-1,12,8,13,-1,13,8,10,-1,14,12,15,-1,15,12,13,-1,9,14,11,-1,11,14,15,-1,12,14,8,-1,8,14,9,-1,15,13,11,-1,11,13,10,-1,16,17,18,-1,18,17,19,-1,20,16,21,-1,21,16,18,-1,22,20,23,-1,23,20,21,-1,17,22,19,-1,19,22,23,-1,20,22,16,-1,16,22,17,-1,23,21,19,-1,19,21,18,-1,24,25,26,-1,26,25,27,-1,28,24,29,-1,29,24,26,-1,30,28,31,-1,31,28,29,-1,25,30,27,-1,27,30,31,-1,28,30,24,-1,24,30,25,-1,31,29,27,-1,27,29,26,-1,32,33,34,-1,34,33,35,-1,36,32,37,-1,37,32,34,-1,38,36,39,-1,39,36,37,-1,33,38,35,-1,35,38,39,-1,36,38,32,-1,32,38,33,-1,39,37,35,-1,35,37,34,-1,40,41,42,-1,42,41,43,-1,44,40,45,-1,45,40,42,-1,46,44,47,-1,47,44,45,-1,41,46,43,-1,43,46,47,-1,44,46,40,-1,40,46,41,-1,47,45,43,-1,43,45,42,-1,48,49,50,-1,50,49,51,-1,52,48,53,-1,53,48,50,-1,54,52,55,-1,55,52,53,-1,49,54,51,-1,51,54,55,-1,52,54,48,-1,48,54,49,-1,55,53,51,-1,51,53,50,-1,56,57,58,-1,58,57,59,-1,60,56,61,-1,61,56,58,-1,62,60,63,-1,63,60,61,-1,57,62,59,-1,59,62,63,-1,60,62,56,-1,56,62,57,-1,63,61,59,-1,59,61,58,-1,64,65,66,-1,66,65,67,-1,68,64,69,-1,69,64,66,-1,70,68,71,-1,71,68,69,-1,65,70,67,-1,67,70,71,-1,68,70,64,-1,64,70,65,-1,71,69,67,-1,67,69,66,-1,72,73,74,-1,74,73,75,-1,76,72,77,-1,77,72,74,-1,78,76,79,-1,79,76,77,-1,73,78,75,-1,75,78,79,-1,76,78,72,-1,72,78,73,-1,79,77,75,-1,75,77,74,-1,80,81,82,-1,82,81,83,-1,84,80,85,-1,85,80,82,-1,86,84,87,-1,87,84,85,-1,81,86,83,-1,83,86,87,-1,84,86,80,-1,80,86,81,-1,87,85,83,-1,83,85,82,-1,88,89,90,-1,90,89,91,-1,92,88,93,-1,93,88,90,-1,94,92,95,-1,95,92,93,-1,89,94,91,-1,91,94,95,-1,92,94,88,-1,88,94,89,-1,95,93,91,-1,91,93,90,-1,96,97,98,-1,98,97,99,-1,100,96,101,-1,101,96,98,-1,102,100,103,-1,103,100,101,-1,97,102,99,-1,99,102,103,-1,100,102,96,-1,96,102,97,-1,103,101,99,-1,99,101,98,-1,104,105,106,-1,106,105,107,-1,108,104,109,-1,109,104,106,-1,110,108,111,-1,111,108,109,-1,105,110,107,-1,107,110,111,-1,108,110,104,-1,104,110,105,-1,111,109,107,-1,107,109,106,-1,
        ]
    }
}
Shape{
    appearance Appearance {
        material  Material 	{
            diffuseColor 0.25098039215686274 0.25098039215686274 0.25098039215686274
            specularColor 0.12549019607843137 0.12549019607843137 0.12549019607843137
            ambientIntensity 0.251
            transparency 0.0
            shininess 0.5
        }
    }
    geometry IndexedFaceSet {
        ccw TRUE
        solid FALSE
        coord DEF co Coordinate {
            point [
                0.5905 -0.4921 0.0394, 0.5905 0.4921 0.0394, 0.5905 -0.4921 0.3386, 0.5905 0.4921 0.3386, -0.5906 -0.4921 0.0394, -0.5906 -0.4921 0.3386, -0.5906 0.4921 0.0394, -0.5906 0.4921 0.3386, -0.5512 0.4528 0.0394, -0.5512 0.4134 0.0394, -0.4331 0.4528 0.0394, -0.4331 0.4134 0.0394, -0.5016 0.3754 0.3386, -0.5118 0.374 0.3386, -0.5499 0.4236 0.3386, -0.5459 0.4331 0.3386, -0.4921 0.3793 0.3386, -0.484 0.3855 0.3386, -0.522 0.3754 0.3386, -0.5315 0.3793 0.3386, -0.5397 0.3855 0.3386, -0.484 0.4412 0.3386, -0.4777 0.4331 0.3386, -0.4738 0.4236 0.3386, -0.4725 0.4134 0.3386, -0.4738 0.4032 0.3386, -0.4777 0.3937 0.3386, -0.5459 0.3937 0.3386, -0.5499 0.4032 0.3386, -0.5512 0.4134 0.3386, -0.5397 0.4412 0.3386, -0.5315 0.4475 0.3386, -0.522 0.4514 0.3386, -0.5118 0.4528 0.3386, -0.5016 0.4514 0.3386, -0.4921 0.4475 0.3386
            ]
        }
        coordIndex [
            0,1,2,-1,2,1,3,-1,4,0,5,-1,5,0,2,-1,6,4,7,-1,7,4,5,-1,1,6,3,-1,3,6,7,-1,6,8,9,-1,8,6,10,-1,10,6,1,-1,10,1,11,-1,11,1,0,-1,11,0,9,-1,9,0,4,-1,9,4,6,-1,5,12,13,-1,7,14,15,-1,12,5,16,-1,16,5,2,-1,16,2,17,-1,13,18,5,-1,5,18,19,-1,5,19,20,-1,21,22,3,-1,3,22,23,-1,23,24,3,-1,3,24,25,-1,3,25,2,-1,2,25,26,-1,2,26,17,-1,20,27,5,-1,5,27,28,-1,5,28,7,-1,7,28,29,-1,7,29,14,-1,15,30,7,-1,7,30,31,-1,7,31,32,-1,32,33,7,-1,7,33,34,-1,7,34,3,-1,3,34,35,-1,3,35,21,-1,
        ]
    }
}
Shape{
    appearance Appearance {
        material  Material 	{
            diffuseColor 1.0 1.0 1.0
            specularColor 0.5019607843137255 0.5019607843137255 0.5019607843137255
            ambientIntensity 1.0
            transparency 0.0
            shininess 0.5
        }
    }
    geometry IndexedFaceSet {
        ccw TRUE
        solid FALSE
        coord DEF co Coordinate {
            point [
                -0.4331 0.4134 0.0433, -0.4331 0.4528 0.0433, -0.4331 0.4134 0.0394, -0.4331 0.4528 0.0394, -0.5512 0.4528 0.0433, -0.5512 0.4528 0.0394, -0.5512 0.4134 0.0433, -0.5512 0.4134 0.0394, -0.4725 0.4134 0.3346, -0.4725 0.4134 0.3386, -0.4738 0.4236 0.3346, -0.4738 0.4236 0.3386, -0.4777 0.4331 0.3346, -0.4777 0.4331 0.3386, -0.484 0.4412 0.3346, -0.484 0.4412 0.3386, -0.4921 0.4475 0.3346, -0.4921 0.4475 0.3386, -0.5016 0.4514 0.3346, -0.5016 0.4514 0.3386, -0.5118 0.4528 0.3346, -0.5118 0.4528 0.3386, -0.522 0.4514 0.3346, -0.522 0.4514 0.3386, -0.5315 0.4475 0.3346, -0.5315 0.4475 0.3386, -0.5397 0.4412 0.3346, -0.5397 0.4412 0.3386, -0.5459 0.4331 0.3346, -0.5459 0.4331 0.3386, -0.5499 0.4236 0.3346, -0.5499 0.4236 0.3386, -0.5512 0.4134 0.3346, -0.5512 0.4134 0.3386, -0.5499 0.4032 0.3346, -0.5499 0.4032 0.3386, -0.5459 0.3937 0.3346, -0.5459 0.3937 0.3386, -0.5397 0.3855 0.3346, -0.5397 0.3855 0.3386, -0.5315 0.3793 0.3346, -0.5315 0.3793 0.3386, -0.522 0.3754 0.3346, -0.522 0.3754 0.3386, -0.5118 0.374 0.3346, -0.5118 0.374 0.3386, -0.5016 0.3754 0.3346, -0.5016 0.3754 0.3386, -0.4921 0.3793 0.3346, -0.4921 0.3793 0.3386, -0.484 0.3855 0.3346, -0.484 0.3855 0.3386, -0.4777 0.3937 0.3346, -0.4777 0.3937 0.3386, -0.4738 0.4032 0.3346, -0.4738 0.4032 0.3386, -0.5118 0.4134 0.3346, -0.3717 -0.377 0.3425, -0.3717 -0.38 0.3425, -0.3717 -0.377 0.3386, -0.3717 -0.38 0.3386, -0.3823 -0.377 0.3425, -0.3823 -0.377 0.3386, -0.3823 -0.3533 0.3425, -0.3823 -0.3533 0.3386, -0.3857 -0.3533 0.3425, -0.3857 -0.3533 0.3386, -0.3857 -0.38 0.3425, -0.3857 -0.38 0.3386, -0.358 -0.3805 0.3425, -0.358 -0.3805 0.3386, -0.3564 -0.3804 0.3386, -0.3564 -0.3804 0.3425, -0.3548 -0.3802 0.3386, -0.3548 -0.3802 0.3425, -0.3535 -0.38 0.3386, -0.3535 -0.38 0.3425, -0.3522 -0.3796 0.3386, -0.3522 -0.3796 0.3425, -0.3511 -0.3792 0.3386, -0.3511 -0.3792 0.3425, -0.3506 -0.3789 0.3386, -0.3506 -0.3789 0.3425, -0.3506 -0.3756 0.3425, -0.3506 -0.3756 0.3386, -0.3516 -0.3761 0.3386, -0.3516 -0.3761 0.3425, -0.3527 -0.3766 0.3386, -0.3527 -0.3766 0.3425, -0.3538 -0.3769 0.3386, -0.3538 -0.3769 0.3425, -0.355 -0.3772 0.3386, -0.355 -0.3772 0.3425, -0.3563 -0.3773 0.3386, -0.3563 -0.3773 0.3425, -0.3575 -0.3774 0.3386, -0.3575 -0.3774 0.3425, -0.3587 -0.3773 0.3386, -0.3587 -0.3773 0.3425, -0.3598 -0.3772 0.3386, -0.3598 -0.3772 0.3425, -0.3608 -0.3769 0.3386, -0.3608 -0.3769 0.3425, -0.3617 -0.3765 0.3386, -0.3617 -0.3765 0.3425, -0.3626 -0.3761 0.3386, -0.3626 -0.3761 0.3425, -0.3634 -0.3755 0.3386, -0.3634 -0.3755 0.3425, -0.3641 -0.3748 0.3386, -0.3641 -0.3748 0.3425, -0.3643 -0.3746 0.3386, -0.3643 -0.3746 0.3425, -0.365 -0.3738 0.3386, -0.365 -0.3738 0.3425, -0.3656 -0.3729 0.3386, -0.3656 -0.3729 0.3425, -0.366 -0.372 0.3386, -0.366 -0.372 0.3425, -0.3664 -0.371 0.3386, -0.3664 -0.371 0.3425, -0.3667 -0.3699 0.3386, -0.3667 -0.3699 0.3425, -0.3669 -0.3688 0.3386, -0.3669 -0.3688 0.3425, -0.367 -0.3675 0.3386, -0.367 -0.3675 0.3425, -0.367 -0.367 0.3386, -0.367 -0.367 0.3425, -0.3669 -0.3656 0.3386, -0.3669 -0.3656 0.3425, -0.3667 -0.3643 0.3386, -0.3667 -0.3643 0.3425, -0.3665 -0.3631 0.3386, -0.3665 -0.3631 0.3425, -0.3661 -0.362 0.3386, -0.3661 -0.362 0.3425, -0.3656 -0.361 0.3386, -0.3656 -0.361 0.3425, -0.3651 -0.3601 0.3386, -0.3651 -0.3601 0.3425, -0.3645 -0.3593 0.3386, -0.3645 -0.3593 0.3425, -0.3642 -0.3589 0.3386, -0.3642 -0.3589 0.3425, -0.3634 -0.3582 0.3386, -0.3634 -0.3582 0.3425, -0.3626 -0.3576 0.3386, -0.3626 -0.3576 0.3425, -0.3617 -0.3571 0.3386, -0.3617 -0.3571 0.3425, -0.3608 -0.3566 0.3386, -0.3608 -0.3566 0.3425, -0.3598 -0.3563 0.3386, -0.3598 -0.3563 0.3425, -0.3587 -0.3561 0.3386, -0.3587 -0.3561 0.3425, -0.3576 -0.356 0.3386, -0.3576 -0.356 0.3425, -0.3569 -0.356 0.3386, -0.3569 -0.356 0.3425, -0.3556 -0.356 0.3386, -0.3556 -0.356 0.3425, -0.3544 -0.3562 0.3386, -0.3544 -0.3562 0.3425, -0.3532 -0.3565 0.3386, -0.3532 -0.3565 0.3425, -0.3521 -0.3569 0.3386, -0.3521 -0.3569 0.3425, -0.351 -0.3574 0.3386, -0.351 -0.3574 0.3425, -0.3506 -0.3576 0.3386, -0.3506 -0.3576 0.3425, -0.3506 -0.354 0.3425, -0.3506 -0.354 0.3386, -0.3516 -0.3536 0.3386, -0.3516 -0.3536 0.3425, -0.3528 -0.3533 0.3386, -0.3528 -0.3533 0.3425, -0.3541 -0.353 0.3386, -0.3541 -0.353 0.3425, -0.3555 -0.3529 0.3386, -0.3555 -0.3529 0.3425, -0.3569 -0.3529 0.3386, -0.3569 -0.3529 0.3425, -0.3583 -0.3529 0.3386, -0.3583 -0.3529 0.3425, -0.3597 -0.3531 0.3386, -0.3597 -0.3531 0.3425, -0.3609 -0.3534 0.3386, -0.3609 -0.3534 0.3425, -0.3621 -0.3537 0.3386, -0.3621 -0.3537 0.3425, -0.3632 -0.3542 0.3386, -0.3632 -0.3542 0.3425, -0.3642 -0.3548 0.3386, -0.3642 -0.3548 0.3425, -0.3652 -0.3555 0.3386, -0.3652 -0.3555 0.3425, -0.3662 -0.3563 0.3386, -0.3662 -0.3563 0.3425, -0.3667 -0.3568 0.3386, -0.3667 -0.3568 0.3425, -0.3675 -0.3577 0.3386, -0.3675 -0.3577 0.3425, -0.3683 -0.3587 0.3386, -0.3683 -0.3587 0.3425, -0.3689 -0.3597 0.3386, -0.3689 -0.3597 0.3425, -0.3694 -0.3608 0.3386, -0.3694 -0.3608 0.3425, -0.3698 -0.362 0.3386, -0.3698 -0.362 0.3425, -0.3702 -0.3632 0.3386, -0.3702 -0.3632 0.3425, -0.3704 -0.3645 0.3386, -0.3704 -0.3645 0.3425, -0.3705 -0.3659 0.3386, -0.3705 -0.3659 0.3425, -0.3706 -0.3672 0.3386, -0.3706 -0.3672 0.3425, -0.3705 -0.3687 0.3386, -0.3705 -0.3687 0.3425, -0.3704 -0.3701 0.3386, -0.3704 -0.3701 0.3425, -0.3701 -0.3714 0.3386, -0.3701 -0.3714 0.3425, -0.3697 -0.3726 0.3386, -0.3697 -0.3726 0.3425, -0.3693 -0.3737 0.3386, -0.3693 -0.3737 0.3425, -0.3687 -0.3748 0.3386, -0.3687 -0.3748 0.3425, -0.368 -0.3758 0.3386, -0.368 -0.3758 0.3425, -0.3674 -0.3766 0.3386, -0.3674 -0.3766 0.3425, -0.3672 -0.3768 0.3386, -0.3672 -0.3768 0.3425, -0.3663 -0.3776 0.3386, -0.3663 -0.3776 0.3425, -0.3654 -0.3783 0.3386, -0.3654 -0.3783 0.3425, -0.3645 -0.3789 0.3386, -0.3645 -0.3789 0.3425, -0.3635 -0.3794 0.3386, -0.3635 -0.3794 0.3425, -0.3624 -0.3798 0.3386, -0.3624 -0.3798 0.3425, -0.3613 -0.3801 0.3386, -0.3613 -0.3801 0.3425, -0.36 -0.3803 0.3386, -0.36 -0.3803 0.3425, -0.3587 -0.3804 0.3386, -0.3587 -0.3804 0.3425, -0.3309 -0.377 0.3425, -0.3309 -0.38 0.3425, -0.3309 -0.377 0.3386, -0.3309 -0.38 0.3386, -0.3418 -0.377 0.3425, -0.3418 -0.377 0.3386, -0.3418 -0.368 0.3425, -0.3418 -0.368 0.3386, -0.3323 -0.368 0.3425, -0.3323 -0.368 0.3386, -0.3323 -0.3649 0.3425, -0.3323 -0.3649 0.3386, -0.3418 -0.3649 0.3425, -0.3418 -0.3649 0.3386, -0.3418 -0.3564 0.3425, -0.3418 -0.3564 0.3386, -0.3315 -0.3564 0.3425, -0.3315 -0.3564 0.3386, -0.3315 -0.3533 0.3425, -0.3315 -0.3533 0.3386, -0.3453 -0.3533 0.3425, -0.3453 -0.3533 0.3386, -0.3453 -0.38 0.3425, -0.3453 -0.38 0.3386, -0.3136 -0.3761 0.3425, -0.3117 -0.3787 0.3425, -0.3126 -0.3756 0.3425, -0.3106 -0.3781 0.3425, -0.3117 -0.3751 0.3425, -0.3096 -0.3774 0.3425, -0.3109 -0.3745 0.3425, -0.3086 -0.3767 0.3425, -0.3106 -0.3742 0.3425, -0.3082 -0.3763 0.3425, -0.3099 -0.3734 0.3425, -0.3073 -0.3754 0.3425, -0.3093 -0.3726 0.3425, -0.3065 -0.3745 0.3425, -0.3089 -0.3718 0.3425, -0.3059 -0.3735 0.3425, -0.3084 -0.3708 0.3425, -0.308 -0.3638 0.3425, -0.3046 -0.3624 0.3425, -0.3082 -0.3627 0.3425, -0.305 -0.3613 0.3425, -0.3086 -0.3617 0.3425, -0.3055 -0.3603 0.3425, -0.3091 -0.3608 0.3425, -0.3061 -0.3593 0.3425, -0.3096 -0.3601 0.3425, -0.3054 -0.3724 0.3425, -0.3049 -0.3713 0.3425, -0.3081 -0.3698 0.3425, -0.3046 -0.3702 0.3425, -0.3079 -0.3686 0.3425, -0.3043 -0.3689 0.3425, -0.3078 -0.3674 0.3425, -0.3042 -0.3676 0.3425, -0.3078 -0.3664 0.3425, -0.3041 -0.3663 0.3425, -0.3078 -0.3651 0.3425, -0.3042 -0.3649 0.3425, -0.3044 -0.3636 0.3425, -0.3067 -0.3583 0.3425, -0.3075 -0.3575 0.3425, -0.3102 -0.3593 0.3425, -0.3082 -0.3569 0.3425, -0.3107 -0.3589 0.3425, -0.3091 -0.3561 0.3425, -0.3115 -0.3583 0.3425, -0.3102 -0.3554 0.3425, -0.3124 -0.3577 0.3425, -0.3113 -0.3548 0.3425, -0.3134 -0.3573 0.3425, -0.3125 -0.3543 0.3425, -0.3144 -0.3569 0.3425, -0.3137 -0.3539 0.3425, -0.3156 -0.3566 0.3425, -0.315 -0.3536 0.3425, -0.3168 -0.3565 0.3425, -0.3163 -0.3534 0.3425, -0.3181 -0.3564 0.3425, -0.3178 -0.3533 0.3425, -0.3184 -0.3564 0.3425, -0.3182 -0.3533 0.3425, -0.3224 -0.3564 0.3425, -0.3259 -0.3533 0.3425, -0.3224 -0.377 0.3425, -0.3259 -0.38 0.3425, -0.3185 -0.377 0.3425, -0.3185 -0.38 0.3425, -0.3171 -0.3769 0.3425, -0.317 -0.38 0.3425, -0.3158 -0.3767 0.3425, -0.3155 -0.3798 0.3425, -0.3146 -0.3765 0.3425, -0.3142 -0.3795 0.3425, -0.3129 -0.3791 0.3425, -0.3115 -0.3583 0.3386, -0.3091 -0.3561 0.3386, -0.3107 -0.3589 0.3386, -0.3082 -0.3569 0.3386, -0.3102 -0.3593 0.3386, -0.3075 -0.3575 0.3386, -0.3096 -0.3601 0.3386, -0.3067 -0.3583 0.3386, -0.3091 -0.3608 0.3386, -0.3061 -0.3593 0.3386, -0.3086 -0.3617 0.3386, -0.3055 -0.3603 0.3386, -0.3082 -0.3627 0.3386, -0.3126 -0.3756 0.3386, -0.3117 -0.3787 0.3386, -0.3136 -0.3761 0.3386, -0.3129 -0.3791 0.3386, -0.3146 -0.3765 0.3386, -0.3142 -0.3795 0.3386, -0.3158 -0.3767 0.3386, -0.3155 -0.3798 0.3386, -0.3171 -0.3769 0.3386, -0.317 -0.38 0.3386, -0.3185 -0.377 0.3386, -0.3185 -0.38 0.3386, -0.3224 -0.377 0.3386, -0.3259 -0.38 0.3386, -0.3224 -0.3564 0.3386, -0.3259 -0.3533 0.3386, -0.3184 -0.3564 0.3386, -0.3182 -0.3533 0.3386, -0.3181 -0.3564 0.3386, -0.3178 -0.3533 0.3386, -0.3168 -0.3565 0.3386, -0.3163 -0.3534 0.3386, -0.3156 -0.3566 0.3386, -0.315 -0.3536 0.3386, -0.3144 -0.3569 0.3386, -0.3137 -0.3539 0.3386, -0.3134 -0.3573 0.3386, -0.3125 -0.3543 0.3386, -0.3124 -0.3577 0.3386, -0.3113 -0.3548 0.3386, -0.3102 -0.3554 0.3386, -0.3081 -0.3698 0.3386, -0.3049 -0.3713 0.3386, -0.3084 -0.3708 0.3386, -0.3054 -0.3724 0.3386, -0.3089 -0.3718 0.3386, -0.3059 -0.3735 0.3386, -0.3093 -0.3726 0.3386, -0.3065 -0.3745 0.3386, -0.3099 -0.3734 0.3386, -0.3073 -0.3754 0.3386, -0.3106 -0.3742 0.3386, -0.3082 -0.3763 0.3386, -0.3109 -0.3745 0.3386, -0.3086 -0.3767 0.3386, -0.3117 -0.3751 0.3386, -0.3096 -0.3774 0.3386, -0.3106 -0.3781 0.3386, -0.305 -0.3613 0.3386, -0.3046 -0.3624 0.3386, -0.308 -0.3638 0.3386, -0.3044 -0.3636 0.3386, -0.3078 -0.3651 0.3386, -0.3042 -0.3649 0.3386, -0.3078 -0.3664 0.3386, -0.3041 -0.3663 0.3386, -0.3078 -0.3674 0.3386, -0.3042 -0.3676 0.3386, -0.3079 -0.3686 0.3386, -0.3043 -0.3689 0.3386, -0.3046 -0.3702 0.3386, -0.2952 -0.3697 0.3425, -0.2963 -0.3727 0.3425, -0.2862 -0.3697 0.3425, -0.2852 -0.3727 0.3425, -0.2912 -0.3586 0.3425, -0.2925 -0.3533 0.3425, -0.3027 -0.38 0.3425, -0.2988 -0.38 0.3425, -0.291 -0.3578 0.3425, -0.2908 -0.3567 0.3425, -0.2888 -0.3533 0.3425, -0.2907 -0.3567 0.3425, -0.2905 -0.3579 0.3425, -0.2903 -0.3586 0.3425, -0.2786 -0.38 0.3425, -0.2824 -0.38 0.3425, -0.2963 -0.3727 0.3386, -0.2952 -0.3697 0.3386, -0.2852 -0.3727 0.3386, -0.2862 -0.3697 0.3386, -0.2903 -0.3586 0.3386, -0.2888 -0.3533 0.3386, -0.2786 -0.38 0.3386, -0.2824 -0.38 0.3386, -0.2905 -0.3579 0.3386, -0.2907 -0.3567 0.3386, -0.2925 -0.3533 0.3386, -0.2908 -0.3567 0.3386, -0.291 -0.3578 0.3386, -0.2912 -0.3586 0.3386, -0.3027 -0.38 0.3386, -0.2988 -0.38 0.3386, -0.3714 -0.4193 0.3425, -0.3714 -0.4224 0.3425, -0.3714 -0.4193 0.3386, -0.3714 -0.4224 0.3386, -0.3823 -0.4193 0.3425, -0.3823 -0.4193 0.3386, -0.3823 -0.4103 0.3425, -0.3823 -0.4103 0.3386, -0.3728 -0.4103 0.3425, -0.3728 -0.4103 0.3386, -0.3728 -0.4073 0.3425, -0.3728 -0.4073 0.3386, -0.3823 -0.4073 0.3425, -0.3823 -0.4073 0.3386, -0.3823 -0.3987 0.3425, -0.3823 -0.3987 0.3386, -0.372 -0.3987 0.3425, -0.372 -0.3987 0.3386, -0.372 -0.3957 0.3425, -0.372 -0.3957 0.3386, -0.3857 -0.3957 0.3425, -0.3857 -0.3957 0.3386, -0.3857 -0.4224 0.3425, -0.3857 -0.4224 0.3386, -0.3625 -0.4138 0.3425, -0.3617 -0.4136 0.3425, -0.3562 -0.4102 0.3425, -0.3607 -0.4134 0.3425, -0.3574 -0.4065 0.3425, -0.3556 -0.4038 0.3425, -0.3578 -0.4062 0.3425, -0.3562 -0.4035 0.3425, -0.3582 -0.4059 0.3425, -0.3569 -0.4033 0.3425, -0.3588 -0.4057 0.3425, -0.3666 -0.413 0.3425, -0.3642 -0.4149 0.3425, -0.3639 -0.4146 0.3425, -0.3562 -0.4148 0.3425, -0.3563 -0.4155 0.3425, -0.3529 -0.4101 0.3425, -0.3571 -0.4069 0.3425, -0.3546 -0.4047 0.3425, -0.3551 -0.4042 0.3425, -0.3666 -0.4131 0.3425, -0.3671 -0.4135 0.3425, -0.3645 -0.4153 0.3425, -0.3674 -0.4141 0.3425, -0.3647 -0.4158 0.3425, -0.3631 -0.414 0.3425, -0.3619 -0.411 0.3425, -0.3629 -0.4112 0.3425, -0.3562 -0.4224 0.3425, -0.3529 -0.4224 0.3425, -0.3562 -0.4194 0.3425, -0.3564 -0.4162 0.3425, -0.3642 -0.4189 0.3425, -0.3644 -0.4185 0.3425, -0.3672 -0.4206 0.3425, -0.3648 -0.4175 0.3425, -0.368 -0.4188 0.3425, -0.3646 -0.418 0.3425, -0.3678 -0.4194 0.3425, -0.3676 -0.42 0.3425, -0.3639 -0.4115 0.3425, -0.3647 -0.4118 0.3425, -0.3635 -0.4143 0.3425, -0.3655 -0.4122 0.3425, -0.3661 -0.4126 0.3425, -0.3564 -0.4085 0.3425, -0.3532 -0.4071 0.3425, -0.3566 -0.4079 0.3425, -0.3535 -0.4064 0.3425, -0.3568 -0.4073 0.3425, -0.3538 -0.4057 0.3425, -0.3542 -0.4051 0.3425, -0.3529 -0.409 0.3425, -0.3562 -0.4128 0.3425, -0.3562 -0.4146 0.3425, -0.3563 -0.4092 0.3425, -0.353 -0.408 0.3425, -0.3562 -0.4101 0.3425, -0.3638 -0.4192 0.3425, -0.3655 -0.4221 0.3425, -0.3634 -0.4195 0.3425, -0.3648 -0.4224 0.3425, -0.363 -0.4197 0.3425, -0.3642 -0.4226 0.3425, -0.3625 -0.4199 0.3425, -0.3668 -0.4211 0.3425, -0.3666 -0.4213 0.3425, -0.366 -0.4217 0.3425, -0.3677 -0.4147 0.3425, -0.3679 -0.4153 0.3425, -0.3648 -0.4163 0.3425, -0.3681 -0.416 0.3425, -0.3648 -0.417 0.3425, -0.3576 -0.4031 0.3425, -0.3585 -0.4029 0.3425, -0.3594 -0.4056 0.3425, -0.3594 -0.4029 0.3425, -0.3601 -0.4056 0.3425, -0.3598 -0.4029 0.3425, -0.3604 -0.4056 0.3425, -0.3609 -0.4029 0.3425, -0.3613 -0.4056 0.3425, -0.362 -0.403 0.3425, -0.3622 -0.4058 0.3425, -0.363 -0.4032 0.3425, -0.363 -0.406 0.3425, -0.364 -0.4035 0.3425, -0.3639 -0.4064 0.3425, -0.3649 -0.4039 0.3425, -0.3647 -0.4068 0.3425, -0.3658 -0.4043 0.3425, -0.3655 -0.4073 0.3425, -0.3663 -0.4046 0.3425, -0.3663 -0.4079 0.3425, -0.3682 -0.4168 0.3425, -0.3682 -0.4172 0.3425, -0.3682 -0.418 0.3425, -0.3566 -0.4168 0.3425, -0.3569 -0.4174 0.3425, -0.3563 -0.4194 0.3425, -0.3572 -0.418 0.3425, -0.3565 -0.4196 0.3425, -0.3606 -0.42 0.3425, -0.3598 -0.4224 0.3425, -0.3599 -0.4199 0.3425, -0.3591 -0.4222 0.3425, -0.3593 -0.4197 0.3425, -0.3585 -0.4218 0.3425, -0.3588 -0.4194 0.3425, -0.358 -0.4214 0.3425, -0.3574 -0.4209 0.3425, -0.3583 -0.4191 0.3425, -0.3569 -0.4203 0.3425, -0.3578 -0.4186 0.3425, -0.3577 -0.4185 0.3425, -0.3634 -0.4227 0.3425, -0.3626 -0.4228 0.3425, -0.3619 -0.42 0.3425, -0.3621 -0.4228 0.3425, -0.3613 -0.4201 0.3425, -0.3613 -0.4228 0.3425, -0.3605 -0.4226 0.3425, -0.3655 -0.4073 0.3386, -0.3663 -0.4079 0.3386, -0.3663 -0.4046 0.3386, -0.3556 -0.4038 0.3386, -0.3574 -0.4065 0.3386, -0.3578 -0.4062 0.3386, -0.3648 -0.4175 0.3386, -0.3682 -0.4172 0.3386, -0.3648 -0.417 0.3386, -0.3682 -0.4168 0.3386, -0.3648 -0.4163 0.3386, -0.3639 -0.4146 0.3386, -0.3642 -0.4149 0.3386, -0.3666 -0.413 0.3386, -0.3564 -0.4162 0.3386, -0.3563 -0.4155 0.3386, -0.3529 -0.4101 0.3386, -0.3646 -0.418 0.3386, -0.368 -0.4188 0.3386, -0.3682 -0.418 0.3386, -0.3642 -0.4189 0.3386, -0.3672 -0.4206 0.3386, -0.3644 -0.4185 0.3386, -0.3676 -0.42 0.3386, -0.3678 -0.4194 0.3386, -0.3645 -0.4153 0.3386, -0.3671 -0.4135 0.3386, -0.3666 -0.4131 0.3386, -0.3551 -0.4042 0.3386, -0.3546 -0.4047 0.3386, -0.3571 -0.4069 0.3386, -0.3542 -0.4051 0.3386, -0.3568 -0.4073 0.3386, -0.3538 -0.4057 0.3386, -0.3566 -0.4079 0.3386, -0.3594 -0.4056 0.3386, -0.3585 -0.4029 0.3386, -0.3588 -0.4057 0.3386, -0.3576 -0.4031 0.3386, -0.3582 -0.4059 0.3386, -0.3569 -0.4033 0.3386, -0.3562 -0.4035 0.3386, -0.3566 -0.4168 0.3386, -0.3562 -0.4194 0.3386, -0.3562 -0.4224 0.3386, -0.3529 -0.4224 0.3386, -0.3661 -0.4126 0.3386, -0.3655 -0.4122 0.3386, -0.3635 -0.4143 0.3386, -0.3647 -0.4118 0.3386, -0.3631 -0.414 0.3386, -0.3639 -0.4115 0.3386, -0.3625 -0.4138 0.3386, -0.3629 -0.4112 0.3386, -0.3617 -0.4136 0.3386, -0.3619 -0.411 0.3386, -0.3638 -0.4192 0.3386, -0.3666 -0.4213 0.3386, -0.3668 -0.4211 0.3386, -0.3634 -0.4195 0.3386, -0.3655 -0.4221 0.3386, -0.366 -0.4217 0.3386, -0.3681 -0.416 0.3386, -0.3679 -0.4153 0.3386, -0.3647 -0.4158 0.3386, -0.3677 -0.4147 0.3386, -0.3674 -0.4141 0.3386, -0.3562 -0.4128 0.3386, -0.3529 -0.409 0.3386, -0.3562 -0.4146 0.3386, -0.3562 -0.4148 0.3386, -0.3535 -0.4064 0.3386, -0.3532 -0.4071 0.3386, -0.3564 -0.4085 0.3386, -0.353 -0.408 0.3386, -0.3563 -0.4092 0.3386, -0.3562 -0.4101 0.3386, -0.3562 -0.4102 0.3386, -0.3607 -0.4134 0.3386, -0.3647 -0.4068 0.3386, -0.3658 -0.4043 0.3386, -0.3639 -0.4064 0.3386, -0.3649 -0.4039 0.3386, -0.363 -0.406 0.3386, -0.364 -0.4035 0.3386, -0.3622 -0.4058 0.3386, -0.363 -0.4032 0.3386, -0.3613 -0.4056 0.3386, -0.362 -0.403 0.3386, -0.3604 -0.4056 0.3386, -0.3609 -0.4029 0.3386, -0.3601 -0.4056 0.3386, -0.3598 -0.4029 0.3386, -0.3594 -0.4029 0.3386, -0.3565 -0.4196 0.3386, -0.3569 -0.4203 0.3386, -0.3583 -0.4191 0.3386, -0.3574 -0.4209 0.3386, -0.3588 -0.4194 0.3386, -0.358 -0.4214 0.3386, -0.3593 -0.4197 0.3386, -0.3585 -0.4218 0.3386, -0.3599 -0.4199 0.3386, -0.3619 -0.42 0.3386, -0.3626 -0.4228 0.3386, -0.3625 -0.4199 0.3386, -0.3634 -0.4227 0.3386, -0.363 -0.4197 0.3386, -0.3642 -0.4226 0.3386, -0.3648 -0.4224 0.3386, -0.3591 -0.4222 0.3386, -0.3598 -0.4224 0.3386, -0.3606 -0.42 0.3386, -0.3605 -0.4226 0.3386, -0.3613 -0.4201 0.3386, -0.3613 -0.4228 0.3386, -0.3621 -0.4228 0.3386, -0.3578 -0.4186 0.3386, -0.3577 -0.4185 0.3386, -0.3563 -0.4194 0.3386, -0.3572 -0.418 0.3386, -0.3569 -0.4174 0.3386, -0.3428 -0.4201 0.3425, -0.3428 -0.4201 0.3386, -0.3437 -0.42 0.3386, -0.3437 -0.42 0.3425, -0.3445 -0.4199 0.3386, -0.3445 -0.4199 0.3425, -0.3454 -0.4197 0.3386, -0.3454 -0.4197 0.3425, -0.3462 -0.4194 0.3386, -0.3462 -0.4194 0.3425, -0.347 -0.4191 0.3386, -0.347 -0.4191 0.3425, -0.3477 -0.4186 0.3386, -0.3477 -0.4186 0.3425, -0.3483 -0.4182 0.3386, -0.3483 -0.4182 0.3425, -0.3483 -0.4217 0.3425, -0.3483 -0.4217 0.3386, -0.3475 -0.422 0.3386, -0.3475 -0.422 0.3425, -0.3467 -0.4223 0.3386, -0.3467 -0.4223 0.3425, -0.3458 -0.4226 0.3386, -0.3458 -0.4226 0.3425, -0.3448 -0.4227 0.3386, -0.3448 -0.4227 0.3425, -0.3438 -0.4228 0.3386, -0.3438 -0.4228 0.3425, -0.3432 -0.4228 0.3386, -0.3432 -0.4228 0.3425, -0.3421 -0.4228 0.3386, -0.3421 -0.4228 0.3425, -0.3411 -0.4226 0.3386, -0.3411 -0.4226 0.3425, -0.3402 -0.4225 0.3386, -0.3402 -0.4225 0.3425, -0.3394 -0.4222 0.3386, -0.3394 -0.4222 0.3425, -0.3386 -0.4219 0.3386, -0.3386 -0.4219 0.3425, -0.338 -0.4215 0.3386, -0.338 -0.4215 0.3425, -0.3376 -0.4213 0.3386, -0.3376 -0.4213 0.3425, -0.3371 -0.4209 0.3386, -0.3371 -0.4209 0.3425, -0.3366 -0.4204 0.3386, -0.3366 -0.4204 0.3425, -0.3362 -0.4199 0.3386, -0.3362 -0.4199 0.3425, -0.3359 -0.4194 0.3386, -0.3359 -0.4194 0.3425, -0.3357 -0.4188 0.3386, -0.3357 -0.4188 0.3425, -0.3356 -0.4182 0.3386, -0.3356 -0.4182 0.3425, -0.3355 -0.4176 0.3386, -0.3355 -0.4176 0.3425, -0.3355 -0.4172 0.3386, -0.3355 -0.4172 0.3425, -0.3355 -0.4165 0.3386, -0.3355 -0.4165 0.3425, -0.3356 -0.4158 0.3386, -0.3356 -0.4158 0.3425, -0.3358 -0.4153 0.3386, -0.3358 -0.4153 0.3425, -0.3361 -0.4147 0.3386, -0.3361 -0.4147 0.3425, -0.3364 -0.4142 0.3386, -0.3364 -0.4142 0.3425, -0.3366 -0.414 0.3386, -0.3366 -0.414 0.3425, -0.337 -0.4136 0.3386, -0.337 -0.4136 0.3425, -0.3376 -0.4132 0.3386, -0.3376 -0.4132 0.3425, -0.3383 -0.4127 0.3386, -0.3383 -0.4127 0.3425, -0.3391 -0.4123 0.3386, -0.3391 -0.4123 0.3425, -0.3402 -0.4118 0.3386, -0.3402 -0.4118 0.3425, -0.3409 -0.4115 0.3386, -0.3409 -0.4115 0.3425, -0.3424 -0.4109 0.3386, -0.3424 -0.4109 0.3425, -0.3433 -0.4105 0.3386, -0.3433 -0.4105 0.3425, -0.3439 -0.4101 0.3386, -0.3439 -0.4101 0.3425, -0.3442 -0.4099 0.3386, -0.3442 -0.4099 0.3425, -0.3444 -0.4096 0.3386, -0.3444 -0.4096 0.3425, -0.3446 -0.4093 0.3386, -0.3446 -0.4093 0.3425, -0.3448 -0.4089 0.3386, -0.3448 -0.4089 0.3425, -0.3449 -0.4084 0.3386, -0.3449 -0.4084 0.3425, -0.3449 -0.4081 0.3386, -0.3449 -0.4081 0.3425, -0.3448 -0.4077 0.3386, -0.3448 -0.4077 0.3425, -0.3447 -0.4073 0.3386, -0.3447 -0.4073 0.3425, -0.3445 -0.4069 0.3386, -0.3445 -0.4069 0.3425, -0.3443 -0.4066 0.3386, -0.3443 -0.4066 0.3425, -0.3439 -0.4063 0.3386, -0.3439 -0.4063 0.3425, -0.3439 -0.4063 0.3386, -0.3439 -0.4063 0.3425, -0.3434 -0.406 0.3386, -0.3434 -0.406 0.3425, -0.3429 -0.4058 0.3386, -0.3429 -0.4058 0.3425, -0.3424 -0.4057 0.3386, -0.3424 -0.4057 0.3425, -0.3417 -0.4056 0.3386, -0.3417 -0.4056 0.3425, -0.3412 -0.4056 0.3386, -0.3412 -0.4056 0.3425, -0.3403 -0.4056 0.3386, -0.3403 -0.4056 0.3425, -0.3395 -0.4057 0.3386, -0.3395 -0.4057 0.3425, -0.3386 -0.4059 0.3386, -0.3386 -0.4059 0.3425, -0.3379 -0.4062 0.3386, -0.3379 -0.4062 0.3425, -0.3371 -0.4065 0.3386, -0.3371 -0.4065 0.3425, -0.3364 -0.4069 0.3386, -0.3364 -0.4069 0.3425, -0.3364 -0.4037 0.3425, -0.3364 -0.4037 0.3386, -0.3373 -0.4034 0.3386, -0.3373 -0.4034 0.3425, -0.3382 -0.4031 0.3386, -0.3382 -0.4031 0.3425, -0.3391 -0.403 0.3386, -0.3391 -0.403 0.3425, -0.3401 -0.4029 0.3386, -0.3401 -0.4029 0.3425, -0.3409 -0.4029 0.3386, -0.3409 -0.4029 0.3425, -0.3419 -0.4029 0.3386, -0.3419 -0.4029 0.3425, -0.3428 -0.403 0.3386, -0.3428 -0.403 0.3425, -0.3437 -0.4032 0.3386, -0.3437 -0.4032 0.3425, -0.3445 -0.4035 0.3386, -0.3445 -0.4035 0.3425, -0.3452 -0.4038 0.3386, -0.3452 -0.4038 0.3425, -0.3459 -0.4042 0.3386, -0.3459 -0.4042 0.3425, -0.3462 -0.4044 0.3386, -0.3462 -0.4044 0.3425, -0.3467 -0.4048 0.3386, -0.3467 -0.4048 0.3425, -0.3472 -0.4053 0.3386, -0.3472 -0.4053 0.3425, -0.3476 -0.4058 0.3386, -0.3476 -0.4058 0.3425, -0.3479 -0.4063 0.3386, -0.3479 -0.4063 0.3425, -0.3481 -0.4069 0.3386, -0.3481 -0.4069 0.3425, -0.3482 -0.4075 0.3386, -0.3482 -0.4075 0.3425, -0.3483 -0.4081 0.3386, -0.3483 -0.4081 0.3425, -0.3483 -0.4084 0.3386, -0.3483 -0.4084 0.3425, -0.3483 -0.4091 0.3386, -0.3483 -0.4091 0.3425, -0.3482 -0.4098 0.3386, -0.3482 -0.4098 0.3425, -0.348 -0.4104 0.3386, -0.348 -0.4104 0.3425, -0.3477 -0.4109 0.3386, -0.3477 -0.4109 0.3425, -0.3474 -0.4114 0.3386, -0.3474 -0.4114 0.3425, -0.347 -0.4118 0.3386, -0.347 -0.4118 0.3425, -0.3466 -0.4122 0.3386, -0.3466 -0.4122 0.3425, -0.346 -0.4126 0.3386, -0.346 -0.4126 0.3425, -0.3452 -0.4131 0.3386, -0.3452 -0.4131 0.3425, -0.3442 -0.4136 0.3386, -0.3442 -0.4136 0.3425, -0.3433 -0.414 0.3386, -0.3433 -0.414 0.3425, -0.3418 -0.4146 0.3386, -0.3418 -0.4146 0.3425, -0.3408 -0.415 0.3386, -0.3408 -0.415 0.3425, -0.3402 -0.4154 0.3386, -0.3402 -0.4154 0.3425, -0.3398 -0.4157 0.3386, -0.3398 -0.4157 0.3425, -0.3394 -0.416 0.3386, -0.3394 -0.416 0.3425, -0.3392 -0.4164 0.3386, -0.3392 -0.4164 0.3425, -0.339 -0.4167 0.3386, -0.339 -0.4167 0.3425, -0.3389 -0.4172 0.3386, -0.3389 -0.4172 0.3425, -0.3389 -0.4175 0.3386, -0.3389 -0.4175 0.3425, -0.3389 -0.418 0.3386, -0.3389 -0.418 0.3425, -0.3391 -0.4184 0.3386, -0.3391 -0.4184 0.3425, -0.3392 -0.4188 0.3386, -0.3392 -0.4188 0.3425, -0.3395 -0.4191 0.3386, -0.3395 -0.4191 0.3425, -0.3398 -0.4194 0.3386, -0.3398 -0.4194 0.3425, -0.3402 -0.4196 0.3386, -0.3402 -0.4196 0.3425, -0.3406 -0.4198 0.3386, -0.3406 -0.4198 0.3425, -0.3412 -0.4199 0.3386, -0.3412 -0.4199 0.3425, -0.3419 -0.42 0.3386, -0.3419 -0.42 0.3425, -0.3189 -0.4033 0.3425, -0.3154 -0.4033 0.3425, -0.3189 -0.4033 0.3386, -0.3154 -0.4033 0.3386, -0.3241 -0.4176 0.3425, -0.3241 -0.4176 0.3386, -0.3244 -0.4185 0.3386, -0.3244 -0.4185 0.3425, -0.3245 -0.4192 0.3386, -0.3245 -0.4192 0.3425, -0.3246 -0.4192 0.3425, -0.3246 -0.4192 0.3386, -0.325 -0.4176 0.3425, -0.325 -0.4176 0.3386, -0.33 -0.4033 0.3425, -0.33 -0.4033 0.3386, -0.3337 -0.4033 0.3425, -0.3337 -0.4033 0.3386, -0.3263 -0.4223 0.3425, -0.3263 -0.4223 0.3386, -0.3277 -0.4258 0.3425, -0.3277 -0.4258 0.3386, -0.3281 -0.4266 0.3386, -0.3281 -0.4266 0.3425, -0.3285 -0.4272 0.3386, -0.3285 -0.4272 0.3425, -0.329 -0.4277 0.3386, -0.329 -0.4277 0.3425, -0.3295 -0.428 0.3386, -0.3295 -0.428 0.3425, -0.33 -0.4283 0.3386, -0.33 -0.4283 0.3425, -0.3306 -0.4284 0.3386, -0.3306 -0.4284 0.3425, -0.3311 -0.4285 0.3386, -0.3311 -0.4285 0.3425, -0.3319 -0.4284 0.3386, -0.3319 -0.4284 0.3425, -0.3326 -0.4282 0.3386, -0.3326 -0.4282 0.3425, -0.333 -0.4281 0.3386, -0.333 -0.4281 0.3425, -0.333 -0.4311 0.3425, -0.333 -0.4311 0.3386, -0.3323 -0.4312 0.3386, -0.3323 -0.4312 0.3425, -0.3313 -0.4313 0.3386, -0.3313 -0.4313 0.3425, -0.3309 -0.4313 0.3386, -0.3309 -0.4313 0.3425, -0.3301 -0.4313 0.3386, -0.3301 -0.4313 0.3425, -0.3293 -0.4311 0.3386, -0.3293 -0.4311 0.3425, -0.3286 -0.4308 0.3386, -0.3286 -0.4308 0.3425, -0.3278 -0.4305 0.3386, -0.3278 -0.4305 0.3425, -0.3272 -0.43 0.3386, -0.3272 -0.43 0.3425, -0.3265 -0.4293 0.3386, -0.3265 -0.4293 0.3425, -0.3259 -0.4286 0.3386, -0.3259 -0.4286 0.3425, -0.3253 -0.4277 0.3386, -0.3253 -0.4277 0.3425, -0.3247 -0.4266 0.3386, -0.3247 -0.4266 0.3425, -0.3242 -0.4254 0.3386, -0.3242 -0.4254 0.3425, -0.3241 -0.4252 0.3386, -0.3241 -0.4252 0.3425, -0.2975 -0.4193 0.3425, -0.2975 -0.4224 0.3425, -0.2975 -0.4193 0.3386, -0.2975 -0.4224 0.3386, -0.3084 -0.4193 0.3425, -0.3084 -0.4193 0.3386, -0.3084 -0.4103 0.3425, -0.3084 -0.4103 0.3386, -0.2988 -0.4103 0.3425, -0.2988 -0.4103 0.3386, -0.2988 -0.4073 0.3425, -0.2988 -0.4073 0.3386, -0.3084 -0.4073 0.3425, -0.3084 -0.4073 0.3386, -0.3084 -0.3987 0.3425, -0.3084 -0.3987 0.3386, -0.2981 -0.3987 0.3425, -0.2981 -0.3987 0.3386, -0.2981 -0.3957 0.3425, -0.2981 -0.3957 0.3386, -0.3118 -0.3957 0.3425, -0.3118 -0.3957 0.3386, -0.3118 -0.4224 0.3425, -0.3118 -0.4224 0.3386, -0.2801 -0.4184 0.3425, -0.2783 -0.421 0.3425, -0.2792 -0.418 0.3425, -0.2772 -0.4204 0.3425, -0.2783 -0.4174 0.3425, -0.2761 -0.4198 0.3425, -0.2775 -0.4168 0.3425, -0.2752 -0.419 0.3425, -0.2772 -0.4165 0.3425, -0.2747 -0.4186 0.3425, -0.2765 -0.4158 0.3425, -0.2739 -0.4177 0.3425, -0.2759 -0.415 0.3425, -0.2731 -0.4168 0.3425, -0.2754 -0.4141 0.3425, -0.2725 -0.4158 0.3425, -0.275 -0.4132 0.3425, -0.2746 -0.4062 0.3425, -0.2712 -0.4048 0.3425, -0.2748 -0.4051 0.3425, -0.2716 -0.4036 0.3425, -0.2752 -0.4041 0.3425, -0.2721 -0.4026 0.3425, -0.2756 -0.4032 0.3425, -0.2726 -0.4016 0.3425, -0.2762 -0.4024 0.3425, -0.2719 -0.4148 0.3425, -0.2715 -0.4137 0.3425, -0.2747 -0.4121 0.3425, -0.2711 -0.4125 0.3425, -0.2745 -0.411 0.3425, -0.2709 -0.4112 0.3425, -0.2744 -0.4097 0.3425, -0.2708 -0.4099 0.3425, -0.2743 -0.4088 0.3425, -0.2707 -0.4087 0.3425, -0.2744 -0.4074 0.3425, -0.2708 -0.4073 0.3425, -0.2709 -0.406 0.3425, -0.2733 -0.4007 0.3425, -0.2741 -0.3998 0.3425, -0.2768 -0.4017 0.3425, -0.2747 -0.3992 0.3425, -0.2773 -0.4012 0.3425, -0.2757 -0.3984 0.3425, -0.2781 -0.4006 0.3425, -0.2768 -0.3977 0.3425, -0.279 -0.4001 0.3425, -0.2779 -0.3971 0.3425, -0.28 -0.3996 0.3425, -0.279 -0.3966 0.3425, -0.281 -0.3992 0.3425, -0.2803 -0.3962 0.3425, -0.2821 -0.399 0.3425, -0.2815 -0.3959 0.3425, -0.2834 -0.3988 0.3425, -0.2829 -0.3958 0.3425, -0.2847 -0.3987 0.3425, -0.2844 -0.3957 0.3425, -0.285 -0.3987 0.3425, -0.2848 -0.3957 0.3425, -0.289 -0.3987 0.3425, -0.2924 -0.3957 0.3425, -0.289 -0.4193 0.3425, -0.2924 -0.4224 0.3425, -0.2851 -0.4193 0.3425, -0.2851 -0.4224 0.3425, -0.2837 -0.4193 0.3425, -0.2836 -0.4223 0.3425, -0.2824 -0.4191 0.3425, -0.2821 -0.4221 0.3425, -0.2812 -0.4188 0.3425, -0.2807 -0.4218 0.3425, -0.2795 -0.4215 0.3425, -0.2781 -0.4006 0.3386, -0.2757 -0.3984 0.3386, -0.2773 -0.4012 0.3386, -0.2747 -0.3992 0.3386, -0.2768 -0.4017 0.3386, -0.2741 -0.3998 0.3386, -0.2762 -0.4024 0.3386, -0.2733 -0.4007 0.3386, -0.2756 -0.4032 0.3386, -0.2726 -0.4016 0.3386, -0.2752 -0.4041 0.3386, -0.2721 -0.4026 0.3386, -0.2748 -0.4051 0.3386, -0.2792 -0.418 0.3386, -0.2783 -0.421 0.3386, -0.2801 -0.4184 0.3386, -0.2795 -0.4215 0.3386, -0.2812 -0.4188 0.3386, -0.2807 -0.4218 0.3386, -0.2824 -0.4191 0.3386, -0.2821 -0.4221 0.3386, -0.2837 -0.4193 0.3386, -0.2836 -0.4223 0.3386, -0.2851 -0.4193 0.3386, -0.2851 -0.4224 0.3386, -0.289 -0.4193 0.3386, -0.2924 -0.4224 0.3386, -0.289 -0.3987 0.3386, -0.2924 -0.3957 0.3386, -0.285 -0.3987 0.3386, -0.2848 -0.3957 0.3386, -0.2847 -0.3987 0.3386, -0.2844 -0.3957 0.3386, -0.2834 -0.3988 0.3386, -0.2829 -0.3958 0.3386, -0.2821 -0.399 0.3386, -0.2815 -0.3959 0.3386, -0.281 -0.3992 0.3386, -0.2803 -0.3962 0.3386, -0.28 -0.3996 0.3386, -0.279 -0.3966 0.3386, -0.279 -0.4001 0.3386, -0.2779 -0.3971 0.3386, -0.2768 -0.3977 0.3386, -0.2747 -0.4121 0.3386, -0.2715 -0.4137 0.3386, -0.275 -0.4132 0.3386, -0.2719 -0.4148 0.3386, -0.2754 -0.4141 0.3386, -0.2725 -0.4158 0.3386, -0.2759 -0.415 0.3386, -0.2731 -0.4168 0.3386, -0.2765 -0.4158 0.3386, -0.2739 -0.4177 0.3386, -0.2772 -0.4165 0.3386, -0.2747 -0.4186 0.3386, -0.2775 -0.4168 0.3386, -0.2752 -0.419 0.3386, -0.2783 -0.4174 0.3386, -0.2761 -0.4198 0.3386, -0.2772 -0.4204 0.3386, -0.2716 -0.4036 0.3386, -0.2712 -0.4048 0.3386, -0.2746 -0.4062 0.3386, -0.2709 -0.406 0.3386, -0.2744 -0.4074 0.3386, -0.2708 -0.4073 0.3386, -0.2743 -0.4088 0.3386, -0.2707 -0.4087 0.3386, -0.2744 -0.4097 0.3386, -0.2708 -0.4099 0.3386, -0.2745 -0.411 0.3386, -0.2709 -0.4112 0.3386, -0.2711 -0.4125 0.3386, -0.2618 -0.412 0.3425, -0.2629 -0.4151 0.3425, -0.2528 -0.412 0.3425, -0.2517 -0.4151 0.3425, -0.2578 -0.4009 0.3425, -0.2591 -0.3957 0.3425, -0.2692 -0.4224 0.3425, -0.2654 -0.4224 0.3425, -0.2575 -0.4001 0.3425, -0.2573 -0.3991 0.3425, -0.2554 -0.3957 0.3425, -0.2573 -0.3991 0.3425, -0.257 -0.4002 0.3425, -0.2568 -0.4009 0.3425, -0.2452 -0.4224 0.3425, -0.249 -0.4224 0.3425, -0.2629 -0.4151 0.3386, -0.2618 -0.412 0.3386, -0.2517 -0.4151 0.3386, -0.2528 -0.412 0.3386, -0.2568 -0.4009 0.3386, -0.2554 -0.3957 0.3386, -0.2452 -0.4224 0.3386, -0.249 -0.4224 0.3386, -0.257 -0.4002 0.3386, -0.2573 -0.3991 0.3386, -0.2591 -0.3957 0.3386, -0.2573 -0.3991 0.3386, -0.2575 -0.4001 0.3386, -0.2578 -0.4009 0.3386, -0.2692 -0.4224 0.3386, -0.2654 -0.4224 0.3386, -0.5008 -0.4296 0.3425, -0.4987 -0.4314 0.3425, -0.5053 -0.4093 0.3425, -0.4891 -0.375 0.3425, -0.4877 -0.3758 0.3425, -0.4936 -0.3619 0.3425, -0.4733 -0.4033 0.3425, -0.4877 -0.4088 0.3425, -0.4864 -0.4089 0.3425, -0.4685 -0.416 0.3425, -0.4803 -0.4168 0.3425, -0.4687 -0.4184 0.3425, -0.4807 -0.4187 0.3425, -0.4766 -0.3616 0.3425, -0.4734 -0.3599 0.3425, -0.4793 -0.35 0.3425, -0.4389 -0.3714 0.3425, -0.4373 -0.3747 0.3425, -0.4264 -0.371 0.3425, -0.4362 -0.3783 0.3425, -0.4357 -0.3813 0.3425, -0.4936 -0.4117 0.3425, -0.5045 -0.4074 0.3425, -0.4945 -0.4133 0.3425, -0.495 -0.4151 0.3425, -0.4285 -0.4098 0.3425, -0.4311 -0.4106 0.3425, -0.4283 -0.4219 0.3425, -0.5055 -0.4221 0.3425, -0.5044 -0.4248 0.3425, -0.5028 -0.4274 0.3425, -0.4818 -0.4117 0.3425, -0.4809 -0.4133 0.3425, -0.4804 -0.415 0.3425, -0.442 -0.4001 0.3425, -0.4478 -0.39 0.3425, -0.4685 -0.4141 0.3425, -0.4895 -0.409 0.3425, -0.4865 -0.3968 0.3425, -0.4875 -0.3968 0.3425, -0.5032 -0.3737 0.3425, -0.5057 -0.3625 0.3425, -0.5094 -0.3637 0.3425, -0.4846 -0.4095 0.3425, -0.483 -0.4104 0.3425, -0.4816 -0.4203 0.3425, -0.4705 -0.4244 0.3425, -0.4693 -0.4215 0.3425, -0.4926 -0.4217 0.3425, -0.4911 -0.4227 0.3425, -0.4961 -0.433 0.3425, -0.4894 -0.4234 0.3425, -0.4911 -0.4096 0.3425, -0.4985 -0.4004 0.3425, -0.4926 -0.4107 0.3425, -0.5008 -0.4024 0.3425, -0.5029 -0.4047 0.3425, -0.4905 -0.3971 0.3425, -0.4934 -0.3978 0.3425, -0.4962 -0.399 0.3425, -0.4319 -0.4224 0.3425, -0.433 -0.4109 0.3425, -0.4431 -0.4224 0.3425, -0.4416 -0.4109 0.3425, -0.444 -0.4223 0.3425, -0.4753 -0.3483 0.3425, -0.4699 -0.3586 0.3425, -0.4711 -0.3471 0.3425, -0.5081 -0.4078 0.3425, -0.5113 -0.42 0.3425, -0.5077 -0.4214 0.3425, -0.5061 -0.3749 0.3425, -0.5129 -0.3654 0.3425, -0.5088 -0.3765 0.3425, -0.5162 -0.3676 0.3425, -0.5111 -0.3785 0.3425, -0.4754 -0.4012 0.3425, -0.4779 -0.3994 0.3425, -0.4806 -0.3981 0.3425, -0.4836 -0.3972 0.3425, -0.42 -0.3918 0.3425, -0.4099 -0.3856 0.3425, -0.421 -0.3893 0.3425, -0.4117 -0.3824 0.3425, -0.4225 -0.387 0.3425, -0.4138 -0.3794 0.3425, -0.4244 -0.385 0.3425, -0.4164 -0.3768 0.3425, -0.4266 -0.3834 0.3425, -0.5127 -0.4036 0.3425, -0.5207 -0.413 0.3425, -0.5105 -0.4059 0.3425, -0.5178 -0.4157 0.3425, -0.5147 -0.4181 0.3425, -0.5018 -0.3618 0.3425, -0.5002 -0.3731 0.3425, -0.4979 -0.3615 0.3425, -0.4977 -0.3729 0.3425, -0.4958 -0.3616 0.3425, -0.4948 -0.3732 0.3425, -0.4919 -0.3739 0.3425, -0.4938 -0.4203 0.3425, -0.4946 -0.4187 0.3425, -0.495 -0.417 0.3425, -0.4249 -0.4209 0.3425, -0.4216 -0.4194 0.3425, -0.4261 -0.4085 0.3425, -0.4185 -0.4174 0.3425, -0.4239 -0.4068 0.3425, -0.4157 -0.415 0.3425, -0.4231 -0.4059 0.3425, -0.4146 -0.4139 0.3425, -0.4215 -0.4038 0.3425, -0.4832 -0.3522 0.3425, -0.4852 -0.3536 0.3425, -0.4795 -0.3638 0.3425, -0.4882 -0.356 0.3425, -0.4822 -0.3663 0.3425, -0.491 -0.3588 0.3425, -0.4844 -0.3692 0.3425, -0.4863 -0.3724 0.3425, -0.4281 -0.3672 0.3425, -0.4302 -0.3636 0.3425, -0.4409 -0.3683 0.3425, -0.4327 -0.3601 0.3425, -0.4433 -0.3655 0.3425, -0.5164 -0.3953 0.3425, -0.5277 -0.4 0.3425, -0.5156 -0.3983 0.3425, -0.5265 -0.4037 0.3425, -0.5143 -0.4012 0.3425, -0.5248 -0.4073 0.3425, -0.5226 -0.4106 0.3425, -0.4842 -0.4227 0.3425, -0.4762 -0.4312 0.3425, -0.4828 -0.4217 0.3425, -0.4741 -0.4294 0.3425, -0.4721 -0.427 0.3425, -0.4932 -0.4341 0.3425, -0.4901 -0.4348 0.3425, -0.4877 -0.4236 0.3425, -0.4875 -0.435 0.3425, -0.4859 -0.4234 0.3425, -0.4196 -0.3988 0.3425, -0.4077 -0.3975 0.3425, -0.4194 -0.3961 0.3425, -0.4076 -0.3959 0.3425, -0.4195 -0.3945 0.3425, -0.4079 -0.3923 0.3425, -0.4087 -0.3889 0.3425, -0.4124 -0.4111 0.3425, -0.4105 -0.408 0.3425, -0.4203 -0.4014 0.3425, -0.4091 -0.4047 0.3425, -0.4081 -0.4012 0.3425, -0.4845 -0.4347 0.3425, -0.4816 -0.434 0.3425, -0.4788 -0.4328 0.3425, -0.4425 -0.4107 0.3425, -0.4471 -0.4204 0.3425, -0.4466 -0.421 0.3425, -0.4624 -0.3462 0.3425, -0.4623 -0.3575 0.3425, -0.4611 -0.3462 0.3425, -0.4586 -0.3578 0.3425, -0.5146 -0.3832 0.3425, -0.5262 -0.3802 0.3425, -0.5158 -0.3859 0.3425, -0.5275 -0.3839 0.3425, -0.5165 -0.3888 0.3425, -0.5283 -0.3878 0.3425, -0.5167 -0.3919 0.3425, -0.5287 -0.3915 0.3425, -0.5167 -0.3924 0.3425, -0.5287 -0.3923 0.3425, -0.5284 -0.3962 0.3425, -0.4342 -0.3813 0.3425, -0.4315 -0.3815 0.3425, -0.4257 -0.3713 0.3425, -0.4289 -0.3822 0.3425, -0.4225 -0.3726 0.3425, -0.4193 -0.3745 0.3425, -0.4486 -0.4166 0.3425, -0.4484 -0.4179 0.3425, -0.4479 -0.4192 0.3425, -0.4419 -0.4108 0.3425, -0.4453 -0.4218 0.3425, -0.4668 -0.3464 0.3425, -0.4663 -0.3578 0.3425, -0.4628 -0.3575 0.3425, -0.4441 -0.4109 0.3425, -0.4454 -0.4114 0.3425, -0.4486 -0.416 0.3425, -0.4466 -0.4122 0.3425, -0.4475 -0.4132 0.3425, -0.4482 -0.4145 0.3425, -0.5191 -0.37 0.3425, -0.5198 -0.3706 0.3425, -0.513 -0.3806 0.3425, -0.5223 -0.3736 0.3425, -0.5245 -0.3768 0.3425, -0.4427 -0.4107 0.3425, -0.4358 -0.3569 0.3425, -0.4366 -0.356 0.3425, -0.4456 -0.3634 0.3425, -0.4403 -0.3532 0.3425, -0.4486 -0.3613 0.3425, -0.4441 -0.3509 0.3425, -0.4518 -0.3597 0.3425, -0.4482 -0.3489 0.3425, -0.4552 -0.3585 0.3425, -0.4524 -0.3475 0.3425, -0.4568 -0.3466 0.3425, -0.4478 -0.39 0.3386, -0.442 -0.4001 0.3386, -0.4733 -0.4033 0.3386, -0.4685 -0.4141 0.3386, -0.4788 -0.4328 0.3386, -0.5053 -0.4093 0.3386, -0.4895 -0.409 0.3386, -0.4911 -0.4096 0.3386, -0.4945 -0.4133 0.3386, -0.495 -0.4151 0.3386, -0.5147 -0.4181 0.3386, -0.495 -0.417 0.3386, -0.5113 -0.42 0.3386, -0.4685 -0.416 0.3386, -0.4687 -0.4184 0.3386, -0.4762 -0.4312 0.3386, -0.4741 -0.4294 0.3386, -0.5105 -0.4059 0.3386, -0.5081 -0.4078 0.3386, -0.4734 -0.3599 0.3386, -0.4766 -0.3616 0.3386, -0.4832 -0.3522 0.3386, -0.4911 -0.4227 0.3386, -0.4987 -0.4314 0.3386, -0.4926 -0.4217 0.3386, -0.5008 -0.4296 0.3386, -0.4938 -0.4203 0.3386, -0.4877 -0.4236 0.3386, -0.4859 -0.4234 0.3386, -0.4845 -0.4347 0.3386, -0.4816 -0.4203 0.3386, -0.4807 -0.4187 0.3386, -0.4803 -0.4168 0.3386, -0.4804 -0.415 0.3386, -0.4863 -0.3724 0.3386, -0.4877 -0.3758 0.3386, -0.4936 -0.3619 0.3386, -0.4891 -0.375 0.3386, -0.5061 -0.3749 0.3386, -0.5094 -0.3637 0.3386, -0.5032 -0.3737 0.3386, -0.5057 -0.3625 0.3386, -0.5002 -0.3731 0.3386, -0.5018 -0.3618 0.3386, -0.4977 -0.3729 0.3386, -0.5178 -0.4157 0.3386, -0.5207 -0.413 0.3386, -0.5127 -0.4036 0.3386, -0.5226 -0.4106 0.3386, -0.5143 -0.4012 0.3386, -0.5248 -0.4073 0.3386, -0.5156 -0.3983 0.3386, -0.4926 -0.4107 0.3386, -0.4936 -0.4117 0.3386, -0.4409 -0.3683 0.3386, -0.4302 -0.3636 0.3386, -0.4389 -0.3714 0.3386, -0.4281 -0.3672 0.3386, -0.4373 -0.3747 0.3386, -0.4264 -0.371 0.3386, -0.4362 -0.3783 0.3386, -0.4852 -0.3536 0.3386, -0.4795 -0.3638 0.3386, -0.4882 -0.356 0.3386, -0.4289 -0.3822 0.3386, -0.4315 -0.3815 0.3386, -0.4693 -0.4215 0.3386, -0.4705 -0.4244 0.3386, -0.4721 -0.427 0.3386, -0.4919 -0.3739 0.3386, -0.4948 -0.3732 0.3386, -0.4958 -0.3616 0.3386, -0.4979 -0.3615 0.3386, -0.491 -0.3588 0.3386, -0.4822 -0.3663 0.3386, -0.4844 -0.3692 0.3386, -0.4203 -0.4014 0.3386, -0.4105 -0.408 0.3386, -0.4215 -0.4038 0.3386, -0.4124 -0.4111 0.3386, -0.4231 -0.4059 0.3386, -0.4146 -0.4139 0.3386, -0.4239 -0.4068 0.3386, -0.4157 -0.415 0.3386, -0.4261 -0.4085 0.3386, -0.421 -0.3893 0.3386, -0.4099 -0.3856 0.3386, -0.42 -0.3918 0.3386, -0.4087 -0.3889 0.3386, -0.4195 -0.3945 0.3386, -0.4079 -0.3923 0.3386, -0.4194 -0.3961 0.3386, -0.4342 -0.3813 0.3386, -0.4357 -0.3813 0.3386, -0.5028 -0.4274 0.3386, -0.5044 -0.4248 0.3386, -0.4946 -0.4187 0.3386, -0.5055 -0.4221 0.3386, -0.5077 -0.4214 0.3386, -0.4816 -0.434 0.3386, -0.4842 -0.4227 0.3386, -0.4828 -0.4217 0.3386, -0.4877 -0.4088 0.3386, -0.4865 -0.3968 0.3386, -0.4864 -0.4089 0.3386, -0.4836 -0.3972 0.3386, -0.4846 -0.4095 0.3386, -0.4875 -0.435 0.3386, -0.4901 -0.4348 0.3386, -0.4894 -0.4234 0.3386, -0.4932 -0.4341 0.3386, -0.4961 -0.433 0.3386, -0.4806 -0.3981 0.3386, -0.4779 -0.3994 0.3386, -0.483 -0.4104 0.3386, -0.4754 -0.4012 0.3386, -0.4818 -0.4117 0.3386, -0.4809 -0.4133 0.3386, -0.4962 -0.399 0.3386, -0.4934 -0.3978 0.3386, -0.5158 -0.3859 0.3386, -0.5262 -0.3802 0.3386, -0.5146 -0.3832 0.3386, -0.5245 -0.3768 0.3386, -0.513 -0.3806 0.3386, -0.5265 -0.4037 0.3386, -0.5277 -0.4 0.3386, -0.5164 -0.3953 0.3386, -0.5284 -0.3962 0.3386, -0.5167 -0.3924 0.3386, -0.5287 -0.3923 0.3386, -0.5167 -0.3919 0.3386, -0.5287 -0.3915 0.3386, -0.5165 -0.3888 0.3386, -0.5283 -0.3878 0.3386, -0.5275 -0.3839 0.3386, -0.4466 -0.421 0.3386, -0.4471 -0.4204 0.3386, -0.4425 -0.4107 0.3386, -0.4479 -0.4192 0.3386, -0.4076 -0.3959 0.3386, -0.4077 -0.3975 0.3386, -0.4196 -0.3988 0.3386, -0.4081 -0.4012 0.3386, -0.4091 -0.4047 0.3386, -0.4257 -0.3713 0.3386, -0.4225 -0.3726 0.3386, -0.4266 -0.3834 0.3386, -0.4193 -0.3745 0.3386, -0.4244 -0.385 0.3386, -0.4164 -0.3768 0.3386, -0.4225 -0.387 0.3386, -0.4138 -0.3794 0.3386, -0.4117 -0.3824 0.3386, -0.5029 -0.4047 0.3386, -0.5008 -0.4024 0.3386, -0.4985 -0.4004 0.3386, -0.4905 -0.3971 0.3386, -0.4875 -0.3968 0.3386, -0.5223 -0.3736 0.3386, -0.5198 -0.3706 0.3386, -0.5111 -0.3785 0.3386, -0.5191 -0.37 0.3386, -0.5088 -0.3765 0.3386, -0.5162 -0.3676 0.3386, -0.5129 -0.3654 0.3386, -0.4185 -0.4174 0.3386, -0.4216 -0.4194 0.3386, -0.4285 -0.4098 0.3386, -0.4249 -0.4209 0.3386, -0.4311 -0.4106 0.3386, -0.4283 -0.4219 0.3386, -0.433 -0.4109 0.3386, -0.4319 -0.4224 0.3386, -0.4416 -0.4109 0.3386, -0.4431 -0.4224 0.3386, -0.4419 -0.4108 0.3386, -0.444 -0.4223 0.3386, -0.4453 -0.4218 0.3386, -0.4484 -0.4179 0.3386, -0.4486 -0.4166 0.3386, -0.4486 -0.416 0.3386, -0.5045 -0.4074 0.3386, -0.4482 -0.4145 0.3386, -0.4475 -0.4132 0.3386, -0.4466 -0.4122 0.3386, -0.4454 -0.4114 0.3386, -0.4456 -0.3634 0.3386, -0.4366 -0.356 0.3386, -0.4433 -0.3655 0.3386, -0.4358 -0.3569 0.3386, -0.4327 -0.3601 0.3386, -0.4793 -0.35 0.3386, -0.4753 -0.3483 0.3386, -0.4699 -0.3586 0.3386, -0.4711 -0.3471 0.3386, -0.4663 -0.3578 0.3386, -0.4668 -0.3464 0.3386, -0.4628 -0.3575 0.3386, -0.4624 -0.3462 0.3386, -0.4623 -0.3575 0.3386, -0.4611 -0.3462 0.3386, -0.4586 -0.3578 0.3386, -0.4568 -0.3466 0.3386, -0.4552 -0.3585 0.3386, -0.4524 -0.3475 0.3386, -0.4518 -0.3597 0.3386, -0.4482 -0.3489 0.3386, -0.4486 -0.3613 0.3386, -0.4441 -0.3509 0.3386, -0.4403 -0.3532 0.3386, -0.4441 -0.4109 0.3386, -0.4427 -0.4107 0.3386
            ]
        }
        coordIndex [
            0,1,2,-1,2,1,3,-1,1,4,3,-1,3,4,5,-1,4,6,5,-1,5,6,7,-1,6,0,7,-1,7,0,2,-1,6,4,0,-1,0,4,1,-1,8,9,10,-1,10,9,11,-1,10,11,12,-1,12,11,13,-1,12,13,14,-1,14,13,15,-1,14,15,16,-1,16,15,17,-1,16,17,18,-1,18,17,19,-1,18,19,20,-1,20,19,21,-1,20,21,22,-1,22,21,23,-1,22,23,24,-1,24,23,25,-1,24,25,26,-1,26,25,27,-1,26,27,28,-1,28,27,29,-1,28,29,30,-1,30,29,31,-1,30,31,32,-1,32,31,33,-1,32,33,34,-1,34,33,35,-1,34,35,36,-1,36,35,37,-1,36,37,38,-1,38,37,39,-1,38,39,40,-1,40,39,41,-1,40,41,42,-1,42,41,43,-1,42,43,44,-1,44,43,45,-1,44,45,46,-1,46,45,47,-1,46,47,48,-1,48,47,49,-1,48,49,50,-1,50,49,51,-1,50,51,52,-1,52,51,53,-1,52,53,54,-1,54,53,55,-1,54,55,8,-1,8,55,9,-1,52,54,56,-1,56,54,8,-1,56,8,10,-1,46,48,56,-1,56,48,50,-1,56,50,52,-1,40,42,56,-1,56,42,44,-1,56,44,46,-1,34,36,56,-1,56,36,38,-1,56,38,40,-1,28,30,56,-1,56,30,32,-1,56,32,34,-1,22,24,56,-1,56,24,26,-1,56,26,28,-1,16,18,56,-1,56,18,20,-1,56,20,22,-1,10,12,56,-1,56,12,14,-1,56,14,16,-1,57,58,59,-1,59,58,60,-1,61,57,62,-1,62,57,59,-1,63,61,64,-1,64,61,62,-1,65,63,66,-1,66,63,64,-1,67,65,68,-1,68,65,66,-1,58,67,60,-1,60,67,68,-1,63,65,61,-1,61,65,67,-1,61,67,57,-1,57,67,58,-1,59,60,62,-1,62,60,68,-1,62,68,64,-1,64,68,66,-1,69,70,71,-1,69,71,72,-1,72,71,73,-1,72,73,74,-1,74,73,75,-1,74,75,76,-1,76,75,77,-1,76,77,78,-1,78,77,79,-1,78,79,80,-1,80,79,81,-1,80,81,82,-1,83,82,84,-1,84,82,81,-1,83,84,85,-1,83,85,86,-1,86,85,87,-1,86,87,88,-1,88,87,89,-1,88,89,90,-1,90,89,91,-1,90,91,92,-1,92,91,93,-1,92,93,94,-1,94,93,95,-1,94,95,96,-1,96,95,97,-1,96,97,98,-1,98,97,99,-1,98,99,100,-1,100,99,101,-1,100,101,102,-1,102,101,103,-1,102,103,104,-1,104,103,105,-1,104,105,106,-1,106,105,107,-1,106,107,108,-1,108,107,109,-1,108,109,110,-1,110,109,111,-1,110,111,112,-1,112,111,113,-1,112,113,114,-1,114,113,115,-1,114,115,116,-1,116,115,117,-1,116,117,118,-1,118,117,119,-1,118,119,120,-1,120,119,121,-1,120,121,122,-1,122,121,123,-1,122,123,124,-1,124,123,125,-1,124,125,126,-1,126,125,127,-1,126,127,128,-1,128,127,129,-1,128,129,130,-1,130,129,131,-1,130,131,132,-1,132,131,133,-1,132,133,134,-1,134,133,135,-1,134,135,136,-1,136,135,137,-1,136,137,138,-1,138,137,139,-1,138,139,140,-1,140,139,141,-1,140,141,142,-1,142,141,143,-1,142,143,144,-1,144,143,145,-1,144,145,146,-1,146,145,147,-1,146,147,148,-1,148,147,149,-1,148,149,150,-1,150,149,151,-1,150,151,152,-1,152,151,153,-1,152,153,154,-1,154,153,155,-1,154,155,156,-1,156,155,157,-1,156,157,158,-1,158,157,159,-1,158,159,160,-1,160,159,161,-1,160,161,162,-1,162,161,163,-1,162,163,164,-1,164,163,165,-1,164,165,166,-1,166,165,167,-1,166,167,168,-1,168,167,169,-1,168,169,170,-1,170,169,171,-1,170,171,172,-1,173,172,174,-1,174,172,171,-1,173,174,175,-1,173,175,176,-1,176,175,177,-1,176,177,178,-1,178,177,179,-1,178,179,180,-1,180,179,181,-1,180,181,182,-1,182,181,183,-1,182,183,184,-1,184,183,185,-1,184,185,186,-1,186,185,187,-1,186,187,188,-1,188,187,189,-1,188,189,190,-1,190,189,191,-1,190,191,192,-1,192,191,193,-1,192,193,194,-1,194,193,195,-1,194,195,196,-1,196,195,197,-1,196,197,198,-1,198,197,199,-1,198,199,200,-1,200,199,201,-1,200,201,202,-1,202,201,203,-1,202,203,204,-1,204,203,205,-1,204,205,206,-1,206,205,207,-1,206,207,208,-1,208,207,209,-1,208,209,210,-1,210,209,211,-1,210,211,212,-1,212,211,213,-1,212,213,214,-1,214,213,215,-1,214,215,216,-1,216,215,217,-1,216,217,218,-1,218,217,219,-1,218,219,220,-1,220,219,221,-1,220,221,222,-1,222,221,223,-1,222,223,224,-1,224,223,225,-1,224,225,226,-1,226,225,227,-1,226,227,228,-1,228,227,229,-1,228,229,230,-1,230,229,231,-1,230,231,232,-1,232,231,233,-1,232,233,234,-1,234,233,235,-1,234,235,236,-1,236,235,237,-1,236,237,238,-1,238,237,239,-1,238,239,240,-1,240,239,241,-1,240,241,242,-1,242,241,243,-1,242,243,244,-1,244,243,245,-1,244,245,246,-1,246,245,247,-1,246,247,248,-1,248,247,249,-1,248,249,250,-1,250,249,251,-1,250,251,252,-1,252,251,253,-1,252,253,254,-1,254,253,70,-1,254,70,69,-1,170,172,173,-1,114,234,236,-1,90,78,88,-1,88,78,80,-1,88,80,86,-1,86,80,82,-1,86,82,83,-1,114,236,112,-1,112,236,238,-1,112,238,110,-1,110,238,240,-1,110,240,108,-1,108,240,242,-1,108,242,106,-1,106,242,244,-1,106,244,104,-1,244,246,104,-1,104,246,248,-1,104,248,102,-1,102,248,250,-1,102,250,100,-1,100,250,252,-1,100,252,98,-1,98,252,254,-1,98,254,96,-1,96,254,69,-1,96,69,94,-1,94,69,72,-1,94,72,92,-1,92,72,74,-1,92,74,90,-1,90,74,76,-1,90,76,78,-1,146,200,144,-1,144,200,202,-1,144,202,142,-1,142,202,204,-1,142,204,140,-1,140,204,206,-1,140,206,138,-1,138,206,208,-1,138,208,136,-1,136,208,210,-1,136,210,134,-1,134,210,212,-1,134,212,132,-1,170,173,168,-1,168,173,176,-1,168,176,166,-1,166,176,178,-1,166,178,164,-1,164,178,180,-1,164,180,162,-1,162,180,182,-1,162,182,160,-1,160,182,184,-1,160,184,158,-1,158,184,186,-1,158,186,156,-1,156,186,188,-1,156,188,154,-1,154,188,190,-1,154,190,152,-1,152,190,192,-1,152,192,150,-1,150,192,194,-1,150,194,148,-1,148,194,196,-1,148,196,146,-1,146,196,198,-1,146,198,200,-1,234,114,232,-1,232,114,116,-1,232,116,230,-1,230,116,118,-1,230,118,228,-1,228,118,120,-1,228,120,226,-1,226,120,122,-1,226,122,224,-1,224,122,222,-1,222,122,124,-1,222,124,220,-1,212,214,132,-1,132,214,216,-1,132,216,130,-1,130,216,218,-1,130,218,128,-1,128,218,220,-1,128,220,126,-1,126,220,124,-1,85,84,81,-1,85,81,87,-1,101,247,103,-1,103,247,245,-1,103,245,105,-1,105,245,243,-1,105,243,107,-1,107,243,241,-1,107,241,109,-1,109,241,239,-1,109,239,111,-1,171,169,174,-1,174,169,167,-1,174,167,175,-1,175,167,165,-1,239,237,111,-1,111,237,235,-1,111,235,113,-1,113,235,233,-1,113,233,115,-1,115,233,231,-1,115,231,117,-1,117,231,229,-1,117,229,119,-1,81,79,87,-1,87,79,77,-1,87,77,89,-1,89,77,75,-1,89,75,91,-1,91,75,73,-1,91,73,93,-1,93,73,71,-1,93,71,95,-1,95,71,70,-1,95,70,97,-1,97,70,253,-1,97,253,99,-1,99,253,251,-1,99,251,101,-1,101,251,249,-1,101,249,247,-1,139,203,141,-1,141,203,201,-1,141,201,143,-1,143,201,199,-1,143,199,145,-1,145,199,197,-1,145,197,147,-1,147,197,195,-1,147,195,149,-1,149,195,193,-1,149,193,151,-1,151,193,191,-1,151,191,153,-1,153,191,189,-1,153,189,155,-1,155,189,187,-1,155,187,157,-1,157,187,185,-1,157,185,159,-1,159,185,183,-1,159,183,161,-1,161,183,181,-1,161,181,163,-1,163,181,179,-1,163,179,165,-1,165,179,177,-1,165,177,175,-1,219,217,129,-1,129,217,215,-1,129,215,131,-1,131,215,213,-1,131,213,133,-1,133,213,211,-1,133,211,135,-1,135,211,209,-1,135,209,137,-1,137,209,207,-1,137,207,139,-1,139,207,205,-1,139,205,203,-1,229,227,119,-1,119,227,225,-1,119,225,121,-1,121,225,223,-1,121,223,123,-1,123,223,221,-1,123,221,125,-1,125,221,219,-1,125,219,127,-1,127,219,129,-1,255,256,257,-1,257,256,258,-1,259,255,260,-1,260,255,257,-1,261,259,262,-1,262,259,260,-1,263,261,264,-1,264,261,262,-1,265,263,266,-1,266,263,264,-1,267,265,268,-1,268,265,266,-1,269,267,270,-1,270,267,268,-1,271,269,272,-1,272,269,270,-1,273,271,274,-1,274,271,272,-1,275,273,276,-1,276,273,274,-1,277,275,278,-1,278,275,276,-1,256,277,258,-1,258,277,278,-1,277,256,255,-1,255,259,277,-1,277,259,261,-1,277,261,275,-1,271,273,269,-1,269,273,275,-1,269,275,267,-1,267,275,261,-1,267,261,265,-1,265,261,263,-1,276,274,272,-1,272,270,276,-1,276,270,268,-1,276,268,278,-1,257,258,260,-1,260,258,278,-1,260,278,262,-1,262,278,268,-1,262,268,264,-1,264,268,266,-1,279,280,281,-1,281,280,282,-1,281,282,283,-1,283,282,284,-1,283,284,285,-1,285,284,286,-1,285,286,287,-1,287,286,288,-1,287,288,289,-1,289,288,290,-1,289,290,291,-1,291,290,292,-1,291,292,293,-1,293,292,294,-1,293,294,295,-1,296,297,298,-1,298,297,299,-1,298,299,300,-1,300,299,301,-1,300,301,302,-1,302,301,303,-1,302,303,304,-1,294,305,295,-1,295,305,306,-1,295,306,307,-1,307,306,308,-1,307,308,309,-1,309,308,310,-1,309,310,311,-1,311,310,312,-1,311,312,313,-1,313,312,314,-1,313,314,315,-1,315,314,316,-1,315,316,296,-1,296,316,317,-1,296,317,297,-1,303,318,304,-1,304,318,319,-1,304,319,320,-1,320,319,321,-1,320,321,322,-1,322,321,323,-1,322,323,324,-1,324,323,325,-1,324,325,326,-1,326,325,327,-1,326,327,328,-1,328,327,329,-1,328,329,330,-1,330,329,331,-1,330,331,332,-1,332,331,333,-1,332,333,334,-1,334,333,335,-1,334,335,336,-1,336,335,337,-1,336,337,338,-1,338,337,339,-1,338,339,340,-1,340,339,341,-1,340,341,342,-1,342,341,343,-1,342,343,344,-1,344,343,345,-1,344,345,346,-1,346,345,347,-1,346,347,348,-1,348,347,349,-1,348,349,350,-1,350,349,351,-1,350,351,279,-1,279,351,352,-1,279,352,280,-1,353,354,355,-1,355,354,356,-1,355,356,357,-1,357,356,358,-1,357,358,359,-1,359,358,360,-1,359,360,361,-1,361,360,362,-1,361,362,363,-1,363,362,364,-1,363,364,365,-1,366,367,368,-1,368,367,369,-1,368,369,370,-1,370,369,371,-1,370,371,372,-1,372,371,373,-1,372,373,374,-1,374,373,375,-1,374,375,376,-1,376,375,377,-1,376,377,378,-1,378,377,379,-1,378,379,380,-1,380,379,381,-1,380,381,382,-1,382,381,383,-1,382,383,384,-1,384,383,385,-1,384,385,386,-1,386,385,387,-1,386,387,388,-1,388,387,389,-1,388,389,390,-1,390,389,391,-1,390,391,392,-1,392,391,393,-1,392,393,394,-1,394,393,395,-1,394,395,353,-1,353,395,396,-1,353,396,354,-1,397,398,399,-1,399,398,400,-1,399,400,401,-1,401,400,402,-1,401,402,403,-1,403,402,404,-1,403,404,405,-1,405,404,406,-1,405,406,407,-1,407,406,408,-1,407,408,409,-1,409,408,410,-1,409,410,411,-1,411,410,412,-1,411,412,366,-1,366,412,413,-1,366,413,367,-1,364,414,365,-1,365,414,415,-1,365,415,416,-1,416,415,417,-1,416,417,418,-1,418,417,419,-1,418,419,420,-1,420,419,421,-1,420,421,422,-1,422,421,423,-1,422,423,424,-1,424,423,425,-1,424,425,397,-1,397,425,426,-1,397,426,398,-1,345,343,377,-1,377,343,379,-1,345,377,375,-1,345,375,347,-1,347,375,373,-1,347,373,349,-1,349,373,371,-1,349,371,351,-1,351,371,369,-1,351,369,352,-1,352,369,367,-1,352,367,280,-1,280,367,413,-1,280,413,282,-1,282,413,412,-1,282,412,284,-1,284,412,410,-1,284,410,286,-1,286,410,408,-1,286,408,288,-1,288,408,406,-1,288,406,290,-1,290,406,404,-1,290,404,292,-1,292,404,402,-1,292,402,294,-1,294,402,400,-1,294,400,305,-1,305,400,398,-1,305,398,306,-1,306,398,426,-1,306,426,308,-1,308,426,425,-1,308,425,310,-1,310,425,423,-1,310,423,312,-1,312,423,421,-1,312,421,314,-1,314,421,419,-1,314,419,316,-1,316,419,417,-1,316,417,317,-1,317,417,415,-1,317,415,297,-1,297,415,414,-1,297,414,299,-1,299,414,364,-1,299,364,301,-1,301,364,362,-1,301,362,303,-1,303,362,360,-1,303,360,318,-1,318,360,358,-1,318,358,319,-1,319,358,356,-1,319,356,321,-1,321,356,354,-1,321,354,323,-1,323,354,396,-1,323,396,325,-1,325,396,395,-1,325,395,327,-1,327,395,393,-1,327,393,329,-1,329,393,391,-1,329,391,331,-1,331,391,389,-1,331,389,333,-1,333,389,387,-1,333,387,335,-1,335,387,385,-1,335,385,337,-1,337,385,383,-1,337,383,339,-1,341,339,381,-1,381,339,383,-1,343,341,379,-1,379,341,381,-1,338,340,382,-1,382,340,380,-1,340,342,380,-1,380,342,378,-1,342,344,378,-1,378,344,376,-1,287,407,409,-1,287,409,285,-1,285,409,411,-1,285,411,283,-1,283,411,366,-1,283,366,281,-1,281,366,368,-1,281,368,279,-1,279,368,370,-1,279,370,350,-1,350,370,372,-1,350,372,348,-1,348,372,374,-1,348,374,346,-1,346,374,376,-1,346,376,344,-1,313,420,422,-1,313,422,311,-1,311,422,424,-1,311,424,309,-1,309,424,397,-1,309,397,307,-1,307,397,399,-1,307,399,295,-1,295,399,401,-1,295,401,293,-1,293,401,403,-1,293,403,291,-1,291,403,405,-1,291,405,289,-1,289,405,407,-1,289,407,287,-1,322,355,357,-1,322,357,320,-1,320,357,359,-1,320,359,304,-1,304,359,361,-1,304,361,302,-1,302,361,363,-1,302,363,300,-1,300,363,365,-1,300,365,298,-1,298,365,416,-1,298,416,296,-1,296,416,418,-1,296,418,315,-1,315,418,420,-1,315,420,313,-1,338,382,384,-1,338,384,336,-1,336,384,386,-1,336,386,334,-1,334,386,388,-1,334,388,332,-1,332,388,390,-1,332,390,330,-1,330,390,392,-1,330,392,328,-1,328,392,394,-1,328,394,326,-1,326,394,353,-1,326,353,324,-1,324,353,355,-1,324,355,322,-1,427,428,429,-1,429,428,430,-1,431,432,427,-1,427,432,433,-1,427,433,428,-1,428,433,434,-1,431,435,432,-1,432,435,436,-1,432,436,437,-1,437,436,438,-1,437,438,439,-1,439,440,437,-1,437,440,429,-1,437,429,441,-1,441,429,430,-1,441,430,442,-1,443,444,445,-1,445,444,446,-1,447,448,446,-1,446,448,449,-1,446,449,445,-1,445,449,450,-1,447,451,448,-1,448,451,452,-1,448,452,453,-1,453,452,454,-1,453,454,455,-1,455,456,453,-1,453,456,444,-1,453,444,457,-1,457,444,443,-1,457,443,458,-1,437,441,448,-1,448,441,449,-1,432,437,453,-1,453,437,448,-1,433,432,457,-1,457,432,453,-1,434,433,458,-1,458,433,457,-1,428,434,443,-1,443,434,458,-1,430,428,445,-1,445,428,443,-1,442,430,450,-1,450,430,445,-1,441,442,449,-1,449,442,450,-1,427,429,444,-1,444,429,446,-1,429,440,446,-1,446,440,447,-1,438,452,451,-1,438,451,439,-1,439,451,447,-1,439,447,440,-1,438,436,452,-1,452,436,454,-1,431,456,455,-1,431,455,435,-1,435,455,454,-1,435,454,436,-1,431,427,456,-1,456,427,444,-1,459,460,461,-1,461,460,462,-1,463,459,464,-1,464,459,461,-1,465,463,466,-1,466,463,464,-1,467,465,468,-1,468,465,466,-1,469,467,470,-1,470,467,468,-1,471,469,472,-1,472,469,470,-1,473,471,474,-1,474,471,472,-1,475,473,476,-1,476,473,474,-1,477,475,478,-1,478,475,476,-1,479,477,480,-1,480,477,478,-1,481,479,482,-1,482,479,480,-1,460,481,462,-1,462,481,482,-1,481,460,459,-1,459,463,481,-1,481,463,465,-1,481,465,479,-1,475,477,473,-1,473,477,479,-1,473,479,471,-1,471,479,465,-1,471,465,469,-1,469,465,467,-1,480,478,476,-1,476,474,480,-1,480,474,472,-1,480,472,482,-1,461,462,464,-1,464,462,482,-1,464,482,466,-1,466,482,472,-1,466,472,468,-1,468,472,470,-1,483,484,485,-1,485,484,486,-1,487,488,489,-1,489,488,490,-1,489,490,491,-1,491,490,492,-1,491,492,493,-1,494,495,496,-1,497,498,499,-1,500,501,487,-1,487,501,502,-1,487,502,488,-1,494,503,495,-1,495,503,504,-1,495,504,505,-1,505,504,506,-1,505,506,507,-1,483,485,508,-1,508,485,509,-1,508,509,510,-1,511,512,513,-1,513,512,499,-1,513,499,514,-1,514,499,498,-1,515,516,517,-1,518,519,520,-1,520,519,521,-1,520,521,516,-1,516,521,522,-1,516,522,517,-1,510,523,508,-1,508,523,524,-1,508,524,525,-1,525,524,526,-1,525,526,496,-1,496,526,527,-1,496,527,494,-1,528,529,530,-1,530,529,531,-1,530,531,532,-1,532,531,533,-1,532,533,500,-1,500,533,534,-1,500,534,501,-1,535,536,499,-1,499,536,537,-1,499,537,497,-1,538,535,528,-1,528,535,539,-1,528,539,529,-1,486,536,485,-1,485,536,535,-1,485,535,540,-1,540,535,538,-1,541,542,543,-1,543,542,544,-1,543,544,545,-1,545,544,546,-1,545,546,547,-1,517,548,515,-1,515,548,549,-1,515,549,541,-1,541,549,550,-1,541,550,542,-1,506,551,507,-1,507,551,552,-1,507,552,553,-1,553,552,554,-1,553,554,555,-1,492,556,493,-1,493,556,557,-1,493,557,558,-1,558,557,559,-1,558,559,560,-1,560,559,561,-1,560,561,562,-1,562,561,563,-1,562,563,564,-1,564,563,565,-1,564,565,566,-1,566,565,567,-1,566,567,568,-1,568,567,569,-1,568,569,570,-1,570,569,571,-1,570,571,572,-1,572,571,573,-1,572,573,574,-1,574,573,575,-1,574,575,576,-1,554,577,555,-1,555,577,578,-1,555,578,518,-1,518,578,579,-1,518,579,519,-1,514,580,513,-1,513,580,581,-1,513,581,582,-1,582,581,583,-1,582,583,584,-1,585,586,587,-1,587,586,588,-1,587,588,589,-1,589,588,590,-1,589,590,591,-1,590,592,591,-1,591,592,593,-1,591,593,594,-1,594,593,595,-1,594,595,596,-1,596,595,584,-1,596,584,597,-1,597,584,583,-1,546,598,547,-1,547,598,599,-1,547,599,600,-1,600,599,601,-1,600,601,602,-1,602,601,603,-1,602,603,585,-1,585,603,604,-1,585,604,586,-1,605,606,607,-1,608,609,610,-1,611,612,613,-1,613,612,614,-1,613,614,615,-1,616,617,618,-1,619,620,621,-1,622,623,611,-1,611,623,624,-1,611,624,612,-1,625,626,627,-1,627,626,628,-1,627,628,622,-1,622,628,629,-1,622,629,623,-1,630,631,617,-1,617,631,632,-1,617,632,618,-1,608,633,609,-1,609,633,634,-1,609,634,635,-1,635,634,636,-1,635,636,637,-1,637,636,638,-1,637,638,639,-1,640,641,642,-1,642,641,643,-1,642,643,644,-1,644,643,645,-1,644,645,610,-1,610,645,646,-1,610,646,608,-1,647,619,648,-1,648,619,621,-1,648,621,649,-1,649,621,650,-1,618,651,616,-1,616,651,652,-1,616,652,653,-1,653,652,654,-1,653,654,655,-1,655,654,656,-1,655,656,657,-1,657,656,658,-1,657,658,659,-1,659,658,660,-1,661,662,625,-1,625,662,663,-1,625,663,626,-1,664,665,661,-1,661,665,666,-1,661,666,662,-1,614,667,615,-1,615,667,668,-1,615,668,669,-1,669,668,670,-1,669,670,630,-1,630,670,671,-1,630,671,631,-1,672,673,674,-1,674,673,621,-1,674,621,675,-1,675,621,620,-1,638,676,639,-1,639,676,677,-1,639,677,678,-1,678,677,679,-1,678,679,680,-1,680,679,673,-1,680,673,681,-1,681,673,682,-1,682,673,672,-1,682,672,660,-1,660,672,683,-1,660,683,659,-1,605,607,684,-1,684,607,685,-1,684,685,686,-1,686,685,687,-1,686,687,688,-1,688,687,689,-1,688,689,690,-1,690,689,691,-1,690,691,692,-1,692,691,693,-1,692,693,694,-1,694,693,695,-1,694,695,696,-1,696,695,697,-1,696,697,640,-1,640,697,698,-1,640,698,641,-1,699,700,701,-1,701,700,702,-1,701,702,703,-1,703,702,704,-1,703,704,705,-1,705,704,706,-1,705,706,707,-1,708,709,710,-1,710,709,711,-1,710,711,712,-1,712,711,713,-1,712,713,664,-1,664,713,714,-1,664,714,665,-1,706,715,707,-1,707,715,716,-1,707,716,717,-1,717,716,718,-1,717,718,719,-1,719,718,720,-1,719,720,708,-1,708,720,721,-1,708,721,709,-1,701,722,699,-1,699,722,723,-1,699,723,724,-1,724,723,725,-1,724,725,648,-1,648,725,726,-1,648,726,647,-1,561,697,695,-1,561,695,563,-1,563,695,693,-1,563,693,565,-1,565,693,691,-1,565,691,567,-1,567,691,689,-1,567,689,569,-1,569,689,687,-1,569,687,571,-1,571,687,685,-1,571,685,573,-1,573,685,607,-1,573,607,575,-1,576,575,606,-1,606,575,607,-1,576,606,605,-1,576,605,574,-1,574,605,684,-1,574,684,572,-1,572,684,686,-1,572,686,570,-1,570,686,688,-1,570,688,568,-1,568,688,690,-1,568,690,566,-1,566,690,692,-1,566,692,564,-1,564,692,694,-1,564,694,562,-1,562,694,696,-1,562,696,560,-1,560,696,640,-1,560,640,558,-1,558,640,642,-1,558,642,493,-1,493,642,644,-1,493,644,491,-1,491,644,610,-1,491,610,489,-1,489,610,609,-1,489,609,487,-1,487,609,635,-1,487,635,500,-1,500,635,637,-1,500,637,532,-1,532,637,639,-1,532,639,530,-1,530,639,678,-1,530,678,528,-1,528,678,680,-1,528,680,538,-1,538,680,681,-1,538,681,540,-1,540,681,682,-1,540,682,485,-1,509,485,660,-1,660,485,682,-1,509,660,658,-1,509,658,510,-1,510,658,656,-1,510,656,523,-1,523,656,654,-1,523,654,524,-1,524,654,652,-1,524,652,526,-1,526,652,651,-1,526,651,527,-1,527,651,618,-1,527,618,494,-1,494,618,632,-1,494,632,503,-1,503,632,631,-1,503,631,504,-1,504,631,671,-1,504,671,506,-1,506,671,670,-1,506,670,551,-1,551,670,668,-1,551,668,552,-1,552,668,667,-1,552,667,554,-1,554,667,614,-1,554,614,577,-1,577,614,612,-1,577,612,578,-1,578,612,624,-1,578,624,579,-1,579,624,623,-1,579,623,519,-1,519,623,629,-1,519,629,521,-1,521,629,628,-1,521,628,522,-1,522,628,626,-1,522,626,517,-1,517,626,663,-1,517,663,548,-1,548,663,662,-1,548,662,549,-1,549,662,666,-1,549,666,550,-1,550,666,665,-1,550,665,542,-1,542,665,714,-1,542,714,544,-1,544,714,713,-1,544,713,546,-1,546,713,711,-1,546,711,598,-1,598,711,709,-1,598,709,599,-1,599,709,721,-1,599,721,601,-1,601,721,720,-1,601,720,603,-1,603,720,718,-1,603,718,604,-1,604,718,716,-1,604,716,586,-1,586,716,715,-1,586,715,588,-1,588,715,706,-1,588,706,590,-1,590,706,704,-1,590,704,592,-1,592,704,702,-1,592,702,593,-1,593,702,700,-1,593,700,595,-1,595,700,699,-1,595,699,584,-1,584,699,724,-1,584,724,582,-1,513,582,648,-1,648,582,724,-1,511,513,649,-1,649,513,648,-1,512,511,650,-1,650,511,649,-1,499,512,621,-1,621,512,650,-1,499,621,673,-1,499,673,535,-1,535,673,679,-1,535,679,539,-1,539,679,677,-1,539,677,529,-1,529,677,676,-1,529,676,531,-1,531,676,638,-1,531,638,533,-1,533,638,636,-1,533,636,534,-1,534,636,634,-1,534,634,501,-1,501,634,633,-1,501,633,502,-1,502,633,608,-1,502,608,488,-1,488,608,646,-1,488,646,490,-1,490,646,645,-1,490,645,492,-1,492,645,643,-1,492,643,556,-1,556,643,641,-1,556,641,557,-1,557,641,698,-1,557,698,559,-1,559,698,697,-1,559,697,561,-1,496,616,653,-1,496,653,525,-1,525,653,655,-1,525,655,508,-1,508,655,657,-1,508,657,483,-1,483,657,659,-1,483,659,484,-1,484,659,683,-1,484,683,486,-1,555,613,615,-1,555,615,553,-1,553,615,669,-1,553,669,507,-1,507,669,630,-1,507,630,505,-1,505,630,617,-1,505,617,495,-1,495,617,616,-1,495,616,496,-1,541,661,625,-1,541,625,515,-1,515,625,627,-1,515,627,516,-1,516,627,622,-1,516,622,520,-1,520,622,611,-1,520,611,518,-1,518,611,613,-1,518,613,555,-1,602,719,708,-1,602,708,600,-1,600,708,710,-1,600,710,547,-1,547,710,712,-1,547,712,545,-1,545,712,664,-1,545,664,543,-1,543,664,661,-1,543,661,541,-1,597,723,722,-1,597,722,596,-1,596,722,701,-1,596,701,594,-1,594,701,703,-1,594,703,591,-1,591,703,705,-1,591,705,589,-1,589,705,707,-1,589,707,587,-1,587,707,717,-1,587,717,585,-1,585,717,719,-1,585,719,602,-1,537,674,675,-1,537,675,497,-1,497,675,620,-1,497,620,498,-1,498,620,619,-1,498,619,514,-1,514,619,647,-1,514,647,580,-1,580,647,726,-1,580,726,581,-1,581,726,725,-1,581,725,583,-1,583,725,723,-1,583,723,597,-1,537,536,674,-1,674,536,672,-1,536,486,672,-1,672,486,683,-1,727,728,729,-1,727,729,730,-1,730,729,731,-1,730,731,732,-1,732,731,733,-1,732,733,734,-1,734,733,735,-1,734,735,736,-1,736,735,737,-1,736,737,738,-1,738,737,739,-1,738,739,740,-1,740,739,741,-1,740,741,742,-1,743,742,744,-1,744,742,741,-1,743,744,745,-1,743,745,746,-1,746,745,747,-1,746,747,748,-1,748,747,749,-1,748,749,750,-1,750,749,751,-1,750,751,752,-1,752,751,753,-1,752,753,754,-1,754,753,755,-1,754,755,756,-1,756,755,757,-1,756,757,758,-1,758,757,759,-1,758,759,760,-1,760,759,761,-1,760,761,762,-1,762,761,763,-1,762,763,764,-1,764,763,765,-1,764,765,766,-1,766,765,767,-1,766,767,768,-1,768,767,769,-1,768,769,770,-1,770,769,771,-1,770,771,772,-1,772,771,773,-1,772,773,774,-1,774,773,775,-1,774,775,776,-1,776,775,777,-1,776,777,778,-1,778,777,779,-1,778,779,780,-1,780,779,781,-1,780,781,782,-1,782,781,783,-1,782,783,784,-1,784,783,785,-1,784,785,786,-1,786,785,787,-1,786,787,788,-1,788,787,789,-1,788,789,790,-1,790,789,791,-1,790,791,792,-1,792,791,793,-1,792,793,794,-1,794,793,795,-1,794,795,796,-1,796,795,797,-1,796,797,798,-1,798,797,799,-1,798,799,800,-1,800,799,801,-1,800,801,802,-1,802,801,803,-1,802,803,804,-1,804,803,805,-1,804,805,806,-1,806,805,807,-1,806,807,808,-1,808,807,809,-1,808,809,810,-1,810,809,811,-1,810,811,812,-1,812,811,813,-1,812,813,814,-1,814,813,815,-1,814,815,816,-1,816,815,817,-1,816,817,818,-1,818,817,819,-1,818,819,820,-1,820,819,821,-1,820,821,822,-1,822,821,823,-1,822,823,824,-1,824,823,825,-1,824,825,826,-1,826,825,827,-1,826,827,828,-1,828,827,829,-1,828,829,830,-1,830,829,831,-1,830,831,832,-1,832,831,833,-1,832,833,834,-1,834,833,835,-1,834,835,836,-1,836,835,837,-1,836,837,838,-1,838,837,839,-1,838,839,840,-1,840,839,841,-1,840,841,842,-1,842,841,843,-1,842,843,844,-1,844,843,845,-1,844,845,846,-1,846,845,847,-1,846,847,848,-1,848,847,849,-1,848,849,850,-1,850,849,851,-1,850,851,852,-1,852,851,853,-1,852,853,854,-1,854,853,855,-1,854,855,856,-1,856,855,857,-1,856,857,858,-1,858,857,859,-1,858,859,860,-1,860,859,861,-1,860,861,862,-1,863,862,864,-1,864,862,861,-1,863,864,865,-1,863,865,866,-1,866,865,867,-1,866,867,868,-1,868,867,869,-1,868,869,870,-1,870,869,871,-1,870,871,872,-1,872,871,873,-1,872,873,874,-1,874,873,875,-1,874,875,876,-1,876,875,877,-1,876,877,878,-1,878,877,879,-1,878,879,880,-1,880,879,881,-1,880,881,882,-1,882,881,883,-1,882,883,884,-1,884,883,885,-1,884,885,886,-1,886,885,887,-1,886,887,888,-1,888,887,889,-1,888,889,890,-1,890,889,891,-1,890,891,892,-1,892,891,893,-1,892,893,894,-1,894,893,895,-1,894,895,896,-1,896,895,897,-1,896,897,898,-1,898,897,899,-1,898,899,900,-1,900,899,901,-1,900,901,902,-1,902,901,903,-1,902,903,904,-1,904,903,905,-1,904,905,906,-1,906,905,907,-1,906,907,908,-1,908,907,909,-1,908,909,910,-1,910,909,911,-1,910,911,912,-1,912,911,913,-1,912,913,914,-1,914,913,915,-1,914,915,916,-1,916,915,917,-1,916,917,918,-1,918,917,919,-1,918,919,920,-1,920,919,921,-1,920,921,922,-1,922,921,923,-1,922,923,924,-1,924,923,925,-1,924,925,926,-1,926,925,927,-1,926,927,928,-1,928,927,929,-1,928,929,930,-1,930,929,931,-1,930,931,932,-1,932,931,933,-1,932,933,934,-1,934,933,935,-1,934,935,936,-1,936,935,937,-1,936,937,938,-1,938,937,939,-1,938,939,940,-1,940,939,941,-1,940,941,942,-1,942,941,943,-1,942,943,944,-1,944,943,945,-1,944,945,946,-1,946,945,947,-1,946,947,948,-1,948,947,949,-1,948,949,950,-1,950,949,951,-1,950,951,952,-1,952,951,953,-1,952,953,954,-1,954,953,955,-1,954,955,956,-1,956,955,957,-1,956,957,958,-1,958,957,959,-1,958,959,960,-1,960,959,961,-1,960,961,962,-1,962,961,728,-1,962,728,727,-1,740,742,743,-1,860,862,863,-1,770,772,952,-1,952,772,950,-1,772,774,950,-1,950,774,776,-1,950,776,948,-1,948,776,778,-1,948,778,946,-1,834,894,832,-1,832,894,896,-1,832,896,830,-1,836,890,834,-1,834,890,892,-1,834,892,894,-1,794,938,792,-1,792,938,940,-1,910,822,824,-1,770,952,768,-1,768,952,954,-1,768,954,766,-1,766,954,956,-1,766,956,764,-1,764,956,958,-1,764,958,762,-1,762,958,960,-1,762,960,760,-1,896,898,830,-1,830,898,900,-1,830,900,828,-1,910,912,822,-1,822,912,914,-1,822,914,820,-1,820,914,916,-1,820,916,818,-1,818,916,918,-1,818,918,816,-1,816,918,920,-1,816,920,814,-1,944,786,942,-1,942,786,788,-1,942,788,940,-1,940,788,790,-1,940,790,792,-1,778,780,946,-1,946,780,782,-1,946,782,944,-1,944,782,784,-1,944,784,786,-1,900,902,828,-1,828,902,904,-1,828,904,826,-1,826,904,906,-1,826,906,824,-1,824,906,908,-1,824,908,910,-1,794,796,938,-1,938,796,798,-1,938,798,936,-1,936,798,800,-1,936,800,934,-1,934,800,802,-1,934,802,932,-1,932,802,804,-1,932,804,930,-1,930,804,806,-1,930,806,928,-1,760,960,758,-1,758,960,962,-1,758,962,756,-1,756,962,727,-1,756,727,754,-1,754,727,730,-1,754,730,752,-1,752,730,732,-1,752,732,750,-1,750,732,734,-1,750,734,748,-1,748,734,736,-1,748,736,746,-1,746,736,743,-1,743,736,738,-1,743,738,740,-1,920,922,814,-1,814,922,924,-1,814,924,812,-1,812,924,926,-1,812,926,810,-1,810,926,928,-1,810,928,808,-1,808,928,806,-1,860,863,858,-1,858,863,866,-1,858,866,856,-1,856,866,868,-1,856,868,854,-1,854,868,870,-1,854,870,852,-1,852,870,872,-1,852,872,850,-1,850,872,874,-1,850,874,848,-1,848,874,876,-1,848,876,846,-1,846,876,878,-1,846,878,844,-1,844,878,880,-1,844,880,842,-1,842,880,882,-1,842,882,840,-1,840,882,884,-1,840,884,838,-1,838,884,886,-1,838,886,836,-1,836,886,888,-1,836,888,890,-1,949,771,951,-1,951,771,769,-1,951,769,953,-1,953,769,767,-1,953,767,955,-1,955,767,765,-1,955,765,957,-1,913,821,819,-1,947,775,949,-1,949,775,773,-1,949,773,771,-1,941,939,789,-1,833,831,893,-1,789,939,791,-1,791,939,937,-1,791,937,793,-1,935,797,937,-1,937,797,795,-1,937,795,793,-1,913,911,821,-1,821,911,909,-1,821,909,823,-1,823,909,907,-1,823,907,825,-1,827,899,829,-1,829,899,897,-1,829,897,831,-1,831,897,895,-1,831,895,893,-1,907,905,825,-1,825,905,903,-1,825,903,827,-1,827,903,901,-1,827,901,899,-1,943,781,945,-1,945,781,779,-1,945,779,947,-1,947,779,777,-1,947,777,775,-1,789,787,941,-1,941,787,785,-1,941,785,943,-1,943,785,783,-1,943,783,781,-1,765,763,957,-1,957,763,761,-1,957,761,959,-1,959,761,759,-1,959,759,961,-1,961,759,757,-1,961,757,728,-1,728,757,755,-1,728,755,729,-1,729,755,753,-1,729,753,731,-1,731,753,751,-1,731,751,733,-1,861,859,864,-1,864,859,857,-1,864,857,865,-1,865,857,855,-1,751,749,733,-1,733,749,747,-1,733,747,735,-1,735,747,745,-1,735,745,737,-1,737,745,744,-1,737,744,739,-1,739,744,741,-1,927,925,811,-1,811,925,923,-1,811,923,813,-1,813,923,921,-1,813,921,815,-1,815,921,919,-1,815,919,817,-1,817,919,917,-1,817,917,819,-1,819,917,915,-1,819,915,913,-1,893,891,833,-1,833,891,889,-1,833,889,835,-1,835,889,887,-1,835,887,837,-1,837,887,885,-1,837,885,839,-1,839,885,883,-1,839,883,841,-1,841,883,881,-1,841,881,843,-1,843,881,879,-1,843,879,845,-1,845,879,877,-1,845,877,847,-1,847,877,875,-1,847,875,849,-1,849,875,873,-1,849,873,851,-1,851,873,871,-1,851,871,853,-1,853,871,869,-1,853,869,855,-1,855,869,867,-1,855,867,865,-1,811,809,927,-1,927,809,807,-1,927,807,929,-1,929,807,805,-1,929,805,931,-1,931,805,803,-1,931,803,933,-1,933,803,801,-1,933,801,935,-1,935,801,799,-1,935,799,797,-1,963,964,965,-1,965,964,966,-1,967,963,968,-1,968,963,965,-1,967,968,969,-1,967,969,970,-1,970,969,971,-1,970,971,972,-1,973,972,974,-1,974,972,971,-1,975,973,976,-1,976,973,974,-1,977,975,978,-1,978,975,976,-1,979,977,980,-1,980,977,978,-1,981,979,982,-1,982,979,980,-1,983,981,984,-1,984,981,982,-1,983,984,985,-1,983,985,986,-1,986,985,987,-1,986,987,988,-1,988,987,989,-1,988,989,990,-1,990,989,991,-1,990,991,992,-1,992,991,993,-1,992,993,994,-1,994,993,995,-1,994,995,996,-1,996,995,997,-1,996,997,998,-1,998,997,999,-1,998,999,1000,-1,1000,999,1001,-1,1000,1001,1002,-1,1002,1001,1003,-1,1002,1003,1004,-1,1005,1004,1006,-1,1006,1004,1003,-1,1005,1006,1007,-1,1005,1007,1008,-1,1008,1007,1009,-1,1008,1009,1010,-1,1010,1009,1011,-1,1010,1011,1012,-1,1012,1011,1013,-1,1012,1013,1014,-1,1014,1013,1015,-1,1014,1015,1016,-1,1016,1015,1017,-1,1016,1017,1018,-1,1018,1017,1019,-1,1018,1019,1020,-1,1020,1019,1021,-1,1020,1021,1022,-1,1022,1021,1023,-1,1022,1023,1024,-1,1024,1023,1025,-1,1024,1025,1026,-1,1026,1025,1027,-1,1026,1027,1028,-1,1028,1027,1029,-1,1028,1029,1030,-1,1030,1029,1031,-1,1030,1031,1032,-1,1032,1031,1033,-1,1032,1033,1034,-1,964,1034,966,-1,966,1034,1033,-1,970,972,1034,-1,964,963,1034,-1,1034,963,967,-1,1034,967,970,-1,977,979,975,-1,975,979,981,-1,975,981,973,-1,988,990,1022,-1,1022,990,1020,-1,1020,990,992,-1,1020,992,1018,-1,1018,992,994,-1,1018,994,1016,-1,1016,994,1014,-1,1014,994,996,-1,1014,996,1012,-1,1012,996,998,-1,1012,998,1010,-1,1022,1024,988,-1,988,1024,1026,-1,988,1026,986,-1,986,1026,1028,-1,986,1028,983,-1,1010,998,1008,-1,1008,998,1000,-1,1008,1000,1005,-1,1005,1000,1002,-1,1005,1002,1004,-1,1028,1030,983,-1,983,1030,1032,-1,983,1032,981,-1,981,1032,1034,-1,981,1034,973,-1,973,1034,972,-1,995,993,1015,-1,982,980,978,-1,965,966,968,-1,968,966,1033,-1,1015,993,1017,-1,1017,993,991,-1,1017,991,1019,-1,1015,1013,995,-1,995,1013,1011,-1,995,1011,997,-1,997,1011,1009,-1,997,1009,999,-1,999,1009,1007,-1,999,1007,1001,-1,1001,1007,1006,-1,1001,1006,1003,-1,1019,991,1021,-1,1021,991,989,-1,1021,989,1023,-1,1023,989,987,-1,1023,987,1025,-1,1025,987,985,-1,1025,985,1027,-1,1027,985,1029,-1,1029,985,984,-1,1029,984,1031,-1,974,971,1033,-1,1033,971,969,-1,1033,969,968,-1,978,976,982,-1,982,976,974,-1,982,974,984,-1,984,974,1033,-1,984,1033,1031,-1,1035,1036,1037,-1,1037,1036,1038,-1,1039,1035,1040,-1,1040,1035,1037,-1,1041,1039,1042,-1,1042,1039,1040,-1,1043,1041,1044,-1,1044,1041,1042,-1,1045,1043,1046,-1,1046,1043,1044,-1,1047,1045,1048,-1,1048,1045,1046,-1,1049,1047,1050,-1,1050,1047,1048,-1,1051,1049,1052,-1,1052,1049,1050,-1,1053,1051,1054,-1,1054,1051,1052,-1,1055,1053,1056,-1,1056,1053,1054,-1,1057,1055,1058,-1,1058,1055,1056,-1,1036,1057,1038,-1,1038,1057,1058,-1,1057,1036,1035,-1,1035,1039,1057,-1,1057,1039,1041,-1,1057,1041,1055,-1,1051,1053,1049,-1,1049,1053,1055,-1,1049,1055,1047,-1,1047,1055,1041,-1,1047,1041,1045,-1,1045,1041,1043,-1,1056,1054,1052,-1,1052,1050,1056,-1,1056,1050,1048,-1,1056,1048,1058,-1,1037,1038,1040,-1,1040,1038,1058,-1,1040,1058,1042,-1,1042,1058,1048,-1,1042,1048,1044,-1,1044,1048,1046,-1,1059,1060,1061,-1,1061,1060,1062,-1,1061,1062,1063,-1,1063,1062,1064,-1,1063,1064,1065,-1,1065,1064,1066,-1,1065,1066,1067,-1,1067,1066,1068,-1,1067,1068,1069,-1,1069,1068,1070,-1,1069,1070,1071,-1,1071,1070,1072,-1,1071,1072,1073,-1,1073,1072,1074,-1,1073,1074,1075,-1,1076,1077,1078,-1,1078,1077,1079,-1,1078,1079,1080,-1,1080,1079,1081,-1,1080,1081,1082,-1,1082,1081,1083,-1,1082,1083,1084,-1,1074,1085,1075,-1,1075,1085,1086,-1,1075,1086,1087,-1,1087,1086,1088,-1,1087,1088,1089,-1,1089,1088,1090,-1,1089,1090,1091,-1,1091,1090,1092,-1,1091,1092,1093,-1,1093,1092,1094,-1,1093,1094,1095,-1,1095,1094,1096,-1,1095,1096,1076,-1,1076,1096,1097,-1,1076,1097,1077,-1,1083,1098,1084,-1,1084,1098,1099,-1,1084,1099,1100,-1,1100,1099,1101,-1,1100,1101,1102,-1,1102,1101,1103,-1,1102,1103,1104,-1,1104,1103,1105,-1,1104,1105,1106,-1,1106,1105,1107,-1,1106,1107,1108,-1,1108,1107,1109,-1,1108,1109,1110,-1,1110,1109,1111,-1,1110,1111,1112,-1,1112,1111,1113,-1,1112,1113,1114,-1,1114,1113,1115,-1,1114,1115,1116,-1,1116,1115,1117,-1,1116,1117,1118,-1,1118,1117,1119,-1,1118,1119,1120,-1,1120,1119,1121,-1,1120,1121,1122,-1,1122,1121,1123,-1,1122,1123,1124,-1,1124,1123,1125,-1,1124,1125,1126,-1,1126,1125,1127,-1,1126,1127,1128,-1,1128,1127,1129,-1,1128,1129,1130,-1,1130,1129,1131,-1,1130,1131,1059,-1,1059,1131,1132,-1,1059,1132,1060,-1,1133,1134,1135,-1,1135,1134,1136,-1,1135,1136,1137,-1,1137,1136,1138,-1,1137,1138,1139,-1,1139,1138,1140,-1,1139,1140,1141,-1,1141,1140,1142,-1,1141,1142,1143,-1,1143,1142,1144,-1,1143,1144,1145,-1,1146,1147,1148,-1,1148,1147,1149,-1,1148,1149,1150,-1,1150,1149,1151,-1,1150,1151,1152,-1,1152,1151,1153,-1,1152,1153,1154,-1,1154,1153,1155,-1,1154,1155,1156,-1,1156,1155,1157,-1,1156,1157,1158,-1,1158,1157,1159,-1,1158,1159,1160,-1,1160,1159,1161,-1,1160,1161,1162,-1,1162,1161,1163,-1,1162,1163,1164,-1,1164,1163,1165,-1,1164,1165,1166,-1,1166,1165,1167,-1,1166,1167,1168,-1,1168,1167,1169,-1,1168,1169,1170,-1,1170,1169,1171,-1,1170,1171,1172,-1,1172,1171,1173,-1,1172,1173,1174,-1,1174,1173,1175,-1,1174,1175,1133,-1,1133,1175,1176,-1,1133,1176,1134,-1,1177,1178,1179,-1,1179,1178,1180,-1,1179,1180,1181,-1,1181,1180,1182,-1,1181,1182,1183,-1,1183,1182,1184,-1,1183,1184,1185,-1,1185,1184,1186,-1,1185,1186,1187,-1,1187,1186,1188,-1,1187,1188,1189,-1,1189,1188,1190,-1,1189,1190,1191,-1,1191,1190,1192,-1,1191,1192,1146,-1,1146,1192,1193,-1,1146,1193,1147,-1,1144,1194,1145,-1,1145,1194,1195,-1,1145,1195,1196,-1,1196,1195,1197,-1,1196,1197,1198,-1,1198,1197,1199,-1,1198,1199,1200,-1,1200,1199,1201,-1,1200,1201,1202,-1,1202,1201,1203,-1,1202,1203,1204,-1,1204,1203,1205,-1,1204,1205,1177,-1,1177,1205,1206,-1,1177,1206,1178,-1,1125,1123,1157,-1,1157,1123,1159,-1,1125,1157,1155,-1,1125,1155,1127,-1,1127,1155,1153,-1,1127,1153,1129,-1,1129,1153,1151,-1,1129,1151,1131,-1,1131,1151,1149,-1,1131,1149,1132,-1,1132,1149,1147,-1,1132,1147,1060,-1,1060,1147,1193,-1,1060,1193,1062,-1,1062,1193,1192,-1,1062,1192,1064,-1,1064,1192,1190,-1,1064,1190,1066,-1,1066,1190,1188,-1,1066,1188,1068,-1,1068,1188,1186,-1,1068,1186,1070,-1,1070,1186,1184,-1,1070,1184,1072,-1,1072,1184,1182,-1,1072,1182,1074,-1,1074,1182,1180,-1,1074,1180,1085,-1,1085,1180,1178,-1,1085,1178,1086,-1,1086,1178,1206,-1,1086,1206,1088,-1,1088,1206,1205,-1,1088,1205,1090,-1,1090,1205,1203,-1,1090,1203,1092,-1,1092,1203,1201,-1,1092,1201,1094,-1,1094,1201,1199,-1,1094,1199,1096,-1,1096,1199,1197,-1,1096,1197,1097,-1,1097,1197,1195,-1,1097,1195,1077,-1,1077,1195,1194,-1,1077,1194,1079,-1,1079,1194,1144,-1,1079,1144,1081,-1,1081,1144,1142,-1,1081,1142,1083,-1,1083,1142,1140,-1,1083,1140,1098,-1,1098,1140,1138,-1,1098,1138,1099,-1,1099,1138,1136,-1,1099,1136,1101,-1,1101,1136,1134,-1,1101,1134,1103,-1,1103,1134,1176,-1,1103,1176,1105,-1,1105,1176,1175,-1,1105,1175,1107,-1,1107,1175,1173,-1,1107,1173,1109,-1,1109,1173,1171,-1,1109,1171,1111,-1,1111,1171,1169,-1,1111,1169,1113,-1,1113,1169,1167,-1,1113,1167,1115,-1,1115,1167,1165,-1,1115,1165,1117,-1,1117,1165,1163,-1,1117,1163,1119,-1,1121,1119,1161,-1,1161,1119,1163,-1,1123,1121,1159,-1,1159,1121,1161,-1,1118,1120,1162,-1,1162,1120,1160,-1,1120,1122,1160,-1,1160,1122,1158,-1,1122,1124,1158,-1,1158,1124,1156,-1,1067,1187,1189,-1,1067,1189,1065,-1,1065,1189,1191,-1,1065,1191,1063,-1,1063,1191,1146,-1,1063,1146,1061,-1,1061,1146,1148,-1,1061,1148,1059,-1,1059,1148,1150,-1,1059,1150,1130,-1,1130,1150,1152,-1,1130,1152,1128,-1,1128,1152,1154,-1,1128,1154,1126,-1,1126,1154,1156,-1,1126,1156,1124,-1,1093,1200,1202,-1,1093,1202,1091,-1,1091,1202,1204,-1,1091,1204,1089,-1,1089,1204,1177,-1,1089,1177,1087,-1,1087,1177,1179,-1,1087,1179,1075,-1,1075,1179,1181,-1,1075,1181,1073,-1,1073,1181,1183,-1,1073,1183,1071,-1,1071,1183,1185,-1,1071,1185,1069,-1,1069,1185,1187,-1,1069,1187,1067,-1,1102,1135,1137,-1,1102,1137,1100,-1,1100,1137,1139,-1,1100,1139,1084,-1,1084,1139,1141,-1,1084,1141,1082,-1,1082,1141,1143,-1,1082,1143,1080,-1,1080,1143,1145,-1,1080,1145,1078,-1,1078,1145,1196,-1,1078,1196,1076,-1,1076,1196,1198,-1,1076,1198,1095,-1,1095,1198,1200,-1,1095,1200,1093,-1,1118,1162,1164,-1,1118,1164,1116,-1,1116,1164,1166,-1,1116,1166,1114,-1,1114,1166,1168,-1,1114,1168,1112,-1,1112,1168,1170,-1,1112,1170,1110,-1,1110,1170,1172,-1,1110,1172,1108,-1,1108,1172,1174,-1,1108,1174,1106,-1,1106,1174,1133,-1,1106,1133,1104,-1,1104,1133,1135,-1,1104,1135,1102,-1,1207,1208,1209,-1,1209,1208,1210,-1,1211,1212,1207,-1,1207,1212,1213,-1,1207,1213,1208,-1,1208,1213,1214,-1,1211,1215,1212,-1,1212,1215,1216,-1,1212,1216,1217,-1,1217,1216,1218,-1,1217,1218,1219,-1,1219,1220,1217,-1,1217,1220,1209,-1,1217,1209,1221,-1,1221,1209,1210,-1,1221,1210,1222,-1,1223,1224,1225,-1,1225,1224,1226,-1,1227,1228,1226,-1,1226,1228,1229,-1,1226,1229,1225,-1,1225,1229,1230,-1,1227,1231,1228,-1,1228,1231,1232,-1,1228,1232,1233,-1,1233,1232,1234,-1,1233,1234,1235,-1,1235,1236,1233,-1,1233,1236,1224,-1,1233,1224,1237,-1,1237,1224,1223,-1,1237,1223,1238,-1,1217,1221,1228,-1,1228,1221,1229,-1,1212,1217,1233,-1,1233,1217,1228,-1,1213,1212,1237,-1,1237,1212,1233,-1,1214,1213,1238,-1,1238,1213,1237,-1,1208,1214,1223,-1,1223,1214,1238,-1,1210,1208,1225,-1,1225,1208,1223,-1,1222,1210,1230,-1,1230,1210,1225,-1,1221,1222,1229,-1,1229,1222,1230,-1,1207,1209,1224,-1,1224,1209,1226,-1,1209,1220,1226,-1,1226,1220,1227,-1,1218,1232,1231,-1,1218,1231,1219,-1,1219,1231,1227,-1,1219,1227,1220,-1,1218,1216,1232,-1,1232,1216,1234,-1,1211,1236,1235,-1,1211,1235,1215,-1,1215,1235,1234,-1,1215,1234,1216,-1,1211,1207,1236,-1,1236,1207,1224,-1,1239,1240,1241,-1,1242,1243,1244,-1,1245,1246,1247,-1,1248,1249,1250,-1,1250,1249,1251,-1,1252,1253,1254,-1,1255,1256,1257,-1,1257,1256,1258,-1,1257,1258,1259,-1,1260,1261,1262,-1,1262,1261,1241,-1,1262,1241,1263,-1,1264,1265,1266,-1,1267,1268,1241,-1,1241,1268,1269,-1,1241,1269,1239,-1,1270,1271,1248,-1,1248,1271,1272,-1,1248,1272,1249,-1,1273,1274,1275,-1,1275,1274,1245,-1,1276,1277,1278,-1,1279,1280,1281,-1,1245,1247,1275,-1,1275,1247,1282,-1,1275,1282,1248,-1,1248,1282,1283,-1,1248,1283,1270,-1,1284,1285,1251,-1,1251,1285,1286,-1,1251,1286,1250,-1,1287,1240,1288,-1,1288,1240,1289,-1,1288,1289,1290,-1,1291,1292,1293,-1,1293,1292,1294,-1,1293,1294,1260,-1,1260,1294,1295,-1,1260,1295,1261,-1,1278,1296,1276,-1,1276,1296,1297,-1,1276,1297,1291,-1,1291,1297,1298,-1,1291,1298,1292,-1,1266,1265,1299,-1,1299,1265,1300,-1,1299,1300,1301,-1,1301,1300,1302,-1,1301,1302,1303,-1,1254,1253,1304,-1,1304,1253,1305,-1,1304,1305,1306,-1,1307,1308,1241,-1,1241,1308,1309,-1,1241,1309,1267,-1,1279,1281,1310,-1,1310,1281,1311,-1,1310,1311,1312,-1,1312,1311,1313,-1,1312,1313,1314,-1,1246,1245,1276,-1,1276,1245,1315,-1,1276,1315,1316,-1,1316,1317,1276,-1,1276,1317,1318,-1,1276,1318,1277,-1,1319,1320,1321,-1,1321,1320,1322,-1,1321,1322,1323,-1,1323,1322,1324,-1,1323,1324,1325,-1,1325,1324,1326,-1,1325,1326,1327,-1,1328,1329,1330,-1,1330,1329,1331,-1,1330,1331,1307,-1,1307,1331,1332,-1,1307,1332,1308,-1,1280,1279,1333,-1,1333,1279,1334,-1,1333,1334,1335,-1,1335,1334,1336,-1,1335,1336,1337,-1,1337,1336,1338,-1,1337,1338,1244,-1,1244,1338,1339,-1,1244,1339,1242,-1,1287,1340,1240,-1,1240,1340,1341,-1,1240,1341,1241,-1,1241,1341,1342,-1,1241,1342,1263,-1,1266,1343,1264,-1,1264,1343,1344,-1,1264,1344,1345,-1,1345,1344,1346,-1,1345,1346,1347,-1,1347,1346,1348,-1,1347,1348,1349,-1,1349,1348,1350,-1,1349,1350,1351,-1,1254,1352,1252,-1,1252,1352,1353,-1,1252,1353,1354,-1,1354,1353,1355,-1,1354,1355,1356,-1,1356,1355,1357,-1,1356,1357,1358,-1,1358,1357,1244,-1,1358,1244,1359,-1,1359,1244,1243,-1,1257,1360,1255,-1,1255,1360,1361,-1,1255,1361,1362,-1,1362,1361,1363,-1,1362,1363,1364,-1,1365,1366,1367,-1,1367,1366,1368,-1,1367,1368,1369,-1,1369,1368,1370,-1,1369,1370,1328,-1,1328,1370,1371,-1,1328,1371,1329,-1,1372,1373,1374,-1,1374,1373,1375,-1,1374,1375,1284,-1,1284,1375,1376,-1,1284,1376,1285,-1,1289,1377,1290,-1,1290,1377,1378,-1,1290,1378,1379,-1,1379,1378,1380,-1,1379,1380,1381,-1,1382,1383,1384,-1,1384,1383,1385,-1,1384,1385,1386,-1,1386,1385,1387,-1,1386,1387,1319,-1,1319,1387,1388,-1,1319,1388,1320,-1,1350,1389,1351,-1,1351,1389,1390,-1,1351,1390,1391,-1,1391,1390,1392,-1,1391,1392,1382,-1,1382,1392,1393,-1,1382,1393,1383,-1,1380,1394,1381,-1,1381,1394,1395,-1,1381,1395,1372,-1,1372,1395,1396,-1,1372,1396,1373,-1,1397,1398,1399,-1,1400,1401,1402,-1,1402,1401,1403,-1,1404,1405,1406,-1,1406,1405,1407,-1,1406,1407,1408,-1,1408,1407,1409,-1,1408,1409,1410,-1,1410,1409,1411,-1,1410,1411,1412,-1,1412,1411,1413,-1,1412,1413,1365,-1,1365,1413,1414,-1,1365,1414,1366,-1,1259,1415,1257,-1,1257,1415,1416,-1,1257,1416,1417,-1,1417,1416,1418,-1,1417,1418,1419,-1,1419,1418,1327,-1,1419,1327,1420,-1,1420,1327,1326,-1,1421,1422,1397,-1,1397,1422,1423,-1,1397,1423,1398,-1,1302,1424,1303,-1,1303,1424,1397,-1,1303,1397,1425,-1,1425,1397,1399,-1,1306,1305,1426,-1,1426,1305,1427,-1,1426,1427,1400,-1,1400,1427,1428,-1,1400,1428,1401,-1,1429,1430,1431,-1,1430,1432,1431,-1,1431,1432,1433,-1,1431,1433,1434,-1,1313,1435,1314,-1,1314,1435,1436,-1,1314,1436,1437,-1,1437,1436,1438,-1,1437,1438,1404,-1,1404,1438,1439,-1,1404,1439,1405,-1,1421,1397,1431,-1,1431,1397,1440,-1,1431,1440,1429,-1,1363,1441,1364,-1,1364,1441,1442,-1,1364,1442,1443,-1,1443,1442,1444,-1,1443,1444,1445,-1,1445,1444,1446,-1,1445,1446,1447,-1,1447,1446,1448,-1,1447,1448,1449,-1,1449,1448,1450,-1,1449,1450,1403,-1,1403,1450,1451,-1,1403,1451,1402,-1,1452,1453,1454,-1,1454,1453,1455,-1,1454,1455,1456,-1,1457,1458,1459,-1,1460,1461,1462,-1,1462,1461,1463,-1,1462,1463,1464,-1,1455,1465,1456,-1,1456,1465,1466,-1,1456,1466,1467,-1,1467,1466,1468,-1,1469,1470,1462,-1,1462,1470,1457,-1,1462,1457,1460,-1,1471,1472,1473,-1,1474,1475,1476,-1,1476,1475,1477,-1,1476,1477,1478,-1,1479,1480,1481,-1,1482,1483,1456,-1,1456,1483,1484,-1,1456,1484,1454,-1,1454,1484,1485,-1,1486,1487,1488,-1,1488,1487,1489,-1,1490,1491,1492,-1,1492,1491,1493,-1,1492,1493,1494,-1,1494,1493,1495,-1,1494,1495,1496,-1,1462,1497,1469,-1,1469,1497,1498,-1,1469,1498,1499,-1,1499,1498,1500,-1,1499,1500,1501,-1,1501,1500,1502,-1,1501,1502,1503,-1,1459,1504,1457,-1,1457,1504,1505,-1,1457,1505,1460,-1,1506,1507,1508,-1,1508,1507,1509,-1,1508,1509,1510,-1,1510,1509,1511,-1,1510,1511,1512,-1,1473,1472,1513,-1,1513,1472,1514,-1,1513,1514,1515,-1,1516,1517,1511,-1,1518,1519,1466,-1,1466,1519,1520,-1,1466,1520,1468,-1,1489,1521,1488,-1,1488,1521,1522,-1,1488,1522,1523,-1,1523,1522,1496,-1,1523,1496,1524,-1,1524,1496,1495,-1,1515,1514,1525,-1,1525,1514,1526,-1,1525,1526,1488,-1,1488,1526,1527,-1,1488,1527,1486,-1,1528,1529,1530,-1,1530,1529,1531,-1,1530,1531,1532,-1,1532,1531,1533,-1,1532,1533,1534,-1,1534,1533,1535,-1,1534,1535,1536,-1,1537,1538,1539,-1,1539,1538,1540,-1,1539,1540,1541,-1,1541,1540,1542,-1,1541,1542,1543,-1,1517,1544,1511,-1,1511,1544,1545,-1,1511,1545,1512,-1,1477,1546,1478,-1,1478,1546,1547,-1,1478,1547,1548,-1,1548,1547,1549,-1,1548,1549,1463,-1,1463,1549,1550,-1,1463,1550,1464,-1,1481,1480,1551,-1,1551,1480,1552,-1,1551,1552,1456,-1,1456,1552,1553,-1,1456,1553,1482,-1,1554,1555,1556,-1,1556,1555,1557,-1,1556,1557,1558,-1,1481,1559,1479,-1,1479,1559,1560,-1,1479,1560,1561,-1,1561,1560,1562,-1,1561,1562,1474,-1,1474,1562,1563,-1,1474,1563,1475,-1,1557,1564,1558,-1,1558,1564,1565,-1,1558,1565,1566,-1,1566,1565,1567,-1,1566,1567,1568,-1,1568,1567,1454,-1,1568,1454,1569,-1,1569,1454,1485,-1,1554,1570,1571,-1,1572,1573,1574,-1,1574,1573,1575,-1,1574,1575,1576,-1,1502,1577,1503,-1,1503,1577,1578,-1,1503,1578,1579,-1,1579,1578,1580,-1,1579,1580,1581,-1,1581,1580,1582,-1,1581,1582,1583,-1,1583,1582,1584,-1,1583,1584,1585,-1,1585,1584,1586,-1,1585,1586,1572,-1,1572,1586,1587,-1,1572,1587,1573,-1,1588,1589,1590,-1,1590,1589,1591,-1,1542,1592,1543,-1,1543,1592,1593,-1,1543,1593,1594,-1,1594,1593,1595,-1,1594,1595,1528,-1,1528,1595,1596,-1,1528,1596,1529,-1,1511,1597,1516,-1,1516,1597,1598,-1,1516,1598,1599,-1,1599,1598,1600,-1,1599,1600,1601,-1,1601,1600,1602,-1,1601,1602,1603,-1,1603,1602,1604,-1,1603,1604,1537,-1,1537,1604,1605,-1,1537,1605,1538,-1,1606,1607,1554,-1,1554,1607,1608,-1,1554,1608,1570,-1,1571,1609,1554,-1,1554,1609,1610,-1,1554,1610,1555,-1,1575,1611,1576,-1,1576,1611,1612,-1,1576,1612,1613,-1,1613,1612,1614,-1,1613,1614,1615,-1,1615,1614,1616,-1,1615,1616,1490,-1,1490,1616,1617,-1,1490,1617,1491,-1,1535,1618,1536,-1,1536,1618,1619,-1,1536,1619,1620,-1,1620,1619,1621,-1,1620,1621,1622,-1,1622,1621,1623,-1,1622,1623,1624,-1,1624,1623,1625,-1,1624,1625,1626,-1,1626,1625,1627,-1,1626,1627,1628,-1,1628,1627,1629,-1,1628,1629,1590,-1,1590,1629,1630,-1,1590,1630,1588,-1,1591,1631,1590,-1,1590,1631,1632,-1,1590,1632,1633,-1,1458,1457,1554,-1,1554,1457,1634,-1,1554,1634,1606,-1,1635,1636,1633,-1,1633,1636,1637,-1,1633,1637,1638,-1,1639,1640,1641,-1,1641,1640,1642,-1,1641,1642,1506,-1,1506,1642,1643,-1,1506,1643,1507,-1,1473,1644,1471,-1,1471,1644,1645,-1,1471,1645,1646,-1,1646,1645,1647,-1,1646,1647,1648,-1,1648,1647,1649,-1,1648,1649,1650,-1,1650,1649,1651,-1,1650,1651,1652,-1,1652,1651,1653,-1,1652,1653,1654,-1,1654,1653,1655,-1,1654,1655,1656,-1,1656,1655,1657,-1,1656,1657,1658,-1,1658,1657,1659,-1,1658,1659,1660,-1,1660,1659,1661,-1,1660,1661,1639,-1,1639,1661,1662,-1,1639,1662,1640,-1,1638,1663,1633,-1,1633,1663,1664,-1,1633,1664,1590,-1,1385,1592,1542,-1,1385,1542,1387,-1,1387,1542,1540,-1,1387,1540,1388,-1,1388,1540,1538,-1,1388,1538,1320,-1,1320,1538,1605,-1,1320,1605,1322,-1,1322,1605,1604,-1,1322,1604,1324,-1,1324,1604,1602,-1,1324,1602,1326,-1,1326,1602,1600,-1,1326,1600,1420,-1,1420,1600,1598,-1,1420,1598,1419,-1,1419,1598,1597,-1,1419,1597,1417,-1,1417,1597,1511,-1,1417,1511,1257,-1,1257,1511,1509,-1,1257,1509,1360,-1,1360,1509,1507,-1,1360,1507,1361,-1,1361,1507,1643,-1,1361,1643,1363,-1,1363,1643,1642,-1,1363,1642,1441,-1,1441,1642,1640,-1,1441,1640,1442,-1,1442,1640,1662,-1,1442,1662,1444,-1,1444,1662,1661,-1,1444,1661,1446,-1,1446,1661,1659,-1,1446,1659,1448,-1,1448,1659,1657,-1,1448,1657,1450,-1,1450,1657,1655,-1,1450,1655,1451,-1,1451,1655,1653,-1,1451,1653,1402,-1,1402,1653,1651,-1,1402,1651,1400,-1,1400,1651,1649,-1,1400,1649,1426,-1,1426,1649,1647,-1,1426,1647,1306,-1,1306,1647,1645,-1,1306,1645,1304,-1,1304,1645,1644,-1,1304,1644,1254,-1,1254,1644,1473,-1,1254,1473,1352,-1,1352,1473,1513,-1,1352,1513,1353,-1,1353,1513,1515,-1,1353,1515,1355,-1,1355,1515,1525,-1,1355,1525,1357,-1,1357,1525,1488,-1,1357,1488,1244,-1,1244,1488,1523,-1,1244,1523,1337,-1,1337,1523,1524,-1,1337,1524,1335,-1,1335,1524,1495,-1,1335,1495,1333,-1,1333,1495,1493,-1,1333,1493,1280,-1,1280,1493,1491,-1,1280,1491,1281,-1,1281,1491,1617,-1,1281,1617,1311,-1,1311,1617,1616,-1,1311,1616,1313,-1,1313,1616,1614,-1,1313,1614,1435,-1,1435,1614,1612,-1,1435,1612,1436,-1,1436,1612,1611,-1,1436,1611,1438,-1,1438,1611,1575,-1,1438,1575,1439,-1,1439,1575,1573,-1,1439,1573,1405,-1,1405,1573,1587,-1,1405,1587,1407,-1,1407,1587,1586,-1,1407,1586,1409,-1,1409,1586,1584,-1,1409,1584,1411,-1,1411,1584,1582,-1,1411,1582,1413,-1,1413,1582,1580,-1,1413,1580,1414,-1,1414,1580,1578,-1,1414,1578,1366,-1,1366,1578,1577,-1,1366,1577,1368,-1,1368,1577,1502,-1,1368,1502,1370,-1,1370,1502,1500,-1,1370,1500,1371,-1,1371,1500,1498,-1,1371,1498,1329,-1,1329,1498,1497,-1,1329,1497,1331,-1,1331,1497,1462,-1,1331,1462,1332,-1,1332,1462,1464,-1,1332,1464,1308,-1,1308,1464,1550,-1,1308,1550,1309,-1,1309,1550,1549,-1,1309,1549,1267,-1,1267,1549,1547,-1,1267,1547,1268,-1,1268,1547,1546,-1,1268,1546,1269,-1,1269,1546,1477,-1,1269,1477,1239,-1,1239,1477,1475,-1,1239,1475,1240,-1,1240,1475,1563,-1,1240,1563,1289,-1,1289,1563,1562,-1,1289,1562,1377,-1,1377,1562,1560,-1,1377,1560,1378,-1,1378,1560,1559,-1,1378,1559,1380,-1,1380,1559,1481,-1,1380,1481,1394,-1,1394,1481,1551,-1,1394,1551,1395,-1,1395,1551,1456,-1,1395,1456,1396,-1,1396,1456,1467,-1,1396,1467,1373,-1,1373,1467,1468,-1,1373,1468,1375,-1,1375,1468,1520,-1,1375,1520,1376,-1,1376,1520,1519,-1,1376,1519,1285,-1,1285,1519,1518,-1,1285,1518,1286,-1,1286,1518,1466,-1,1286,1466,1250,-1,1250,1466,1465,-1,1250,1465,1248,-1,1275,1248,1455,-1,1455,1248,1465,-1,1273,1275,1453,-1,1453,1275,1455,-1,1274,1273,1452,-1,1452,1273,1453,-1,1245,1274,1454,-1,1454,1274,1452,-1,1245,1454,1567,-1,1245,1567,1315,-1,1315,1567,1565,-1,1315,1565,1316,-1,1316,1565,1564,-1,1316,1564,1317,-1,1317,1564,1557,-1,1317,1557,1318,-1,1318,1557,1555,-1,1318,1555,1277,-1,1277,1555,1610,-1,1277,1610,1278,-1,1278,1610,1609,-1,1278,1609,1296,-1,1296,1609,1571,-1,1296,1571,1297,-1,1297,1571,1570,-1,1297,1570,1298,-1,1298,1570,1608,-1,1298,1608,1292,-1,1292,1608,1607,-1,1292,1607,1294,-1,1294,1607,1606,-1,1294,1606,1295,-1,1295,1606,1634,-1,1295,1634,1261,-1,1261,1634,1457,-1,1261,1457,1241,-1,1241,1457,1470,-1,1241,1470,1307,-1,1307,1470,1469,-1,1307,1469,1330,-1,1330,1469,1499,-1,1330,1499,1328,-1,1328,1499,1501,-1,1328,1501,1369,-1,1369,1501,1503,-1,1369,1503,1367,-1,1367,1503,1579,-1,1367,1579,1365,-1,1365,1579,1581,-1,1365,1581,1412,-1,1412,1581,1583,-1,1412,1583,1410,-1,1410,1583,1585,-1,1410,1585,1408,-1,1408,1585,1572,-1,1408,1572,1406,-1,1406,1572,1574,-1,1406,1574,1404,-1,1404,1574,1576,-1,1404,1576,1437,-1,1437,1576,1613,-1,1437,1613,1314,-1,1314,1613,1615,-1,1314,1615,1312,-1,1312,1615,1490,-1,1312,1490,1310,-1,1310,1490,1492,-1,1310,1492,1279,-1,1279,1492,1494,-1,1279,1494,1334,-1,1334,1494,1496,-1,1334,1496,1336,-1,1336,1496,1522,-1,1336,1522,1338,-1,1338,1522,1521,-1,1338,1521,1339,-1,1339,1521,1489,-1,1339,1489,1242,-1,1242,1489,1487,-1,1242,1487,1243,-1,1243,1487,1486,-1,1243,1486,1359,-1,1359,1486,1527,-1,1359,1527,1358,-1,1358,1527,1526,-1,1358,1526,1356,-1,1356,1526,1514,-1,1356,1514,1354,-1,1354,1514,1472,-1,1354,1472,1252,-1,1252,1472,1471,-1,1252,1471,1253,-1,1253,1471,1646,-1,1253,1646,1305,-1,1305,1646,1648,-1,1305,1648,1427,-1,1427,1648,1650,-1,1427,1650,1428,-1,1428,1650,1652,-1,1428,1652,1401,-1,1401,1652,1654,-1,1401,1654,1403,-1,1403,1654,1656,-1,1403,1656,1449,-1,1449,1656,1658,-1,1449,1658,1447,-1,1447,1658,1660,-1,1447,1660,1445,-1,1445,1660,1639,-1,1445,1639,1443,-1,1443,1639,1641,-1,1443,1641,1364,-1,1364,1641,1506,-1,1364,1506,1362,-1,1362,1506,1508,-1,1362,1508,1255,-1,1255,1508,1510,-1,1255,1510,1256,-1,1256,1510,1512,-1,1256,1512,1258,-1,1258,1512,1545,-1,1258,1545,1259,-1,1415,1259,1544,-1,1544,1259,1545,-1,1415,1544,1517,-1,1415,1517,1416,-1,1416,1517,1516,-1,1416,1516,1418,-1,1418,1516,1599,-1,1418,1599,1327,-1,1327,1599,1601,-1,1327,1601,1325,-1,1325,1601,1603,-1,1325,1603,1323,-1,1323,1603,1537,-1,1323,1537,1321,-1,1321,1537,1539,-1,1321,1539,1319,-1,1319,1539,1541,-1,1319,1541,1386,-1,1386,1541,1543,-1,1386,1543,1384,-1,1384,1543,1594,-1,1384,1594,1382,-1,1382,1594,1528,-1,1382,1528,1391,-1,1391,1528,1530,-1,1391,1530,1351,-1,1351,1530,1532,-1,1351,1532,1349,-1,1349,1532,1534,-1,1349,1534,1347,-1,1347,1534,1536,-1,1347,1536,1345,-1,1345,1536,1620,-1,1345,1620,1264,-1,1264,1620,1622,-1,1264,1622,1265,-1,1265,1622,1624,-1,1265,1624,1300,-1,1302,1300,1626,-1,1626,1300,1624,-1,1302,1626,1628,-1,1302,1628,1424,-1,1424,1628,1590,-1,1424,1590,1397,-1,1397,1590,1664,-1,1397,1664,1440,-1,1440,1664,1663,-1,1440,1663,1429,-1,1429,1663,1638,-1,1429,1638,1430,-1,1430,1638,1637,-1,1430,1637,1432,-1,1432,1637,1636,-1,1432,1636,1433,-1,1433,1636,1635,-1,1433,1635,1434,-1,1434,1635,1633,-1,1434,1633,1431,-1,1431,1633,1632,-1,1431,1632,1421,-1,1421,1632,1631,-1,1421,1631,1422,-1,1422,1631,1591,-1,1422,1591,1423,-1,1423,1591,1589,-1,1423,1589,1398,-1,1398,1589,1588,-1,1398,1588,1399,-1,1399,1588,1630,-1,1399,1630,1425,-1,1425,1630,1629,-1,1425,1629,1303,-1,1303,1629,1627,-1,1303,1627,1301,-1,1299,1301,1625,-1,1625,1301,1627,-1,1299,1625,1623,-1,1299,1623,1266,-1,1266,1623,1621,-1,1266,1621,1343,-1,1343,1621,1619,-1,1343,1619,1344,-1,1344,1619,1618,-1,1344,1618,1346,-1,1346,1618,1535,-1,1346,1535,1348,-1,1348,1535,1533,-1,1348,1533,1350,-1,1350,1533,1531,-1,1350,1531,1389,-1,1389,1531,1529,-1,1389,1529,1390,-1,1390,1529,1596,-1,1390,1596,1392,-1,1392,1596,1595,-1,1392,1595,1393,-1,1393,1595,1593,-1,1393,1593,1383,-1,1383,1593,1592,-1,1383,1592,1385,-1,1246,1554,1556,-1,1246,1556,1247,-1,1247,1556,1558,-1,1247,1558,1282,-1,1282,1558,1566,-1,1282,1566,1283,-1,1283,1566,1568,-1,1283,1568,1270,-1,1270,1568,1569,-1,1270,1569,1271,-1,1271,1569,1485,-1,1271,1485,1272,-1,1272,1485,1484,-1,1272,1484,1249,-1,1249,1484,1483,-1,1249,1483,1251,-1,1251,1483,1482,-1,1251,1482,1284,-1,1284,1482,1553,-1,1284,1553,1374,-1,1374,1553,1552,-1,1374,1552,1372,-1,1372,1552,1480,-1,1372,1480,1381,-1,1381,1480,1479,-1,1381,1479,1379,-1,1379,1479,1561,-1,1379,1561,1290,-1,1290,1561,1474,-1,1290,1474,1288,-1,1288,1474,1476,-1,1288,1476,1287,-1,1287,1476,1478,-1,1287,1478,1340,-1,1340,1478,1548,-1,1340,1548,1341,-1,1341,1548,1463,-1,1341,1463,1342,-1,1342,1463,1461,-1,1342,1461,1263,-1,1263,1461,1460,-1,1263,1460,1262,-1,1262,1460,1505,-1,1262,1505,1260,-1,1260,1505,1504,-1,1260,1504,1293,-1,1293,1504,1459,-1,1293,1459,1291,-1,1291,1459,1458,-1,1291,1458,1276,-1,1276,1458,1554,-1,1276,1554,1246,-1,
        ]
    }
}